G04 #@! TF.GenerationSoftware,KiCad,Pcbnew,5.1.5+dfsg1-2build2*
G04 #@! TF.CreationDate,2023-02-26T20:32:14+01:00*
G04 #@! TF.ProjectId,EcoApi_BeeHiveSensor,45636f41-7069-45f4-9265-654869766553,rev?*
G04 #@! TF.SameCoordinates,Original*
G04 #@! TF.FileFunction,Paste,Bot*
G04 #@! TF.FilePolarity,Positive*
%FSLAX46Y46*%
G04 Gerber Fmt 4.6, Leading zero omitted, Abs format (unit mm)*
G04 Created by KiCad (PCBNEW 5.1.5+dfsg1-2build2) date 2023-02-26 20:32:14*
%MOMM*%
%LPD*%
G04 APERTURE LIST*
%ADD10C,0.100000*%
G04 APERTURE END LIST*
D10*
G36*
X175102691Y-91886053D02*
G01*
X175123926Y-91889203D01*
X175144750Y-91894419D01*
X175164962Y-91901651D01*
X175184368Y-91910830D01*
X175202781Y-91921866D01*
X175220024Y-91934654D01*
X175235930Y-91949070D01*
X175250346Y-91964976D01*
X175263134Y-91982219D01*
X175274170Y-92000632D01*
X175283349Y-92020038D01*
X175290581Y-92040250D01*
X175295797Y-92061074D01*
X175298947Y-92082309D01*
X175300000Y-92103750D01*
X175300000Y-92616250D01*
X175298947Y-92637691D01*
X175295797Y-92658926D01*
X175290581Y-92679750D01*
X175283349Y-92699962D01*
X175274170Y-92719368D01*
X175263134Y-92737781D01*
X175250346Y-92755024D01*
X175235930Y-92770930D01*
X175220024Y-92785346D01*
X175202781Y-92798134D01*
X175184368Y-92809170D01*
X175164962Y-92818349D01*
X175144750Y-92825581D01*
X175123926Y-92830797D01*
X175102691Y-92833947D01*
X175081250Y-92835000D01*
X174643750Y-92835000D01*
X174622309Y-92833947D01*
X174601074Y-92830797D01*
X174580250Y-92825581D01*
X174560038Y-92818349D01*
X174540632Y-92809170D01*
X174522219Y-92798134D01*
X174504976Y-92785346D01*
X174489070Y-92770930D01*
X174474654Y-92755024D01*
X174461866Y-92737781D01*
X174450830Y-92719368D01*
X174441651Y-92699962D01*
X174434419Y-92679750D01*
X174429203Y-92658926D01*
X174426053Y-92637691D01*
X174425000Y-92616250D01*
X174425000Y-92103750D01*
X174426053Y-92082309D01*
X174429203Y-92061074D01*
X174434419Y-92040250D01*
X174441651Y-92020038D01*
X174450830Y-92000632D01*
X174461866Y-91982219D01*
X174474654Y-91964976D01*
X174489070Y-91949070D01*
X174504976Y-91934654D01*
X174522219Y-91921866D01*
X174540632Y-91910830D01*
X174560038Y-91901651D01*
X174580250Y-91894419D01*
X174601074Y-91889203D01*
X174622309Y-91886053D01*
X174643750Y-91885000D01*
X175081250Y-91885000D01*
X175102691Y-91886053D01*
G37*
G36*
X176677691Y-91886053D02*
G01*
X176698926Y-91889203D01*
X176719750Y-91894419D01*
X176739962Y-91901651D01*
X176759368Y-91910830D01*
X176777781Y-91921866D01*
X176795024Y-91934654D01*
X176810930Y-91949070D01*
X176825346Y-91964976D01*
X176838134Y-91982219D01*
X176849170Y-92000632D01*
X176858349Y-92020038D01*
X176865581Y-92040250D01*
X176870797Y-92061074D01*
X176873947Y-92082309D01*
X176875000Y-92103750D01*
X176875000Y-92616250D01*
X176873947Y-92637691D01*
X176870797Y-92658926D01*
X176865581Y-92679750D01*
X176858349Y-92699962D01*
X176849170Y-92719368D01*
X176838134Y-92737781D01*
X176825346Y-92755024D01*
X176810930Y-92770930D01*
X176795024Y-92785346D01*
X176777781Y-92798134D01*
X176759368Y-92809170D01*
X176739962Y-92818349D01*
X176719750Y-92825581D01*
X176698926Y-92830797D01*
X176677691Y-92833947D01*
X176656250Y-92835000D01*
X176218750Y-92835000D01*
X176197309Y-92833947D01*
X176176074Y-92830797D01*
X176155250Y-92825581D01*
X176135038Y-92818349D01*
X176115632Y-92809170D01*
X176097219Y-92798134D01*
X176079976Y-92785346D01*
X176064070Y-92770930D01*
X176049654Y-92755024D01*
X176036866Y-92737781D01*
X176025830Y-92719368D01*
X176016651Y-92699962D01*
X176009419Y-92679750D01*
X176004203Y-92658926D01*
X176001053Y-92637691D01*
X176000000Y-92616250D01*
X176000000Y-92103750D01*
X176001053Y-92082309D01*
X176004203Y-92061074D01*
X176009419Y-92040250D01*
X176016651Y-92020038D01*
X176025830Y-92000632D01*
X176036866Y-91982219D01*
X176049654Y-91964976D01*
X176064070Y-91949070D01*
X176079976Y-91934654D01*
X176097219Y-91921866D01*
X176115632Y-91910830D01*
X176135038Y-91901651D01*
X176155250Y-91894419D01*
X176176074Y-91889203D01*
X176197309Y-91886053D01*
X176218750Y-91885000D01*
X176656250Y-91885000D01*
X176677691Y-91886053D01*
G37*
G36*
X175102691Y-89336053D02*
G01*
X175123926Y-89339203D01*
X175144750Y-89344419D01*
X175164962Y-89351651D01*
X175184368Y-89360830D01*
X175202781Y-89371866D01*
X175220024Y-89384654D01*
X175235930Y-89399070D01*
X175250346Y-89414976D01*
X175263134Y-89432219D01*
X175274170Y-89450632D01*
X175283349Y-89470038D01*
X175290581Y-89490250D01*
X175295797Y-89511074D01*
X175298947Y-89532309D01*
X175300000Y-89553750D01*
X175300000Y-90066250D01*
X175298947Y-90087691D01*
X175295797Y-90108926D01*
X175290581Y-90129750D01*
X175283349Y-90149962D01*
X175274170Y-90169368D01*
X175263134Y-90187781D01*
X175250346Y-90205024D01*
X175235930Y-90220930D01*
X175220024Y-90235346D01*
X175202781Y-90248134D01*
X175184368Y-90259170D01*
X175164962Y-90268349D01*
X175144750Y-90275581D01*
X175123926Y-90280797D01*
X175102691Y-90283947D01*
X175081250Y-90285000D01*
X174643750Y-90285000D01*
X174622309Y-90283947D01*
X174601074Y-90280797D01*
X174580250Y-90275581D01*
X174560038Y-90268349D01*
X174540632Y-90259170D01*
X174522219Y-90248134D01*
X174504976Y-90235346D01*
X174489070Y-90220930D01*
X174474654Y-90205024D01*
X174461866Y-90187781D01*
X174450830Y-90169368D01*
X174441651Y-90149962D01*
X174434419Y-90129750D01*
X174429203Y-90108926D01*
X174426053Y-90087691D01*
X174425000Y-90066250D01*
X174425000Y-89553750D01*
X174426053Y-89532309D01*
X174429203Y-89511074D01*
X174434419Y-89490250D01*
X174441651Y-89470038D01*
X174450830Y-89450632D01*
X174461866Y-89432219D01*
X174474654Y-89414976D01*
X174489070Y-89399070D01*
X174504976Y-89384654D01*
X174522219Y-89371866D01*
X174540632Y-89360830D01*
X174560038Y-89351651D01*
X174580250Y-89344419D01*
X174601074Y-89339203D01*
X174622309Y-89336053D01*
X174643750Y-89335000D01*
X175081250Y-89335000D01*
X175102691Y-89336053D01*
G37*
G36*
X176677691Y-89336053D02*
G01*
X176698926Y-89339203D01*
X176719750Y-89344419D01*
X176739962Y-89351651D01*
X176759368Y-89360830D01*
X176777781Y-89371866D01*
X176795024Y-89384654D01*
X176810930Y-89399070D01*
X176825346Y-89414976D01*
X176838134Y-89432219D01*
X176849170Y-89450632D01*
X176858349Y-89470038D01*
X176865581Y-89490250D01*
X176870797Y-89511074D01*
X176873947Y-89532309D01*
X176875000Y-89553750D01*
X176875000Y-90066250D01*
X176873947Y-90087691D01*
X176870797Y-90108926D01*
X176865581Y-90129750D01*
X176858349Y-90149962D01*
X176849170Y-90169368D01*
X176838134Y-90187781D01*
X176825346Y-90205024D01*
X176810930Y-90220930D01*
X176795024Y-90235346D01*
X176777781Y-90248134D01*
X176759368Y-90259170D01*
X176739962Y-90268349D01*
X176719750Y-90275581D01*
X176698926Y-90280797D01*
X176677691Y-90283947D01*
X176656250Y-90285000D01*
X176218750Y-90285000D01*
X176197309Y-90283947D01*
X176176074Y-90280797D01*
X176155250Y-90275581D01*
X176135038Y-90268349D01*
X176115632Y-90259170D01*
X176097219Y-90248134D01*
X176079976Y-90235346D01*
X176064070Y-90220930D01*
X176049654Y-90205024D01*
X176036866Y-90187781D01*
X176025830Y-90169368D01*
X176016651Y-90149962D01*
X176009419Y-90129750D01*
X176004203Y-90108926D01*
X176001053Y-90087691D01*
X176000000Y-90066250D01*
X176000000Y-89553750D01*
X176001053Y-89532309D01*
X176004203Y-89511074D01*
X176009419Y-89490250D01*
X176016651Y-89470038D01*
X176025830Y-89450632D01*
X176036866Y-89432219D01*
X176049654Y-89414976D01*
X176064070Y-89399070D01*
X176079976Y-89384654D01*
X176097219Y-89371866D01*
X176115632Y-89360830D01*
X176135038Y-89351651D01*
X176155250Y-89344419D01*
X176176074Y-89339203D01*
X176197309Y-89336053D01*
X176218750Y-89335000D01*
X176656250Y-89335000D01*
X176677691Y-89336053D01*
G37*
G36*
X162157691Y-84496053D02*
G01*
X162178926Y-84499203D01*
X162199750Y-84504419D01*
X162219962Y-84511651D01*
X162239368Y-84520830D01*
X162257781Y-84531866D01*
X162275024Y-84544654D01*
X162290930Y-84559070D01*
X162305346Y-84574976D01*
X162318134Y-84592219D01*
X162329170Y-84610632D01*
X162338349Y-84630038D01*
X162345581Y-84650250D01*
X162350797Y-84671074D01*
X162353947Y-84692309D01*
X162355000Y-84713750D01*
X162355000Y-85151250D01*
X162353947Y-85172691D01*
X162350797Y-85193926D01*
X162345581Y-85214750D01*
X162338349Y-85234962D01*
X162329170Y-85254368D01*
X162318134Y-85272781D01*
X162305346Y-85290024D01*
X162290930Y-85305930D01*
X162275024Y-85320346D01*
X162257781Y-85333134D01*
X162239368Y-85344170D01*
X162219962Y-85353349D01*
X162199750Y-85360581D01*
X162178926Y-85365797D01*
X162157691Y-85368947D01*
X162136250Y-85370000D01*
X161623750Y-85370000D01*
X161602309Y-85368947D01*
X161581074Y-85365797D01*
X161560250Y-85360581D01*
X161540038Y-85353349D01*
X161520632Y-85344170D01*
X161502219Y-85333134D01*
X161484976Y-85320346D01*
X161469070Y-85305930D01*
X161454654Y-85290024D01*
X161441866Y-85272781D01*
X161430830Y-85254368D01*
X161421651Y-85234962D01*
X161414419Y-85214750D01*
X161409203Y-85193926D01*
X161406053Y-85172691D01*
X161405000Y-85151250D01*
X161405000Y-84713750D01*
X161406053Y-84692309D01*
X161409203Y-84671074D01*
X161414419Y-84650250D01*
X161421651Y-84630038D01*
X161430830Y-84610632D01*
X161441866Y-84592219D01*
X161454654Y-84574976D01*
X161469070Y-84559070D01*
X161484976Y-84544654D01*
X161502219Y-84531866D01*
X161520632Y-84520830D01*
X161540038Y-84511651D01*
X161560250Y-84504419D01*
X161581074Y-84499203D01*
X161602309Y-84496053D01*
X161623750Y-84495000D01*
X162136250Y-84495000D01*
X162157691Y-84496053D01*
G37*
G36*
X162157691Y-86071053D02*
G01*
X162178926Y-86074203D01*
X162199750Y-86079419D01*
X162219962Y-86086651D01*
X162239368Y-86095830D01*
X162257781Y-86106866D01*
X162275024Y-86119654D01*
X162290930Y-86134070D01*
X162305346Y-86149976D01*
X162318134Y-86167219D01*
X162329170Y-86185632D01*
X162338349Y-86205038D01*
X162345581Y-86225250D01*
X162350797Y-86246074D01*
X162353947Y-86267309D01*
X162355000Y-86288750D01*
X162355000Y-86726250D01*
X162353947Y-86747691D01*
X162350797Y-86768926D01*
X162345581Y-86789750D01*
X162338349Y-86809962D01*
X162329170Y-86829368D01*
X162318134Y-86847781D01*
X162305346Y-86865024D01*
X162290930Y-86880930D01*
X162275024Y-86895346D01*
X162257781Y-86908134D01*
X162239368Y-86919170D01*
X162219962Y-86928349D01*
X162199750Y-86935581D01*
X162178926Y-86940797D01*
X162157691Y-86943947D01*
X162136250Y-86945000D01*
X161623750Y-86945000D01*
X161602309Y-86943947D01*
X161581074Y-86940797D01*
X161560250Y-86935581D01*
X161540038Y-86928349D01*
X161520632Y-86919170D01*
X161502219Y-86908134D01*
X161484976Y-86895346D01*
X161469070Y-86880930D01*
X161454654Y-86865024D01*
X161441866Y-86847781D01*
X161430830Y-86829368D01*
X161421651Y-86809962D01*
X161414419Y-86789750D01*
X161409203Y-86768926D01*
X161406053Y-86747691D01*
X161405000Y-86726250D01*
X161405000Y-86288750D01*
X161406053Y-86267309D01*
X161409203Y-86246074D01*
X161414419Y-86225250D01*
X161421651Y-86205038D01*
X161430830Y-86185632D01*
X161441866Y-86167219D01*
X161454654Y-86149976D01*
X161469070Y-86134070D01*
X161484976Y-86119654D01*
X161502219Y-86106866D01*
X161520632Y-86095830D01*
X161540038Y-86086651D01*
X161560250Y-86079419D01*
X161581074Y-86074203D01*
X161602309Y-86071053D01*
X161623750Y-86070000D01*
X162136250Y-86070000D01*
X162157691Y-86071053D01*
G37*
G36*
X163897691Y-84496053D02*
G01*
X163918926Y-84499203D01*
X163939750Y-84504419D01*
X163959962Y-84511651D01*
X163979368Y-84520830D01*
X163997781Y-84531866D01*
X164015024Y-84544654D01*
X164030930Y-84559070D01*
X164045346Y-84574976D01*
X164058134Y-84592219D01*
X164069170Y-84610632D01*
X164078349Y-84630038D01*
X164085581Y-84650250D01*
X164090797Y-84671074D01*
X164093947Y-84692309D01*
X164095000Y-84713750D01*
X164095000Y-85151250D01*
X164093947Y-85172691D01*
X164090797Y-85193926D01*
X164085581Y-85214750D01*
X164078349Y-85234962D01*
X164069170Y-85254368D01*
X164058134Y-85272781D01*
X164045346Y-85290024D01*
X164030930Y-85305930D01*
X164015024Y-85320346D01*
X163997781Y-85333134D01*
X163979368Y-85344170D01*
X163959962Y-85353349D01*
X163939750Y-85360581D01*
X163918926Y-85365797D01*
X163897691Y-85368947D01*
X163876250Y-85370000D01*
X163363750Y-85370000D01*
X163342309Y-85368947D01*
X163321074Y-85365797D01*
X163300250Y-85360581D01*
X163280038Y-85353349D01*
X163260632Y-85344170D01*
X163242219Y-85333134D01*
X163224976Y-85320346D01*
X163209070Y-85305930D01*
X163194654Y-85290024D01*
X163181866Y-85272781D01*
X163170830Y-85254368D01*
X163161651Y-85234962D01*
X163154419Y-85214750D01*
X163149203Y-85193926D01*
X163146053Y-85172691D01*
X163145000Y-85151250D01*
X163145000Y-84713750D01*
X163146053Y-84692309D01*
X163149203Y-84671074D01*
X163154419Y-84650250D01*
X163161651Y-84630038D01*
X163170830Y-84610632D01*
X163181866Y-84592219D01*
X163194654Y-84574976D01*
X163209070Y-84559070D01*
X163224976Y-84544654D01*
X163242219Y-84531866D01*
X163260632Y-84520830D01*
X163280038Y-84511651D01*
X163300250Y-84504419D01*
X163321074Y-84499203D01*
X163342309Y-84496053D01*
X163363750Y-84495000D01*
X163876250Y-84495000D01*
X163897691Y-84496053D01*
G37*
G36*
X163897691Y-86071053D02*
G01*
X163918926Y-86074203D01*
X163939750Y-86079419D01*
X163959962Y-86086651D01*
X163979368Y-86095830D01*
X163997781Y-86106866D01*
X164015024Y-86119654D01*
X164030930Y-86134070D01*
X164045346Y-86149976D01*
X164058134Y-86167219D01*
X164069170Y-86185632D01*
X164078349Y-86205038D01*
X164085581Y-86225250D01*
X164090797Y-86246074D01*
X164093947Y-86267309D01*
X164095000Y-86288750D01*
X164095000Y-86726250D01*
X164093947Y-86747691D01*
X164090797Y-86768926D01*
X164085581Y-86789750D01*
X164078349Y-86809962D01*
X164069170Y-86829368D01*
X164058134Y-86847781D01*
X164045346Y-86865024D01*
X164030930Y-86880930D01*
X164015024Y-86895346D01*
X163997781Y-86908134D01*
X163979368Y-86919170D01*
X163959962Y-86928349D01*
X163939750Y-86935581D01*
X163918926Y-86940797D01*
X163897691Y-86943947D01*
X163876250Y-86945000D01*
X163363750Y-86945000D01*
X163342309Y-86943947D01*
X163321074Y-86940797D01*
X163300250Y-86935581D01*
X163280038Y-86928349D01*
X163260632Y-86919170D01*
X163242219Y-86908134D01*
X163224976Y-86895346D01*
X163209070Y-86880930D01*
X163194654Y-86865024D01*
X163181866Y-86847781D01*
X163170830Y-86829368D01*
X163161651Y-86809962D01*
X163154419Y-86789750D01*
X163149203Y-86768926D01*
X163146053Y-86747691D01*
X163145000Y-86726250D01*
X163145000Y-86288750D01*
X163146053Y-86267309D01*
X163149203Y-86246074D01*
X163154419Y-86225250D01*
X163161651Y-86205038D01*
X163170830Y-86185632D01*
X163181866Y-86167219D01*
X163194654Y-86149976D01*
X163209070Y-86134070D01*
X163224976Y-86119654D01*
X163242219Y-86106866D01*
X163260632Y-86095830D01*
X163280038Y-86086651D01*
X163300250Y-86079419D01*
X163321074Y-86074203D01*
X163342309Y-86071053D01*
X163363750Y-86070000D01*
X163876250Y-86070000D01*
X163897691Y-86071053D01*
G37*
G36*
X158657691Y-84516053D02*
G01*
X158678926Y-84519203D01*
X158699750Y-84524419D01*
X158719962Y-84531651D01*
X158739368Y-84540830D01*
X158757781Y-84551866D01*
X158775024Y-84564654D01*
X158790930Y-84579070D01*
X158805346Y-84594976D01*
X158818134Y-84612219D01*
X158829170Y-84630632D01*
X158838349Y-84650038D01*
X158845581Y-84670250D01*
X158850797Y-84691074D01*
X158853947Y-84712309D01*
X158855000Y-84733750D01*
X158855000Y-85171250D01*
X158853947Y-85192691D01*
X158850797Y-85213926D01*
X158845581Y-85234750D01*
X158838349Y-85254962D01*
X158829170Y-85274368D01*
X158818134Y-85292781D01*
X158805346Y-85310024D01*
X158790930Y-85325930D01*
X158775024Y-85340346D01*
X158757781Y-85353134D01*
X158739368Y-85364170D01*
X158719962Y-85373349D01*
X158699750Y-85380581D01*
X158678926Y-85385797D01*
X158657691Y-85388947D01*
X158636250Y-85390000D01*
X158123750Y-85390000D01*
X158102309Y-85388947D01*
X158081074Y-85385797D01*
X158060250Y-85380581D01*
X158040038Y-85373349D01*
X158020632Y-85364170D01*
X158002219Y-85353134D01*
X157984976Y-85340346D01*
X157969070Y-85325930D01*
X157954654Y-85310024D01*
X157941866Y-85292781D01*
X157930830Y-85274368D01*
X157921651Y-85254962D01*
X157914419Y-85234750D01*
X157909203Y-85213926D01*
X157906053Y-85192691D01*
X157905000Y-85171250D01*
X157905000Y-84733750D01*
X157906053Y-84712309D01*
X157909203Y-84691074D01*
X157914419Y-84670250D01*
X157921651Y-84650038D01*
X157930830Y-84630632D01*
X157941866Y-84612219D01*
X157954654Y-84594976D01*
X157969070Y-84579070D01*
X157984976Y-84564654D01*
X158002219Y-84551866D01*
X158020632Y-84540830D01*
X158040038Y-84531651D01*
X158060250Y-84524419D01*
X158081074Y-84519203D01*
X158102309Y-84516053D01*
X158123750Y-84515000D01*
X158636250Y-84515000D01*
X158657691Y-84516053D01*
G37*
G36*
X158657691Y-86091053D02*
G01*
X158678926Y-86094203D01*
X158699750Y-86099419D01*
X158719962Y-86106651D01*
X158739368Y-86115830D01*
X158757781Y-86126866D01*
X158775024Y-86139654D01*
X158790930Y-86154070D01*
X158805346Y-86169976D01*
X158818134Y-86187219D01*
X158829170Y-86205632D01*
X158838349Y-86225038D01*
X158845581Y-86245250D01*
X158850797Y-86266074D01*
X158853947Y-86287309D01*
X158855000Y-86308750D01*
X158855000Y-86746250D01*
X158853947Y-86767691D01*
X158850797Y-86788926D01*
X158845581Y-86809750D01*
X158838349Y-86829962D01*
X158829170Y-86849368D01*
X158818134Y-86867781D01*
X158805346Y-86885024D01*
X158790930Y-86900930D01*
X158775024Y-86915346D01*
X158757781Y-86928134D01*
X158739368Y-86939170D01*
X158719962Y-86948349D01*
X158699750Y-86955581D01*
X158678926Y-86960797D01*
X158657691Y-86963947D01*
X158636250Y-86965000D01*
X158123750Y-86965000D01*
X158102309Y-86963947D01*
X158081074Y-86960797D01*
X158060250Y-86955581D01*
X158040038Y-86948349D01*
X158020632Y-86939170D01*
X158002219Y-86928134D01*
X157984976Y-86915346D01*
X157969070Y-86900930D01*
X157954654Y-86885024D01*
X157941866Y-86867781D01*
X157930830Y-86849368D01*
X157921651Y-86829962D01*
X157914419Y-86809750D01*
X157909203Y-86788926D01*
X157906053Y-86767691D01*
X157905000Y-86746250D01*
X157905000Y-86308750D01*
X157906053Y-86287309D01*
X157909203Y-86266074D01*
X157914419Y-86245250D01*
X157921651Y-86225038D01*
X157930830Y-86205632D01*
X157941866Y-86187219D01*
X157954654Y-86169976D01*
X157969070Y-86154070D01*
X157984976Y-86139654D01*
X158002219Y-86126866D01*
X158020632Y-86115830D01*
X158040038Y-86106651D01*
X158060250Y-86099419D01*
X158081074Y-86094203D01*
X158102309Y-86091053D01*
X158123750Y-86090000D01*
X158636250Y-86090000D01*
X158657691Y-86091053D01*
G37*
G36*
X160397691Y-84516053D02*
G01*
X160418926Y-84519203D01*
X160439750Y-84524419D01*
X160459962Y-84531651D01*
X160479368Y-84540830D01*
X160497781Y-84551866D01*
X160515024Y-84564654D01*
X160530930Y-84579070D01*
X160545346Y-84594976D01*
X160558134Y-84612219D01*
X160569170Y-84630632D01*
X160578349Y-84650038D01*
X160585581Y-84670250D01*
X160590797Y-84691074D01*
X160593947Y-84712309D01*
X160595000Y-84733750D01*
X160595000Y-85171250D01*
X160593947Y-85192691D01*
X160590797Y-85213926D01*
X160585581Y-85234750D01*
X160578349Y-85254962D01*
X160569170Y-85274368D01*
X160558134Y-85292781D01*
X160545346Y-85310024D01*
X160530930Y-85325930D01*
X160515024Y-85340346D01*
X160497781Y-85353134D01*
X160479368Y-85364170D01*
X160459962Y-85373349D01*
X160439750Y-85380581D01*
X160418926Y-85385797D01*
X160397691Y-85388947D01*
X160376250Y-85390000D01*
X159863750Y-85390000D01*
X159842309Y-85388947D01*
X159821074Y-85385797D01*
X159800250Y-85380581D01*
X159780038Y-85373349D01*
X159760632Y-85364170D01*
X159742219Y-85353134D01*
X159724976Y-85340346D01*
X159709070Y-85325930D01*
X159694654Y-85310024D01*
X159681866Y-85292781D01*
X159670830Y-85274368D01*
X159661651Y-85254962D01*
X159654419Y-85234750D01*
X159649203Y-85213926D01*
X159646053Y-85192691D01*
X159645000Y-85171250D01*
X159645000Y-84733750D01*
X159646053Y-84712309D01*
X159649203Y-84691074D01*
X159654419Y-84670250D01*
X159661651Y-84650038D01*
X159670830Y-84630632D01*
X159681866Y-84612219D01*
X159694654Y-84594976D01*
X159709070Y-84579070D01*
X159724976Y-84564654D01*
X159742219Y-84551866D01*
X159760632Y-84540830D01*
X159780038Y-84531651D01*
X159800250Y-84524419D01*
X159821074Y-84519203D01*
X159842309Y-84516053D01*
X159863750Y-84515000D01*
X160376250Y-84515000D01*
X160397691Y-84516053D01*
G37*
G36*
X160397691Y-86091053D02*
G01*
X160418926Y-86094203D01*
X160439750Y-86099419D01*
X160459962Y-86106651D01*
X160479368Y-86115830D01*
X160497781Y-86126866D01*
X160515024Y-86139654D01*
X160530930Y-86154070D01*
X160545346Y-86169976D01*
X160558134Y-86187219D01*
X160569170Y-86205632D01*
X160578349Y-86225038D01*
X160585581Y-86245250D01*
X160590797Y-86266074D01*
X160593947Y-86287309D01*
X160595000Y-86308750D01*
X160595000Y-86746250D01*
X160593947Y-86767691D01*
X160590797Y-86788926D01*
X160585581Y-86809750D01*
X160578349Y-86829962D01*
X160569170Y-86849368D01*
X160558134Y-86867781D01*
X160545346Y-86885024D01*
X160530930Y-86900930D01*
X160515024Y-86915346D01*
X160497781Y-86928134D01*
X160479368Y-86939170D01*
X160459962Y-86948349D01*
X160439750Y-86955581D01*
X160418926Y-86960797D01*
X160397691Y-86963947D01*
X160376250Y-86965000D01*
X159863750Y-86965000D01*
X159842309Y-86963947D01*
X159821074Y-86960797D01*
X159800250Y-86955581D01*
X159780038Y-86948349D01*
X159760632Y-86939170D01*
X159742219Y-86928134D01*
X159724976Y-86915346D01*
X159709070Y-86900930D01*
X159694654Y-86885024D01*
X159681866Y-86867781D01*
X159670830Y-86849368D01*
X159661651Y-86829962D01*
X159654419Y-86809750D01*
X159649203Y-86788926D01*
X159646053Y-86767691D01*
X159645000Y-86746250D01*
X159645000Y-86308750D01*
X159646053Y-86287309D01*
X159649203Y-86266074D01*
X159654419Y-86245250D01*
X159661651Y-86225038D01*
X159670830Y-86205632D01*
X159681866Y-86187219D01*
X159694654Y-86169976D01*
X159709070Y-86154070D01*
X159724976Y-86139654D01*
X159742219Y-86126866D01*
X159760632Y-86115830D01*
X159780038Y-86106651D01*
X159800250Y-86099419D01*
X159821074Y-86094203D01*
X159842309Y-86091053D01*
X159863750Y-86090000D01*
X160376250Y-86090000D01*
X160397691Y-86091053D01*
G37*
G36*
X163877691Y-89716053D02*
G01*
X163898926Y-89719203D01*
X163919750Y-89724419D01*
X163939962Y-89731651D01*
X163959368Y-89740830D01*
X163977781Y-89751866D01*
X163995024Y-89764654D01*
X164010930Y-89779070D01*
X164025346Y-89794976D01*
X164038134Y-89812219D01*
X164049170Y-89830632D01*
X164058349Y-89850038D01*
X164065581Y-89870250D01*
X164070797Y-89891074D01*
X164073947Y-89912309D01*
X164075000Y-89933750D01*
X164075000Y-90446250D01*
X164073947Y-90467691D01*
X164070797Y-90488926D01*
X164065581Y-90509750D01*
X164058349Y-90529962D01*
X164049170Y-90549368D01*
X164038134Y-90567781D01*
X164025346Y-90585024D01*
X164010930Y-90600930D01*
X163995024Y-90615346D01*
X163977781Y-90628134D01*
X163959368Y-90639170D01*
X163939962Y-90648349D01*
X163919750Y-90655581D01*
X163898926Y-90660797D01*
X163877691Y-90663947D01*
X163856250Y-90665000D01*
X163418750Y-90665000D01*
X163397309Y-90663947D01*
X163376074Y-90660797D01*
X163355250Y-90655581D01*
X163335038Y-90648349D01*
X163315632Y-90639170D01*
X163297219Y-90628134D01*
X163279976Y-90615346D01*
X163264070Y-90600930D01*
X163249654Y-90585024D01*
X163236866Y-90567781D01*
X163225830Y-90549368D01*
X163216651Y-90529962D01*
X163209419Y-90509750D01*
X163204203Y-90488926D01*
X163201053Y-90467691D01*
X163200000Y-90446250D01*
X163200000Y-89933750D01*
X163201053Y-89912309D01*
X163204203Y-89891074D01*
X163209419Y-89870250D01*
X163216651Y-89850038D01*
X163225830Y-89830632D01*
X163236866Y-89812219D01*
X163249654Y-89794976D01*
X163264070Y-89779070D01*
X163279976Y-89764654D01*
X163297219Y-89751866D01*
X163315632Y-89740830D01*
X163335038Y-89731651D01*
X163355250Y-89724419D01*
X163376074Y-89719203D01*
X163397309Y-89716053D01*
X163418750Y-89715000D01*
X163856250Y-89715000D01*
X163877691Y-89716053D01*
G37*
G36*
X162302691Y-89716053D02*
G01*
X162323926Y-89719203D01*
X162344750Y-89724419D01*
X162364962Y-89731651D01*
X162384368Y-89740830D01*
X162402781Y-89751866D01*
X162420024Y-89764654D01*
X162435930Y-89779070D01*
X162450346Y-89794976D01*
X162463134Y-89812219D01*
X162474170Y-89830632D01*
X162483349Y-89850038D01*
X162490581Y-89870250D01*
X162495797Y-89891074D01*
X162498947Y-89912309D01*
X162500000Y-89933750D01*
X162500000Y-90446250D01*
X162498947Y-90467691D01*
X162495797Y-90488926D01*
X162490581Y-90509750D01*
X162483349Y-90529962D01*
X162474170Y-90549368D01*
X162463134Y-90567781D01*
X162450346Y-90585024D01*
X162435930Y-90600930D01*
X162420024Y-90615346D01*
X162402781Y-90628134D01*
X162384368Y-90639170D01*
X162364962Y-90648349D01*
X162344750Y-90655581D01*
X162323926Y-90660797D01*
X162302691Y-90663947D01*
X162281250Y-90665000D01*
X161843750Y-90665000D01*
X161822309Y-90663947D01*
X161801074Y-90660797D01*
X161780250Y-90655581D01*
X161760038Y-90648349D01*
X161740632Y-90639170D01*
X161722219Y-90628134D01*
X161704976Y-90615346D01*
X161689070Y-90600930D01*
X161674654Y-90585024D01*
X161661866Y-90567781D01*
X161650830Y-90549368D01*
X161641651Y-90529962D01*
X161634419Y-90509750D01*
X161629203Y-90488926D01*
X161626053Y-90467691D01*
X161625000Y-90446250D01*
X161625000Y-89933750D01*
X161626053Y-89912309D01*
X161629203Y-89891074D01*
X161634419Y-89870250D01*
X161641651Y-89850038D01*
X161650830Y-89830632D01*
X161661866Y-89812219D01*
X161674654Y-89794976D01*
X161689070Y-89779070D01*
X161704976Y-89764654D01*
X161722219Y-89751866D01*
X161740632Y-89740830D01*
X161760038Y-89731651D01*
X161780250Y-89724419D01*
X161801074Y-89719203D01*
X161822309Y-89716053D01*
X161843750Y-89715000D01*
X162281250Y-89715000D01*
X162302691Y-89716053D01*
G37*
G36*
X163887691Y-94946053D02*
G01*
X163908926Y-94949203D01*
X163929750Y-94954419D01*
X163949962Y-94961651D01*
X163969368Y-94970830D01*
X163987781Y-94981866D01*
X164005024Y-94994654D01*
X164020930Y-95009070D01*
X164035346Y-95024976D01*
X164048134Y-95042219D01*
X164059170Y-95060632D01*
X164068349Y-95080038D01*
X164075581Y-95100250D01*
X164080797Y-95121074D01*
X164083947Y-95142309D01*
X164085000Y-95163750D01*
X164085000Y-95676250D01*
X164083947Y-95697691D01*
X164080797Y-95718926D01*
X164075581Y-95739750D01*
X164068349Y-95759962D01*
X164059170Y-95779368D01*
X164048134Y-95797781D01*
X164035346Y-95815024D01*
X164020930Y-95830930D01*
X164005024Y-95845346D01*
X163987781Y-95858134D01*
X163969368Y-95869170D01*
X163949962Y-95878349D01*
X163929750Y-95885581D01*
X163908926Y-95890797D01*
X163887691Y-95893947D01*
X163866250Y-95895000D01*
X163428750Y-95895000D01*
X163407309Y-95893947D01*
X163386074Y-95890797D01*
X163365250Y-95885581D01*
X163345038Y-95878349D01*
X163325632Y-95869170D01*
X163307219Y-95858134D01*
X163289976Y-95845346D01*
X163274070Y-95830930D01*
X163259654Y-95815024D01*
X163246866Y-95797781D01*
X163235830Y-95779368D01*
X163226651Y-95759962D01*
X163219419Y-95739750D01*
X163214203Y-95718926D01*
X163211053Y-95697691D01*
X163210000Y-95676250D01*
X163210000Y-95163750D01*
X163211053Y-95142309D01*
X163214203Y-95121074D01*
X163219419Y-95100250D01*
X163226651Y-95080038D01*
X163235830Y-95060632D01*
X163246866Y-95042219D01*
X163259654Y-95024976D01*
X163274070Y-95009070D01*
X163289976Y-94994654D01*
X163307219Y-94981866D01*
X163325632Y-94970830D01*
X163345038Y-94961651D01*
X163365250Y-94954419D01*
X163386074Y-94949203D01*
X163407309Y-94946053D01*
X163428750Y-94945000D01*
X163866250Y-94945000D01*
X163887691Y-94946053D01*
G37*
G36*
X162312691Y-94946053D02*
G01*
X162333926Y-94949203D01*
X162354750Y-94954419D01*
X162374962Y-94961651D01*
X162394368Y-94970830D01*
X162412781Y-94981866D01*
X162430024Y-94994654D01*
X162445930Y-95009070D01*
X162460346Y-95024976D01*
X162473134Y-95042219D01*
X162484170Y-95060632D01*
X162493349Y-95080038D01*
X162500581Y-95100250D01*
X162505797Y-95121074D01*
X162508947Y-95142309D01*
X162510000Y-95163750D01*
X162510000Y-95676250D01*
X162508947Y-95697691D01*
X162505797Y-95718926D01*
X162500581Y-95739750D01*
X162493349Y-95759962D01*
X162484170Y-95779368D01*
X162473134Y-95797781D01*
X162460346Y-95815024D01*
X162445930Y-95830930D01*
X162430024Y-95845346D01*
X162412781Y-95858134D01*
X162394368Y-95869170D01*
X162374962Y-95878349D01*
X162354750Y-95885581D01*
X162333926Y-95890797D01*
X162312691Y-95893947D01*
X162291250Y-95895000D01*
X161853750Y-95895000D01*
X161832309Y-95893947D01*
X161811074Y-95890797D01*
X161790250Y-95885581D01*
X161770038Y-95878349D01*
X161750632Y-95869170D01*
X161732219Y-95858134D01*
X161714976Y-95845346D01*
X161699070Y-95830930D01*
X161684654Y-95815024D01*
X161671866Y-95797781D01*
X161660830Y-95779368D01*
X161651651Y-95759962D01*
X161644419Y-95739750D01*
X161639203Y-95718926D01*
X161636053Y-95697691D01*
X161635000Y-95676250D01*
X161635000Y-95163750D01*
X161636053Y-95142309D01*
X161639203Y-95121074D01*
X161644419Y-95100250D01*
X161651651Y-95080038D01*
X161660830Y-95060632D01*
X161671866Y-95042219D01*
X161684654Y-95024976D01*
X161699070Y-95009070D01*
X161714976Y-94994654D01*
X161732219Y-94981866D01*
X161750632Y-94970830D01*
X161770038Y-94961651D01*
X161790250Y-94954419D01*
X161811074Y-94949203D01*
X161832309Y-94946053D01*
X161853750Y-94945000D01*
X162291250Y-94945000D01*
X162312691Y-94946053D01*
G37*
G36*
X163877691Y-93216053D02*
G01*
X163898926Y-93219203D01*
X163919750Y-93224419D01*
X163939962Y-93231651D01*
X163959368Y-93240830D01*
X163977781Y-93251866D01*
X163995024Y-93264654D01*
X164010930Y-93279070D01*
X164025346Y-93294976D01*
X164038134Y-93312219D01*
X164049170Y-93330632D01*
X164058349Y-93350038D01*
X164065581Y-93370250D01*
X164070797Y-93391074D01*
X164073947Y-93412309D01*
X164075000Y-93433750D01*
X164075000Y-93946250D01*
X164073947Y-93967691D01*
X164070797Y-93988926D01*
X164065581Y-94009750D01*
X164058349Y-94029962D01*
X164049170Y-94049368D01*
X164038134Y-94067781D01*
X164025346Y-94085024D01*
X164010930Y-94100930D01*
X163995024Y-94115346D01*
X163977781Y-94128134D01*
X163959368Y-94139170D01*
X163939962Y-94148349D01*
X163919750Y-94155581D01*
X163898926Y-94160797D01*
X163877691Y-94163947D01*
X163856250Y-94165000D01*
X163418750Y-94165000D01*
X163397309Y-94163947D01*
X163376074Y-94160797D01*
X163355250Y-94155581D01*
X163335038Y-94148349D01*
X163315632Y-94139170D01*
X163297219Y-94128134D01*
X163279976Y-94115346D01*
X163264070Y-94100930D01*
X163249654Y-94085024D01*
X163236866Y-94067781D01*
X163225830Y-94049368D01*
X163216651Y-94029962D01*
X163209419Y-94009750D01*
X163204203Y-93988926D01*
X163201053Y-93967691D01*
X163200000Y-93946250D01*
X163200000Y-93433750D01*
X163201053Y-93412309D01*
X163204203Y-93391074D01*
X163209419Y-93370250D01*
X163216651Y-93350038D01*
X163225830Y-93330632D01*
X163236866Y-93312219D01*
X163249654Y-93294976D01*
X163264070Y-93279070D01*
X163279976Y-93264654D01*
X163297219Y-93251866D01*
X163315632Y-93240830D01*
X163335038Y-93231651D01*
X163355250Y-93224419D01*
X163376074Y-93219203D01*
X163397309Y-93216053D01*
X163418750Y-93215000D01*
X163856250Y-93215000D01*
X163877691Y-93216053D01*
G37*
G36*
X162302691Y-93216053D02*
G01*
X162323926Y-93219203D01*
X162344750Y-93224419D01*
X162364962Y-93231651D01*
X162384368Y-93240830D01*
X162402781Y-93251866D01*
X162420024Y-93264654D01*
X162435930Y-93279070D01*
X162450346Y-93294976D01*
X162463134Y-93312219D01*
X162474170Y-93330632D01*
X162483349Y-93350038D01*
X162490581Y-93370250D01*
X162495797Y-93391074D01*
X162498947Y-93412309D01*
X162500000Y-93433750D01*
X162500000Y-93946250D01*
X162498947Y-93967691D01*
X162495797Y-93988926D01*
X162490581Y-94009750D01*
X162483349Y-94029962D01*
X162474170Y-94049368D01*
X162463134Y-94067781D01*
X162450346Y-94085024D01*
X162435930Y-94100930D01*
X162420024Y-94115346D01*
X162402781Y-94128134D01*
X162384368Y-94139170D01*
X162364962Y-94148349D01*
X162344750Y-94155581D01*
X162323926Y-94160797D01*
X162302691Y-94163947D01*
X162281250Y-94165000D01*
X161843750Y-94165000D01*
X161822309Y-94163947D01*
X161801074Y-94160797D01*
X161780250Y-94155581D01*
X161760038Y-94148349D01*
X161740632Y-94139170D01*
X161722219Y-94128134D01*
X161704976Y-94115346D01*
X161689070Y-94100930D01*
X161674654Y-94085024D01*
X161661866Y-94067781D01*
X161650830Y-94049368D01*
X161641651Y-94029962D01*
X161634419Y-94009750D01*
X161629203Y-93988926D01*
X161626053Y-93967691D01*
X161625000Y-93946250D01*
X161625000Y-93433750D01*
X161626053Y-93412309D01*
X161629203Y-93391074D01*
X161634419Y-93370250D01*
X161641651Y-93350038D01*
X161650830Y-93330632D01*
X161661866Y-93312219D01*
X161674654Y-93294976D01*
X161689070Y-93279070D01*
X161704976Y-93264654D01*
X161722219Y-93251866D01*
X161740632Y-93240830D01*
X161760038Y-93231651D01*
X161780250Y-93224419D01*
X161801074Y-93219203D01*
X161822309Y-93216053D01*
X161843750Y-93215000D01*
X162281250Y-93215000D01*
X162302691Y-93216053D01*
G37*
G36*
X163877691Y-91456053D02*
G01*
X163898926Y-91459203D01*
X163919750Y-91464419D01*
X163939962Y-91471651D01*
X163959368Y-91480830D01*
X163977781Y-91491866D01*
X163995024Y-91504654D01*
X164010930Y-91519070D01*
X164025346Y-91534976D01*
X164038134Y-91552219D01*
X164049170Y-91570632D01*
X164058349Y-91590038D01*
X164065581Y-91610250D01*
X164070797Y-91631074D01*
X164073947Y-91652309D01*
X164075000Y-91673750D01*
X164075000Y-92186250D01*
X164073947Y-92207691D01*
X164070797Y-92228926D01*
X164065581Y-92249750D01*
X164058349Y-92269962D01*
X164049170Y-92289368D01*
X164038134Y-92307781D01*
X164025346Y-92325024D01*
X164010930Y-92340930D01*
X163995024Y-92355346D01*
X163977781Y-92368134D01*
X163959368Y-92379170D01*
X163939962Y-92388349D01*
X163919750Y-92395581D01*
X163898926Y-92400797D01*
X163877691Y-92403947D01*
X163856250Y-92405000D01*
X163418750Y-92405000D01*
X163397309Y-92403947D01*
X163376074Y-92400797D01*
X163355250Y-92395581D01*
X163335038Y-92388349D01*
X163315632Y-92379170D01*
X163297219Y-92368134D01*
X163279976Y-92355346D01*
X163264070Y-92340930D01*
X163249654Y-92325024D01*
X163236866Y-92307781D01*
X163225830Y-92289368D01*
X163216651Y-92269962D01*
X163209419Y-92249750D01*
X163204203Y-92228926D01*
X163201053Y-92207691D01*
X163200000Y-92186250D01*
X163200000Y-91673750D01*
X163201053Y-91652309D01*
X163204203Y-91631074D01*
X163209419Y-91610250D01*
X163216651Y-91590038D01*
X163225830Y-91570632D01*
X163236866Y-91552219D01*
X163249654Y-91534976D01*
X163264070Y-91519070D01*
X163279976Y-91504654D01*
X163297219Y-91491866D01*
X163315632Y-91480830D01*
X163335038Y-91471651D01*
X163355250Y-91464419D01*
X163376074Y-91459203D01*
X163397309Y-91456053D01*
X163418750Y-91455000D01*
X163856250Y-91455000D01*
X163877691Y-91456053D01*
G37*
G36*
X162302691Y-91456053D02*
G01*
X162323926Y-91459203D01*
X162344750Y-91464419D01*
X162364962Y-91471651D01*
X162384368Y-91480830D01*
X162402781Y-91491866D01*
X162420024Y-91504654D01*
X162435930Y-91519070D01*
X162450346Y-91534976D01*
X162463134Y-91552219D01*
X162474170Y-91570632D01*
X162483349Y-91590038D01*
X162490581Y-91610250D01*
X162495797Y-91631074D01*
X162498947Y-91652309D01*
X162500000Y-91673750D01*
X162500000Y-92186250D01*
X162498947Y-92207691D01*
X162495797Y-92228926D01*
X162490581Y-92249750D01*
X162483349Y-92269962D01*
X162474170Y-92289368D01*
X162463134Y-92307781D01*
X162450346Y-92325024D01*
X162435930Y-92340930D01*
X162420024Y-92355346D01*
X162402781Y-92368134D01*
X162384368Y-92379170D01*
X162364962Y-92388349D01*
X162344750Y-92395581D01*
X162323926Y-92400797D01*
X162302691Y-92403947D01*
X162281250Y-92405000D01*
X161843750Y-92405000D01*
X161822309Y-92403947D01*
X161801074Y-92400797D01*
X161780250Y-92395581D01*
X161760038Y-92388349D01*
X161740632Y-92379170D01*
X161722219Y-92368134D01*
X161704976Y-92355346D01*
X161689070Y-92340930D01*
X161674654Y-92325024D01*
X161661866Y-92307781D01*
X161650830Y-92289368D01*
X161641651Y-92269962D01*
X161634419Y-92249750D01*
X161629203Y-92228926D01*
X161626053Y-92207691D01*
X161625000Y-92186250D01*
X161625000Y-91673750D01*
X161626053Y-91652309D01*
X161629203Y-91631074D01*
X161634419Y-91610250D01*
X161641651Y-91590038D01*
X161650830Y-91570632D01*
X161661866Y-91552219D01*
X161674654Y-91534976D01*
X161689070Y-91519070D01*
X161704976Y-91504654D01*
X161722219Y-91491866D01*
X161740632Y-91480830D01*
X161760038Y-91471651D01*
X161780250Y-91464419D01*
X161801074Y-91459203D01*
X161822309Y-91456053D01*
X161843750Y-91455000D01*
X162281250Y-91455000D01*
X162302691Y-91456053D01*
G37*
M02*
