G04 #@! TF.GenerationSoftware,KiCad,Pcbnew,5.1.5+dfsg1-2build2*
G04 #@! TF.CreationDate,2023-02-26T20:32:14+01:00*
G04 #@! TF.ProjectId,EcoApi_BeeHiveSensor,45636f41-7069-45f4-9265-654869766553,rev?*
G04 #@! TF.SameCoordinates,Original*
G04 #@! TF.FileFunction,Legend,Top*
G04 #@! TF.FilePolarity,Positive*
%FSLAX46Y46*%
G04 Gerber Fmt 4.6, Leading zero omitted, Abs format (unit mm)*
G04 Created by KiCad (PCBNEW 5.1.5+dfsg1-2build2) date 2023-02-26 20:32:14*
%MOMM*%
%LPD*%
G04 APERTURE LIST*
%ADD10C,0.125000*%
%ADD11C,0.010000*%
%ADD12C,0.120000*%
%ADD13C,4.802000*%
%ADD14O,1.802000X1.802000*%
%ADD15R,1.802000X1.802000*%
G04 APERTURE END LIST*
D10*
X151891904Y-96196190D02*
X151891904Y-95696190D01*
X152106190Y-95743809D02*
X152130000Y-95720000D01*
X152177619Y-95696190D01*
X152296666Y-95696190D01*
X152344285Y-95720000D01*
X152368095Y-95743809D01*
X152391904Y-95791428D01*
X152391904Y-95839047D01*
X152368095Y-95910476D01*
X152082380Y-96196190D01*
X152391904Y-96196190D01*
X152891904Y-96148571D02*
X152868095Y-96172380D01*
X152796666Y-96196190D01*
X152749047Y-96196190D01*
X152677619Y-96172380D01*
X152630000Y-96124761D01*
X152606190Y-96077142D01*
X152582380Y-95981904D01*
X152582380Y-95910476D01*
X152606190Y-95815238D01*
X152630000Y-95767619D01*
X152677619Y-95720000D01*
X152749047Y-95696190D01*
X152796666Y-95696190D01*
X152868095Y-95720000D01*
X152891904Y-95743809D01*
X170684761Y-96156190D02*
X170684761Y-95656190D01*
X170851428Y-96013333D01*
X171018095Y-95656190D01*
X171018095Y-96156190D01*
X171232380Y-96132380D02*
X171303809Y-96156190D01*
X171422857Y-96156190D01*
X171470476Y-96132380D01*
X171494285Y-96108571D01*
X171518095Y-96060952D01*
X171518095Y-96013333D01*
X171494285Y-95965714D01*
X171470476Y-95941904D01*
X171422857Y-95918095D01*
X171327619Y-95894285D01*
X171280000Y-95870476D01*
X171256190Y-95846666D01*
X171232380Y-95799047D01*
X171232380Y-95751428D01*
X171256190Y-95703809D01*
X171280000Y-95680000D01*
X171327619Y-95656190D01*
X171446666Y-95656190D01*
X171518095Y-95680000D01*
X171732380Y-96156190D02*
X171732380Y-95656190D01*
X171899047Y-96013333D01*
X172065714Y-95656190D01*
X172065714Y-96156190D01*
X172280000Y-95703809D02*
X172303809Y-95680000D01*
X172351428Y-95656190D01*
X172470476Y-95656190D01*
X172518095Y-95680000D01*
X172541904Y-95703809D01*
X172565714Y-95751428D01*
X172565714Y-95799047D01*
X172541904Y-95870476D01*
X172256190Y-96156190D01*
X172565714Y-96156190D01*
X172994285Y-95656190D02*
X172899047Y-95656190D01*
X172851428Y-95680000D01*
X172827619Y-95703809D01*
X172780000Y-95775238D01*
X172756190Y-95870476D01*
X172756190Y-96060952D01*
X172780000Y-96108571D01*
X172803809Y-96132380D01*
X172851428Y-96156190D01*
X172946666Y-96156190D01*
X172994285Y-96132380D01*
X173018095Y-96108571D01*
X173041904Y-96060952D01*
X173041904Y-95941904D01*
X173018095Y-95894285D01*
X172994285Y-95870476D01*
X172946666Y-95846666D01*
X172851428Y-95846666D01*
X172803809Y-95870476D01*
X172780000Y-95894285D01*
X172756190Y-95941904D01*
X173518095Y-96156190D02*
X173232380Y-96156190D01*
X173375238Y-96156190D02*
X173375238Y-95656190D01*
X173327619Y-95727619D01*
X173280000Y-95775238D01*
X173232380Y-95799047D01*
X173708571Y-96132380D02*
X173780000Y-96156190D01*
X173899047Y-96156190D01*
X173946666Y-96132380D01*
X173970476Y-96108571D01*
X173994285Y-96060952D01*
X173994285Y-96013333D01*
X173970476Y-95965714D01*
X173946666Y-95941904D01*
X173899047Y-95918095D01*
X173803809Y-95894285D01*
X173756190Y-95870476D01*
X173732380Y-95846666D01*
X173708571Y-95799047D01*
X173708571Y-95751428D01*
X173732380Y-95703809D01*
X173756190Y-95680000D01*
X173803809Y-95656190D01*
X173922857Y-95656190D01*
X173994285Y-95680000D01*
X174422857Y-95822857D02*
X174422857Y-96156190D01*
X174303809Y-95632380D02*
X174184761Y-95989523D01*
X174494285Y-95989523D01*
X174780000Y-95656190D02*
X174827619Y-95656190D01*
X174875238Y-95680000D01*
X174899047Y-95703809D01*
X174922857Y-95751428D01*
X174946666Y-95846666D01*
X174946666Y-95965714D01*
X174922857Y-96060952D01*
X174899047Y-96108571D01*
X174875238Y-96132380D01*
X174827619Y-96156190D01*
X174780000Y-96156190D01*
X174732380Y-96132380D01*
X174708571Y-96108571D01*
X174684761Y-96060952D01*
X174660952Y-95965714D01*
X174660952Y-95846666D01*
X174684761Y-95751428D01*
X174708571Y-95703809D01*
X174732380Y-95680000D01*
X174780000Y-95656190D01*
X175113333Y-95656190D02*
X175422857Y-95656190D01*
X175256190Y-95846666D01*
X175327619Y-95846666D01*
X175375238Y-95870476D01*
X175399047Y-95894285D01*
X175422857Y-95941904D01*
X175422857Y-96060952D01*
X175399047Y-96108571D01*
X175375238Y-96132380D01*
X175327619Y-96156190D01*
X175184761Y-96156190D01*
X175137142Y-96132380D01*
X175113333Y-96108571D01*
X175732380Y-95656190D02*
X175780000Y-95656190D01*
X175827619Y-95680000D01*
X175851428Y-95703809D01*
X175875238Y-95751428D01*
X175899047Y-95846666D01*
X175899047Y-95965714D01*
X175875238Y-96060952D01*
X175851428Y-96108571D01*
X175827619Y-96132380D01*
X175780000Y-96156190D01*
X175732380Y-96156190D01*
X175684761Y-96132380D01*
X175660952Y-96108571D01*
X175637142Y-96060952D01*
X175613333Y-95965714D01*
X175613333Y-95846666D01*
X175637142Y-95751428D01*
X175660952Y-95703809D01*
X175684761Y-95680000D01*
X175732380Y-95656190D01*
X176113333Y-96156190D02*
X176113333Y-95656190D01*
X176113333Y-95894285D02*
X176399047Y-95894285D01*
X176399047Y-96156190D02*
X176399047Y-95656190D01*
X176732380Y-95656190D02*
X176780000Y-95656190D01*
X176827619Y-95680000D01*
X176851428Y-95703809D01*
X176875238Y-95751428D01*
X176899047Y-95846666D01*
X176899047Y-95965714D01*
X176875238Y-96060952D01*
X176851428Y-96108571D01*
X176827619Y-96132380D01*
X176780000Y-96156190D01*
X176732380Y-96156190D01*
X176684761Y-96132380D01*
X176660952Y-96108571D01*
X176637142Y-96060952D01*
X176613333Y-95965714D01*
X176613333Y-95846666D01*
X176637142Y-95751428D01*
X176660952Y-95703809D01*
X176684761Y-95680000D01*
X176732380Y-95656190D01*
X176112857Y-84132380D02*
X176184285Y-84156190D01*
X176303333Y-84156190D01*
X176350952Y-84132380D01*
X176374761Y-84108571D01*
X176398571Y-84060952D01*
X176398571Y-84013333D01*
X176374761Y-83965714D01*
X176350952Y-83941904D01*
X176303333Y-83918095D01*
X176208095Y-83894285D01*
X176160476Y-83870476D01*
X176136666Y-83846666D01*
X176112857Y-83799047D01*
X176112857Y-83751428D01*
X176136666Y-83703809D01*
X176160476Y-83680000D01*
X176208095Y-83656190D01*
X176327142Y-83656190D01*
X176398571Y-83680000D01*
X176612857Y-84156190D02*
X176612857Y-83656190D01*
X176803333Y-83656190D01*
X176850952Y-83680000D01*
X176874761Y-83703809D01*
X176898571Y-83751428D01*
X176898571Y-83822857D01*
X176874761Y-83870476D01*
X176850952Y-83894285D01*
X176803333Y-83918095D01*
X176612857Y-83918095D01*
X177112857Y-84156190D02*
X177112857Y-83656190D01*
X177112857Y-83894285D02*
X177398571Y-83894285D01*
X177398571Y-84156190D02*
X177398571Y-83656190D01*
X177731904Y-83656190D02*
X177779523Y-83656190D01*
X177827142Y-83680000D01*
X177850952Y-83703809D01*
X177874761Y-83751428D01*
X177898571Y-83846666D01*
X177898571Y-83965714D01*
X177874761Y-84060952D01*
X177850952Y-84108571D01*
X177827142Y-84132380D01*
X177779523Y-84156190D01*
X177731904Y-84156190D01*
X177684285Y-84132380D01*
X177660476Y-84108571D01*
X177636666Y-84060952D01*
X177612857Y-83965714D01*
X177612857Y-83846666D01*
X177636666Y-83751428D01*
X177660476Y-83703809D01*
X177684285Y-83680000D01*
X177731904Y-83656190D01*
X178327142Y-83656190D02*
X178231904Y-83656190D01*
X178184285Y-83680000D01*
X178160476Y-83703809D01*
X178112857Y-83775238D01*
X178089047Y-83870476D01*
X178089047Y-84060952D01*
X178112857Y-84108571D01*
X178136666Y-84132380D01*
X178184285Y-84156190D01*
X178279523Y-84156190D01*
X178327142Y-84132380D01*
X178350952Y-84108571D01*
X178374761Y-84060952D01*
X178374761Y-83941904D01*
X178350952Y-83894285D01*
X178327142Y-83870476D01*
X178279523Y-83846666D01*
X178184285Y-83846666D01*
X178136666Y-83870476D01*
X178112857Y-83894285D01*
X178089047Y-83941904D01*
X178803333Y-83822857D02*
X178803333Y-84156190D01*
X178684285Y-83632380D02*
X178565238Y-83989523D01*
X178874761Y-83989523D01*
X179303333Y-83656190D02*
X179065238Y-83656190D01*
X179041428Y-83894285D01*
X179065238Y-83870476D01*
X179112857Y-83846666D01*
X179231904Y-83846666D01*
X179279523Y-83870476D01*
X179303333Y-83894285D01*
X179327142Y-83941904D01*
X179327142Y-84060952D01*
X179303333Y-84108571D01*
X179279523Y-84132380D01*
X179231904Y-84156190D01*
X179112857Y-84156190D01*
X179065238Y-84132380D01*
X179041428Y-84108571D01*
X181708571Y-85586190D02*
X181708571Y-85086190D01*
X181875238Y-85443333D01*
X182041904Y-85086190D01*
X182041904Y-85586190D01*
X182256190Y-85443333D02*
X182494285Y-85443333D01*
X182208571Y-85586190D02*
X182375238Y-85086190D01*
X182541904Y-85586190D01*
X182660952Y-85086190D02*
X182994285Y-85586190D01*
X182994285Y-85086190D02*
X182660952Y-85586190D01*
X183208571Y-85586190D02*
X183303809Y-85586190D01*
X183351428Y-85562380D01*
X183375238Y-85538571D01*
X183422857Y-85467142D01*
X183446666Y-85371904D01*
X183446666Y-85181428D01*
X183422857Y-85133809D01*
X183399047Y-85110000D01*
X183351428Y-85086190D01*
X183256190Y-85086190D01*
X183208571Y-85110000D01*
X183184761Y-85133809D01*
X183160952Y-85181428D01*
X183160952Y-85300476D01*
X183184761Y-85348095D01*
X183208571Y-85371904D01*
X183256190Y-85395714D01*
X183351428Y-85395714D01*
X183399047Y-85371904D01*
X183422857Y-85348095D01*
X183446666Y-85300476D01*
X183732380Y-85300476D02*
X183684761Y-85276666D01*
X183660952Y-85252857D01*
X183637142Y-85205238D01*
X183637142Y-85181428D01*
X183660952Y-85133809D01*
X183684761Y-85110000D01*
X183732380Y-85086190D01*
X183827619Y-85086190D01*
X183875238Y-85110000D01*
X183899047Y-85133809D01*
X183922857Y-85181428D01*
X183922857Y-85205238D01*
X183899047Y-85252857D01*
X183875238Y-85276666D01*
X183827619Y-85300476D01*
X183732380Y-85300476D01*
X183684761Y-85324285D01*
X183660952Y-85348095D01*
X183637142Y-85395714D01*
X183637142Y-85490952D01*
X183660952Y-85538571D01*
X183684761Y-85562380D01*
X183732380Y-85586190D01*
X183827619Y-85586190D01*
X183875238Y-85562380D01*
X183899047Y-85538571D01*
X183922857Y-85490952D01*
X183922857Y-85395714D01*
X183899047Y-85348095D01*
X183875238Y-85324285D01*
X183827619Y-85300476D01*
X184399047Y-85586190D02*
X184113333Y-85586190D01*
X184256190Y-85586190D02*
X184256190Y-85086190D01*
X184208571Y-85157619D01*
X184160952Y-85205238D01*
X184113333Y-85229047D01*
X184827619Y-85252857D02*
X184827619Y-85586190D01*
X184708571Y-85062380D02*
X184589523Y-85419523D01*
X184899047Y-85419523D01*
X174178095Y-89966190D02*
X174178095Y-89466190D01*
X174416190Y-89966190D02*
X174416190Y-89466190D01*
X174701904Y-89966190D01*
X174701904Y-89466190D01*
X174940000Y-89966190D02*
X174940000Y-89466190D01*
X175106666Y-89823333D01*
X175273333Y-89466190D01*
X175273333Y-89966190D01*
X175511428Y-89966190D02*
X175511428Y-89466190D01*
X175701904Y-89466190D01*
X175749523Y-89490000D01*
X175773333Y-89513809D01*
X175797142Y-89561428D01*
X175797142Y-89632857D01*
X175773333Y-89680476D01*
X175749523Y-89704285D01*
X175701904Y-89728095D01*
X175511428Y-89728095D01*
X176225714Y-89632857D02*
X176225714Y-89966190D01*
X176106666Y-89442380D02*
X175987619Y-89799523D01*
X176297142Y-89799523D01*
X176701904Y-89632857D02*
X176701904Y-89966190D01*
X176582857Y-89442380D02*
X176463809Y-89799523D01*
X176773333Y-89799523D01*
X177225714Y-89966190D02*
X176940000Y-89966190D01*
X177082857Y-89966190D02*
X177082857Y-89466190D01*
X177035238Y-89537619D01*
X176987619Y-89585238D01*
X176940000Y-89609047D01*
D11*
G36*
X160899818Y-87688781D02*
G01*
X161107462Y-87771332D01*
X161275634Y-87923242D01*
X161398422Y-88136134D01*
X161469916Y-88401634D01*
X161482359Y-88513947D01*
X161483858Y-88733376D01*
X161454192Y-88961966D01*
X161389401Y-89215973D01*
X161285521Y-89511656D01*
X161171621Y-89789112D01*
X161075760Y-90024917D01*
X161014248Y-90211738D01*
X160980038Y-90374445D01*
X160967259Y-90510452D01*
X160911842Y-90827731D01*
X160782704Y-91109438D01*
X160585833Y-91346332D01*
X160327216Y-91529172D01*
X160297135Y-91544653D01*
X160155256Y-91612715D01*
X160060984Y-91643639D01*
X159986641Y-91639021D01*
X159904546Y-91600456D01*
X159853976Y-91570181D01*
X159741853Y-91457170D01*
X159653048Y-91280447D01*
X159589468Y-91058214D01*
X159553019Y-90808672D01*
X159545605Y-90550022D01*
X159561963Y-90376513D01*
X160054343Y-90376513D01*
X160072698Y-90623163D01*
X160122201Y-90822837D01*
X160198574Y-90960371D01*
X160226657Y-90987710D01*
X160304076Y-91036863D01*
X160369178Y-91027478D01*
X160407964Y-91004177D01*
X160477673Y-90932891D01*
X160557163Y-90816362D01*
X160597365Y-90743042D01*
X160673716Y-90541013D01*
X160704124Y-90346075D01*
X160688314Y-90178003D01*
X160626011Y-90056573D01*
X160607147Y-90038973D01*
X160468621Y-89969140D01*
X160325135Y-89982401D01*
X160183581Y-90069597D01*
X160100175Y-90153510D01*
X160062585Y-90243166D01*
X160054343Y-90376513D01*
X159561963Y-90376513D01*
X159569133Y-90300467D01*
X159625507Y-90078207D01*
X159684407Y-89950529D01*
X159693849Y-89938834D01*
X160942333Y-89938834D01*
X160963500Y-89960000D01*
X160984666Y-89938834D01*
X160963500Y-89917667D01*
X160942333Y-89938834D01*
X159693849Y-89938834D01*
X159810656Y-89794165D01*
X159976344Y-89669207D01*
X160153969Y-89593453D01*
X160258558Y-89579000D01*
X160419890Y-89610442D01*
X160591767Y-89692442D01*
X160735735Y-89806506D01*
X160739077Y-89810076D01*
X160844288Y-89923541D01*
X160893310Y-89626699D01*
X160940779Y-89227995D01*
X160939242Y-88893845D01*
X160887220Y-88618736D01*
X160783235Y-88397153D01*
X160625809Y-88223582D01*
X160492817Y-88133157D01*
X160340976Y-88042433D01*
X160256931Y-87976582D01*
X160231427Y-87925386D01*
X160255208Y-87878626D01*
X160258863Y-87874870D01*
X160336775Y-87851426D01*
X160456179Y-87874545D01*
X160594228Y-87935757D01*
X160728074Y-88026589D01*
X160770473Y-88064562D01*
X160944174Y-88291974D01*
X161053435Y-88573318D01*
X161097993Y-88907298D01*
X161077583Y-89292618D01*
X161053079Y-89450345D01*
X161025542Y-89613562D01*
X161007574Y-89741622D01*
X161001837Y-89814478D01*
X161003521Y-89823633D01*
X161029237Y-89801776D01*
X161070151Y-89715684D01*
X161120493Y-89583147D01*
X161174493Y-89421958D01*
X161226379Y-89249911D01*
X161270380Y-89084797D01*
X161300726Y-88944409D01*
X161310066Y-88878513D01*
X161312493Y-88589174D01*
X161255365Y-88345797D01*
X161131151Y-88131339D01*
X160932323Y-87928757D01*
X160866927Y-87875498D01*
X160797344Y-87798079D01*
X160773000Y-87732623D01*
X160791302Y-87686476D01*
X160860040Y-87681897D01*
X160899818Y-87688781D01*
G37*
X160899818Y-87688781D02*
X161107462Y-87771332D01*
X161275634Y-87923242D01*
X161398422Y-88136134D01*
X161469916Y-88401634D01*
X161482359Y-88513947D01*
X161483858Y-88733376D01*
X161454192Y-88961966D01*
X161389401Y-89215973D01*
X161285521Y-89511656D01*
X161171621Y-89789112D01*
X161075760Y-90024917D01*
X161014248Y-90211738D01*
X160980038Y-90374445D01*
X160967259Y-90510452D01*
X160911842Y-90827731D01*
X160782704Y-91109438D01*
X160585833Y-91346332D01*
X160327216Y-91529172D01*
X160297135Y-91544653D01*
X160155256Y-91612715D01*
X160060984Y-91643639D01*
X159986641Y-91639021D01*
X159904546Y-91600456D01*
X159853976Y-91570181D01*
X159741853Y-91457170D01*
X159653048Y-91280447D01*
X159589468Y-91058214D01*
X159553019Y-90808672D01*
X159545605Y-90550022D01*
X159561963Y-90376513D01*
X160054343Y-90376513D01*
X160072698Y-90623163D01*
X160122201Y-90822837D01*
X160198574Y-90960371D01*
X160226657Y-90987710D01*
X160304076Y-91036863D01*
X160369178Y-91027478D01*
X160407964Y-91004177D01*
X160477673Y-90932891D01*
X160557163Y-90816362D01*
X160597365Y-90743042D01*
X160673716Y-90541013D01*
X160704124Y-90346075D01*
X160688314Y-90178003D01*
X160626011Y-90056573D01*
X160607147Y-90038973D01*
X160468621Y-89969140D01*
X160325135Y-89982401D01*
X160183581Y-90069597D01*
X160100175Y-90153510D01*
X160062585Y-90243166D01*
X160054343Y-90376513D01*
X159561963Y-90376513D01*
X159569133Y-90300467D01*
X159625507Y-90078207D01*
X159684407Y-89950529D01*
X159693849Y-89938834D01*
X160942333Y-89938834D01*
X160963500Y-89960000D01*
X160984666Y-89938834D01*
X160963500Y-89917667D01*
X160942333Y-89938834D01*
X159693849Y-89938834D01*
X159810656Y-89794165D01*
X159976344Y-89669207D01*
X160153969Y-89593453D01*
X160258558Y-89579000D01*
X160419890Y-89610442D01*
X160591767Y-89692442D01*
X160735735Y-89806506D01*
X160739077Y-89810076D01*
X160844288Y-89923541D01*
X160893310Y-89626699D01*
X160940779Y-89227995D01*
X160939242Y-88893845D01*
X160887220Y-88618736D01*
X160783235Y-88397153D01*
X160625809Y-88223582D01*
X160492817Y-88133157D01*
X160340976Y-88042433D01*
X160256931Y-87976582D01*
X160231427Y-87925386D01*
X160255208Y-87878626D01*
X160258863Y-87874870D01*
X160336775Y-87851426D01*
X160456179Y-87874545D01*
X160594228Y-87935757D01*
X160728074Y-88026589D01*
X160770473Y-88064562D01*
X160944174Y-88291974D01*
X161053435Y-88573318D01*
X161097993Y-88907298D01*
X161077583Y-89292618D01*
X161053079Y-89450345D01*
X161025542Y-89613562D01*
X161007574Y-89741622D01*
X161001837Y-89814478D01*
X161003521Y-89823633D01*
X161029237Y-89801776D01*
X161070151Y-89715684D01*
X161120493Y-89583147D01*
X161174493Y-89421958D01*
X161226379Y-89249911D01*
X161270380Y-89084797D01*
X161300726Y-88944409D01*
X161310066Y-88878513D01*
X161312493Y-88589174D01*
X161255365Y-88345797D01*
X161131151Y-88131339D01*
X160932323Y-87928757D01*
X160866927Y-87875498D01*
X160797344Y-87798079D01*
X160773000Y-87732623D01*
X160791302Y-87686476D01*
X160860040Y-87681897D01*
X160899818Y-87688781D01*
G36*
X156081254Y-86334577D02*
G01*
X156342286Y-86339015D01*
X156665288Y-86346371D01*
X157056629Y-86356676D01*
X157522679Y-86369960D01*
X157815862Y-86378627D01*
X158260579Y-86391716D01*
X158688668Y-86403970D01*
X159090986Y-86415150D01*
X159458390Y-86425019D01*
X159781736Y-86433337D01*
X160051882Y-86439866D01*
X160259684Y-86444368D01*
X160396001Y-86446605D01*
X160430805Y-86446810D01*
X160577604Y-86449493D01*
X160680824Y-86457026D01*
X160721720Y-86467895D01*
X160720883Y-86470227D01*
X160674806Y-86476764D01*
X160553017Y-86485586D01*
X160364429Y-86496268D01*
X160117954Y-86508384D01*
X159822505Y-86521509D01*
X159486992Y-86535216D01*
X159120329Y-86549079D01*
X158925245Y-86556036D01*
X158509491Y-86570672D01*
X158089164Y-86585666D01*
X157678758Y-86600488D01*
X157292764Y-86614607D01*
X156945677Y-86627492D01*
X156651989Y-86638612D01*
X156426193Y-86647438D01*
X156398381Y-86648559D01*
X155643262Y-86679167D01*
X154207631Y-89025786D01*
X153960002Y-89430988D01*
X153725891Y-89814920D01*
X153508980Y-90171490D01*
X153312948Y-90494608D01*
X153141476Y-90778184D01*
X152998244Y-91016127D01*
X152886932Y-91202346D01*
X152811221Y-91330752D01*
X152774790Y-91395253D01*
X152772000Y-91401640D01*
X152792902Y-91440896D01*
X152852392Y-91544704D01*
X152945647Y-91704926D01*
X153067841Y-91913424D01*
X153214150Y-92162060D01*
X153379750Y-92442698D01*
X153559817Y-92747198D01*
X153749525Y-93067424D01*
X153944050Y-93395238D01*
X154138569Y-93722501D01*
X154328257Y-94041076D01*
X154508289Y-94342826D01*
X154673841Y-94619612D01*
X154820088Y-94863297D01*
X154942206Y-95065743D01*
X155023084Y-95198750D01*
X155072658Y-95286250D01*
X155091797Y-95333587D01*
X155090064Y-95336334D01*
X155058718Y-95305582D01*
X154981408Y-95219854D01*
X154866700Y-95088942D01*
X154723162Y-94922634D01*
X154559361Y-94730724D01*
X154534424Y-94701337D01*
X154382892Y-94517618D01*
X154191658Y-94277816D01*
X153970453Y-93994582D01*
X153729012Y-93680569D01*
X153477068Y-93348427D01*
X153224355Y-93010808D01*
X153000113Y-92707012D01*
X152004269Y-91347683D01*
X152171024Y-91108925D01*
X152224301Y-91032222D01*
X152321016Y-90892532D01*
X152456535Y-90696563D01*
X152626223Y-90451023D01*
X152825448Y-90162620D01*
X153049574Y-89838063D01*
X153293968Y-89484061D01*
X153553997Y-89107322D01*
X153825025Y-88714555D01*
X153871175Y-88647667D01*
X154139511Y-88259083D01*
X154394618Y-87890321D01*
X154632279Y-87547431D01*
X154848279Y-87236464D01*
X155038401Y-86963472D01*
X155198430Y-86734506D01*
X155324149Y-86555618D01*
X155411343Y-86432859D01*
X155455796Y-86372279D01*
X155459730Y-86367567D01*
X155482704Y-86355121D01*
X155529430Y-86345414D01*
X155606279Y-86338476D01*
X155719620Y-86334338D01*
X155875821Y-86333028D01*
X156081254Y-86334577D01*
G37*
X156081254Y-86334577D02*
X156342286Y-86339015D01*
X156665288Y-86346371D01*
X157056629Y-86356676D01*
X157522679Y-86369960D01*
X157815862Y-86378627D01*
X158260579Y-86391716D01*
X158688668Y-86403970D01*
X159090986Y-86415150D01*
X159458390Y-86425019D01*
X159781736Y-86433337D01*
X160051882Y-86439866D01*
X160259684Y-86444368D01*
X160396001Y-86446605D01*
X160430805Y-86446810D01*
X160577604Y-86449493D01*
X160680824Y-86457026D01*
X160721720Y-86467895D01*
X160720883Y-86470227D01*
X160674806Y-86476764D01*
X160553017Y-86485586D01*
X160364429Y-86496268D01*
X160117954Y-86508384D01*
X159822505Y-86521509D01*
X159486992Y-86535216D01*
X159120329Y-86549079D01*
X158925245Y-86556036D01*
X158509491Y-86570672D01*
X158089164Y-86585666D01*
X157678758Y-86600488D01*
X157292764Y-86614607D01*
X156945677Y-86627492D01*
X156651989Y-86638612D01*
X156426193Y-86647438D01*
X156398381Y-86648559D01*
X155643262Y-86679167D01*
X154207631Y-89025786D01*
X153960002Y-89430988D01*
X153725891Y-89814920D01*
X153508980Y-90171490D01*
X153312948Y-90494608D01*
X153141476Y-90778184D01*
X152998244Y-91016127D01*
X152886932Y-91202346D01*
X152811221Y-91330752D01*
X152774790Y-91395253D01*
X152772000Y-91401640D01*
X152792902Y-91440896D01*
X152852392Y-91544704D01*
X152945647Y-91704926D01*
X153067841Y-91913424D01*
X153214150Y-92162060D01*
X153379750Y-92442698D01*
X153559817Y-92747198D01*
X153749525Y-93067424D01*
X153944050Y-93395238D01*
X154138569Y-93722501D01*
X154328257Y-94041076D01*
X154508289Y-94342826D01*
X154673841Y-94619612D01*
X154820088Y-94863297D01*
X154942206Y-95065743D01*
X155023084Y-95198750D01*
X155072658Y-95286250D01*
X155091797Y-95333587D01*
X155090064Y-95336334D01*
X155058718Y-95305582D01*
X154981408Y-95219854D01*
X154866700Y-95088942D01*
X154723162Y-94922634D01*
X154559361Y-94730724D01*
X154534424Y-94701337D01*
X154382892Y-94517618D01*
X154191658Y-94277816D01*
X153970453Y-93994582D01*
X153729012Y-93680569D01*
X153477068Y-93348427D01*
X153224355Y-93010808D01*
X153000113Y-92707012D01*
X152004269Y-91347683D01*
X152171024Y-91108925D01*
X152224301Y-91032222D01*
X152321016Y-90892532D01*
X152456535Y-90696563D01*
X152626223Y-90451023D01*
X152825448Y-90162620D01*
X153049574Y-89838063D01*
X153293968Y-89484061D01*
X153553997Y-89107322D01*
X153825025Y-88714555D01*
X153871175Y-88647667D01*
X154139511Y-88259083D01*
X154394618Y-87890321D01*
X154632279Y-87547431D01*
X154848279Y-87236464D01*
X155038401Y-86963472D01*
X155198430Y-86734506D01*
X155324149Y-86555618D01*
X155411343Y-86432859D01*
X155455796Y-86372279D01*
X155459730Y-86367567D01*
X155482704Y-86355121D01*
X155529430Y-86345414D01*
X155606279Y-86338476D01*
X155719620Y-86334338D01*
X155875821Y-86333028D01*
X156081254Y-86334577D01*
G36*
X157057548Y-87314418D02*
G01*
X157453664Y-87403328D01*
X157827148Y-87566779D01*
X158171655Y-87800000D01*
X158480841Y-88098222D01*
X158748362Y-88456673D01*
X158967872Y-88870585D01*
X159068028Y-89126458D01*
X159124527Y-89343405D01*
X159168298Y-89615989D01*
X159197110Y-89915832D01*
X159208728Y-90214555D01*
X159200922Y-90483781D01*
X159185652Y-90621496D01*
X159153449Y-90827834D01*
X159054041Y-90437834D01*
X158957659Y-90081154D01*
X158866525Y-89792515D01*
X158774841Y-89556019D01*
X158676809Y-89355763D01*
X158629941Y-89274657D01*
X158443124Y-89021746D01*
X158196510Y-88769368D01*
X157912706Y-88537500D01*
X157614317Y-88346123D01*
X157528370Y-88301093D01*
X157347491Y-88215150D01*
X157209931Y-88162678D01*
X157085268Y-88135547D01*
X156943080Y-88125628D01*
X156867942Y-88124626D01*
X156622871Y-88138184D01*
X156452131Y-88181959D01*
X156428292Y-88193430D01*
X156231369Y-88340009D01*
X156102524Y-88529201D01*
X156043199Y-88751387D01*
X156054839Y-88996947D01*
X156138886Y-89256262D01*
X156241252Y-89440325D01*
X156365367Y-89609730D01*
X156511318Y-89767059D01*
X156688766Y-89919108D01*
X156907372Y-90072668D01*
X157176796Y-90234534D01*
X157506699Y-90411498D01*
X157901631Y-90607881D01*
X158157060Y-90733473D01*
X158352034Y-90835413D01*
X158503457Y-90924457D01*
X158628235Y-91011360D01*
X158743271Y-91106879D01*
X158863668Y-91220015D01*
X159002503Y-91365423D01*
X159123839Y-91510743D01*
X159209342Y-91633227D01*
X159232348Y-91677410D01*
X159296240Y-91937362D01*
X159282698Y-92227020D01*
X159192369Y-92543352D01*
X159025901Y-92883327D01*
X158947696Y-93010555D01*
X158818134Y-93194428D01*
X158667603Y-93373457D01*
X158485959Y-93557153D01*
X158263062Y-93755025D01*
X157988770Y-93976583D01*
X157652940Y-94231339D01*
X157619166Y-94256357D01*
X157348050Y-94459925D01*
X157041083Y-94695421D01*
X156727239Y-94940314D01*
X156435493Y-95172071D01*
X156285666Y-95293355D01*
X156082008Y-95459136D01*
X155898415Y-95607427D01*
X155745804Y-95729502D01*
X155635095Y-95816634D01*
X155577207Y-95860099D01*
X155573676Y-95862359D01*
X155569790Y-95848207D01*
X155609857Y-95781033D01*
X155685540Y-95674405D01*
X155705727Y-95647545D01*
X155978610Y-95265397D01*
X156182325Y-94929307D01*
X156317643Y-94637616D01*
X156385333Y-94388661D01*
X156386167Y-94180781D01*
X156386035Y-94180017D01*
X156360380Y-94068720D01*
X156316973Y-93913599D01*
X156272207Y-93770000D01*
X156189593Y-93395025D01*
X156186127Y-93289145D01*
X156589413Y-93289145D01*
X156594533Y-93389683D01*
X156635167Y-93525880D01*
X156698612Y-93663796D01*
X156767130Y-93764046D01*
X156908685Y-93876943D01*
X157074254Y-93920673D01*
X157275431Y-93896791D01*
X157416697Y-93851170D01*
X157489248Y-93815113D01*
X157491661Y-93769072D01*
X157460686Y-93717490D01*
X157374173Y-93620827D01*
X157248545Y-93521444D01*
X157100181Y-93427393D01*
X156945456Y-93346727D01*
X156800749Y-93287496D01*
X156682435Y-93257752D01*
X156606892Y-93265545D01*
X156589413Y-93289145D01*
X156186127Y-93289145D01*
X156176796Y-93004167D01*
X156219917Y-92686779D01*
X156582000Y-92686779D01*
X156595175Y-92755335D01*
X156649802Y-92794103D01*
X156753975Y-92817947D01*
X156964500Y-92878957D01*
X157201682Y-92987951D01*
X157436699Y-93128955D01*
X157640731Y-93285995D01*
X157699948Y-93342259D01*
X157907731Y-93553677D01*
X158025689Y-93460755D01*
X158105032Y-93389315D01*
X158144972Y-93335941D01*
X158145991Y-93331210D01*
X158116183Y-93277002D01*
X158034584Y-93190850D01*
X157919244Y-93088667D01*
X157788215Y-92986366D01*
X157659548Y-92899859D01*
X157650633Y-92894532D01*
X157468632Y-92801300D01*
X157256667Y-92714552D01*
X157042211Y-92643616D01*
X156852733Y-92597822D01*
X156740750Y-92585560D01*
X156635905Y-92591805D01*
X156591061Y-92622431D01*
X156582000Y-92686779D01*
X156219917Y-92686779D01*
X156229879Y-92613456D01*
X156344906Y-92238924D01*
X156416224Y-92097834D01*
X156751200Y-92097834D01*
X156888850Y-92131770D01*
X157326533Y-92258702D01*
X157692253Y-92407784D01*
X157997060Y-92584504D01*
X158252002Y-92794353D01*
X158281347Y-92823628D01*
X158380605Y-92920826D01*
X158456218Y-92987630D01*
X158487852Y-93008000D01*
X158527255Y-92977310D01*
X158591787Y-92901595D01*
X158606038Y-92882714D01*
X158667264Y-92789423D01*
X158697867Y-92722262D01*
X158698666Y-92715707D01*
X158664875Y-92659831D01*
X158574521Y-92573563D01*
X158444137Y-92469242D01*
X158290252Y-92359207D01*
X158129399Y-92255794D01*
X157978109Y-92171343D01*
X157952471Y-92158774D01*
X157773685Y-92083991D01*
X157555349Y-92007617D01*
X157340927Y-91944694D01*
X157314612Y-91938040D01*
X156951361Y-91848364D01*
X156851281Y-91973099D01*
X156751200Y-92097834D01*
X156416224Y-92097834D01*
X156517944Y-91896603D01*
X156745055Y-91602523D01*
X156813200Y-91535828D01*
X157365166Y-91535828D01*
X157640333Y-91629925D01*
X158089047Y-91816011D01*
X158510466Y-92053525D01*
X158656333Y-92153812D01*
X158777172Y-92234564D01*
X158872052Y-92284562D01*
X158920827Y-92293232D01*
X158921239Y-92292869D01*
X158944581Y-92233954D01*
X158961514Y-92127221D01*
X158963572Y-92100985D01*
X158964039Y-92010986D01*
X158941438Y-91944738D01*
X158880610Y-91880219D01*
X158766395Y-91795410D01*
X158741000Y-91777683D01*
X158580768Y-91682369D01*
X158380861Y-91585759D01*
X158183465Y-91508165D01*
X158176033Y-91505683D01*
X158010440Y-91452336D01*
X157896922Y-91424135D01*
X157807346Y-91419114D01*
X157713577Y-91435307D01*
X157604533Y-91465754D01*
X157365166Y-91535828D01*
X156813200Y-91535828D01*
X156823022Y-91526215D01*
X157072255Y-91332623D01*
X157347905Y-91176165D01*
X157624042Y-91069879D01*
X157805782Y-91032069D01*
X158033983Y-91005042D01*
X157831567Y-90925532D01*
X157307778Y-90688401D01*
X156844321Y-90409083D01*
X156422406Y-90075525D01*
X156243333Y-89906739D01*
X155938244Y-89565078D01*
X155709115Y-89221149D01*
X155558272Y-88879452D01*
X155488041Y-88544485D01*
X155482951Y-88436000D01*
X155502033Y-88165230D01*
X155567812Y-87945960D01*
X155688589Y-87754230D01*
X155739518Y-87695530D01*
X155974149Y-87503123D01*
X156264991Y-87373736D01*
X156611407Y-87307642D01*
X156645146Y-87304819D01*
X157057548Y-87314418D01*
G37*
X157057548Y-87314418D02*
X157453664Y-87403328D01*
X157827148Y-87566779D01*
X158171655Y-87800000D01*
X158480841Y-88098222D01*
X158748362Y-88456673D01*
X158967872Y-88870585D01*
X159068028Y-89126458D01*
X159124527Y-89343405D01*
X159168298Y-89615989D01*
X159197110Y-89915832D01*
X159208728Y-90214555D01*
X159200922Y-90483781D01*
X159185652Y-90621496D01*
X159153449Y-90827834D01*
X159054041Y-90437834D01*
X158957659Y-90081154D01*
X158866525Y-89792515D01*
X158774841Y-89556019D01*
X158676809Y-89355763D01*
X158629941Y-89274657D01*
X158443124Y-89021746D01*
X158196510Y-88769368D01*
X157912706Y-88537500D01*
X157614317Y-88346123D01*
X157528370Y-88301093D01*
X157347491Y-88215150D01*
X157209931Y-88162678D01*
X157085268Y-88135547D01*
X156943080Y-88125628D01*
X156867942Y-88124626D01*
X156622871Y-88138184D01*
X156452131Y-88181959D01*
X156428292Y-88193430D01*
X156231369Y-88340009D01*
X156102524Y-88529201D01*
X156043199Y-88751387D01*
X156054839Y-88996947D01*
X156138886Y-89256262D01*
X156241252Y-89440325D01*
X156365367Y-89609730D01*
X156511318Y-89767059D01*
X156688766Y-89919108D01*
X156907372Y-90072668D01*
X157176796Y-90234534D01*
X157506699Y-90411498D01*
X157901631Y-90607881D01*
X158157060Y-90733473D01*
X158352034Y-90835413D01*
X158503457Y-90924457D01*
X158628235Y-91011360D01*
X158743271Y-91106879D01*
X158863668Y-91220015D01*
X159002503Y-91365423D01*
X159123839Y-91510743D01*
X159209342Y-91633227D01*
X159232348Y-91677410D01*
X159296240Y-91937362D01*
X159282698Y-92227020D01*
X159192369Y-92543352D01*
X159025901Y-92883327D01*
X158947696Y-93010555D01*
X158818134Y-93194428D01*
X158667603Y-93373457D01*
X158485959Y-93557153D01*
X158263062Y-93755025D01*
X157988770Y-93976583D01*
X157652940Y-94231339D01*
X157619166Y-94256357D01*
X157348050Y-94459925D01*
X157041083Y-94695421D01*
X156727239Y-94940314D01*
X156435493Y-95172071D01*
X156285666Y-95293355D01*
X156082008Y-95459136D01*
X155898415Y-95607427D01*
X155745804Y-95729502D01*
X155635095Y-95816634D01*
X155577207Y-95860099D01*
X155573676Y-95862359D01*
X155569790Y-95848207D01*
X155609857Y-95781033D01*
X155685540Y-95674405D01*
X155705727Y-95647545D01*
X155978610Y-95265397D01*
X156182325Y-94929307D01*
X156317643Y-94637616D01*
X156385333Y-94388661D01*
X156386167Y-94180781D01*
X156386035Y-94180017D01*
X156360380Y-94068720D01*
X156316973Y-93913599D01*
X156272207Y-93770000D01*
X156189593Y-93395025D01*
X156186127Y-93289145D01*
X156589413Y-93289145D01*
X156594533Y-93389683D01*
X156635167Y-93525880D01*
X156698612Y-93663796D01*
X156767130Y-93764046D01*
X156908685Y-93876943D01*
X157074254Y-93920673D01*
X157275431Y-93896791D01*
X157416697Y-93851170D01*
X157489248Y-93815113D01*
X157491661Y-93769072D01*
X157460686Y-93717490D01*
X157374173Y-93620827D01*
X157248545Y-93521444D01*
X157100181Y-93427393D01*
X156945456Y-93346727D01*
X156800749Y-93287496D01*
X156682435Y-93257752D01*
X156606892Y-93265545D01*
X156589413Y-93289145D01*
X156186127Y-93289145D01*
X156176796Y-93004167D01*
X156219917Y-92686779D01*
X156582000Y-92686779D01*
X156595175Y-92755335D01*
X156649802Y-92794103D01*
X156753975Y-92817947D01*
X156964500Y-92878957D01*
X157201682Y-92987951D01*
X157436699Y-93128955D01*
X157640731Y-93285995D01*
X157699948Y-93342259D01*
X157907731Y-93553677D01*
X158025689Y-93460755D01*
X158105032Y-93389315D01*
X158144972Y-93335941D01*
X158145991Y-93331210D01*
X158116183Y-93277002D01*
X158034584Y-93190850D01*
X157919244Y-93088667D01*
X157788215Y-92986366D01*
X157659548Y-92899859D01*
X157650633Y-92894532D01*
X157468632Y-92801300D01*
X157256667Y-92714552D01*
X157042211Y-92643616D01*
X156852733Y-92597822D01*
X156740750Y-92585560D01*
X156635905Y-92591805D01*
X156591061Y-92622431D01*
X156582000Y-92686779D01*
X156219917Y-92686779D01*
X156229879Y-92613456D01*
X156344906Y-92238924D01*
X156416224Y-92097834D01*
X156751200Y-92097834D01*
X156888850Y-92131770D01*
X157326533Y-92258702D01*
X157692253Y-92407784D01*
X157997060Y-92584504D01*
X158252002Y-92794353D01*
X158281347Y-92823628D01*
X158380605Y-92920826D01*
X158456218Y-92987630D01*
X158487852Y-93008000D01*
X158527255Y-92977310D01*
X158591787Y-92901595D01*
X158606038Y-92882714D01*
X158667264Y-92789423D01*
X158697867Y-92722262D01*
X158698666Y-92715707D01*
X158664875Y-92659831D01*
X158574521Y-92573563D01*
X158444137Y-92469242D01*
X158290252Y-92359207D01*
X158129399Y-92255794D01*
X157978109Y-92171343D01*
X157952471Y-92158774D01*
X157773685Y-92083991D01*
X157555349Y-92007617D01*
X157340927Y-91944694D01*
X157314612Y-91938040D01*
X156951361Y-91848364D01*
X156851281Y-91973099D01*
X156751200Y-92097834D01*
X156416224Y-92097834D01*
X156517944Y-91896603D01*
X156745055Y-91602523D01*
X156813200Y-91535828D01*
X157365166Y-91535828D01*
X157640333Y-91629925D01*
X158089047Y-91816011D01*
X158510466Y-92053525D01*
X158656333Y-92153812D01*
X158777172Y-92234564D01*
X158872052Y-92284562D01*
X158920827Y-92293232D01*
X158921239Y-92292869D01*
X158944581Y-92233954D01*
X158961514Y-92127221D01*
X158963572Y-92100985D01*
X158964039Y-92010986D01*
X158941438Y-91944738D01*
X158880610Y-91880219D01*
X158766395Y-91795410D01*
X158741000Y-91777683D01*
X158580768Y-91682369D01*
X158380861Y-91585759D01*
X158183465Y-91508165D01*
X158176033Y-91505683D01*
X158010440Y-91452336D01*
X157896922Y-91424135D01*
X157807346Y-91419114D01*
X157713577Y-91435307D01*
X157604533Y-91465754D01*
X157365166Y-91535828D01*
X156813200Y-91535828D01*
X156823022Y-91526215D01*
X157072255Y-91332623D01*
X157347905Y-91176165D01*
X157624042Y-91069879D01*
X157805782Y-91032069D01*
X158033983Y-91005042D01*
X157831567Y-90925532D01*
X157307778Y-90688401D01*
X156844321Y-90409083D01*
X156422406Y-90075525D01*
X156243333Y-89906739D01*
X155938244Y-89565078D01*
X155709115Y-89221149D01*
X155558272Y-88879452D01*
X155488041Y-88544485D01*
X155482951Y-88436000D01*
X155502033Y-88165230D01*
X155567812Y-87945960D01*
X155688589Y-87754230D01*
X155739518Y-87695530D01*
X155974149Y-87503123D01*
X156264991Y-87373736D01*
X156611407Y-87307642D01*
X156645146Y-87304819D01*
X157057548Y-87314418D01*
G36*
X161640810Y-87133035D02*
G01*
X161656650Y-87149734D01*
X161676566Y-87171399D01*
X161691755Y-87187167D01*
X161834610Y-87339869D01*
X162020100Y-87554430D01*
X162242299Y-87823353D01*
X162495280Y-88139143D01*
X162773114Y-88494302D01*
X163069876Y-88881334D01*
X163379637Y-89292744D01*
X163696471Y-89721036D01*
X163711727Y-89741851D01*
X164714132Y-91110134D01*
X164520653Y-91392317D01*
X164462482Y-91476877D01*
X164360904Y-91624217D01*
X164220660Y-91827470D01*
X164046490Y-92079773D01*
X163843135Y-92374260D01*
X163615335Y-92704067D01*
X163367832Y-93062328D01*
X163105365Y-93442179D01*
X162832675Y-93836755D01*
X162791035Y-93897000D01*
X161254896Y-96119500D01*
X160749364Y-96124218D01*
X160605082Y-96123761D01*
X160386867Y-96120629D01*
X160105403Y-96115082D01*
X159771374Y-96107381D01*
X159395463Y-96097787D01*
X158988353Y-96086560D01*
X158560728Y-96073961D01*
X158123272Y-96060252D01*
X158106000Y-96059693D01*
X157653252Y-96044848D01*
X157266447Y-96031551D01*
X156946896Y-96019510D01*
X156695910Y-96008432D01*
X156514802Y-95998023D01*
X156404881Y-95987990D01*
X156367459Y-95978041D01*
X156403847Y-95967882D01*
X156515357Y-95957220D01*
X156703300Y-95945762D01*
X156968986Y-95933215D01*
X157313728Y-95919286D01*
X157738836Y-95903681D01*
X158245622Y-95886107D01*
X158835396Y-95866272D01*
X158995000Y-95860957D01*
X159403976Y-95846832D01*
X159786967Y-95832593D01*
X160135691Y-95818622D01*
X160441867Y-95805296D01*
X160697213Y-95792996D01*
X160893449Y-95782101D01*
X161022293Y-95772990D01*
X161075464Y-95766043D01*
X161076207Y-95765586D01*
X161103541Y-95724747D01*
X161170275Y-95619017D01*
X161271845Y-95455863D01*
X161403687Y-95242752D01*
X161561237Y-94987152D01*
X161739933Y-94696529D01*
X161935209Y-94378351D01*
X162142502Y-94040084D01*
X162357250Y-93689196D01*
X162574887Y-93333153D01*
X162790850Y-92979423D01*
X163000576Y-92635472D01*
X163199500Y-92308769D01*
X163383060Y-92006779D01*
X163546690Y-91736970D01*
X163685829Y-91506809D01*
X163795911Y-91323763D01*
X163872373Y-91195299D01*
X163910652Y-91128884D01*
X163913608Y-91123098D01*
X163916407Y-91092683D01*
X163902965Y-91040703D01*
X163870144Y-90961448D01*
X163814808Y-90849208D01*
X163733820Y-90698273D01*
X163624043Y-90502935D01*
X163482340Y-90257483D01*
X163305575Y-89956208D01*
X163090610Y-89593400D01*
X162866994Y-89218098D01*
X162598563Y-88768469D01*
X162370417Y-88386381D01*
X162179539Y-88066619D01*
X162022911Y-87803969D01*
X161897517Y-87593215D01*
X161800338Y-87429144D01*
X161728357Y-87306541D01*
X161678557Y-87220191D01*
X161647919Y-87164880D01*
X161633427Y-87135393D01*
X161632064Y-87126517D01*
X161640810Y-87133035D01*
G37*
X161640810Y-87133035D02*
X161656650Y-87149734D01*
X161676566Y-87171399D01*
X161691755Y-87187167D01*
X161834610Y-87339869D01*
X162020100Y-87554430D01*
X162242299Y-87823353D01*
X162495280Y-88139143D01*
X162773114Y-88494302D01*
X163069876Y-88881334D01*
X163379637Y-89292744D01*
X163696471Y-89721036D01*
X163711727Y-89741851D01*
X164714132Y-91110134D01*
X164520653Y-91392317D01*
X164462482Y-91476877D01*
X164360904Y-91624217D01*
X164220660Y-91827470D01*
X164046490Y-92079773D01*
X163843135Y-92374260D01*
X163615335Y-92704067D01*
X163367832Y-93062328D01*
X163105365Y-93442179D01*
X162832675Y-93836755D01*
X162791035Y-93897000D01*
X161254896Y-96119500D01*
X160749364Y-96124218D01*
X160605082Y-96123761D01*
X160386867Y-96120629D01*
X160105403Y-96115082D01*
X159771374Y-96107381D01*
X159395463Y-96097787D01*
X158988353Y-96086560D01*
X158560728Y-96073961D01*
X158123272Y-96060252D01*
X158106000Y-96059693D01*
X157653252Y-96044848D01*
X157266447Y-96031551D01*
X156946896Y-96019510D01*
X156695910Y-96008432D01*
X156514802Y-95998023D01*
X156404881Y-95987990D01*
X156367459Y-95978041D01*
X156403847Y-95967882D01*
X156515357Y-95957220D01*
X156703300Y-95945762D01*
X156968986Y-95933215D01*
X157313728Y-95919286D01*
X157738836Y-95903681D01*
X158245622Y-95886107D01*
X158835396Y-95866272D01*
X158995000Y-95860957D01*
X159403976Y-95846832D01*
X159786967Y-95832593D01*
X160135691Y-95818622D01*
X160441867Y-95805296D01*
X160697213Y-95792996D01*
X160893449Y-95782101D01*
X161022293Y-95772990D01*
X161075464Y-95766043D01*
X161076207Y-95765586D01*
X161103541Y-95724747D01*
X161170275Y-95619017D01*
X161271845Y-95455863D01*
X161403687Y-95242752D01*
X161561237Y-94987152D01*
X161739933Y-94696529D01*
X161935209Y-94378351D01*
X162142502Y-94040084D01*
X162357250Y-93689196D01*
X162574887Y-93333153D01*
X162790850Y-92979423D01*
X163000576Y-92635472D01*
X163199500Y-92308769D01*
X163383060Y-92006779D01*
X163546690Y-91736970D01*
X163685829Y-91506809D01*
X163795911Y-91323763D01*
X163872373Y-91195299D01*
X163910652Y-91128884D01*
X163913608Y-91123098D01*
X163916407Y-91092683D01*
X163902965Y-91040703D01*
X163870144Y-90961448D01*
X163814808Y-90849208D01*
X163733820Y-90698273D01*
X163624043Y-90502935D01*
X163482340Y-90257483D01*
X163305575Y-89956208D01*
X163090610Y-89593400D01*
X162866994Y-89218098D01*
X162598563Y-88768469D01*
X162370417Y-88386381D01*
X162179539Y-88066619D01*
X162022911Y-87803969D01*
X161897517Y-87593215D01*
X161800338Y-87429144D01*
X161728357Y-87306541D01*
X161678557Y-87220191D01*
X161647919Y-87164880D01*
X161633427Y-87135393D01*
X161632064Y-87126517D01*
X161640810Y-87133035D01*
D12*
X166160000Y-98000000D02*
X166160000Y-96670000D01*
X166160000Y-96670000D02*
X167490000Y-96670000D01*
X168760000Y-96670000D02*
X181520000Y-96670000D01*
X181520000Y-99330000D02*
X181520000Y-96670000D01*
X168760000Y-99330000D02*
X181520000Y-99330000D01*
X168760000Y-99330000D02*
X168760000Y-96670000D01*
X168890000Y-81970000D02*
X168890000Y-80640000D01*
X168890000Y-80640000D02*
X170220000Y-80640000D01*
X171490000Y-80640000D02*
X184250000Y-80640000D01*
X184250000Y-83300000D02*
X184250000Y-80640000D01*
X171490000Y-83300000D02*
X184250000Y-83300000D01*
X171490000Y-83300000D02*
X171490000Y-80640000D01*
X171840000Y-85940000D02*
X173170000Y-85940000D01*
X173170000Y-85940000D02*
X173170000Y-87270000D01*
X173170000Y-88540000D02*
X173170000Y-93680000D01*
X170510000Y-93680000D02*
X173170000Y-93680000D01*
X170510000Y-88540000D02*
X170510000Y-93680000D01*
X170510000Y-88540000D02*
X173170000Y-88540000D01*
X179470000Y-93680000D02*
X178140000Y-93680000D01*
X178140000Y-93680000D02*
X178140000Y-92350000D01*
X178140000Y-91080000D02*
X178140000Y-85940000D01*
X180800000Y-85940000D02*
X178140000Y-85940000D01*
X180800000Y-91080000D02*
X180800000Y-85940000D01*
X180800000Y-91080000D02*
X178140000Y-91080000D01*
X186530000Y-93180000D02*
X185200000Y-93180000D01*
X185200000Y-93180000D02*
X185200000Y-91850000D01*
X185200000Y-90580000D02*
X185200000Y-80360000D01*
X187860000Y-80360000D02*
X185200000Y-80360000D01*
X187860000Y-90580000D02*
X187860000Y-80360000D01*
X187860000Y-90580000D02*
X185200000Y-90580000D01*
X166340000Y-85930000D02*
X167670000Y-85930000D01*
X167670000Y-85930000D02*
X167670000Y-87260000D01*
X167670000Y-88530000D02*
X167670000Y-93670000D01*
X165010000Y-93670000D02*
X167670000Y-93670000D01*
X165010000Y-88530000D02*
X165010000Y-93670000D01*
X165010000Y-88530000D02*
X167670000Y-88530000D01*
X167840000Y-82020000D02*
X167840000Y-83350000D01*
X167840000Y-83350000D02*
X166510000Y-83350000D01*
X165240000Y-83350000D02*
X157560000Y-83350000D01*
X157560000Y-80690000D02*
X157560000Y-83350000D01*
X165240000Y-80690000D02*
X157560000Y-80690000D01*
X165240000Y-80690000D02*
X165240000Y-83350000D01*
X162140000Y-98050000D02*
X162140000Y-99380000D01*
X162140000Y-99380000D02*
X160810000Y-99380000D01*
X159540000Y-99380000D02*
X151860000Y-99380000D01*
X151860000Y-96720000D02*
X151860000Y-99380000D01*
X159540000Y-96720000D02*
X151860000Y-96720000D01*
X159540000Y-96720000D02*
X159540000Y-99380000D01*
D10*
X165263333Y-98716190D02*
X165263333Y-99073333D01*
X165239523Y-99144761D01*
X165191904Y-99192380D01*
X165120476Y-99216190D01*
X165072857Y-99216190D01*
X165572857Y-98930476D02*
X165525238Y-98906666D01*
X165501428Y-98882857D01*
X165477619Y-98835238D01*
X165477619Y-98811428D01*
X165501428Y-98763809D01*
X165525238Y-98740000D01*
X165572857Y-98716190D01*
X165668095Y-98716190D01*
X165715714Y-98740000D01*
X165739523Y-98763809D01*
X165763333Y-98811428D01*
X165763333Y-98835238D01*
X165739523Y-98882857D01*
X165715714Y-98906666D01*
X165668095Y-98930476D01*
X165572857Y-98930476D01*
X165525238Y-98954285D01*
X165501428Y-98978095D01*
X165477619Y-99025714D01*
X165477619Y-99120952D01*
X165501428Y-99168571D01*
X165525238Y-99192380D01*
X165572857Y-99216190D01*
X165668095Y-99216190D01*
X165715714Y-99192380D01*
X165739523Y-99168571D01*
X165763333Y-99120952D01*
X165763333Y-99025714D01*
X165739523Y-98978095D01*
X165715714Y-98954285D01*
X165668095Y-98930476D01*
X169233333Y-83586190D02*
X169233333Y-83943333D01*
X169209523Y-84014761D01*
X169161904Y-84062380D01*
X169090476Y-84086190D01*
X169042857Y-84086190D01*
X169423809Y-83586190D02*
X169757142Y-83586190D01*
X169542857Y-84086190D01*
X170853333Y-85116190D02*
X170853333Y-85473333D01*
X170829523Y-85544761D01*
X170781904Y-85592380D01*
X170710476Y-85616190D01*
X170662857Y-85616190D01*
X171305714Y-85116190D02*
X171210476Y-85116190D01*
X171162857Y-85140000D01*
X171139047Y-85163809D01*
X171091428Y-85235238D01*
X171067619Y-85330476D01*
X171067619Y-85520952D01*
X171091428Y-85568571D01*
X171115238Y-85592380D01*
X171162857Y-85616190D01*
X171258095Y-85616190D01*
X171305714Y-85592380D01*
X171329523Y-85568571D01*
X171353333Y-85520952D01*
X171353333Y-85401904D01*
X171329523Y-85354285D01*
X171305714Y-85330476D01*
X171258095Y-85306666D01*
X171162857Y-85306666D01*
X171115238Y-85330476D01*
X171091428Y-85354285D01*
X171067619Y-85401904D01*
X180123333Y-93906190D02*
X180123333Y-94263333D01*
X180099523Y-94334761D01*
X180051904Y-94382380D01*
X179980476Y-94406190D01*
X179932857Y-94406190D01*
X180599523Y-93906190D02*
X180361428Y-93906190D01*
X180337619Y-94144285D01*
X180361428Y-94120476D01*
X180409047Y-94096666D01*
X180528095Y-94096666D01*
X180575714Y-94120476D01*
X180599523Y-94144285D01*
X180623333Y-94191904D01*
X180623333Y-94310952D01*
X180599523Y-94358571D01*
X180575714Y-94382380D01*
X180528095Y-94406190D01*
X180409047Y-94406190D01*
X180361428Y-94382380D01*
X180337619Y-94358571D01*
X187243333Y-93556190D02*
X187243333Y-93913333D01*
X187219523Y-93984761D01*
X187171904Y-94032380D01*
X187100476Y-94056190D01*
X187052857Y-94056190D01*
X187695714Y-93722857D02*
X187695714Y-94056190D01*
X187576666Y-93532380D02*
X187457619Y-93889523D01*
X187767142Y-93889523D01*
X165303333Y-85036190D02*
X165303333Y-85393333D01*
X165279523Y-85464761D01*
X165231904Y-85512380D01*
X165160476Y-85536190D01*
X165112857Y-85536190D01*
X165493809Y-85036190D02*
X165803333Y-85036190D01*
X165636666Y-85226666D01*
X165708095Y-85226666D01*
X165755714Y-85250476D01*
X165779523Y-85274285D01*
X165803333Y-85321904D01*
X165803333Y-85440952D01*
X165779523Y-85488571D01*
X165755714Y-85512380D01*
X165708095Y-85536190D01*
X165565238Y-85536190D01*
X165517619Y-85512380D01*
X165493809Y-85488571D01*
X156603333Y-80656190D02*
X156603333Y-81013333D01*
X156579523Y-81084761D01*
X156531904Y-81132380D01*
X156460476Y-81156190D01*
X156412857Y-81156190D01*
X156817619Y-80703809D02*
X156841428Y-80680000D01*
X156889047Y-80656190D01*
X157008095Y-80656190D01*
X157055714Y-80680000D01*
X157079523Y-80703809D01*
X157103333Y-80751428D01*
X157103333Y-80799047D01*
X157079523Y-80870476D01*
X156793809Y-81156190D01*
X157103333Y-81156190D01*
X162683333Y-96876190D02*
X162683333Y-97233333D01*
X162659523Y-97304761D01*
X162611904Y-97352380D01*
X162540476Y-97376190D01*
X162492857Y-97376190D01*
X163183333Y-97376190D02*
X162897619Y-97376190D01*
X163040476Y-97376190D02*
X163040476Y-96876190D01*
X162992857Y-96947619D01*
X162945238Y-96995238D01*
X162897619Y-97019047D01*
%LPC*%
D13*
X184610000Y-96310000D03*
X154100000Y-83820000D03*
D14*
X180190000Y-98000000D03*
X177650000Y-98000000D03*
X175110000Y-98000000D03*
X172570000Y-98000000D03*
X170030000Y-98000000D03*
D15*
X167490000Y-98000000D03*
D14*
X182920000Y-81970000D03*
X180380000Y-81970000D03*
X177840000Y-81970000D03*
X175300000Y-81970000D03*
X172760000Y-81970000D03*
D15*
X170220000Y-81970000D03*
D14*
X171840000Y-92350000D03*
X171840000Y-89810000D03*
D15*
X171840000Y-87270000D03*
D14*
X179470000Y-87270000D03*
X179470000Y-89810000D03*
D15*
X179470000Y-92350000D03*
D14*
X186530000Y-81690000D03*
X186530000Y-84230000D03*
X186530000Y-86770000D03*
X186530000Y-89310000D03*
D15*
X186530000Y-91850000D03*
D14*
X166340000Y-92340000D03*
X166340000Y-89800000D03*
D15*
X166340000Y-87260000D03*
D14*
X158890000Y-82020000D03*
X161430000Y-82020000D03*
X163970000Y-82020000D03*
D15*
X166510000Y-82020000D03*
D14*
X153190000Y-98050000D03*
X155730000Y-98050000D03*
X158270000Y-98050000D03*
D15*
X160810000Y-98050000D03*
M02*
