G04 #@! TF.GenerationSoftware,KiCad,Pcbnew,5.1.5+dfsg1-2build2*
G04 #@! TF.CreationDate,2023-02-26T20:32:14+01:00*
G04 #@! TF.ProjectId,EcoApi_BeeHiveSensor,45636f41-7069-45f4-9265-654869766553,rev?*
G04 #@! TF.SameCoordinates,Original*
G04 #@! TF.FileFunction,Copper,L1,Top*
G04 #@! TF.FilePolarity,Positive*
%FSLAX46Y46*%
G04 Gerber Fmt 4.6, Leading zero omitted, Abs format (unit mm)*
G04 Created by KiCad (PCBNEW 5.1.5+dfsg1-2build2) date 2023-02-26 20:32:14*
%MOMM*%
%LPD*%
G04 APERTURE LIST*
%ADD10C,4.700000*%
%ADD11O,1.700000X1.700000*%
%ADD12R,1.700000X1.700000*%
%ADD13C,0.800000*%
%ADD14C,0.250000*%
%ADD15C,0.254000*%
G04 APERTURE END LIST*
D10*
X184610000Y-96310000D03*
X154100000Y-83820000D03*
D11*
X180190000Y-98000000D03*
X177650000Y-98000000D03*
X175110000Y-98000000D03*
X172570000Y-98000000D03*
X170030000Y-98000000D03*
D12*
X167490000Y-98000000D03*
D11*
X182920000Y-81970000D03*
X180380000Y-81970000D03*
X177840000Y-81970000D03*
X175300000Y-81970000D03*
X172760000Y-81970000D03*
D12*
X170220000Y-81970000D03*
D11*
X171840000Y-92350000D03*
X171840000Y-89810000D03*
D12*
X171840000Y-87270000D03*
D11*
X179470000Y-87270000D03*
X179470000Y-89810000D03*
D12*
X179470000Y-92350000D03*
D11*
X186530000Y-81690000D03*
X186530000Y-84230000D03*
X186530000Y-86770000D03*
X186530000Y-89310000D03*
D12*
X186530000Y-91850000D03*
D11*
X166340000Y-92340000D03*
X166340000Y-89800000D03*
D12*
X166340000Y-87260000D03*
D11*
X158890000Y-82020000D03*
X161430000Y-82020000D03*
X163970000Y-82020000D03*
D12*
X166510000Y-82020000D03*
D11*
X153190000Y-98050000D03*
X155730000Y-98050000D03*
X158270000Y-98050000D03*
D12*
X160810000Y-98050000D03*
D13*
X160480000Y-93670000D03*
X160490000Y-91970000D03*
X160010000Y-88570000D03*
X157860000Y-87900000D03*
X183880000Y-88470000D03*
X170020000Y-91120000D03*
X178930000Y-96420000D03*
X177740000Y-94140000D03*
X162680000Y-87650000D03*
X176200000Y-88290000D03*
X180640000Y-88600000D03*
X154530000Y-96480000D03*
X176560000Y-83350000D03*
X173080000Y-85320000D03*
X177880000Y-85360000D03*
X151480000Y-87030000D03*
X151440000Y-92350000D03*
X183860000Y-85470000D03*
X171110000Y-83720000D03*
X159430000Y-83690000D03*
X162750000Y-83680000D03*
X161010000Y-87370000D03*
X175360000Y-95070000D03*
X170560000Y-95070000D03*
X175830000Y-86130000D03*
X184760000Y-82990000D03*
D14*
X153190000Y-96130000D02*
X153190000Y-98050000D01*
X153860000Y-95460000D02*
X153190000Y-96130000D01*
X160730000Y-95460000D02*
X153860000Y-95460000D01*
X161420000Y-94770000D02*
X160730000Y-95460000D01*
X161420000Y-94770000D02*
X161420000Y-94000000D01*
X161090000Y-93670000D02*
X160480000Y-93670000D01*
X161420000Y-94000000D02*
X161090000Y-93670000D01*
X155730000Y-96430000D02*
X155730000Y-98050000D01*
X156040000Y-96120000D02*
X155730000Y-96430000D01*
X161000000Y-96120000D02*
X156040000Y-96120000D01*
X161980000Y-95140000D02*
X161000000Y-96120000D01*
X161980000Y-95140000D02*
X161980000Y-92500000D01*
X161450000Y-91970000D02*
X160490000Y-91970000D01*
X161980000Y-92500000D02*
X161450000Y-91970000D01*
X159444315Y-88570000D02*
X158774315Y-87900000D01*
X160010000Y-88570000D02*
X159444315Y-88570000D01*
X158774315Y-87900000D02*
X157860000Y-87900000D01*
X157860000Y-87900000D02*
X157860000Y-87900000D01*
X171840000Y-89810000D02*
X169670000Y-87640000D01*
X170220000Y-83070000D02*
X169670000Y-83620000D01*
X169670000Y-83620000D02*
X169670000Y-87640000D01*
X170220000Y-81970000D02*
X170220000Y-83070000D01*
X170170000Y-82020000D02*
X170220000Y-81970000D01*
X166510000Y-82020000D02*
X170170000Y-82020000D01*
X176800001Y-97150001D02*
X176800001Y-96510001D01*
X177650000Y-98000000D02*
X176800001Y-97150001D01*
X176800001Y-96510001D02*
X175360000Y-95070000D01*
X175360000Y-95070000D02*
X175360000Y-95070000D01*
X175300000Y-85600000D02*
X175830000Y-86130000D01*
X175300000Y-81970000D02*
X175300000Y-85600000D01*
X170560000Y-94470000D02*
X170560000Y-95070000D01*
X168430000Y-92340000D02*
X170560000Y-94470000D01*
X166340000Y-92340000D02*
X168430000Y-92340000D01*
X168840000Y-91860000D02*
X168840000Y-90310000D01*
X168330000Y-89800000D02*
X166340000Y-89800000D01*
X168840000Y-90310000D02*
X168330000Y-89800000D01*
X177690000Y-89810000D02*
X179470000Y-89810000D01*
X177650000Y-89770000D02*
X177690000Y-89810000D01*
X177650000Y-90730000D02*
X177650000Y-89770000D01*
X171220000Y-94240000D02*
X168840000Y-91860000D01*
X174140000Y-94240000D02*
X177650000Y-90730000D01*
X172570000Y-94300000D02*
X172570000Y-98000000D01*
X172510000Y-94240000D02*
X172570000Y-94300000D01*
X174140000Y-94240000D02*
X172510000Y-94240000D01*
X172510000Y-94240000D02*
X171220000Y-94240000D01*
X180380000Y-83560000D02*
X180380000Y-81970000D01*
X180390000Y-83580000D02*
X180380000Y-83560000D01*
X180390000Y-85010000D02*
X180390000Y-83580000D01*
X179760000Y-85640000D02*
X180390000Y-85010000D01*
X177650000Y-86950000D02*
X178960000Y-85640000D01*
X178960000Y-85640000D02*
X179760000Y-85640000D01*
X177650000Y-89770000D02*
X177650000Y-86950000D01*
X177840000Y-82370000D02*
X177840000Y-81970000D01*
X184760000Y-87540000D02*
X186530000Y-89310000D01*
X184760000Y-82990000D02*
X184760000Y-87540000D01*
X177840000Y-84033590D02*
X177840000Y-81970000D01*
X176600000Y-85350000D02*
X177840000Y-84110000D01*
X177840000Y-84110000D02*
X177840000Y-84033590D01*
X176600000Y-86690000D02*
X176600000Y-85350000D01*
X176020000Y-87270000D02*
X176600000Y-86690000D01*
X171840000Y-87270000D02*
X176020000Y-87270000D01*
X182920000Y-86090000D02*
X182920000Y-81970000D01*
X186030000Y-92350000D02*
X186530000Y-91850000D01*
X182920000Y-92220000D02*
X182920000Y-86090000D01*
X183050000Y-92350000D02*
X182920000Y-92220000D01*
X179470000Y-92350000D02*
X183050000Y-92350000D01*
X183050000Y-92350000D02*
X186030000Y-92350000D01*
D15*
G36*
X185648645Y-80494822D02*
G01*
X185432412Y-80689731D01*
X185258359Y-80923080D01*
X185133175Y-81185901D01*
X185088524Y-81333110D01*
X185209845Y-81563000D01*
X186403000Y-81563000D01*
X186403000Y-81543000D01*
X186657000Y-81543000D01*
X186657000Y-81563000D01*
X186677000Y-81563000D01*
X186677000Y-81817000D01*
X186657000Y-81817000D01*
X186657000Y-81837000D01*
X186403000Y-81837000D01*
X186403000Y-81817000D01*
X185209845Y-81817000D01*
X185088524Y-82046890D01*
X185133175Y-82194099D01*
X185207197Y-82349507D01*
X185129942Y-82297887D01*
X184987809Y-82239013D01*
X184836922Y-82209000D01*
X184683078Y-82209000D01*
X184532191Y-82239013D01*
X184390058Y-82297887D01*
X184262141Y-82383358D01*
X184153358Y-82492141D01*
X184067887Y-82620058D01*
X184009013Y-82762191D01*
X183979000Y-82913078D01*
X183979000Y-83066922D01*
X184009013Y-83217809D01*
X184067887Y-83359942D01*
X184153358Y-83487859D01*
X184254000Y-83588501D01*
X184254001Y-87515144D01*
X184251553Y-87540000D01*
X184261322Y-87639192D01*
X184290255Y-87734574D01*
X184312127Y-87775492D01*
X184337242Y-87822479D01*
X184400474Y-87899527D01*
X184419781Y-87915372D01*
X185378242Y-88873833D01*
X185346307Y-88950931D01*
X185299000Y-89188757D01*
X185299000Y-89431243D01*
X185346307Y-89669069D01*
X185439102Y-89893097D01*
X185573820Y-90094717D01*
X185745283Y-90266180D01*
X185946903Y-90400898D01*
X186170931Y-90493693D01*
X186408757Y-90541000D01*
X186651243Y-90541000D01*
X186889069Y-90493693D01*
X187113097Y-90400898D01*
X187314717Y-90266180D01*
X187486180Y-90094717D01*
X187620898Y-89893097D01*
X187713693Y-89669069D01*
X187761000Y-89431243D01*
X187761000Y-89188757D01*
X187713693Y-88950931D01*
X187620898Y-88726903D01*
X187486180Y-88525283D01*
X187314717Y-88353820D01*
X187113097Y-88219102D01*
X186889069Y-88126307D01*
X186651243Y-88079000D01*
X186408757Y-88079000D01*
X186170931Y-88126307D01*
X186093833Y-88158242D01*
X185266000Y-87330409D01*
X185266000Y-86648757D01*
X185299000Y-86648757D01*
X185299000Y-86891243D01*
X185346307Y-87129069D01*
X185439102Y-87353097D01*
X185573820Y-87554717D01*
X185745283Y-87726180D01*
X185946903Y-87860898D01*
X186170931Y-87953693D01*
X186408757Y-88001000D01*
X186651243Y-88001000D01*
X186889069Y-87953693D01*
X187113097Y-87860898D01*
X187314717Y-87726180D01*
X187486180Y-87554717D01*
X187620898Y-87353097D01*
X187713693Y-87129069D01*
X187761000Y-86891243D01*
X187761000Y-86648757D01*
X187713693Y-86410931D01*
X187620898Y-86186903D01*
X187486180Y-85985283D01*
X187314717Y-85813820D01*
X187113097Y-85679102D01*
X186889069Y-85586307D01*
X186651243Y-85539000D01*
X186408757Y-85539000D01*
X186170931Y-85586307D01*
X185946903Y-85679102D01*
X185745283Y-85813820D01*
X185573820Y-85985283D01*
X185439102Y-86186903D01*
X185346307Y-86410931D01*
X185299000Y-86648757D01*
X185266000Y-86648757D01*
X185266000Y-83588501D01*
X185366642Y-83487859D01*
X185452113Y-83359942D01*
X185510987Y-83217809D01*
X185541000Y-83066922D01*
X185541000Y-82913078D01*
X185510987Y-82762191D01*
X185510263Y-82760442D01*
X185648645Y-82885178D01*
X185898748Y-83034157D01*
X186061168Y-83091772D01*
X185946903Y-83139102D01*
X185745283Y-83273820D01*
X185573820Y-83445283D01*
X185439102Y-83646903D01*
X185346307Y-83870931D01*
X185299000Y-84108757D01*
X185299000Y-84351243D01*
X185346307Y-84589069D01*
X185439102Y-84813097D01*
X185573820Y-85014717D01*
X185745283Y-85186180D01*
X185946903Y-85320898D01*
X186170931Y-85413693D01*
X186408757Y-85461000D01*
X186651243Y-85461000D01*
X186889069Y-85413693D01*
X187113097Y-85320898D01*
X187314717Y-85186180D01*
X187486180Y-85014717D01*
X187620898Y-84813097D01*
X187713693Y-84589069D01*
X187761000Y-84351243D01*
X187761000Y-84108757D01*
X187713693Y-83870931D01*
X187620898Y-83646903D01*
X187486180Y-83445283D01*
X187314717Y-83273820D01*
X187113097Y-83139102D01*
X186998832Y-83091772D01*
X187161252Y-83034157D01*
X187411355Y-82885178D01*
X187627588Y-82690269D01*
X187801641Y-82456920D01*
X187926825Y-82194099D01*
X187971476Y-82046890D01*
X187850156Y-81817002D01*
X187994000Y-81817002D01*
X187994001Y-99614000D01*
X150706000Y-99614000D01*
X150706000Y-97928757D01*
X151959000Y-97928757D01*
X151959000Y-98171243D01*
X152006307Y-98409069D01*
X152099102Y-98633097D01*
X152233820Y-98834717D01*
X152405283Y-99006180D01*
X152606903Y-99140898D01*
X152830931Y-99233693D01*
X153068757Y-99281000D01*
X153311243Y-99281000D01*
X153549069Y-99233693D01*
X153773097Y-99140898D01*
X153974717Y-99006180D01*
X154146180Y-98834717D01*
X154280898Y-98633097D01*
X154373693Y-98409069D01*
X154421000Y-98171243D01*
X154421000Y-97928757D01*
X154373693Y-97690931D01*
X154280898Y-97466903D01*
X154146180Y-97265283D01*
X153974717Y-97093820D01*
X153773097Y-96959102D01*
X153696000Y-96927168D01*
X153696000Y-96339591D01*
X154069592Y-95966000D01*
X155478409Y-95966000D01*
X155389785Y-96054624D01*
X155370473Y-96070473D01*
X155307241Y-96147521D01*
X155260255Y-96235426D01*
X155231322Y-96330808D01*
X155224000Y-96405147D01*
X155224000Y-96405154D01*
X155221553Y-96430000D01*
X155224000Y-96454847D01*
X155224000Y-96927167D01*
X155146903Y-96959102D01*
X154945283Y-97093820D01*
X154773820Y-97265283D01*
X154639102Y-97466903D01*
X154546307Y-97690931D01*
X154499000Y-97928757D01*
X154499000Y-98171243D01*
X154546307Y-98409069D01*
X154639102Y-98633097D01*
X154773820Y-98834717D01*
X154945283Y-99006180D01*
X155146903Y-99140898D01*
X155370931Y-99233693D01*
X155608757Y-99281000D01*
X155851243Y-99281000D01*
X156089069Y-99233693D01*
X156313097Y-99140898D01*
X156514717Y-99006180D01*
X156686180Y-98834717D01*
X156820898Y-98633097D01*
X156913693Y-98409069D01*
X156961000Y-98171243D01*
X156961000Y-97928757D01*
X157039000Y-97928757D01*
X157039000Y-98171243D01*
X157086307Y-98409069D01*
X157179102Y-98633097D01*
X157313820Y-98834717D01*
X157485283Y-99006180D01*
X157686903Y-99140898D01*
X157910931Y-99233693D01*
X158148757Y-99281000D01*
X158391243Y-99281000D01*
X158629069Y-99233693D01*
X158853097Y-99140898D01*
X159054717Y-99006180D01*
X159226180Y-98834717D01*
X159360898Y-98633097D01*
X159453693Y-98409069D01*
X159501000Y-98171243D01*
X159501000Y-97928757D01*
X159453693Y-97690931D01*
X159360898Y-97466903D01*
X159226180Y-97265283D01*
X159160897Y-97200000D01*
X159577157Y-97200000D01*
X159577157Y-98900000D01*
X159584513Y-98974689D01*
X159606299Y-99046508D01*
X159641678Y-99112696D01*
X159689289Y-99170711D01*
X159747304Y-99218322D01*
X159813492Y-99253701D01*
X159885311Y-99275487D01*
X159960000Y-99282843D01*
X161660000Y-99282843D01*
X161734689Y-99275487D01*
X161806508Y-99253701D01*
X161872696Y-99218322D01*
X161930711Y-99170711D01*
X161978322Y-99112696D01*
X162013701Y-99046508D01*
X162035487Y-98974689D01*
X162042843Y-98900000D01*
X162042843Y-98850000D01*
X166001928Y-98850000D01*
X166014188Y-98974482D01*
X166050498Y-99094180D01*
X166109463Y-99204494D01*
X166188815Y-99301185D01*
X166285506Y-99380537D01*
X166395820Y-99439502D01*
X166515518Y-99475812D01*
X166640000Y-99488072D01*
X167204250Y-99485000D01*
X167363000Y-99326250D01*
X167363000Y-98127000D01*
X166163750Y-98127000D01*
X166005000Y-98285750D01*
X166001928Y-98850000D01*
X162042843Y-98850000D01*
X162042843Y-97200000D01*
X162037919Y-97150000D01*
X166001928Y-97150000D01*
X166005000Y-97714250D01*
X166163750Y-97873000D01*
X167363000Y-97873000D01*
X167363000Y-96673750D01*
X167617000Y-96673750D01*
X167617000Y-97873000D01*
X167637000Y-97873000D01*
X167637000Y-98127000D01*
X167617000Y-98127000D01*
X167617000Y-99326250D01*
X167775750Y-99485000D01*
X168340000Y-99488072D01*
X168464482Y-99475812D01*
X168584180Y-99439502D01*
X168694494Y-99380537D01*
X168791185Y-99301185D01*
X168870537Y-99204494D01*
X168929502Y-99094180D01*
X168965812Y-98974482D01*
X168978072Y-98850000D01*
X168976927Y-98639706D01*
X169073820Y-98784717D01*
X169245283Y-98956180D01*
X169446903Y-99090898D01*
X169670931Y-99183693D01*
X169908757Y-99231000D01*
X170151243Y-99231000D01*
X170389069Y-99183693D01*
X170613097Y-99090898D01*
X170814717Y-98956180D01*
X170986180Y-98784717D01*
X171120898Y-98583097D01*
X171213693Y-98359069D01*
X171261000Y-98121243D01*
X171261000Y-97878757D01*
X171213693Y-97640931D01*
X171120898Y-97416903D01*
X170986180Y-97215283D01*
X170814717Y-97043820D01*
X170613097Y-96909102D01*
X170389069Y-96816307D01*
X170151243Y-96769000D01*
X169908757Y-96769000D01*
X169670931Y-96816307D01*
X169446903Y-96909102D01*
X169245283Y-97043820D01*
X169073820Y-97215283D01*
X168976927Y-97360294D01*
X168978072Y-97150000D01*
X168965812Y-97025518D01*
X168929502Y-96905820D01*
X168870537Y-96795506D01*
X168791185Y-96698815D01*
X168694494Y-96619463D01*
X168584180Y-96560498D01*
X168464482Y-96524188D01*
X168340000Y-96511928D01*
X167775750Y-96515000D01*
X167617000Y-96673750D01*
X167363000Y-96673750D01*
X167204250Y-96515000D01*
X166640000Y-96511928D01*
X166515518Y-96524188D01*
X166395820Y-96560498D01*
X166285506Y-96619463D01*
X166188815Y-96698815D01*
X166109463Y-96795506D01*
X166050498Y-96905820D01*
X166014188Y-97025518D01*
X166001928Y-97150000D01*
X162037919Y-97150000D01*
X162035487Y-97125311D01*
X162013701Y-97053492D01*
X161978322Y-96987304D01*
X161930711Y-96929289D01*
X161872696Y-96881678D01*
X161806508Y-96846299D01*
X161734689Y-96824513D01*
X161660000Y-96817157D01*
X159960000Y-96817157D01*
X159885311Y-96824513D01*
X159813492Y-96846299D01*
X159747304Y-96881678D01*
X159689289Y-96929289D01*
X159641678Y-96987304D01*
X159606299Y-97053492D01*
X159584513Y-97125311D01*
X159577157Y-97200000D01*
X159160897Y-97200000D01*
X159054717Y-97093820D01*
X158853097Y-96959102D01*
X158629069Y-96866307D01*
X158391243Y-96819000D01*
X158148757Y-96819000D01*
X157910931Y-96866307D01*
X157686903Y-96959102D01*
X157485283Y-97093820D01*
X157313820Y-97265283D01*
X157179102Y-97466903D01*
X157086307Y-97690931D01*
X157039000Y-97928757D01*
X156961000Y-97928757D01*
X156913693Y-97690931D01*
X156820898Y-97466903D01*
X156686180Y-97265283D01*
X156514717Y-97093820D01*
X156313097Y-96959102D01*
X156236000Y-96927168D01*
X156236000Y-96639591D01*
X156249591Y-96626000D01*
X160975154Y-96626000D01*
X161000000Y-96628447D01*
X161024846Y-96626000D01*
X161024854Y-96626000D01*
X161099193Y-96618678D01*
X161194575Y-96589745D01*
X161282479Y-96542759D01*
X161359527Y-96479527D01*
X161375376Y-96460215D01*
X162320220Y-95515372D01*
X162339527Y-95499527D01*
X162402759Y-95422479D01*
X162449745Y-95334575D01*
X162478678Y-95239193D01*
X162486000Y-95164854D01*
X162486000Y-95164847D01*
X162488447Y-95140001D01*
X162486000Y-95115155D01*
X162486000Y-92524845D01*
X162488447Y-92499999D01*
X162486000Y-92475153D01*
X162486000Y-92475146D01*
X162478678Y-92400807D01*
X162449745Y-92305425D01*
X162402759Y-92217521D01*
X162339527Y-92140473D01*
X162320220Y-92124628D01*
X161825376Y-91629785D01*
X161809527Y-91610473D01*
X161732479Y-91547241D01*
X161644575Y-91500255D01*
X161549193Y-91471322D01*
X161474854Y-91464000D01*
X161474846Y-91464000D01*
X161450000Y-91461553D01*
X161425154Y-91464000D01*
X161088501Y-91464000D01*
X160987859Y-91363358D01*
X160859942Y-91277887D01*
X160717809Y-91219013D01*
X160566922Y-91189000D01*
X160413078Y-91189000D01*
X160262191Y-91219013D01*
X160120058Y-91277887D01*
X159992141Y-91363358D01*
X159883358Y-91472141D01*
X159797887Y-91600058D01*
X159739013Y-91742191D01*
X159709000Y-91893078D01*
X159709000Y-92046922D01*
X159739013Y-92197809D01*
X159797887Y-92339942D01*
X159883358Y-92467859D01*
X159992141Y-92576642D01*
X160120058Y-92662113D01*
X160262191Y-92720987D01*
X160413078Y-92751000D01*
X160566922Y-92751000D01*
X160717809Y-92720987D01*
X160859942Y-92662113D01*
X160987859Y-92576642D01*
X161088501Y-92476000D01*
X161240409Y-92476000D01*
X161474001Y-92709593D01*
X161474001Y-93338410D01*
X161465376Y-93329785D01*
X161449527Y-93310473D01*
X161372479Y-93247241D01*
X161284575Y-93200255D01*
X161189193Y-93171322D01*
X161114854Y-93164000D01*
X161114846Y-93164000D01*
X161090000Y-93161553D01*
X161077304Y-93162803D01*
X160977859Y-93063358D01*
X160849942Y-92977887D01*
X160707809Y-92919013D01*
X160556922Y-92889000D01*
X160403078Y-92889000D01*
X160252191Y-92919013D01*
X160110058Y-92977887D01*
X159982141Y-93063358D01*
X159873358Y-93172141D01*
X159787887Y-93300058D01*
X159729013Y-93442191D01*
X159699000Y-93593078D01*
X159699000Y-93746922D01*
X159729013Y-93897809D01*
X159787887Y-94039942D01*
X159873358Y-94167859D01*
X159982141Y-94276642D01*
X160110058Y-94362113D01*
X160252191Y-94420987D01*
X160403078Y-94451000D01*
X160556922Y-94451000D01*
X160707809Y-94420987D01*
X160849942Y-94362113D01*
X160914001Y-94319311D01*
X160914000Y-94560408D01*
X160520409Y-94954000D01*
X153884845Y-94954000D01*
X153859999Y-94951553D01*
X153835153Y-94954000D01*
X153835146Y-94954000D01*
X153770694Y-94960348D01*
X153760806Y-94961322D01*
X153665425Y-94990255D01*
X153577521Y-95037241D01*
X153500473Y-95100473D01*
X153484629Y-95119779D01*
X152849785Y-95754624D01*
X152830473Y-95770473D01*
X152767241Y-95847521D01*
X152720255Y-95935426D01*
X152691322Y-96030808D01*
X152684000Y-96105147D01*
X152684000Y-96105154D01*
X152681553Y-96130000D01*
X152684000Y-96154846D01*
X152684000Y-96927167D01*
X152606903Y-96959102D01*
X152405283Y-97093820D01*
X152233820Y-97265283D01*
X152099102Y-97466903D01*
X152006307Y-97690931D01*
X151959000Y-97928757D01*
X150706000Y-97928757D01*
X150706000Y-89678757D01*
X165109000Y-89678757D01*
X165109000Y-89921243D01*
X165156307Y-90159069D01*
X165249102Y-90383097D01*
X165383820Y-90584717D01*
X165555283Y-90756180D01*
X165756903Y-90890898D01*
X165980931Y-90983693D01*
X166218757Y-91031000D01*
X166461243Y-91031000D01*
X166699069Y-90983693D01*
X166923097Y-90890898D01*
X167124717Y-90756180D01*
X167296180Y-90584717D01*
X167430898Y-90383097D01*
X167462832Y-90306000D01*
X168120409Y-90306000D01*
X168334001Y-90519593D01*
X168334000Y-91834000D01*
X167462832Y-91834000D01*
X167430898Y-91756903D01*
X167296180Y-91555283D01*
X167124717Y-91383820D01*
X166923097Y-91249102D01*
X166699069Y-91156307D01*
X166461243Y-91109000D01*
X166218757Y-91109000D01*
X165980931Y-91156307D01*
X165756903Y-91249102D01*
X165555283Y-91383820D01*
X165383820Y-91555283D01*
X165249102Y-91756903D01*
X165156307Y-91980931D01*
X165109000Y-92218757D01*
X165109000Y-92461243D01*
X165156307Y-92699069D01*
X165249102Y-92923097D01*
X165383820Y-93124717D01*
X165555283Y-93296180D01*
X165756903Y-93430898D01*
X165980931Y-93523693D01*
X166218757Y-93571000D01*
X166461243Y-93571000D01*
X166699069Y-93523693D01*
X166923097Y-93430898D01*
X167124717Y-93296180D01*
X167296180Y-93124717D01*
X167430898Y-92923097D01*
X167462832Y-92846000D01*
X168220409Y-92846000D01*
X169950631Y-94576223D01*
X169867887Y-94700058D01*
X169809013Y-94842191D01*
X169779000Y-94993078D01*
X169779000Y-95146922D01*
X169809013Y-95297809D01*
X169867887Y-95439942D01*
X169953358Y-95567859D01*
X170062141Y-95676642D01*
X170190058Y-95762113D01*
X170332191Y-95820987D01*
X170483078Y-95851000D01*
X170636922Y-95851000D01*
X170787809Y-95820987D01*
X170929942Y-95762113D01*
X171057859Y-95676642D01*
X171166642Y-95567859D01*
X171252113Y-95439942D01*
X171310987Y-95297809D01*
X171341000Y-95146922D01*
X171341000Y-94993078D01*
X171310987Y-94842191D01*
X171271143Y-94746000D01*
X172064000Y-94746000D01*
X172064001Y-96877167D01*
X171986903Y-96909102D01*
X171785283Y-97043820D01*
X171613820Y-97215283D01*
X171479102Y-97416903D01*
X171386307Y-97640931D01*
X171339000Y-97878757D01*
X171339000Y-98121243D01*
X171386307Y-98359069D01*
X171479102Y-98583097D01*
X171613820Y-98784717D01*
X171785283Y-98956180D01*
X171986903Y-99090898D01*
X172210931Y-99183693D01*
X172448757Y-99231000D01*
X172691243Y-99231000D01*
X172929069Y-99183693D01*
X173153097Y-99090898D01*
X173354717Y-98956180D01*
X173526180Y-98784717D01*
X173660898Y-98583097D01*
X173753693Y-98359069D01*
X173801000Y-98121243D01*
X173801000Y-97878757D01*
X173879000Y-97878757D01*
X173879000Y-98121243D01*
X173926307Y-98359069D01*
X174019102Y-98583097D01*
X174153820Y-98784717D01*
X174325283Y-98956180D01*
X174526903Y-99090898D01*
X174750931Y-99183693D01*
X174988757Y-99231000D01*
X175231243Y-99231000D01*
X175469069Y-99183693D01*
X175693097Y-99090898D01*
X175894717Y-98956180D01*
X176066180Y-98784717D01*
X176200898Y-98583097D01*
X176293693Y-98359069D01*
X176341000Y-98121243D01*
X176341000Y-97878757D01*
X176293693Y-97640931D01*
X176200898Y-97416903D01*
X176066180Y-97215283D01*
X175894717Y-97043820D01*
X175693097Y-96909102D01*
X175469069Y-96816307D01*
X175231243Y-96769000D01*
X174988757Y-96769000D01*
X174750931Y-96816307D01*
X174526903Y-96909102D01*
X174325283Y-97043820D01*
X174153820Y-97215283D01*
X174019102Y-97416903D01*
X173926307Y-97640931D01*
X173879000Y-97878757D01*
X173801000Y-97878757D01*
X173753693Y-97640931D01*
X173660898Y-97416903D01*
X173526180Y-97215283D01*
X173354717Y-97043820D01*
X173153097Y-96909102D01*
X173076000Y-96877168D01*
X173076000Y-94993078D01*
X174579000Y-94993078D01*
X174579000Y-95146922D01*
X174609013Y-95297809D01*
X174667887Y-95439942D01*
X174753358Y-95567859D01*
X174862141Y-95676642D01*
X174990058Y-95762113D01*
X175132191Y-95820987D01*
X175283078Y-95851000D01*
X175425409Y-95851000D01*
X176294002Y-96719594D01*
X176294001Y-97125154D01*
X176291554Y-97150001D01*
X176294001Y-97174847D01*
X176294001Y-97174854D01*
X176301323Y-97249193D01*
X176330256Y-97344575D01*
X176377242Y-97432480D01*
X176440474Y-97509528D01*
X176459786Y-97525377D01*
X176498242Y-97563833D01*
X176466307Y-97640931D01*
X176419000Y-97878757D01*
X176419000Y-98121243D01*
X176466307Y-98359069D01*
X176559102Y-98583097D01*
X176693820Y-98784717D01*
X176865283Y-98956180D01*
X177066903Y-99090898D01*
X177290931Y-99183693D01*
X177528757Y-99231000D01*
X177771243Y-99231000D01*
X178009069Y-99183693D01*
X178233097Y-99090898D01*
X178434717Y-98956180D01*
X178606180Y-98784717D01*
X178740898Y-98583097D01*
X178833693Y-98359069D01*
X178881000Y-98121243D01*
X178881000Y-97878757D01*
X178959000Y-97878757D01*
X178959000Y-98121243D01*
X179006307Y-98359069D01*
X179099102Y-98583097D01*
X179233820Y-98784717D01*
X179405283Y-98956180D01*
X179606903Y-99090898D01*
X179830931Y-99183693D01*
X180068757Y-99231000D01*
X180311243Y-99231000D01*
X180549069Y-99183693D01*
X180773097Y-99090898D01*
X180974717Y-98956180D01*
X181146180Y-98784717D01*
X181280898Y-98583097D01*
X181354059Y-98406468D01*
X182693137Y-98406468D01*
X182951298Y-98809073D01*
X183470715Y-99084651D01*
X184033913Y-99253601D01*
X184619250Y-99309430D01*
X185204233Y-99249992D01*
X185766379Y-99077571D01*
X186268702Y-98809073D01*
X186526863Y-98406468D01*
X184610000Y-96489605D01*
X182693137Y-98406468D01*
X181354059Y-98406468D01*
X181373693Y-98359069D01*
X181421000Y-98121243D01*
X181421000Y-97878757D01*
X181373693Y-97640931D01*
X181280898Y-97416903D01*
X181146180Y-97215283D01*
X180974717Y-97043820D01*
X180773097Y-96909102D01*
X180549069Y-96816307D01*
X180311243Y-96769000D01*
X180068757Y-96769000D01*
X179830931Y-96816307D01*
X179606903Y-96909102D01*
X179405283Y-97043820D01*
X179233820Y-97215283D01*
X179099102Y-97416903D01*
X179006307Y-97640931D01*
X178959000Y-97878757D01*
X178881000Y-97878757D01*
X178833693Y-97640931D01*
X178740898Y-97416903D01*
X178606180Y-97215283D01*
X178434717Y-97043820D01*
X178233097Y-96909102D01*
X178009069Y-96816307D01*
X177771243Y-96769000D01*
X177528757Y-96769000D01*
X177306001Y-96813309D01*
X177306001Y-96534847D01*
X177308448Y-96510001D01*
X177306001Y-96485155D01*
X177306001Y-96485147D01*
X177298679Y-96410808D01*
X177270906Y-96319250D01*
X181610570Y-96319250D01*
X181670008Y-96904233D01*
X181842429Y-97466379D01*
X182110927Y-97968702D01*
X182513532Y-98226863D01*
X184430395Y-96310000D01*
X184789605Y-96310000D01*
X186706468Y-98226863D01*
X187109073Y-97968702D01*
X187384651Y-97449285D01*
X187553601Y-96886087D01*
X187609430Y-96300750D01*
X187549992Y-95715767D01*
X187377571Y-95153621D01*
X187109073Y-94651298D01*
X186706468Y-94393137D01*
X184789605Y-96310000D01*
X184430395Y-96310000D01*
X182513532Y-94393137D01*
X182110927Y-94651298D01*
X181835349Y-95170715D01*
X181666399Y-95733913D01*
X181610570Y-96319250D01*
X177270906Y-96319250D01*
X177269746Y-96315426D01*
X177222760Y-96227522D01*
X177159528Y-96150474D01*
X177140221Y-96134629D01*
X176141000Y-95135409D01*
X176141000Y-94993078D01*
X176110987Y-94842191D01*
X176052113Y-94700058D01*
X175966642Y-94572141D01*
X175857859Y-94463358D01*
X175729942Y-94377887D01*
X175587809Y-94319013D01*
X175436922Y-94289000D01*
X175283078Y-94289000D01*
X175132191Y-94319013D01*
X174990058Y-94377887D01*
X174862141Y-94463358D01*
X174753358Y-94572141D01*
X174667887Y-94700058D01*
X174609013Y-94842191D01*
X174579000Y-94993078D01*
X173076000Y-94993078D01*
X173076000Y-94746000D01*
X174115154Y-94746000D01*
X174140000Y-94748447D01*
X174164846Y-94746000D01*
X174164854Y-94746000D01*
X174239193Y-94738678D01*
X174334575Y-94709745D01*
X174422479Y-94662759D01*
X174499527Y-94599527D01*
X174515376Y-94580215D01*
X174882059Y-94213532D01*
X182693137Y-94213532D01*
X184610000Y-96130395D01*
X186526863Y-94213532D01*
X186268702Y-93810927D01*
X185749285Y-93535349D01*
X185186087Y-93366399D01*
X184600750Y-93310570D01*
X184015767Y-93370008D01*
X183453621Y-93542429D01*
X182951298Y-93810927D01*
X182693137Y-94213532D01*
X174882059Y-94213532D01*
X177595591Y-91500000D01*
X178237157Y-91500000D01*
X178237157Y-93200000D01*
X178244513Y-93274689D01*
X178266299Y-93346508D01*
X178301678Y-93412696D01*
X178349289Y-93470711D01*
X178407304Y-93518322D01*
X178473492Y-93553701D01*
X178545311Y-93575487D01*
X178620000Y-93582843D01*
X180320000Y-93582843D01*
X180394689Y-93575487D01*
X180466508Y-93553701D01*
X180532696Y-93518322D01*
X180590711Y-93470711D01*
X180638322Y-93412696D01*
X180673701Y-93346508D01*
X180695487Y-93274689D01*
X180702843Y-93200000D01*
X180702843Y-92856000D01*
X183025146Y-92856000D01*
X183050000Y-92858448D01*
X183074854Y-92856000D01*
X185331373Y-92856000D01*
X185361678Y-92912696D01*
X185409289Y-92970711D01*
X185467304Y-93018322D01*
X185533492Y-93053701D01*
X185605311Y-93075487D01*
X185680000Y-93082843D01*
X187380000Y-93082843D01*
X187454689Y-93075487D01*
X187526508Y-93053701D01*
X187592696Y-93018322D01*
X187650711Y-92970711D01*
X187698322Y-92912696D01*
X187733701Y-92846508D01*
X187755487Y-92774689D01*
X187762843Y-92700000D01*
X187762843Y-91000000D01*
X187755487Y-90925311D01*
X187733701Y-90853492D01*
X187698322Y-90787304D01*
X187650711Y-90729289D01*
X187592696Y-90681678D01*
X187526508Y-90646299D01*
X187454689Y-90624513D01*
X187380000Y-90617157D01*
X185680000Y-90617157D01*
X185605311Y-90624513D01*
X185533492Y-90646299D01*
X185467304Y-90681678D01*
X185409289Y-90729289D01*
X185361678Y-90787304D01*
X185326299Y-90853492D01*
X185304513Y-90925311D01*
X185297157Y-91000000D01*
X185297157Y-91844000D01*
X183426000Y-91844000D01*
X183426000Y-83092832D01*
X183503097Y-83060898D01*
X183704717Y-82926180D01*
X183876180Y-82754717D01*
X184010898Y-82553097D01*
X184103693Y-82329069D01*
X184151000Y-82091243D01*
X184151000Y-81848757D01*
X184103693Y-81610931D01*
X184010898Y-81386903D01*
X183876180Y-81185283D01*
X183704717Y-81013820D01*
X183503097Y-80879102D01*
X183279069Y-80786307D01*
X183041243Y-80739000D01*
X182798757Y-80739000D01*
X182560931Y-80786307D01*
X182336903Y-80879102D01*
X182135283Y-81013820D01*
X181963820Y-81185283D01*
X181829102Y-81386903D01*
X181736307Y-81610931D01*
X181689000Y-81848757D01*
X181689000Y-82091243D01*
X181736307Y-82329069D01*
X181829102Y-82553097D01*
X181963820Y-82754717D01*
X182135283Y-82926180D01*
X182336903Y-83060898D01*
X182414001Y-83092833D01*
X182414000Y-86114853D01*
X182414001Y-86114863D01*
X182414000Y-91844000D01*
X180702843Y-91844000D01*
X180702843Y-91500000D01*
X180695487Y-91425311D01*
X180673701Y-91353492D01*
X180638322Y-91287304D01*
X180590711Y-91229289D01*
X180532696Y-91181678D01*
X180466508Y-91146299D01*
X180394689Y-91124513D01*
X180320000Y-91117157D01*
X178620000Y-91117157D01*
X178545311Y-91124513D01*
X178473492Y-91146299D01*
X178407304Y-91181678D01*
X178349289Y-91229289D01*
X178301678Y-91287304D01*
X178266299Y-91353492D01*
X178244513Y-91425311D01*
X178237157Y-91500000D01*
X177595591Y-91500000D01*
X177990220Y-91105372D01*
X178009527Y-91089527D01*
X178072759Y-91012479D01*
X178119745Y-90924575D01*
X178148678Y-90829193D01*
X178156000Y-90754854D01*
X178156000Y-90754853D01*
X178158448Y-90730000D01*
X178156000Y-90705146D01*
X178156000Y-90316000D01*
X178347168Y-90316000D01*
X178379102Y-90393097D01*
X178513820Y-90594717D01*
X178685283Y-90766180D01*
X178886903Y-90900898D01*
X179110931Y-90993693D01*
X179348757Y-91041000D01*
X179591243Y-91041000D01*
X179829069Y-90993693D01*
X180053097Y-90900898D01*
X180254717Y-90766180D01*
X180426180Y-90594717D01*
X180560898Y-90393097D01*
X180653693Y-90169069D01*
X180701000Y-89931243D01*
X180701000Y-89688757D01*
X180653693Y-89450931D01*
X180560898Y-89226903D01*
X180426180Y-89025283D01*
X180254717Y-88853820D01*
X180053097Y-88719102D01*
X179829069Y-88626307D01*
X179591243Y-88579000D01*
X179348757Y-88579000D01*
X179110931Y-88626307D01*
X178886903Y-88719102D01*
X178685283Y-88853820D01*
X178513820Y-89025283D01*
X178379102Y-89226903D01*
X178347168Y-89304000D01*
X178156000Y-89304000D01*
X178156000Y-87159591D01*
X178256919Y-87058672D01*
X178239000Y-87148757D01*
X178239000Y-87391243D01*
X178286307Y-87629069D01*
X178379102Y-87853097D01*
X178513820Y-88054717D01*
X178685283Y-88226180D01*
X178886903Y-88360898D01*
X179110931Y-88453693D01*
X179348757Y-88501000D01*
X179591243Y-88501000D01*
X179829069Y-88453693D01*
X180053097Y-88360898D01*
X180254717Y-88226180D01*
X180426180Y-88054717D01*
X180560898Y-87853097D01*
X180653693Y-87629069D01*
X180701000Y-87391243D01*
X180701000Y-87148757D01*
X180653693Y-86910931D01*
X180560898Y-86686903D01*
X180426180Y-86485283D01*
X180254717Y-86313820D01*
X180053097Y-86179102D01*
X179914790Y-86121813D01*
X179954575Y-86109745D01*
X180042479Y-86062759D01*
X180119527Y-85999527D01*
X180135376Y-85980215D01*
X180730220Y-85385372D01*
X180749527Y-85369527D01*
X180812759Y-85292479D01*
X180859745Y-85204575D01*
X180888678Y-85109193D01*
X180896000Y-85034854D01*
X180896000Y-85034853D01*
X180898448Y-85010000D01*
X180896000Y-84985146D01*
X180896000Y-83586874D01*
X180897169Y-83543958D01*
X180891803Y-83512535D01*
X180888678Y-83480807D01*
X180886000Y-83471979D01*
X180886000Y-83092832D01*
X180963097Y-83060898D01*
X181164717Y-82926180D01*
X181336180Y-82754717D01*
X181470898Y-82553097D01*
X181563693Y-82329069D01*
X181611000Y-82091243D01*
X181611000Y-81848757D01*
X181563693Y-81610931D01*
X181470898Y-81386903D01*
X181336180Y-81185283D01*
X181164717Y-81013820D01*
X180963097Y-80879102D01*
X180739069Y-80786307D01*
X180501243Y-80739000D01*
X180258757Y-80739000D01*
X180020931Y-80786307D01*
X179796903Y-80879102D01*
X179595283Y-81013820D01*
X179423820Y-81185283D01*
X179289102Y-81386903D01*
X179196307Y-81610931D01*
X179149000Y-81848757D01*
X179149000Y-82091243D01*
X179196307Y-82329069D01*
X179289102Y-82553097D01*
X179423820Y-82754717D01*
X179595283Y-82926180D01*
X179796903Y-83060898D01*
X179874000Y-83092833D01*
X179874000Y-83553126D01*
X179872831Y-83596043D01*
X179878197Y-83627468D01*
X179881322Y-83659192D01*
X179884001Y-83668023D01*
X179884000Y-84800408D01*
X179550409Y-85134000D01*
X178984854Y-85134000D01*
X178960000Y-85131552D01*
X178935146Y-85134000D01*
X178860807Y-85141322D01*
X178765425Y-85170255D01*
X178677521Y-85217241D01*
X178600473Y-85280473D01*
X178584629Y-85299779D01*
X177309780Y-86574629D01*
X177290474Y-86590473D01*
X177227242Y-86667521D01*
X177216882Y-86686903D01*
X177180255Y-86755426D01*
X177151322Y-86850808D01*
X177141553Y-86950000D01*
X177144001Y-86974856D01*
X177144000Y-89745154D01*
X177141553Y-89770000D01*
X177144000Y-89794846D01*
X177144000Y-89794853D01*
X177144001Y-89794863D01*
X177144000Y-90520408D01*
X173930409Y-93734000D01*
X172534846Y-93734000D01*
X172510000Y-93731553D01*
X172485154Y-93734000D01*
X172358933Y-93734000D01*
X172471252Y-93694157D01*
X172721355Y-93545178D01*
X172937588Y-93350269D01*
X173111641Y-93116920D01*
X173236825Y-92854099D01*
X173281476Y-92706890D01*
X173160155Y-92477000D01*
X171967000Y-92477000D01*
X171967000Y-92497000D01*
X171713000Y-92497000D01*
X171713000Y-92477000D01*
X170519845Y-92477000D01*
X170399891Y-92704300D01*
X169346000Y-91650409D01*
X169346000Y-90334854D01*
X169348448Y-90310000D01*
X169338678Y-90210807D01*
X169309745Y-90115425D01*
X169297479Y-90092478D01*
X169262759Y-90027521D01*
X169199527Y-89950473D01*
X169180220Y-89934628D01*
X168705376Y-89459785D01*
X168689527Y-89440473D01*
X168612479Y-89377241D01*
X168524575Y-89330255D01*
X168429193Y-89301322D01*
X168354854Y-89294000D01*
X168354846Y-89294000D01*
X168330000Y-89291553D01*
X168305154Y-89294000D01*
X167462832Y-89294000D01*
X167430898Y-89216903D01*
X167296180Y-89015283D01*
X167124717Y-88843820D01*
X166923097Y-88709102D01*
X166699069Y-88616307D01*
X166461243Y-88569000D01*
X166218757Y-88569000D01*
X165980931Y-88616307D01*
X165756903Y-88709102D01*
X165555283Y-88843820D01*
X165383820Y-89015283D01*
X165249102Y-89216903D01*
X165156307Y-89440931D01*
X165109000Y-89678757D01*
X150706000Y-89678757D01*
X150706000Y-87823078D01*
X157079000Y-87823078D01*
X157079000Y-87976922D01*
X157109013Y-88127809D01*
X157167887Y-88269942D01*
X157253358Y-88397859D01*
X157362141Y-88506642D01*
X157490058Y-88592113D01*
X157632191Y-88650987D01*
X157783078Y-88681000D01*
X157936922Y-88681000D01*
X158087809Y-88650987D01*
X158229942Y-88592113D01*
X158357859Y-88506642D01*
X158458501Y-88406000D01*
X158564724Y-88406000D01*
X159068943Y-88910220D01*
X159084788Y-88929527D01*
X159161836Y-88992759D01*
X159222684Y-89025283D01*
X159249740Y-89039745D01*
X159345121Y-89068678D01*
X159355009Y-89069652D01*
X159410629Y-89075130D01*
X159512141Y-89176642D01*
X159640058Y-89262113D01*
X159782191Y-89320987D01*
X159933078Y-89351000D01*
X160086922Y-89351000D01*
X160237809Y-89320987D01*
X160379942Y-89262113D01*
X160507859Y-89176642D01*
X160616642Y-89067859D01*
X160702113Y-88939942D01*
X160760987Y-88797809D01*
X160791000Y-88646922D01*
X160791000Y-88493078D01*
X160760987Y-88342191D01*
X160702113Y-88200058D01*
X160616642Y-88072141D01*
X160507859Y-87963358D01*
X160379942Y-87877887D01*
X160237809Y-87819013D01*
X160086922Y-87789000D01*
X159933078Y-87789000D01*
X159782191Y-87819013D01*
X159640058Y-87877887D01*
X159536793Y-87946886D01*
X159149691Y-87559785D01*
X159133842Y-87540473D01*
X159056794Y-87477241D01*
X158968890Y-87430255D01*
X158873508Y-87401322D01*
X158799169Y-87394000D01*
X158799161Y-87394000D01*
X158774315Y-87391553D01*
X158749469Y-87394000D01*
X158458501Y-87394000D01*
X158357859Y-87293358D01*
X158229942Y-87207887D01*
X158087809Y-87149013D01*
X157936922Y-87119000D01*
X157783078Y-87119000D01*
X157632191Y-87149013D01*
X157490058Y-87207887D01*
X157362141Y-87293358D01*
X157253358Y-87402141D01*
X157167887Y-87530058D01*
X157109013Y-87672191D01*
X157079000Y-87823078D01*
X150706000Y-87823078D01*
X150706000Y-85916468D01*
X152183137Y-85916468D01*
X152441298Y-86319073D01*
X152960715Y-86594651D01*
X153523913Y-86763601D01*
X154109250Y-86819430D01*
X154694233Y-86759992D01*
X155256379Y-86587571D01*
X155588590Y-86410000D01*
X165107157Y-86410000D01*
X165107157Y-88110000D01*
X165114513Y-88184689D01*
X165136299Y-88256508D01*
X165171678Y-88322696D01*
X165219289Y-88380711D01*
X165277304Y-88428322D01*
X165343492Y-88463701D01*
X165415311Y-88485487D01*
X165490000Y-88492843D01*
X167190000Y-88492843D01*
X167264689Y-88485487D01*
X167336508Y-88463701D01*
X167402696Y-88428322D01*
X167460711Y-88380711D01*
X167508322Y-88322696D01*
X167543701Y-88256508D01*
X167565487Y-88184689D01*
X167572843Y-88110000D01*
X167572843Y-86410000D01*
X167565487Y-86335311D01*
X167543701Y-86263492D01*
X167508322Y-86197304D01*
X167460711Y-86139289D01*
X167402696Y-86091678D01*
X167336508Y-86056299D01*
X167264689Y-86034513D01*
X167190000Y-86027157D01*
X165490000Y-86027157D01*
X165415311Y-86034513D01*
X165343492Y-86056299D01*
X165277304Y-86091678D01*
X165219289Y-86139289D01*
X165171678Y-86197304D01*
X165136299Y-86263492D01*
X165114513Y-86335311D01*
X165107157Y-86410000D01*
X155588590Y-86410000D01*
X155758702Y-86319073D01*
X156016863Y-85916468D01*
X154100000Y-83999605D01*
X152183137Y-85916468D01*
X150706000Y-85916468D01*
X150706000Y-83829250D01*
X151100570Y-83829250D01*
X151160008Y-84414233D01*
X151332429Y-84976379D01*
X151600927Y-85478702D01*
X152003532Y-85736863D01*
X153920395Y-83820000D01*
X154279605Y-83820000D01*
X156196468Y-85736863D01*
X156599073Y-85478702D01*
X156874651Y-84959285D01*
X157043601Y-84396087D01*
X157099430Y-83810750D01*
X157039992Y-83225767D01*
X156867571Y-82663621D01*
X156599073Y-82161298D01*
X156196468Y-81903137D01*
X154279605Y-83820000D01*
X153920395Y-83820000D01*
X152003532Y-81903137D01*
X151600927Y-82161298D01*
X151325349Y-82680715D01*
X151156399Y-83243913D01*
X151100570Y-83829250D01*
X150706000Y-83829250D01*
X150706000Y-81723532D01*
X152183137Y-81723532D01*
X154100000Y-83640395D01*
X155841638Y-81898757D01*
X157659000Y-81898757D01*
X157659000Y-82141243D01*
X157706307Y-82379069D01*
X157799102Y-82603097D01*
X157933820Y-82804717D01*
X158105283Y-82976180D01*
X158306903Y-83110898D01*
X158530931Y-83203693D01*
X158768757Y-83251000D01*
X159011243Y-83251000D01*
X159249069Y-83203693D01*
X159473097Y-83110898D01*
X159674717Y-82976180D01*
X159846180Y-82804717D01*
X159980898Y-82603097D01*
X160028228Y-82488832D01*
X160085843Y-82651252D01*
X160234822Y-82901355D01*
X160429731Y-83117588D01*
X160663080Y-83291641D01*
X160925901Y-83416825D01*
X161073110Y-83461476D01*
X161303000Y-83340155D01*
X161303000Y-82147000D01*
X161283000Y-82147000D01*
X161283000Y-81893000D01*
X161303000Y-81893000D01*
X161303000Y-80699845D01*
X161557000Y-80699845D01*
X161557000Y-81893000D01*
X161577000Y-81893000D01*
X161577000Y-82147000D01*
X161557000Y-82147000D01*
X161557000Y-83340155D01*
X161786890Y-83461476D01*
X161934099Y-83416825D01*
X162196920Y-83291641D01*
X162430269Y-83117588D01*
X162625178Y-82901355D01*
X162774157Y-82651252D01*
X162831772Y-82488832D01*
X162879102Y-82603097D01*
X163013820Y-82804717D01*
X163185283Y-82976180D01*
X163386903Y-83110898D01*
X163610931Y-83203693D01*
X163848757Y-83251000D01*
X164091243Y-83251000D01*
X164329069Y-83203693D01*
X164553097Y-83110898D01*
X164754717Y-82976180D01*
X164926180Y-82804717D01*
X165060898Y-82603097D01*
X165153693Y-82379069D01*
X165201000Y-82141243D01*
X165201000Y-81898757D01*
X165153693Y-81660931D01*
X165060898Y-81436903D01*
X164926180Y-81235283D01*
X164860897Y-81170000D01*
X165277157Y-81170000D01*
X165277157Y-82870000D01*
X165284513Y-82944689D01*
X165306299Y-83016508D01*
X165341678Y-83082696D01*
X165389289Y-83140711D01*
X165447304Y-83188322D01*
X165513492Y-83223701D01*
X165585311Y-83245487D01*
X165660000Y-83252843D01*
X167360000Y-83252843D01*
X167434689Y-83245487D01*
X167506508Y-83223701D01*
X167572696Y-83188322D01*
X167630711Y-83140711D01*
X167678322Y-83082696D01*
X167713701Y-83016508D01*
X167735487Y-82944689D01*
X167742843Y-82870000D01*
X167742843Y-82526000D01*
X168987157Y-82526000D01*
X168987157Y-82820000D01*
X168994513Y-82894689D01*
X169016299Y-82966508D01*
X169051678Y-83032696D01*
X169099289Y-83090711D01*
X169157304Y-83138322D01*
X169223492Y-83173701D01*
X169295311Y-83195487D01*
X169370000Y-83202843D01*
X169371566Y-83202843D01*
X169329785Y-83244624D01*
X169310473Y-83260473D01*
X169247241Y-83337521D01*
X169200255Y-83425426D01*
X169171322Y-83520808D01*
X169164000Y-83595147D01*
X169164000Y-83595154D01*
X169161553Y-83620000D01*
X169164000Y-83644846D01*
X169164001Y-87615144D01*
X169161553Y-87640000D01*
X169171322Y-87739192D01*
X169200255Y-87834574D01*
X169200256Y-87834575D01*
X169247242Y-87922479D01*
X169310474Y-87999527D01*
X169329781Y-88015372D01*
X170688242Y-89373833D01*
X170656307Y-89450931D01*
X170609000Y-89688757D01*
X170609000Y-89931243D01*
X170656307Y-90169069D01*
X170749102Y-90393097D01*
X170883820Y-90594717D01*
X171055283Y-90766180D01*
X171256903Y-90900898D01*
X171371168Y-90948228D01*
X171208748Y-91005843D01*
X170958645Y-91154822D01*
X170742412Y-91349731D01*
X170568359Y-91583080D01*
X170443175Y-91845901D01*
X170398524Y-91993110D01*
X170519845Y-92223000D01*
X171713000Y-92223000D01*
X171713000Y-92203000D01*
X171967000Y-92203000D01*
X171967000Y-92223000D01*
X173160155Y-92223000D01*
X173281476Y-91993110D01*
X173236825Y-91845901D01*
X173111641Y-91583080D01*
X172937588Y-91349731D01*
X172721355Y-91154822D01*
X172471252Y-91005843D01*
X172308832Y-90948228D01*
X172423097Y-90900898D01*
X172624717Y-90766180D01*
X172796180Y-90594717D01*
X172930898Y-90393097D01*
X173023693Y-90169069D01*
X173071000Y-89931243D01*
X173071000Y-89688757D01*
X173023693Y-89450931D01*
X172930898Y-89226903D01*
X172796180Y-89025283D01*
X172624717Y-88853820D01*
X172423097Y-88719102D01*
X172199069Y-88626307D01*
X171961243Y-88579000D01*
X171718757Y-88579000D01*
X171480931Y-88626307D01*
X171403833Y-88658242D01*
X171248435Y-88502843D01*
X172690000Y-88502843D01*
X172764689Y-88495487D01*
X172836508Y-88473701D01*
X172902696Y-88438322D01*
X172960711Y-88390711D01*
X173008322Y-88332696D01*
X173043701Y-88266508D01*
X173065487Y-88194689D01*
X173072843Y-88120000D01*
X173072843Y-87776000D01*
X175995154Y-87776000D01*
X176020000Y-87778447D01*
X176044846Y-87776000D01*
X176044854Y-87776000D01*
X176119193Y-87768678D01*
X176214575Y-87739745D01*
X176302479Y-87692759D01*
X176379527Y-87629527D01*
X176395376Y-87610215D01*
X176940220Y-87065372D01*
X176959527Y-87049527D01*
X177022759Y-86972479D01*
X177069745Y-86884575D01*
X177098678Y-86789193D01*
X177106000Y-86714854D01*
X177106000Y-86714853D01*
X177108448Y-86690000D01*
X177106000Y-86665146D01*
X177106000Y-85559591D01*
X178180220Y-84485372D01*
X178199527Y-84469527D01*
X178262759Y-84392479D01*
X178309745Y-84304575D01*
X178338678Y-84209193D01*
X178346000Y-84134854D01*
X178346000Y-84134853D01*
X178348448Y-84110000D01*
X178346000Y-84085146D01*
X178346000Y-83092832D01*
X178423097Y-83060898D01*
X178624717Y-82926180D01*
X178796180Y-82754717D01*
X178930898Y-82553097D01*
X179023693Y-82329069D01*
X179071000Y-82091243D01*
X179071000Y-81848757D01*
X179023693Y-81610931D01*
X178930898Y-81386903D01*
X178796180Y-81185283D01*
X178624717Y-81013820D01*
X178423097Y-80879102D01*
X178199069Y-80786307D01*
X177961243Y-80739000D01*
X177718757Y-80739000D01*
X177480931Y-80786307D01*
X177256903Y-80879102D01*
X177055283Y-81013820D01*
X176883820Y-81185283D01*
X176749102Y-81386903D01*
X176656307Y-81610931D01*
X176609000Y-81848757D01*
X176609000Y-82091243D01*
X176656307Y-82329069D01*
X176749102Y-82553097D01*
X176883820Y-82754717D01*
X177055283Y-82926180D01*
X177256903Y-83060898D01*
X177334000Y-83092833D01*
X177334000Y-83900408D01*
X176259780Y-84974629D01*
X176240474Y-84990473D01*
X176177242Y-85067521D01*
X176164397Y-85091553D01*
X176130255Y-85155426D01*
X176101322Y-85250808D01*
X176091553Y-85350000D01*
X176094001Y-85374856D01*
X176094001Y-85394004D01*
X176057809Y-85379013D01*
X175906922Y-85349000D01*
X175806000Y-85349000D01*
X175806000Y-83092832D01*
X175883097Y-83060898D01*
X176084717Y-82926180D01*
X176256180Y-82754717D01*
X176390898Y-82553097D01*
X176483693Y-82329069D01*
X176531000Y-82091243D01*
X176531000Y-81848757D01*
X176483693Y-81610931D01*
X176390898Y-81386903D01*
X176256180Y-81185283D01*
X176084717Y-81013820D01*
X175883097Y-80879102D01*
X175659069Y-80786307D01*
X175421243Y-80739000D01*
X175178757Y-80739000D01*
X174940931Y-80786307D01*
X174716903Y-80879102D01*
X174515283Y-81013820D01*
X174343820Y-81185283D01*
X174209102Y-81386903D01*
X174161772Y-81501168D01*
X174104157Y-81338748D01*
X173955178Y-81088645D01*
X173760269Y-80872412D01*
X173526920Y-80698359D01*
X173264099Y-80573175D01*
X173116890Y-80528524D01*
X172887000Y-80649845D01*
X172887000Y-81843000D01*
X172907000Y-81843000D01*
X172907000Y-82097000D01*
X172887000Y-82097000D01*
X172887000Y-83290155D01*
X173116890Y-83411476D01*
X173264099Y-83366825D01*
X173526920Y-83241641D01*
X173760269Y-83067588D01*
X173955178Y-82851355D01*
X174104157Y-82601252D01*
X174161772Y-82438832D01*
X174209102Y-82553097D01*
X174343820Y-82754717D01*
X174515283Y-82926180D01*
X174716903Y-83060898D01*
X174794000Y-83092833D01*
X174794001Y-85575144D01*
X174791553Y-85600000D01*
X174801322Y-85699192D01*
X174830255Y-85794574D01*
X174843710Y-85819745D01*
X174877242Y-85882479D01*
X174940474Y-85959527D01*
X174959780Y-85975371D01*
X175049000Y-86064591D01*
X175049000Y-86206922D01*
X175079013Y-86357809D01*
X175137887Y-86499942D01*
X175223358Y-86627859D01*
X175332141Y-86736642D01*
X175373085Y-86764000D01*
X173072843Y-86764000D01*
X173072843Y-86420000D01*
X173065487Y-86345311D01*
X173043701Y-86273492D01*
X173008322Y-86207304D01*
X172960711Y-86149289D01*
X172902696Y-86101678D01*
X172836508Y-86066299D01*
X172764689Y-86044513D01*
X172690000Y-86037157D01*
X170990000Y-86037157D01*
X170915311Y-86044513D01*
X170843492Y-86066299D01*
X170777304Y-86101678D01*
X170719289Y-86149289D01*
X170671678Y-86207304D01*
X170636299Y-86273492D01*
X170614513Y-86345311D01*
X170607157Y-86420000D01*
X170607157Y-87861566D01*
X170176000Y-87430409D01*
X170176000Y-83829591D01*
X170560220Y-83445372D01*
X170579527Y-83429527D01*
X170642759Y-83352479D01*
X170689745Y-83264575D01*
X170708471Y-83202843D01*
X171070000Y-83202843D01*
X171144689Y-83195487D01*
X171216508Y-83173701D01*
X171282696Y-83138322D01*
X171340711Y-83090711D01*
X171388322Y-83032696D01*
X171423701Y-82966508D01*
X171445487Y-82894689D01*
X171452843Y-82820000D01*
X171452843Y-82663367D01*
X171564822Y-82851355D01*
X171759731Y-83067588D01*
X171993080Y-83241641D01*
X172255901Y-83366825D01*
X172403110Y-83411476D01*
X172633000Y-83290155D01*
X172633000Y-82097000D01*
X172613000Y-82097000D01*
X172613000Y-81843000D01*
X172633000Y-81843000D01*
X172633000Y-80649845D01*
X172403110Y-80528524D01*
X172255901Y-80573175D01*
X171993080Y-80698359D01*
X171759731Y-80872412D01*
X171564822Y-81088645D01*
X171452843Y-81276633D01*
X171452843Y-81120000D01*
X171445487Y-81045311D01*
X171423701Y-80973492D01*
X171388322Y-80907304D01*
X171340711Y-80849289D01*
X171282696Y-80801678D01*
X171216508Y-80766299D01*
X171144689Y-80744513D01*
X171070000Y-80737157D01*
X169370000Y-80737157D01*
X169295311Y-80744513D01*
X169223492Y-80766299D01*
X169157304Y-80801678D01*
X169099289Y-80849289D01*
X169051678Y-80907304D01*
X169016299Y-80973492D01*
X168994513Y-81045311D01*
X168987157Y-81120000D01*
X168987157Y-81514000D01*
X167742843Y-81514000D01*
X167742843Y-81170000D01*
X167735487Y-81095311D01*
X167713701Y-81023492D01*
X167678322Y-80957304D01*
X167630711Y-80899289D01*
X167572696Y-80851678D01*
X167506508Y-80816299D01*
X167434689Y-80794513D01*
X167360000Y-80787157D01*
X165660000Y-80787157D01*
X165585311Y-80794513D01*
X165513492Y-80816299D01*
X165447304Y-80851678D01*
X165389289Y-80899289D01*
X165341678Y-80957304D01*
X165306299Y-81023492D01*
X165284513Y-81095311D01*
X165277157Y-81170000D01*
X164860897Y-81170000D01*
X164754717Y-81063820D01*
X164553097Y-80929102D01*
X164329069Y-80836307D01*
X164091243Y-80789000D01*
X163848757Y-80789000D01*
X163610931Y-80836307D01*
X163386903Y-80929102D01*
X163185283Y-81063820D01*
X163013820Y-81235283D01*
X162879102Y-81436903D01*
X162831772Y-81551168D01*
X162774157Y-81388748D01*
X162625178Y-81138645D01*
X162430269Y-80922412D01*
X162196920Y-80748359D01*
X161934099Y-80623175D01*
X161786890Y-80578524D01*
X161557000Y-80699845D01*
X161303000Y-80699845D01*
X161073110Y-80578524D01*
X160925901Y-80623175D01*
X160663080Y-80748359D01*
X160429731Y-80922412D01*
X160234822Y-81138645D01*
X160085843Y-81388748D01*
X160028228Y-81551168D01*
X159980898Y-81436903D01*
X159846180Y-81235283D01*
X159674717Y-81063820D01*
X159473097Y-80929102D01*
X159249069Y-80836307D01*
X159011243Y-80789000D01*
X158768757Y-80789000D01*
X158530931Y-80836307D01*
X158306903Y-80929102D01*
X158105283Y-81063820D01*
X157933820Y-81235283D01*
X157799102Y-81436903D01*
X157706307Y-81660931D01*
X157659000Y-81898757D01*
X155841638Y-81898757D01*
X156016863Y-81723532D01*
X155758702Y-81320927D01*
X155239285Y-81045349D01*
X154676087Y-80876399D01*
X154090750Y-80820570D01*
X153505767Y-80880008D01*
X152943621Y-81052429D01*
X152441298Y-81320927D01*
X152183137Y-81723532D01*
X150706000Y-81723532D01*
X150706000Y-80426000D01*
X185764182Y-80426000D01*
X185648645Y-80494822D01*
G37*
X185648645Y-80494822D02*
X185432412Y-80689731D01*
X185258359Y-80923080D01*
X185133175Y-81185901D01*
X185088524Y-81333110D01*
X185209845Y-81563000D01*
X186403000Y-81563000D01*
X186403000Y-81543000D01*
X186657000Y-81543000D01*
X186657000Y-81563000D01*
X186677000Y-81563000D01*
X186677000Y-81817000D01*
X186657000Y-81817000D01*
X186657000Y-81837000D01*
X186403000Y-81837000D01*
X186403000Y-81817000D01*
X185209845Y-81817000D01*
X185088524Y-82046890D01*
X185133175Y-82194099D01*
X185207197Y-82349507D01*
X185129942Y-82297887D01*
X184987809Y-82239013D01*
X184836922Y-82209000D01*
X184683078Y-82209000D01*
X184532191Y-82239013D01*
X184390058Y-82297887D01*
X184262141Y-82383358D01*
X184153358Y-82492141D01*
X184067887Y-82620058D01*
X184009013Y-82762191D01*
X183979000Y-82913078D01*
X183979000Y-83066922D01*
X184009013Y-83217809D01*
X184067887Y-83359942D01*
X184153358Y-83487859D01*
X184254000Y-83588501D01*
X184254001Y-87515144D01*
X184251553Y-87540000D01*
X184261322Y-87639192D01*
X184290255Y-87734574D01*
X184312127Y-87775492D01*
X184337242Y-87822479D01*
X184400474Y-87899527D01*
X184419781Y-87915372D01*
X185378242Y-88873833D01*
X185346307Y-88950931D01*
X185299000Y-89188757D01*
X185299000Y-89431243D01*
X185346307Y-89669069D01*
X185439102Y-89893097D01*
X185573820Y-90094717D01*
X185745283Y-90266180D01*
X185946903Y-90400898D01*
X186170931Y-90493693D01*
X186408757Y-90541000D01*
X186651243Y-90541000D01*
X186889069Y-90493693D01*
X187113097Y-90400898D01*
X187314717Y-90266180D01*
X187486180Y-90094717D01*
X187620898Y-89893097D01*
X187713693Y-89669069D01*
X187761000Y-89431243D01*
X187761000Y-89188757D01*
X187713693Y-88950931D01*
X187620898Y-88726903D01*
X187486180Y-88525283D01*
X187314717Y-88353820D01*
X187113097Y-88219102D01*
X186889069Y-88126307D01*
X186651243Y-88079000D01*
X186408757Y-88079000D01*
X186170931Y-88126307D01*
X186093833Y-88158242D01*
X185266000Y-87330409D01*
X185266000Y-86648757D01*
X185299000Y-86648757D01*
X185299000Y-86891243D01*
X185346307Y-87129069D01*
X185439102Y-87353097D01*
X185573820Y-87554717D01*
X185745283Y-87726180D01*
X185946903Y-87860898D01*
X186170931Y-87953693D01*
X186408757Y-88001000D01*
X186651243Y-88001000D01*
X186889069Y-87953693D01*
X187113097Y-87860898D01*
X187314717Y-87726180D01*
X187486180Y-87554717D01*
X187620898Y-87353097D01*
X187713693Y-87129069D01*
X187761000Y-86891243D01*
X187761000Y-86648757D01*
X187713693Y-86410931D01*
X187620898Y-86186903D01*
X187486180Y-85985283D01*
X187314717Y-85813820D01*
X187113097Y-85679102D01*
X186889069Y-85586307D01*
X186651243Y-85539000D01*
X186408757Y-85539000D01*
X186170931Y-85586307D01*
X185946903Y-85679102D01*
X185745283Y-85813820D01*
X185573820Y-85985283D01*
X185439102Y-86186903D01*
X185346307Y-86410931D01*
X185299000Y-86648757D01*
X185266000Y-86648757D01*
X185266000Y-83588501D01*
X185366642Y-83487859D01*
X185452113Y-83359942D01*
X185510987Y-83217809D01*
X185541000Y-83066922D01*
X185541000Y-82913078D01*
X185510987Y-82762191D01*
X185510263Y-82760442D01*
X185648645Y-82885178D01*
X185898748Y-83034157D01*
X186061168Y-83091772D01*
X185946903Y-83139102D01*
X185745283Y-83273820D01*
X185573820Y-83445283D01*
X185439102Y-83646903D01*
X185346307Y-83870931D01*
X185299000Y-84108757D01*
X185299000Y-84351243D01*
X185346307Y-84589069D01*
X185439102Y-84813097D01*
X185573820Y-85014717D01*
X185745283Y-85186180D01*
X185946903Y-85320898D01*
X186170931Y-85413693D01*
X186408757Y-85461000D01*
X186651243Y-85461000D01*
X186889069Y-85413693D01*
X187113097Y-85320898D01*
X187314717Y-85186180D01*
X187486180Y-85014717D01*
X187620898Y-84813097D01*
X187713693Y-84589069D01*
X187761000Y-84351243D01*
X187761000Y-84108757D01*
X187713693Y-83870931D01*
X187620898Y-83646903D01*
X187486180Y-83445283D01*
X187314717Y-83273820D01*
X187113097Y-83139102D01*
X186998832Y-83091772D01*
X187161252Y-83034157D01*
X187411355Y-82885178D01*
X187627588Y-82690269D01*
X187801641Y-82456920D01*
X187926825Y-82194099D01*
X187971476Y-82046890D01*
X187850156Y-81817002D01*
X187994000Y-81817002D01*
X187994001Y-99614000D01*
X150706000Y-99614000D01*
X150706000Y-97928757D01*
X151959000Y-97928757D01*
X151959000Y-98171243D01*
X152006307Y-98409069D01*
X152099102Y-98633097D01*
X152233820Y-98834717D01*
X152405283Y-99006180D01*
X152606903Y-99140898D01*
X152830931Y-99233693D01*
X153068757Y-99281000D01*
X153311243Y-99281000D01*
X153549069Y-99233693D01*
X153773097Y-99140898D01*
X153974717Y-99006180D01*
X154146180Y-98834717D01*
X154280898Y-98633097D01*
X154373693Y-98409069D01*
X154421000Y-98171243D01*
X154421000Y-97928757D01*
X154373693Y-97690931D01*
X154280898Y-97466903D01*
X154146180Y-97265283D01*
X153974717Y-97093820D01*
X153773097Y-96959102D01*
X153696000Y-96927168D01*
X153696000Y-96339591D01*
X154069592Y-95966000D01*
X155478409Y-95966000D01*
X155389785Y-96054624D01*
X155370473Y-96070473D01*
X155307241Y-96147521D01*
X155260255Y-96235426D01*
X155231322Y-96330808D01*
X155224000Y-96405147D01*
X155224000Y-96405154D01*
X155221553Y-96430000D01*
X155224000Y-96454847D01*
X155224000Y-96927167D01*
X155146903Y-96959102D01*
X154945283Y-97093820D01*
X154773820Y-97265283D01*
X154639102Y-97466903D01*
X154546307Y-97690931D01*
X154499000Y-97928757D01*
X154499000Y-98171243D01*
X154546307Y-98409069D01*
X154639102Y-98633097D01*
X154773820Y-98834717D01*
X154945283Y-99006180D01*
X155146903Y-99140898D01*
X155370931Y-99233693D01*
X155608757Y-99281000D01*
X155851243Y-99281000D01*
X156089069Y-99233693D01*
X156313097Y-99140898D01*
X156514717Y-99006180D01*
X156686180Y-98834717D01*
X156820898Y-98633097D01*
X156913693Y-98409069D01*
X156961000Y-98171243D01*
X156961000Y-97928757D01*
X157039000Y-97928757D01*
X157039000Y-98171243D01*
X157086307Y-98409069D01*
X157179102Y-98633097D01*
X157313820Y-98834717D01*
X157485283Y-99006180D01*
X157686903Y-99140898D01*
X157910931Y-99233693D01*
X158148757Y-99281000D01*
X158391243Y-99281000D01*
X158629069Y-99233693D01*
X158853097Y-99140898D01*
X159054717Y-99006180D01*
X159226180Y-98834717D01*
X159360898Y-98633097D01*
X159453693Y-98409069D01*
X159501000Y-98171243D01*
X159501000Y-97928757D01*
X159453693Y-97690931D01*
X159360898Y-97466903D01*
X159226180Y-97265283D01*
X159160897Y-97200000D01*
X159577157Y-97200000D01*
X159577157Y-98900000D01*
X159584513Y-98974689D01*
X159606299Y-99046508D01*
X159641678Y-99112696D01*
X159689289Y-99170711D01*
X159747304Y-99218322D01*
X159813492Y-99253701D01*
X159885311Y-99275487D01*
X159960000Y-99282843D01*
X161660000Y-99282843D01*
X161734689Y-99275487D01*
X161806508Y-99253701D01*
X161872696Y-99218322D01*
X161930711Y-99170711D01*
X161978322Y-99112696D01*
X162013701Y-99046508D01*
X162035487Y-98974689D01*
X162042843Y-98900000D01*
X162042843Y-98850000D01*
X166001928Y-98850000D01*
X166014188Y-98974482D01*
X166050498Y-99094180D01*
X166109463Y-99204494D01*
X166188815Y-99301185D01*
X166285506Y-99380537D01*
X166395820Y-99439502D01*
X166515518Y-99475812D01*
X166640000Y-99488072D01*
X167204250Y-99485000D01*
X167363000Y-99326250D01*
X167363000Y-98127000D01*
X166163750Y-98127000D01*
X166005000Y-98285750D01*
X166001928Y-98850000D01*
X162042843Y-98850000D01*
X162042843Y-97200000D01*
X162037919Y-97150000D01*
X166001928Y-97150000D01*
X166005000Y-97714250D01*
X166163750Y-97873000D01*
X167363000Y-97873000D01*
X167363000Y-96673750D01*
X167617000Y-96673750D01*
X167617000Y-97873000D01*
X167637000Y-97873000D01*
X167637000Y-98127000D01*
X167617000Y-98127000D01*
X167617000Y-99326250D01*
X167775750Y-99485000D01*
X168340000Y-99488072D01*
X168464482Y-99475812D01*
X168584180Y-99439502D01*
X168694494Y-99380537D01*
X168791185Y-99301185D01*
X168870537Y-99204494D01*
X168929502Y-99094180D01*
X168965812Y-98974482D01*
X168978072Y-98850000D01*
X168976927Y-98639706D01*
X169073820Y-98784717D01*
X169245283Y-98956180D01*
X169446903Y-99090898D01*
X169670931Y-99183693D01*
X169908757Y-99231000D01*
X170151243Y-99231000D01*
X170389069Y-99183693D01*
X170613097Y-99090898D01*
X170814717Y-98956180D01*
X170986180Y-98784717D01*
X171120898Y-98583097D01*
X171213693Y-98359069D01*
X171261000Y-98121243D01*
X171261000Y-97878757D01*
X171213693Y-97640931D01*
X171120898Y-97416903D01*
X170986180Y-97215283D01*
X170814717Y-97043820D01*
X170613097Y-96909102D01*
X170389069Y-96816307D01*
X170151243Y-96769000D01*
X169908757Y-96769000D01*
X169670931Y-96816307D01*
X169446903Y-96909102D01*
X169245283Y-97043820D01*
X169073820Y-97215283D01*
X168976927Y-97360294D01*
X168978072Y-97150000D01*
X168965812Y-97025518D01*
X168929502Y-96905820D01*
X168870537Y-96795506D01*
X168791185Y-96698815D01*
X168694494Y-96619463D01*
X168584180Y-96560498D01*
X168464482Y-96524188D01*
X168340000Y-96511928D01*
X167775750Y-96515000D01*
X167617000Y-96673750D01*
X167363000Y-96673750D01*
X167204250Y-96515000D01*
X166640000Y-96511928D01*
X166515518Y-96524188D01*
X166395820Y-96560498D01*
X166285506Y-96619463D01*
X166188815Y-96698815D01*
X166109463Y-96795506D01*
X166050498Y-96905820D01*
X166014188Y-97025518D01*
X166001928Y-97150000D01*
X162037919Y-97150000D01*
X162035487Y-97125311D01*
X162013701Y-97053492D01*
X161978322Y-96987304D01*
X161930711Y-96929289D01*
X161872696Y-96881678D01*
X161806508Y-96846299D01*
X161734689Y-96824513D01*
X161660000Y-96817157D01*
X159960000Y-96817157D01*
X159885311Y-96824513D01*
X159813492Y-96846299D01*
X159747304Y-96881678D01*
X159689289Y-96929289D01*
X159641678Y-96987304D01*
X159606299Y-97053492D01*
X159584513Y-97125311D01*
X159577157Y-97200000D01*
X159160897Y-97200000D01*
X159054717Y-97093820D01*
X158853097Y-96959102D01*
X158629069Y-96866307D01*
X158391243Y-96819000D01*
X158148757Y-96819000D01*
X157910931Y-96866307D01*
X157686903Y-96959102D01*
X157485283Y-97093820D01*
X157313820Y-97265283D01*
X157179102Y-97466903D01*
X157086307Y-97690931D01*
X157039000Y-97928757D01*
X156961000Y-97928757D01*
X156913693Y-97690931D01*
X156820898Y-97466903D01*
X156686180Y-97265283D01*
X156514717Y-97093820D01*
X156313097Y-96959102D01*
X156236000Y-96927168D01*
X156236000Y-96639591D01*
X156249591Y-96626000D01*
X160975154Y-96626000D01*
X161000000Y-96628447D01*
X161024846Y-96626000D01*
X161024854Y-96626000D01*
X161099193Y-96618678D01*
X161194575Y-96589745D01*
X161282479Y-96542759D01*
X161359527Y-96479527D01*
X161375376Y-96460215D01*
X162320220Y-95515372D01*
X162339527Y-95499527D01*
X162402759Y-95422479D01*
X162449745Y-95334575D01*
X162478678Y-95239193D01*
X162486000Y-95164854D01*
X162486000Y-95164847D01*
X162488447Y-95140001D01*
X162486000Y-95115155D01*
X162486000Y-92524845D01*
X162488447Y-92499999D01*
X162486000Y-92475153D01*
X162486000Y-92475146D01*
X162478678Y-92400807D01*
X162449745Y-92305425D01*
X162402759Y-92217521D01*
X162339527Y-92140473D01*
X162320220Y-92124628D01*
X161825376Y-91629785D01*
X161809527Y-91610473D01*
X161732479Y-91547241D01*
X161644575Y-91500255D01*
X161549193Y-91471322D01*
X161474854Y-91464000D01*
X161474846Y-91464000D01*
X161450000Y-91461553D01*
X161425154Y-91464000D01*
X161088501Y-91464000D01*
X160987859Y-91363358D01*
X160859942Y-91277887D01*
X160717809Y-91219013D01*
X160566922Y-91189000D01*
X160413078Y-91189000D01*
X160262191Y-91219013D01*
X160120058Y-91277887D01*
X159992141Y-91363358D01*
X159883358Y-91472141D01*
X159797887Y-91600058D01*
X159739013Y-91742191D01*
X159709000Y-91893078D01*
X159709000Y-92046922D01*
X159739013Y-92197809D01*
X159797887Y-92339942D01*
X159883358Y-92467859D01*
X159992141Y-92576642D01*
X160120058Y-92662113D01*
X160262191Y-92720987D01*
X160413078Y-92751000D01*
X160566922Y-92751000D01*
X160717809Y-92720987D01*
X160859942Y-92662113D01*
X160987859Y-92576642D01*
X161088501Y-92476000D01*
X161240409Y-92476000D01*
X161474001Y-92709593D01*
X161474001Y-93338410D01*
X161465376Y-93329785D01*
X161449527Y-93310473D01*
X161372479Y-93247241D01*
X161284575Y-93200255D01*
X161189193Y-93171322D01*
X161114854Y-93164000D01*
X161114846Y-93164000D01*
X161090000Y-93161553D01*
X161077304Y-93162803D01*
X160977859Y-93063358D01*
X160849942Y-92977887D01*
X160707809Y-92919013D01*
X160556922Y-92889000D01*
X160403078Y-92889000D01*
X160252191Y-92919013D01*
X160110058Y-92977887D01*
X159982141Y-93063358D01*
X159873358Y-93172141D01*
X159787887Y-93300058D01*
X159729013Y-93442191D01*
X159699000Y-93593078D01*
X159699000Y-93746922D01*
X159729013Y-93897809D01*
X159787887Y-94039942D01*
X159873358Y-94167859D01*
X159982141Y-94276642D01*
X160110058Y-94362113D01*
X160252191Y-94420987D01*
X160403078Y-94451000D01*
X160556922Y-94451000D01*
X160707809Y-94420987D01*
X160849942Y-94362113D01*
X160914001Y-94319311D01*
X160914000Y-94560408D01*
X160520409Y-94954000D01*
X153884845Y-94954000D01*
X153859999Y-94951553D01*
X153835153Y-94954000D01*
X153835146Y-94954000D01*
X153770694Y-94960348D01*
X153760806Y-94961322D01*
X153665425Y-94990255D01*
X153577521Y-95037241D01*
X153500473Y-95100473D01*
X153484629Y-95119779D01*
X152849785Y-95754624D01*
X152830473Y-95770473D01*
X152767241Y-95847521D01*
X152720255Y-95935426D01*
X152691322Y-96030808D01*
X152684000Y-96105147D01*
X152684000Y-96105154D01*
X152681553Y-96130000D01*
X152684000Y-96154846D01*
X152684000Y-96927167D01*
X152606903Y-96959102D01*
X152405283Y-97093820D01*
X152233820Y-97265283D01*
X152099102Y-97466903D01*
X152006307Y-97690931D01*
X151959000Y-97928757D01*
X150706000Y-97928757D01*
X150706000Y-89678757D01*
X165109000Y-89678757D01*
X165109000Y-89921243D01*
X165156307Y-90159069D01*
X165249102Y-90383097D01*
X165383820Y-90584717D01*
X165555283Y-90756180D01*
X165756903Y-90890898D01*
X165980931Y-90983693D01*
X166218757Y-91031000D01*
X166461243Y-91031000D01*
X166699069Y-90983693D01*
X166923097Y-90890898D01*
X167124717Y-90756180D01*
X167296180Y-90584717D01*
X167430898Y-90383097D01*
X167462832Y-90306000D01*
X168120409Y-90306000D01*
X168334001Y-90519593D01*
X168334000Y-91834000D01*
X167462832Y-91834000D01*
X167430898Y-91756903D01*
X167296180Y-91555283D01*
X167124717Y-91383820D01*
X166923097Y-91249102D01*
X166699069Y-91156307D01*
X166461243Y-91109000D01*
X166218757Y-91109000D01*
X165980931Y-91156307D01*
X165756903Y-91249102D01*
X165555283Y-91383820D01*
X165383820Y-91555283D01*
X165249102Y-91756903D01*
X165156307Y-91980931D01*
X165109000Y-92218757D01*
X165109000Y-92461243D01*
X165156307Y-92699069D01*
X165249102Y-92923097D01*
X165383820Y-93124717D01*
X165555283Y-93296180D01*
X165756903Y-93430898D01*
X165980931Y-93523693D01*
X166218757Y-93571000D01*
X166461243Y-93571000D01*
X166699069Y-93523693D01*
X166923097Y-93430898D01*
X167124717Y-93296180D01*
X167296180Y-93124717D01*
X167430898Y-92923097D01*
X167462832Y-92846000D01*
X168220409Y-92846000D01*
X169950631Y-94576223D01*
X169867887Y-94700058D01*
X169809013Y-94842191D01*
X169779000Y-94993078D01*
X169779000Y-95146922D01*
X169809013Y-95297809D01*
X169867887Y-95439942D01*
X169953358Y-95567859D01*
X170062141Y-95676642D01*
X170190058Y-95762113D01*
X170332191Y-95820987D01*
X170483078Y-95851000D01*
X170636922Y-95851000D01*
X170787809Y-95820987D01*
X170929942Y-95762113D01*
X171057859Y-95676642D01*
X171166642Y-95567859D01*
X171252113Y-95439942D01*
X171310987Y-95297809D01*
X171341000Y-95146922D01*
X171341000Y-94993078D01*
X171310987Y-94842191D01*
X171271143Y-94746000D01*
X172064000Y-94746000D01*
X172064001Y-96877167D01*
X171986903Y-96909102D01*
X171785283Y-97043820D01*
X171613820Y-97215283D01*
X171479102Y-97416903D01*
X171386307Y-97640931D01*
X171339000Y-97878757D01*
X171339000Y-98121243D01*
X171386307Y-98359069D01*
X171479102Y-98583097D01*
X171613820Y-98784717D01*
X171785283Y-98956180D01*
X171986903Y-99090898D01*
X172210931Y-99183693D01*
X172448757Y-99231000D01*
X172691243Y-99231000D01*
X172929069Y-99183693D01*
X173153097Y-99090898D01*
X173354717Y-98956180D01*
X173526180Y-98784717D01*
X173660898Y-98583097D01*
X173753693Y-98359069D01*
X173801000Y-98121243D01*
X173801000Y-97878757D01*
X173879000Y-97878757D01*
X173879000Y-98121243D01*
X173926307Y-98359069D01*
X174019102Y-98583097D01*
X174153820Y-98784717D01*
X174325283Y-98956180D01*
X174526903Y-99090898D01*
X174750931Y-99183693D01*
X174988757Y-99231000D01*
X175231243Y-99231000D01*
X175469069Y-99183693D01*
X175693097Y-99090898D01*
X175894717Y-98956180D01*
X176066180Y-98784717D01*
X176200898Y-98583097D01*
X176293693Y-98359069D01*
X176341000Y-98121243D01*
X176341000Y-97878757D01*
X176293693Y-97640931D01*
X176200898Y-97416903D01*
X176066180Y-97215283D01*
X175894717Y-97043820D01*
X175693097Y-96909102D01*
X175469069Y-96816307D01*
X175231243Y-96769000D01*
X174988757Y-96769000D01*
X174750931Y-96816307D01*
X174526903Y-96909102D01*
X174325283Y-97043820D01*
X174153820Y-97215283D01*
X174019102Y-97416903D01*
X173926307Y-97640931D01*
X173879000Y-97878757D01*
X173801000Y-97878757D01*
X173753693Y-97640931D01*
X173660898Y-97416903D01*
X173526180Y-97215283D01*
X173354717Y-97043820D01*
X173153097Y-96909102D01*
X173076000Y-96877168D01*
X173076000Y-94993078D01*
X174579000Y-94993078D01*
X174579000Y-95146922D01*
X174609013Y-95297809D01*
X174667887Y-95439942D01*
X174753358Y-95567859D01*
X174862141Y-95676642D01*
X174990058Y-95762113D01*
X175132191Y-95820987D01*
X175283078Y-95851000D01*
X175425409Y-95851000D01*
X176294002Y-96719594D01*
X176294001Y-97125154D01*
X176291554Y-97150001D01*
X176294001Y-97174847D01*
X176294001Y-97174854D01*
X176301323Y-97249193D01*
X176330256Y-97344575D01*
X176377242Y-97432480D01*
X176440474Y-97509528D01*
X176459786Y-97525377D01*
X176498242Y-97563833D01*
X176466307Y-97640931D01*
X176419000Y-97878757D01*
X176419000Y-98121243D01*
X176466307Y-98359069D01*
X176559102Y-98583097D01*
X176693820Y-98784717D01*
X176865283Y-98956180D01*
X177066903Y-99090898D01*
X177290931Y-99183693D01*
X177528757Y-99231000D01*
X177771243Y-99231000D01*
X178009069Y-99183693D01*
X178233097Y-99090898D01*
X178434717Y-98956180D01*
X178606180Y-98784717D01*
X178740898Y-98583097D01*
X178833693Y-98359069D01*
X178881000Y-98121243D01*
X178881000Y-97878757D01*
X178959000Y-97878757D01*
X178959000Y-98121243D01*
X179006307Y-98359069D01*
X179099102Y-98583097D01*
X179233820Y-98784717D01*
X179405283Y-98956180D01*
X179606903Y-99090898D01*
X179830931Y-99183693D01*
X180068757Y-99231000D01*
X180311243Y-99231000D01*
X180549069Y-99183693D01*
X180773097Y-99090898D01*
X180974717Y-98956180D01*
X181146180Y-98784717D01*
X181280898Y-98583097D01*
X181354059Y-98406468D01*
X182693137Y-98406468D01*
X182951298Y-98809073D01*
X183470715Y-99084651D01*
X184033913Y-99253601D01*
X184619250Y-99309430D01*
X185204233Y-99249992D01*
X185766379Y-99077571D01*
X186268702Y-98809073D01*
X186526863Y-98406468D01*
X184610000Y-96489605D01*
X182693137Y-98406468D01*
X181354059Y-98406468D01*
X181373693Y-98359069D01*
X181421000Y-98121243D01*
X181421000Y-97878757D01*
X181373693Y-97640931D01*
X181280898Y-97416903D01*
X181146180Y-97215283D01*
X180974717Y-97043820D01*
X180773097Y-96909102D01*
X180549069Y-96816307D01*
X180311243Y-96769000D01*
X180068757Y-96769000D01*
X179830931Y-96816307D01*
X179606903Y-96909102D01*
X179405283Y-97043820D01*
X179233820Y-97215283D01*
X179099102Y-97416903D01*
X179006307Y-97640931D01*
X178959000Y-97878757D01*
X178881000Y-97878757D01*
X178833693Y-97640931D01*
X178740898Y-97416903D01*
X178606180Y-97215283D01*
X178434717Y-97043820D01*
X178233097Y-96909102D01*
X178009069Y-96816307D01*
X177771243Y-96769000D01*
X177528757Y-96769000D01*
X177306001Y-96813309D01*
X177306001Y-96534847D01*
X177308448Y-96510001D01*
X177306001Y-96485155D01*
X177306001Y-96485147D01*
X177298679Y-96410808D01*
X177270906Y-96319250D01*
X181610570Y-96319250D01*
X181670008Y-96904233D01*
X181842429Y-97466379D01*
X182110927Y-97968702D01*
X182513532Y-98226863D01*
X184430395Y-96310000D01*
X184789605Y-96310000D01*
X186706468Y-98226863D01*
X187109073Y-97968702D01*
X187384651Y-97449285D01*
X187553601Y-96886087D01*
X187609430Y-96300750D01*
X187549992Y-95715767D01*
X187377571Y-95153621D01*
X187109073Y-94651298D01*
X186706468Y-94393137D01*
X184789605Y-96310000D01*
X184430395Y-96310000D01*
X182513532Y-94393137D01*
X182110927Y-94651298D01*
X181835349Y-95170715D01*
X181666399Y-95733913D01*
X181610570Y-96319250D01*
X177270906Y-96319250D01*
X177269746Y-96315426D01*
X177222760Y-96227522D01*
X177159528Y-96150474D01*
X177140221Y-96134629D01*
X176141000Y-95135409D01*
X176141000Y-94993078D01*
X176110987Y-94842191D01*
X176052113Y-94700058D01*
X175966642Y-94572141D01*
X175857859Y-94463358D01*
X175729942Y-94377887D01*
X175587809Y-94319013D01*
X175436922Y-94289000D01*
X175283078Y-94289000D01*
X175132191Y-94319013D01*
X174990058Y-94377887D01*
X174862141Y-94463358D01*
X174753358Y-94572141D01*
X174667887Y-94700058D01*
X174609013Y-94842191D01*
X174579000Y-94993078D01*
X173076000Y-94993078D01*
X173076000Y-94746000D01*
X174115154Y-94746000D01*
X174140000Y-94748447D01*
X174164846Y-94746000D01*
X174164854Y-94746000D01*
X174239193Y-94738678D01*
X174334575Y-94709745D01*
X174422479Y-94662759D01*
X174499527Y-94599527D01*
X174515376Y-94580215D01*
X174882059Y-94213532D01*
X182693137Y-94213532D01*
X184610000Y-96130395D01*
X186526863Y-94213532D01*
X186268702Y-93810927D01*
X185749285Y-93535349D01*
X185186087Y-93366399D01*
X184600750Y-93310570D01*
X184015767Y-93370008D01*
X183453621Y-93542429D01*
X182951298Y-93810927D01*
X182693137Y-94213532D01*
X174882059Y-94213532D01*
X177595591Y-91500000D01*
X178237157Y-91500000D01*
X178237157Y-93200000D01*
X178244513Y-93274689D01*
X178266299Y-93346508D01*
X178301678Y-93412696D01*
X178349289Y-93470711D01*
X178407304Y-93518322D01*
X178473492Y-93553701D01*
X178545311Y-93575487D01*
X178620000Y-93582843D01*
X180320000Y-93582843D01*
X180394689Y-93575487D01*
X180466508Y-93553701D01*
X180532696Y-93518322D01*
X180590711Y-93470711D01*
X180638322Y-93412696D01*
X180673701Y-93346508D01*
X180695487Y-93274689D01*
X180702843Y-93200000D01*
X180702843Y-92856000D01*
X183025146Y-92856000D01*
X183050000Y-92858448D01*
X183074854Y-92856000D01*
X185331373Y-92856000D01*
X185361678Y-92912696D01*
X185409289Y-92970711D01*
X185467304Y-93018322D01*
X185533492Y-93053701D01*
X185605311Y-93075487D01*
X185680000Y-93082843D01*
X187380000Y-93082843D01*
X187454689Y-93075487D01*
X187526508Y-93053701D01*
X187592696Y-93018322D01*
X187650711Y-92970711D01*
X187698322Y-92912696D01*
X187733701Y-92846508D01*
X187755487Y-92774689D01*
X187762843Y-92700000D01*
X187762843Y-91000000D01*
X187755487Y-90925311D01*
X187733701Y-90853492D01*
X187698322Y-90787304D01*
X187650711Y-90729289D01*
X187592696Y-90681678D01*
X187526508Y-90646299D01*
X187454689Y-90624513D01*
X187380000Y-90617157D01*
X185680000Y-90617157D01*
X185605311Y-90624513D01*
X185533492Y-90646299D01*
X185467304Y-90681678D01*
X185409289Y-90729289D01*
X185361678Y-90787304D01*
X185326299Y-90853492D01*
X185304513Y-90925311D01*
X185297157Y-91000000D01*
X185297157Y-91844000D01*
X183426000Y-91844000D01*
X183426000Y-83092832D01*
X183503097Y-83060898D01*
X183704717Y-82926180D01*
X183876180Y-82754717D01*
X184010898Y-82553097D01*
X184103693Y-82329069D01*
X184151000Y-82091243D01*
X184151000Y-81848757D01*
X184103693Y-81610931D01*
X184010898Y-81386903D01*
X183876180Y-81185283D01*
X183704717Y-81013820D01*
X183503097Y-80879102D01*
X183279069Y-80786307D01*
X183041243Y-80739000D01*
X182798757Y-80739000D01*
X182560931Y-80786307D01*
X182336903Y-80879102D01*
X182135283Y-81013820D01*
X181963820Y-81185283D01*
X181829102Y-81386903D01*
X181736307Y-81610931D01*
X181689000Y-81848757D01*
X181689000Y-82091243D01*
X181736307Y-82329069D01*
X181829102Y-82553097D01*
X181963820Y-82754717D01*
X182135283Y-82926180D01*
X182336903Y-83060898D01*
X182414001Y-83092833D01*
X182414000Y-86114853D01*
X182414001Y-86114863D01*
X182414000Y-91844000D01*
X180702843Y-91844000D01*
X180702843Y-91500000D01*
X180695487Y-91425311D01*
X180673701Y-91353492D01*
X180638322Y-91287304D01*
X180590711Y-91229289D01*
X180532696Y-91181678D01*
X180466508Y-91146299D01*
X180394689Y-91124513D01*
X180320000Y-91117157D01*
X178620000Y-91117157D01*
X178545311Y-91124513D01*
X178473492Y-91146299D01*
X178407304Y-91181678D01*
X178349289Y-91229289D01*
X178301678Y-91287304D01*
X178266299Y-91353492D01*
X178244513Y-91425311D01*
X178237157Y-91500000D01*
X177595591Y-91500000D01*
X177990220Y-91105372D01*
X178009527Y-91089527D01*
X178072759Y-91012479D01*
X178119745Y-90924575D01*
X178148678Y-90829193D01*
X178156000Y-90754854D01*
X178156000Y-90754853D01*
X178158448Y-90730000D01*
X178156000Y-90705146D01*
X178156000Y-90316000D01*
X178347168Y-90316000D01*
X178379102Y-90393097D01*
X178513820Y-90594717D01*
X178685283Y-90766180D01*
X178886903Y-90900898D01*
X179110931Y-90993693D01*
X179348757Y-91041000D01*
X179591243Y-91041000D01*
X179829069Y-90993693D01*
X180053097Y-90900898D01*
X180254717Y-90766180D01*
X180426180Y-90594717D01*
X180560898Y-90393097D01*
X180653693Y-90169069D01*
X180701000Y-89931243D01*
X180701000Y-89688757D01*
X180653693Y-89450931D01*
X180560898Y-89226903D01*
X180426180Y-89025283D01*
X180254717Y-88853820D01*
X180053097Y-88719102D01*
X179829069Y-88626307D01*
X179591243Y-88579000D01*
X179348757Y-88579000D01*
X179110931Y-88626307D01*
X178886903Y-88719102D01*
X178685283Y-88853820D01*
X178513820Y-89025283D01*
X178379102Y-89226903D01*
X178347168Y-89304000D01*
X178156000Y-89304000D01*
X178156000Y-87159591D01*
X178256919Y-87058672D01*
X178239000Y-87148757D01*
X178239000Y-87391243D01*
X178286307Y-87629069D01*
X178379102Y-87853097D01*
X178513820Y-88054717D01*
X178685283Y-88226180D01*
X178886903Y-88360898D01*
X179110931Y-88453693D01*
X179348757Y-88501000D01*
X179591243Y-88501000D01*
X179829069Y-88453693D01*
X180053097Y-88360898D01*
X180254717Y-88226180D01*
X180426180Y-88054717D01*
X180560898Y-87853097D01*
X180653693Y-87629069D01*
X180701000Y-87391243D01*
X180701000Y-87148757D01*
X180653693Y-86910931D01*
X180560898Y-86686903D01*
X180426180Y-86485283D01*
X180254717Y-86313820D01*
X180053097Y-86179102D01*
X179914790Y-86121813D01*
X179954575Y-86109745D01*
X180042479Y-86062759D01*
X180119527Y-85999527D01*
X180135376Y-85980215D01*
X180730220Y-85385372D01*
X180749527Y-85369527D01*
X180812759Y-85292479D01*
X180859745Y-85204575D01*
X180888678Y-85109193D01*
X180896000Y-85034854D01*
X180896000Y-85034853D01*
X180898448Y-85010000D01*
X180896000Y-84985146D01*
X180896000Y-83586874D01*
X180897169Y-83543958D01*
X180891803Y-83512535D01*
X180888678Y-83480807D01*
X180886000Y-83471979D01*
X180886000Y-83092832D01*
X180963097Y-83060898D01*
X181164717Y-82926180D01*
X181336180Y-82754717D01*
X181470898Y-82553097D01*
X181563693Y-82329069D01*
X181611000Y-82091243D01*
X181611000Y-81848757D01*
X181563693Y-81610931D01*
X181470898Y-81386903D01*
X181336180Y-81185283D01*
X181164717Y-81013820D01*
X180963097Y-80879102D01*
X180739069Y-80786307D01*
X180501243Y-80739000D01*
X180258757Y-80739000D01*
X180020931Y-80786307D01*
X179796903Y-80879102D01*
X179595283Y-81013820D01*
X179423820Y-81185283D01*
X179289102Y-81386903D01*
X179196307Y-81610931D01*
X179149000Y-81848757D01*
X179149000Y-82091243D01*
X179196307Y-82329069D01*
X179289102Y-82553097D01*
X179423820Y-82754717D01*
X179595283Y-82926180D01*
X179796903Y-83060898D01*
X179874000Y-83092833D01*
X179874000Y-83553126D01*
X179872831Y-83596043D01*
X179878197Y-83627468D01*
X179881322Y-83659192D01*
X179884001Y-83668023D01*
X179884000Y-84800408D01*
X179550409Y-85134000D01*
X178984854Y-85134000D01*
X178960000Y-85131552D01*
X178935146Y-85134000D01*
X178860807Y-85141322D01*
X178765425Y-85170255D01*
X178677521Y-85217241D01*
X178600473Y-85280473D01*
X178584629Y-85299779D01*
X177309780Y-86574629D01*
X177290474Y-86590473D01*
X177227242Y-86667521D01*
X177216882Y-86686903D01*
X177180255Y-86755426D01*
X177151322Y-86850808D01*
X177141553Y-86950000D01*
X177144001Y-86974856D01*
X177144000Y-89745154D01*
X177141553Y-89770000D01*
X177144000Y-89794846D01*
X177144000Y-89794853D01*
X177144001Y-89794863D01*
X177144000Y-90520408D01*
X173930409Y-93734000D01*
X172534846Y-93734000D01*
X172510000Y-93731553D01*
X172485154Y-93734000D01*
X172358933Y-93734000D01*
X172471252Y-93694157D01*
X172721355Y-93545178D01*
X172937588Y-93350269D01*
X173111641Y-93116920D01*
X173236825Y-92854099D01*
X173281476Y-92706890D01*
X173160155Y-92477000D01*
X171967000Y-92477000D01*
X171967000Y-92497000D01*
X171713000Y-92497000D01*
X171713000Y-92477000D01*
X170519845Y-92477000D01*
X170399891Y-92704300D01*
X169346000Y-91650409D01*
X169346000Y-90334854D01*
X169348448Y-90310000D01*
X169338678Y-90210807D01*
X169309745Y-90115425D01*
X169297479Y-90092478D01*
X169262759Y-90027521D01*
X169199527Y-89950473D01*
X169180220Y-89934628D01*
X168705376Y-89459785D01*
X168689527Y-89440473D01*
X168612479Y-89377241D01*
X168524575Y-89330255D01*
X168429193Y-89301322D01*
X168354854Y-89294000D01*
X168354846Y-89294000D01*
X168330000Y-89291553D01*
X168305154Y-89294000D01*
X167462832Y-89294000D01*
X167430898Y-89216903D01*
X167296180Y-89015283D01*
X167124717Y-88843820D01*
X166923097Y-88709102D01*
X166699069Y-88616307D01*
X166461243Y-88569000D01*
X166218757Y-88569000D01*
X165980931Y-88616307D01*
X165756903Y-88709102D01*
X165555283Y-88843820D01*
X165383820Y-89015283D01*
X165249102Y-89216903D01*
X165156307Y-89440931D01*
X165109000Y-89678757D01*
X150706000Y-89678757D01*
X150706000Y-87823078D01*
X157079000Y-87823078D01*
X157079000Y-87976922D01*
X157109013Y-88127809D01*
X157167887Y-88269942D01*
X157253358Y-88397859D01*
X157362141Y-88506642D01*
X157490058Y-88592113D01*
X157632191Y-88650987D01*
X157783078Y-88681000D01*
X157936922Y-88681000D01*
X158087809Y-88650987D01*
X158229942Y-88592113D01*
X158357859Y-88506642D01*
X158458501Y-88406000D01*
X158564724Y-88406000D01*
X159068943Y-88910220D01*
X159084788Y-88929527D01*
X159161836Y-88992759D01*
X159222684Y-89025283D01*
X159249740Y-89039745D01*
X159345121Y-89068678D01*
X159355009Y-89069652D01*
X159410629Y-89075130D01*
X159512141Y-89176642D01*
X159640058Y-89262113D01*
X159782191Y-89320987D01*
X159933078Y-89351000D01*
X160086922Y-89351000D01*
X160237809Y-89320987D01*
X160379942Y-89262113D01*
X160507859Y-89176642D01*
X160616642Y-89067859D01*
X160702113Y-88939942D01*
X160760987Y-88797809D01*
X160791000Y-88646922D01*
X160791000Y-88493078D01*
X160760987Y-88342191D01*
X160702113Y-88200058D01*
X160616642Y-88072141D01*
X160507859Y-87963358D01*
X160379942Y-87877887D01*
X160237809Y-87819013D01*
X160086922Y-87789000D01*
X159933078Y-87789000D01*
X159782191Y-87819013D01*
X159640058Y-87877887D01*
X159536793Y-87946886D01*
X159149691Y-87559785D01*
X159133842Y-87540473D01*
X159056794Y-87477241D01*
X158968890Y-87430255D01*
X158873508Y-87401322D01*
X158799169Y-87394000D01*
X158799161Y-87394000D01*
X158774315Y-87391553D01*
X158749469Y-87394000D01*
X158458501Y-87394000D01*
X158357859Y-87293358D01*
X158229942Y-87207887D01*
X158087809Y-87149013D01*
X157936922Y-87119000D01*
X157783078Y-87119000D01*
X157632191Y-87149013D01*
X157490058Y-87207887D01*
X157362141Y-87293358D01*
X157253358Y-87402141D01*
X157167887Y-87530058D01*
X157109013Y-87672191D01*
X157079000Y-87823078D01*
X150706000Y-87823078D01*
X150706000Y-85916468D01*
X152183137Y-85916468D01*
X152441298Y-86319073D01*
X152960715Y-86594651D01*
X153523913Y-86763601D01*
X154109250Y-86819430D01*
X154694233Y-86759992D01*
X155256379Y-86587571D01*
X155588590Y-86410000D01*
X165107157Y-86410000D01*
X165107157Y-88110000D01*
X165114513Y-88184689D01*
X165136299Y-88256508D01*
X165171678Y-88322696D01*
X165219289Y-88380711D01*
X165277304Y-88428322D01*
X165343492Y-88463701D01*
X165415311Y-88485487D01*
X165490000Y-88492843D01*
X167190000Y-88492843D01*
X167264689Y-88485487D01*
X167336508Y-88463701D01*
X167402696Y-88428322D01*
X167460711Y-88380711D01*
X167508322Y-88322696D01*
X167543701Y-88256508D01*
X167565487Y-88184689D01*
X167572843Y-88110000D01*
X167572843Y-86410000D01*
X167565487Y-86335311D01*
X167543701Y-86263492D01*
X167508322Y-86197304D01*
X167460711Y-86139289D01*
X167402696Y-86091678D01*
X167336508Y-86056299D01*
X167264689Y-86034513D01*
X167190000Y-86027157D01*
X165490000Y-86027157D01*
X165415311Y-86034513D01*
X165343492Y-86056299D01*
X165277304Y-86091678D01*
X165219289Y-86139289D01*
X165171678Y-86197304D01*
X165136299Y-86263492D01*
X165114513Y-86335311D01*
X165107157Y-86410000D01*
X155588590Y-86410000D01*
X155758702Y-86319073D01*
X156016863Y-85916468D01*
X154100000Y-83999605D01*
X152183137Y-85916468D01*
X150706000Y-85916468D01*
X150706000Y-83829250D01*
X151100570Y-83829250D01*
X151160008Y-84414233D01*
X151332429Y-84976379D01*
X151600927Y-85478702D01*
X152003532Y-85736863D01*
X153920395Y-83820000D01*
X154279605Y-83820000D01*
X156196468Y-85736863D01*
X156599073Y-85478702D01*
X156874651Y-84959285D01*
X157043601Y-84396087D01*
X157099430Y-83810750D01*
X157039992Y-83225767D01*
X156867571Y-82663621D01*
X156599073Y-82161298D01*
X156196468Y-81903137D01*
X154279605Y-83820000D01*
X153920395Y-83820000D01*
X152003532Y-81903137D01*
X151600927Y-82161298D01*
X151325349Y-82680715D01*
X151156399Y-83243913D01*
X151100570Y-83829250D01*
X150706000Y-83829250D01*
X150706000Y-81723532D01*
X152183137Y-81723532D01*
X154100000Y-83640395D01*
X155841638Y-81898757D01*
X157659000Y-81898757D01*
X157659000Y-82141243D01*
X157706307Y-82379069D01*
X157799102Y-82603097D01*
X157933820Y-82804717D01*
X158105283Y-82976180D01*
X158306903Y-83110898D01*
X158530931Y-83203693D01*
X158768757Y-83251000D01*
X159011243Y-83251000D01*
X159249069Y-83203693D01*
X159473097Y-83110898D01*
X159674717Y-82976180D01*
X159846180Y-82804717D01*
X159980898Y-82603097D01*
X160028228Y-82488832D01*
X160085843Y-82651252D01*
X160234822Y-82901355D01*
X160429731Y-83117588D01*
X160663080Y-83291641D01*
X160925901Y-83416825D01*
X161073110Y-83461476D01*
X161303000Y-83340155D01*
X161303000Y-82147000D01*
X161283000Y-82147000D01*
X161283000Y-81893000D01*
X161303000Y-81893000D01*
X161303000Y-80699845D01*
X161557000Y-80699845D01*
X161557000Y-81893000D01*
X161577000Y-81893000D01*
X161577000Y-82147000D01*
X161557000Y-82147000D01*
X161557000Y-83340155D01*
X161786890Y-83461476D01*
X161934099Y-83416825D01*
X162196920Y-83291641D01*
X162430269Y-83117588D01*
X162625178Y-82901355D01*
X162774157Y-82651252D01*
X162831772Y-82488832D01*
X162879102Y-82603097D01*
X163013820Y-82804717D01*
X163185283Y-82976180D01*
X163386903Y-83110898D01*
X163610931Y-83203693D01*
X163848757Y-83251000D01*
X164091243Y-83251000D01*
X164329069Y-83203693D01*
X164553097Y-83110898D01*
X164754717Y-82976180D01*
X164926180Y-82804717D01*
X165060898Y-82603097D01*
X165153693Y-82379069D01*
X165201000Y-82141243D01*
X165201000Y-81898757D01*
X165153693Y-81660931D01*
X165060898Y-81436903D01*
X164926180Y-81235283D01*
X164860897Y-81170000D01*
X165277157Y-81170000D01*
X165277157Y-82870000D01*
X165284513Y-82944689D01*
X165306299Y-83016508D01*
X165341678Y-83082696D01*
X165389289Y-83140711D01*
X165447304Y-83188322D01*
X165513492Y-83223701D01*
X165585311Y-83245487D01*
X165660000Y-83252843D01*
X167360000Y-83252843D01*
X167434689Y-83245487D01*
X167506508Y-83223701D01*
X167572696Y-83188322D01*
X167630711Y-83140711D01*
X167678322Y-83082696D01*
X167713701Y-83016508D01*
X167735487Y-82944689D01*
X167742843Y-82870000D01*
X167742843Y-82526000D01*
X168987157Y-82526000D01*
X168987157Y-82820000D01*
X168994513Y-82894689D01*
X169016299Y-82966508D01*
X169051678Y-83032696D01*
X169099289Y-83090711D01*
X169157304Y-83138322D01*
X169223492Y-83173701D01*
X169295311Y-83195487D01*
X169370000Y-83202843D01*
X169371566Y-83202843D01*
X169329785Y-83244624D01*
X169310473Y-83260473D01*
X169247241Y-83337521D01*
X169200255Y-83425426D01*
X169171322Y-83520808D01*
X169164000Y-83595147D01*
X169164000Y-83595154D01*
X169161553Y-83620000D01*
X169164000Y-83644846D01*
X169164001Y-87615144D01*
X169161553Y-87640000D01*
X169171322Y-87739192D01*
X169200255Y-87834574D01*
X169200256Y-87834575D01*
X169247242Y-87922479D01*
X169310474Y-87999527D01*
X169329781Y-88015372D01*
X170688242Y-89373833D01*
X170656307Y-89450931D01*
X170609000Y-89688757D01*
X170609000Y-89931243D01*
X170656307Y-90169069D01*
X170749102Y-90393097D01*
X170883820Y-90594717D01*
X171055283Y-90766180D01*
X171256903Y-90900898D01*
X171371168Y-90948228D01*
X171208748Y-91005843D01*
X170958645Y-91154822D01*
X170742412Y-91349731D01*
X170568359Y-91583080D01*
X170443175Y-91845901D01*
X170398524Y-91993110D01*
X170519845Y-92223000D01*
X171713000Y-92223000D01*
X171713000Y-92203000D01*
X171967000Y-92203000D01*
X171967000Y-92223000D01*
X173160155Y-92223000D01*
X173281476Y-91993110D01*
X173236825Y-91845901D01*
X173111641Y-91583080D01*
X172937588Y-91349731D01*
X172721355Y-91154822D01*
X172471252Y-91005843D01*
X172308832Y-90948228D01*
X172423097Y-90900898D01*
X172624717Y-90766180D01*
X172796180Y-90594717D01*
X172930898Y-90393097D01*
X173023693Y-90169069D01*
X173071000Y-89931243D01*
X173071000Y-89688757D01*
X173023693Y-89450931D01*
X172930898Y-89226903D01*
X172796180Y-89025283D01*
X172624717Y-88853820D01*
X172423097Y-88719102D01*
X172199069Y-88626307D01*
X171961243Y-88579000D01*
X171718757Y-88579000D01*
X171480931Y-88626307D01*
X171403833Y-88658242D01*
X171248435Y-88502843D01*
X172690000Y-88502843D01*
X172764689Y-88495487D01*
X172836508Y-88473701D01*
X172902696Y-88438322D01*
X172960711Y-88390711D01*
X173008322Y-88332696D01*
X173043701Y-88266508D01*
X173065487Y-88194689D01*
X173072843Y-88120000D01*
X173072843Y-87776000D01*
X175995154Y-87776000D01*
X176020000Y-87778447D01*
X176044846Y-87776000D01*
X176044854Y-87776000D01*
X176119193Y-87768678D01*
X176214575Y-87739745D01*
X176302479Y-87692759D01*
X176379527Y-87629527D01*
X176395376Y-87610215D01*
X176940220Y-87065372D01*
X176959527Y-87049527D01*
X177022759Y-86972479D01*
X177069745Y-86884575D01*
X177098678Y-86789193D01*
X177106000Y-86714854D01*
X177106000Y-86714853D01*
X177108448Y-86690000D01*
X177106000Y-86665146D01*
X177106000Y-85559591D01*
X178180220Y-84485372D01*
X178199527Y-84469527D01*
X178262759Y-84392479D01*
X178309745Y-84304575D01*
X178338678Y-84209193D01*
X178346000Y-84134854D01*
X178346000Y-84134853D01*
X178348448Y-84110000D01*
X178346000Y-84085146D01*
X178346000Y-83092832D01*
X178423097Y-83060898D01*
X178624717Y-82926180D01*
X178796180Y-82754717D01*
X178930898Y-82553097D01*
X179023693Y-82329069D01*
X179071000Y-82091243D01*
X179071000Y-81848757D01*
X179023693Y-81610931D01*
X178930898Y-81386903D01*
X178796180Y-81185283D01*
X178624717Y-81013820D01*
X178423097Y-80879102D01*
X178199069Y-80786307D01*
X177961243Y-80739000D01*
X177718757Y-80739000D01*
X177480931Y-80786307D01*
X177256903Y-80879102D01*
X177055283Y-81013820D01*
X176883820Y-81185283D01*
X176749102Y-81386903D01*
X176656307Y-81610931D01*
X176609000Y-81848757D01*
X176609000Y-82091243D01*
X176656307Y-82329069D01*
X176749102Y-82553097D01*
X176883820Y-82754717D01*
X177055283Y-82926180D01*
X177256903Y-83060898D01*
X177334000Y-83092833D01*
X177334000Y-83900408D01*
X176259780Y-84974629D01*
X176240474Y-84990473D01*
X176177242Y-85067521D01*
X176164397Y-85091553D01*
X176130255Y-85155426D01*
X176101322Y-85250808D01*
X176091553Y-85350000D01*
X176094001Y-85374856D01*
X176094001Y-85394004D01*
X176057809Y-85379013D01*
X175906922Y-85349000D01*
X175806000Y-85349000D01*
X175806000Y-83092832D01*
X175883097Y-83060898D01*
X176084717Y-82926180D01*
X176256180Y-82754717D01*
X176390898Y-82553097D01*
X176483693Y-82329069D01*
X176531000Y-82091243D01*
X176531000Y-81848757D01*
X176483693Y-81610931D01*
X176390898Y-81386903D01*
X176256180Y-81185283D01*
X176084717Y-81013820D01*
X175883097Y-80879102D01*
X175659069Y-80786307D01*
X175421243Y-80739000D01*
X175178757Y-80739000D01*
X174940931Y-80786307D01*
X174716903Y-80879102D01*
X174515283Y-81013820D01*
X174343820Y-81185283D01*
X174209102Y-81386903D01*
X174161772Y-81501168D01*
X174104157Y-81338748D01*
X173955178Y-81088645D01*
X173760269Y-80872412D01*
X173526920Y-80698359D01*
X173264099Y-80573175D01*
X173116890Y-80528524D01*
X172887000Y-80649845D01*
X172887000Y-81843000D01*
X172907000Y-81843000D01*
X172907000Y-82097000D01*
X172887000Y-82097000D01*
X172887000Y-83290155D01*
X173116890Y-83411476D01*
X173264099Y-83366825D01*
X173526920Y-83241641D01*
X173760269Y-83067588D01*
X173955178Y-82851355D01*
X174104157Y-82601252D01*
X174161772Y-82438832D01*
X174209102Y-82553097D01*
X174343820Y-82754717D01*
X174515283Y-82926180D01*
X174716903Y-83060898D01*
X174794000Y-83092833D01*
X174794001Y-85575144D01*
X174791553Y-85600000D01*
X174801322Y-85699192D01*
X174830255Y-85794574D01*
X174843710Y-85819745D01*
X174877242Y-85882479D01*
X174940474Y-85959527D01*
X174959780Y-85975371D01*
X175049000Y-86064591D01*
X175049000Y-86206922D01*
X175079013Y-86357809D01*
X175137887Y-86499942D01*
X175223358Y-86627859D01*
X175332141Y-86736642D01*
X175373085Y-86764000D01*
X173072843Y-86764000D01*
X173072843Y-86420000D01*
X173065487Y-86345311D01*
X173043701Y-86273492D01*
X173008322Y-86207304D01*
X172960711Y-86149289D01*
X172902696Y-86101678D01*
X172836508Y-86066299D01*
X172764689Y-86044513D01*
X172690000Y-86037157D01*
X170990000Y-86037157D01*
X170915311Y-86044513D01*
X170843492Y-86066299D01*
X170777304Y-86101678D01*
X170719289Y-86149289D01*
X170671678Y-86207304D01*
X170636299Y-86273492D01*
X170614513Y-86345311D01*
X170607157Y-86420000D01*
X170607157Y-87861566D01*
X170176000Y-87430409D01*
X170176000Y-83829591D01*
X170560220Y-83445372D01*
X170579527Y-83429527D01*
X170642759Y-83352479D01*
X170689745Y-83264575D01*
X170708471Y-83202843D01*
X171070000Y-83202843D01*
X171144689Y-83195487D01*
X171216508Y-83173701D01*
X171282696Y-83138322D01*
X171340711Y-83090711D01*
X171388322Y-83032696D01*
X171423701Y-82966508D01*
X171445487Y-82894689D01*
X171452843Y-82820000D01*
X171452843Y-82663367D01*
X171564822Y-82851355D01*
X171759731Y-83067588D01*
X171993080Y-83241641D01*
X172255901Y-83366825D01*
X172403110Y-83411476D01*
X172633000Y-83290155D01*
X172633000Y-82097000D01*
X172613000Y-82097000D01*
X172613000Y-81843000D01*
X172633000Y-81843000D01*
X172633000Y-80649845D01*
X172403110Y-80528524D01*
X172255901Y-80573175D01*
X171993080Y-80698359D01*
X171759731Y-80872412D01*
X171564822Y-81088645D01*
X171452843Y-81276633D01*
X171452843Y-81120000D01*
X171445487Y-81045311D01*
X171423701Y-80973492D01*
X171388322Y-80907304D01*
X171340711Y-80849289D01*
X171282696Y-80801678D01*
X171216508Y-80766299D01*
X171144689Y-80744513D01*
X171070000Y-80737157D01*
X169370000Y-80737157D01*
X169295311Y-80744513D01*
X169223492Y-80766299D01*
X169157304Y-80801678D01*
X169099289Y-80849289D01*
X169051678Y-80907304D01*
X169016299Y-80973492D01*
X168994513Y-81045311D01*
X168987157Y-81120000D01*
X168987157Y-81514000D01*
X167742843Y-81514000D01*
X167742843Y-81170000D01*
X167735487Y-81095311D01*
X167713701Y-81023492D01*
X167678322Y-80957304D01*
X167630711Y-80899289D01*
X167572696Y-80851678D01*
X167506508Y-80816299D01*
X167434689Y-80794513D01*
X167360000Y-80787157D01*
X165660000Y-80787157D01*
X165585311Y-80794513D01*
X165513492Y-80816299D01*
X165447304Y-80851678D01*
X165389289Y-80899289D01*
X165341678Y-80957304D01*
X165306299Y-81023492D01*
X165284513Y-81095311D01*
X165277157Y-81170000D01*
X164860897Y-81170000D01*
X164754717Y-81063820D01*
X164553097Y-80929102D01*
X164329069Y-80836307D01*
X164091243Y-80789000D01*
X163848757Y-80789000D01*
X163610931Y-80836307D01*
X163386903Y-80929102D01*
X163185283Y-81063820D01*
X163013820Y-81235283D01*
X162879102Y-81436903D01*
X162831772Y-81551168D01*
X162774157Y-81388748D01*
X162625178Y-81138645D01*
X162430269Y-80922412D01*
X162196920Y-80748359D01*
X161934099Y-80623175D01*
X161786890Y-80578524D01*
X161557000Y-80699845D01*
X161303000Y-80699845D01*
X161073110Y-80578524D01*
X160925901Y-80623175D01*
X160663080Y-80748359D01*
X160429731Y-80922412D01*
X160234822Y-81138645D01*
X160085843Y-81388748D01*
X160028228Y-81551168D01*
X159980898Y-81436903D01*
X159846180Y-81235283D01*
X159674717Y-81063820D01*
X159473097Y-80929102D01*
X159249069Y-80836307D01*
X159011243Y-80789000D01*
X158768757Y-80789000D01*
X158530931Y-80836307D01*
X158306903Y-80929102D01*
X158105283Y-81063820D01*
X157933820Y-81235283D01*
X157799102Y-81436903D01*
X157706307Y-81660931D01*
X157659000Y-81898757D01*
X155841638Y-81898757D01*
X156016863Y-81723532D01*
X155758702Y-81320927D01*
X155239285Y-81045349D01*
X154676087Y-80876399D01*
X154090750Y-80820570D01*
X153505767Y-80880008D01*
X152943621Y-81052429D01*
X152441298Y-81320927D01*
X152183137Y-81723532D01*
X150706000Y-81723532D01*
X150706000Y-80426000D01*
X185764182Y-80426000D01*
X185648645Y-80494822D01*
M02*
