G04 #@! TF.GenerationSoftware,KiCad,Pcbnew,5.1.5+dfsg1-2build2*
G04 #@! TF.CreationDate,2023-02-26T20:32:14+01:00*
G04 #@! TF.ProjectId,EcoApi_BeeHiveSensor,45636f41-7069-45f4-9265-654869766553,rev?*
G04 #@! TF.SameCoordinates,Original*
G04 #@! TF.FileFunction,Soldermask,Bot*
G04 #@! TF.FilePolarity,Negative*
%FSLAX46Y46*%
G04 Gerber Fmt 4.6, Leading zero omitted, Abs format (unit mm)*
G04 Created by KiCad (PCBNEW 5.1.5+dfsg1-2build2) date 2023-02-26 20:32:14*
%MOMM*%
%LPD*%
G04 APERTURE LIST*
%ADD10C,0.100000*%
G04 APERTURE END LIST*
D10*
G36*
X161711000Y-98951000D02*
G01*
X159909000Y-98951000D01*
X159909000Y-97149000D01*
X161711000Y-97149000D01*
X161711000Y-98951000D01*
G37*
G36*
X158383512Y-97153927D02*
G01*
X158532812Y-97183624D01*
X158696784Y-97251544D01*
X158844354Y-97350147D01*
X158969853Y-97475646D01*
X159068456Y-97623216D01*
X159136376Y-97787188D01*
X159171000Y-97961259D01*
X159171000Y-98138741D01*
X159136376Y-98312812D01*
X159068456Y-98476784D01*
X158969853Y-98624354D01*
X158844354Y-98749853D01*
X158696784Y-98848456D01*
X158532812Y-98916376D01*
X158383512Y-98946073D01*
X158358742Y-98951000D01*
X158181258Y-98951000D01*
X158156488Y-98946073D01*
X158007188Y-98916376D01*
X157843216Y-98848456D01*
X157695646Y-98749853D01*
X157570147Y-98624354D01*
X157471544Y-98476784D01*
X157403624Y-98312812D01*
X157369000Y-98138741D01*
X157369000Y-97961259D01*
X157403624Y-97787188D01*
X157471544Y-97623216D01*
X157570147Y-97475646D01*
X157695646Y-97350147D01*
X157843216Y-97251544D01*
X158007188Y-97183624D01*
X158156488Y-97153927D01*
X158181258Y-97149000D01*
X158358742Y-97149000D01*
X158383512Y-97153927D01*
G37*
G36*
X153303512Y-97153927D02*
G01*
X153452812Y-97183624D01*
X153616784Y-97251544D01*
X153764354Y-97350147D01*
X153889853Y-97475646D01*
X153988456Y-97623216D01*
X154056376Y-97787188D01*
X154091000Y-97961259D01*
X154091000Y-98138741D01*
X154056376Y-98312812D01*
X153988456Y-98476784D01*
X153889853Y-98624354D01*
X153764354Y-98749853D01*
X153616784Y-98848456D01*
X153452812Y-98916376D01*
X153303512Y-98946073D01*
X153278742Y-98951000D01*
X153101258Y-98951000D01*
X153076488Y-98946073D01*
X152927188Y-98916376D01*
X152763216Y-98848456D01*
X152615646Y-98749853D01*
X152490147Y-98624354D01*
X152391544Y-98476784D01*
X152323624Y-98312812D01*
X152289000Y-98138741D01*
X152289000Y-97961259D01*
X152323624Y-97787188D01*
X152391544Y-97623216D01*
X152490147Y-97475646D01*
X152615646Y-97350147D01*
X152763216Y-97251544D01*
X152927188Y-97183624D01*
X153076488Y-97153927D01*
X153101258Y-97149000D01*
X153278742Y-97149000D01*
X153303512Y-97153927D01*
G37*
G36*
X155843512Y-97153927D02*
G01*
X155992812Y-97183624D01*
X156156784Y-97251544D01*
X156304354Y-97350147D01*
X156429853Y-97475646D01*
X156528456Y-97623216D01*
X156596376Y-97787188D01*
X156631000Y-97961259D01*
X156631000Y-98138741D01*
X156596376Y-98312812D01*
X156528456Y-98476784D01*
X156429853Y-98624354D01*
X156304354Y-98749853D01*
X156156784Y-98848456D01*
X155992812Y-98916376D01*
X155843512Y-98946073D01*
X155818742Y-98951000D01*
X155641258Y-98951000D01*
X155616488Y-98946073D01*
X155467188Y-98916376D01*
X155303216Y-98848456D01*
X155155646Y-98749853D01*
X155030147Y-98624354D01*
X154931544Y-98476784D01*
X154863624Y-98312812D01*
X154829000Y-98138741D01*
X154829000Y-97961259D01*
X154863624Y-97787188D01*
X154931544Y-97623216D01*
X155030147Y-97475646D01*
X155155646Y-97350147D01*
X155303216Y-97251544D01*
X155467188Y-97183624D01*
X155616488Y-97153927D01*
X155641258Y-97149000D01*
X155818742Y-97149000D01*
X155843512Y-97153927D01*
G37*
G36*
X175223512Y-97103927D02*
G01*
X175372812Y-97133624D01*
X175536784Y-97201544D01*
X175684354Y-97300147D01*
X175809853Y-97425646D01*
X175908456Y-97573216D01*
X175976376Y-97737188D01*
X176011000Y-97911259D01*
X176011000Y-98088741D01*
X175976376Y-98262812D01*
X175908456Y-98426784D01*
X175809853Y-98574354D01*
X175684354Y-98699853D01*
X175536784Y-98798456D01*
X175372812Y-98866376D01*
X175223512Y-98896073D01*
X175198742Y-98901000D01*
X175021258Y-98901000D01*
X174996488Y-98896073D01*
X174847188Y-98866376D01*
X174683216Y-98798456D01*
X174535646Y-98699853D01*
X174410147Y-98574354D01*
X174311544Y-98426784D01*
X174243624Y-98262812D01*
X174209000Y-98088741D01*
X174209000Y-97911259D01*
X174243624Y-97737188D01*
X174311544Y-97573216D01*
X174410147Y-97425646D01*
X174535646Y-97300147D01*
X174683216Y-97201544D01*
X174847188Y-97133624D01*
X174996488Y-97103927D01*
X175021258Y-97099000D01*
X175198742Y-97099000D01*
X175223512Y-97103927D01*
G37*
G36*
X180303512Y-97103927D02*
G01*
X180452812Y-97133624D01*
X180616784Y-97201544D01*
X180764354Y-97300147D01*
X180889853Y-97425646D01*
X180988456Y-97573216D01*
X181056376Y-97737188D01*
X181091000Y-97911259D01*
X181091000Y-98088741D01*
X181056376Y-98262812D01*
X180988456Y-98426784D01*
X180889853Y-98574354D01*
X180764354Y-98699853D01*
X180616784Y-98798456D01*
X180452812Y-98866376D01*
X180303512Y-98896073D01*
X180278742Y-98901000D01*
X180101258Y-98901000D01*
X180076488Y-98896073D01*
X179927188Y-98866376D01*
X179763216Y-98798456D01*
X179615646Y-98699853D01*
X179490147Y-98574354D01*
X179391544Y-98426784D01*
X179323624Y-98262812D01*
X179289000Y-98088741D01*
X179289000Y-97911259D01*
X179323624Y-97737188D01*
X179391544Y-97573216D01*
X179490147Y-97425646D01*
X179615646Y-97300147D01*
X179763216Y-97201544D01*
X179927188Y-97133624D01*
X180076488Y-97103927D01*
X180101258Y-97099000D01*
X180278742Y-97099000D01*
X180303512Y-97103927D01*
G37*
G36*
X168391000Y-98901000D02*
G01*
X166589000Y-98901000D01*
X166589000Y-97099000D01*
X168391000Y-97099000D01*
X168391000Y-98901000D01*
G37*
G36*
X170143512Y-97103927D02*
G01*
X170292812Y-97133624D01*
X170456784Y-97201544D01*
X170604354Y-97300147D01*
X170729853Y-97425646D01*
X170828456Y-97573216D01*
X170896376Y-97737188D01*
X170931000Y-97911259D01*
X170931000Y-98088741D01*
X170896376Y-98262812D01*
X170828456Y-98426784D01*
X170729853Y-98574354D01*
X170604354Y-98699853D01*
X170456784Y-98798456D01*
X170292812Y-98866376D01*
X170143512Y-98896073D01*
X170118742Y-98901000D01*
X169941258Y-98901000D01*
X169916488Y-98896073D01*
X169767188Y-98866376D01*
X169603216Y-98798456D01*
X169455646Y-98699853D01*
X169330147Y-98574354D01*
X169231544Y-98426784D01*
X169163624Y-98262812D01*
X169129000Y-98088741D01*
X169129000Y-97911259D01*
X169163624Y-97737188D01*
X169231544Y-97573216D01*
X169330147Y-97425646D01*
X169455646Y-97300147D01*
X169603216Y-97201544D01*
X169767188Y-97133624D01*
X169916488Y-97103927D01*
X169941258Y-97099000D01*
X170118742Y-97099000D01*
X170143512Y-97103927D01*
G37*
G36*
X172683512Y-97103927D02*
G01*
X172832812Y-97133624D01*
X172996784Y-97201544D01*
X173144354Y-97300147D01*
X173269853Y-97425646D01*
X173368456Y-97573216D01*
X173436376Y-97737188D01*
X173471000Y-97911259D01*
X173471000Y-98088741D01*
X173436376Y-98262812D01*
X173368456Y-98426784D01*
X173269853Y-98574354D01*
X173144354Y-98699853D01*
X172996784Y-98798456D01*
X172832812Y-98866376D01*
X172683512Y-98896073D01*
X172658742Y-98901000D01*
X172481258Y-98901000D01*
X172456488Y-98896073D01*
X172307188Y-98866376D01*
X172143216Y-98798456D01*
X171995646Y-98699853D01*
X171870147Y-98574354D01*
X171771544Y-98426784D01*
X171703624Y-98262812D01*
X171669000Y-98088741D01*
X171669000Y-97911259D01*
X171703624Y-97737188D01*
X171771544Y-97573216D01*
X171870147Y-97425646D01*
X171995646Y-97300147D01*
X172143216Y-97201544D01*
X172307188Y-97133624D01*
X172456488Y-97103927D01*
X172481258Y-97099000D01*
X172658742Y-97099000D01*
X172683512Y-97103927D01*
G37*
G36*
X177763512Y-97103927D02*
G01*
X177912812Y-97133624D01*
X178076784Y-97201544D01*
X178224354Y-97300147D01*
X178349853Y-97425646D01*
X178448456Y-97573216D01*
X178516376Y-97737188D01*
X178551000Y-97911259D01*
X178551000Y-98088741D01*
X178516376Y-98262812D01*
X178448456Y-98426784D01*
X178349853Y-98574354D01*
X178224354Y-98699853D01*
X178076784Y-98798456D01*
X177912812Y-98866376D01*
X177763512Y-98896073D01*
X177738742Y-98901000D01*
X177561258Y-98901000D01*
X177536488Y-98896073D01*
X177387188Y-98866376D01*
X177223216Y-98798456D01*
X177075646Y-98699853D01*
X176950147Y-98574354D01*
X176851544Y-98426784D01*
X176783624Y-98262812D01*
X176749000Y-98088741D01*
X176749000Y-97911259D01*
X176783624Y-97737188D01*
X176851544Y-97573216D01*
X176950147Y-97425646D01*
X177075646Y-97300147D01*
X177223216Y-97201544D01*
X177387188Y-97133624D01*
X177536488Y-97103927D01*
X177561258Y-97099000D01*
X177738742Y-97099000D01*
X177763512Y-97103927D01*
G37*
G36*
X185078412Y-93955135D02*
G01*
X185310346Y-94001269D01*
X185747300Y-94182262D01*
X186140548Y-94445022D01*
X186474978Y-94779452D01*
X186714719Y-95138250D01*
X186737739Y-95172702D01*
X186918731Y-95609655D01*
X186974961Y-95892339D01*
X187011000Y-96073522D01*
X187011000Y-96546478D01*
X186918731Y-97010346D01*
X186846956Y-97183625D01*
X186746708Y-97425646D01*
X186737738Y-97447300D01*
X186474978Y-97840548D01*
X186140548Y-98174978D01*
X185747300Y-98437738D01*
X185310346Y-98618731D01*
X185078412Y-98664865D01*
X184846479Y-98711000D01*
X184373521Y-98711000D01*
X184141588Y-98664866D01*
X183909654Y-98618731D01*
X183472700Y-98437738D01*
X183079452Y-98174978D01*
X182745022Y-97840548D01*
X182482262Y-97447300D01*
X182473293Y-97425646D01*
X182373044Y-97183625D01*
X182301269Y-97010346D01*
X182209000Y-96546478D01*
X182209000Y-96073522D01*
X182245040Y-95892339D01*
X182301269Y-95609655D01*
X182482261Y-95172702D01*
X182505281Y-95138250D01*
X182745022Y-94779452D01*
X183079452Y-94445022D01*
X183472700Y-94182262D01*
X183909654Y-94001269D01*
X184141588Y-93955135D01*
X184373521Y-93909000D01*
X184846479Y-93909000D01*
X185078412Y-93955135D01*
G37*
G36*
X163989591Y-94898085D02*
G01*
X164023569Y-94908393D01*
X164054890Y-94925134D01*
X164082339Y-94947661D01*
X164104866Y-94975110D01*
X164121607Y-95006431D01*
X164131915Y-95040409D01*
X164136000Y-95081890D01*
X164136000Y-95758110D01*
X164131915Y-95799591D01*
X164121607Y-95833569D01*
X164104866Y-95864890D01*
X164082339Y-95892339D01*
X164054890Y-95914866D01*
X164023569Y-95931607D01*
X163989591Y-95941915D01*
X163948110Y-95946000D01*
X163346890Y-95946000D01*
X163305409Y-95941915D01*
X163271431Y-95931607D01*
X163240110Y-95914866D01*
X163212661Y-95892339D01*
X163190134Y-95864890D01*
X163173393Y-95833569D01*
X163163085Y-95799591D01*
X163159000Y-95758110D01*
X163159000Y-95081890D01*
X163163085Y-95040409D01*
X163173393Y-95006431D01*
X163190134Y-94975110D01*
X163212661Y-94947661D01*
X163240110Y-94925134D01*
X163271431Y-94908393D01*
X163305409Y-94898085D01*
X163346890Y-94894000D01*
X163948110Y-94894000D01*
X163989591Y-94898085D01*
G37*
G36*
X162414591Y-94898085D02*
G01*
X162448569Y-94908393D01*
X162479890Y-94925134D01*
X162507339Y-94947661D01*
X162529866Y-94975110D01*
X162546607Y-95006431D01*
X162556915Y-95040409D01*
X162561000Y-95081890D01*
X162561000Y-95758110D01*
X162556915Y-95799591D01*
X162546607Y-95833569D01*
X162529866Y-95864890D01*
X162507339Y-95892339D01*
X162479890Y-95914866D01*
X162448569Y-95931607D01*
X162414591Y-95941915D01*
X162373110Y-95946000D01*
X161771890Y-95946000D01*
X161730409Y-95941915D01*
X161696431Y-95931607D01*
X161665110Y-95914866D01*
X161637661Y-95892339D01*
X161615134Y-95864890D01*
X161598393Y-95833569D01*
X161588085Y-95799591D01*
X161584000Y-95758110D01*
X161584000Y-95081890D01*
X161588085Y-95040409D01*
X161598393Y-95006431D01*
X161615134Y-94975110D01*
X161637661Y-94947661D01*
X161665110Y-94925134D01*
X161696431Y-94908393D01*
X161730409Y-94898085D01*
X161771890Y-94894000D01*
X162373110Y-94894000D01*
X162414591Y-94898085D01*
G37*
G36*
X163979591Y-93168085D02*
G01*
X164013569Y-93178393D01*
X164044890Y-93195134D01*
X164072339Y-93217661D01*
X164094866Y-93245110D01*
X164111607Y-93276431D01*
X164121915Y-93310409D01*
X164126000Y-93351890D01*
X164126000Y-94028110D01*
X164121915Y-94069591D01*
X164111607Y-94103569D01*
X164094866Y-94134890D01*
X164072339Y-94162339D01*
X164044890Y-94184866D01*
X164013569Y-94201607D01*
X163979591Y-94211915D01*
X163938110Y-94216000D01*
X163336890Y-94216000D01*
X163295409Y-94211915D01*
X163261431Y-94201607D01*
X163230110Y-94184866D01*
X163202661Y-94162339D01*
X163180134Y-94134890D01*
X163163393Y-94103569D01*
X163153085Y-94069591D01*
X163149000Y-94028110D01*
X163149000Y-93351890D01*
X163153085Y-93310409D01*
X163163393Y-93276431D01*
X163180134Y-93245110D01*
X163202661Y-93217661D01*
X163230110Y-93195134D01*
X163261431Y-93178393D01*
X163295409Y-93168085D01*
X163336890Y-93164000D01*
X163938110Y-93164000D01*
X163979591Y-93168085D01*
G37*
G36*
X162404591Y-93168085D02*
G01*
X162438569Y-93178393D01*
X162469890Y-93195134D01*
X162497339Y-93217661D01*
X162519866Y-93245110D01*
X162536607Y-93276431D01*
X162546915Y-93310409D01*
X162551000Y-93351890D01*
X162551000Y-94028110D01*
X162546915Y-94069591D01*
X162536607Y-94103569D01*
X162519866Y-94134890D01*
X162497339Y-94162339D01*
X162469890Y-94184866D01*
X162438569Y-94201607D01*
X162404591Y-94211915D01*
X162363110Y-94216000D01*
X161761890Y-94216000D01*
X161720409Y-94211915D01*
X161686431Y-94201607D01*
X161655110Y-94184866D01*
X161627661Y-94162339D01*
X161605134Y-94134890D01*
X161588393Y-94103569D01*
X161578085Y-94069591D01*
X161574000Y-94028110D01*
X161574000Y-93351890D01*
X161578085Y-93310409D01*
X161588393Y-93276431D01*
X161605134Y-93245110D01*
X161627661Y-93217661D01*
X161655110Y-93195134D01*
X161686431Y-93178393D01*
X161720409Y-93168085D01*
X161761890Y-93164000D01*
X162363110Y-93164000D01*
X162404591Y-93168085D01*
G37*
G36*
X180371000Y-93251000D02*
G01*
X178569000Y-93251000D01*
X178569000Y-91449000D01*
X180371000Y-91449000D01*
X180371000Y-93251000D01*
G37*
G36*
X171953512Y-91453927D02*
G01*
X172102812Y-91483624D01*
X172266784Y-91551544D01*
X172414354Y-91650147D01*
X172539853Y-91775646D01*
X172638456Y-91923216D01*
X172706376Y-92087188D01*
X172731152Y-92211750D01*
X172740631Y-92259401D01*
X172741000Y-92261259D01*
X172741000Y-92438741D01*
X172706376Y-92612812D01*
X172638456Y-92776784D01*
X172539853Y-92924354D01*
X172414354Y-93049853D01*
X172266784Y-93148456D01*
X172102812Y-93216376D01*
X171958353Y-93245110D01*
X171928742Y-93251000D01*
X171751258Y-93251000D01*
X171721647Y-93245110D01*
X171577188Y-93216376D01*
X171413216Y-93148456D01*
X171265646Y-93049853D01*
X171140147Y-92924354D01*
X171041544Y-92776784D01*
X170973624Y-92612812D01*
X170939000Y-92438741D01*
X170939000Y-92261259D01*
X170939370Y-92259401D01*
X170948848Y-92211750D01*
X170973624Y-92087188D01*
X171041544Y-91923216D01*
X171140147Y-91775646D01*
X171265646Y-91650147D01*
X171413216Y-91551544D01*
X171577188Y-91483624D01*
X171726488Y-91453927D01*
X171751258Y-91449000D01*
X171928742Y-91449000D01*
X171953512Y-91453927D01*
G37*
G36*
X166453512Y-91443927D02*
G01*
X166602812Y-91473624D01*
X166766784Y-91541544D01*
X166914354Y-91640147D01*
X167039853Y-91765646D01*
X167138456Y-91913216D01*
X167206376Y-92077188D01*
X167241000Y-92251259D01*
X167241000Y-92428741D01*
X167206376Y-92602812D01*
X167138456Y-92766784D01*
X167039853Y-92914354D01*
X166914354Y-93039853D01*
X166766784Y-93138456D01*
X166602812Y-93206376D01*
X166456196Y-93235539D01*
X166428742Y-93241000D01*
X166251258Y-93241000D01*
X166223804Y-93235539D01*
X166077188Y-93206376D01*
X165913216Y-93138456D01*
X165765646Y-93039853D01*
X165640147Y-92914354D01*
X165541544Y-92766784D01*
X165473624Y-92602812D01*
X165439000Y-92428741D01*
X165439000Y-92251259D01*
X165473624Y-92077188D01*
X165541544Y-91913216D01*
X165640147Y-91765646D01*
X165765646Y-91640147D01*
X165913216Y-91541544D01*
X166077188Y-91473624D01*
X166226488Y-91443927D01*
X166251258Y-91439000D01*
X166428742Y-91439000D01*
X166453512Y-91443927D01*
G37*
G36*
X176779591Y-91838085D02*
G01*
X176813569Y-91848393D01*
X176844890Y-91865134D01*
X176872339Y-91887661D01*
X176894866Y-91915110D01*
X176911607Y-91946431D01*
X176921915Y-91980409D01*
X176926000Y-92021890D01*
X176926000Y-92698110D01*
X176921915Y-92739591D01*
X176911607Y-92773569D01*
X176894866Y-92804890D01*
X176872339Y-92832339D01*
X176844890Y-92854866D01*
X176813569Y-92871607D01*
X176779591Y-92881915D01*
X176738110Y-92886000D01*
X176136890Y-92886000D01*
X176095409Y-92881915D01*
X176061431Y-92871607D01*
X176030110Y-92854866D01*
X176002661Y-92832339D01*
X175980134Y-92804890D01*
X175963393Y-92773569D01*
X175953085Y-92739591D01*
X175949000Y-92698110D01*
X175949000Y-92021890D01*
X175953085Y-91980409D01*
X175963393Y-91946431D01*
X175980134Y-91915110D01*
X176002661Y-91887661D01*
X176030110Y-91865134D01*
X176061431Y-91848393D01*
X176095409Y-91838085D01*
X176136890Y-91834000D01*
X176738110Y-91834000D01*
X176779591Y-91838085D01*
G37*
G36*
X175204591Y-91838085D02*
G01*
X175238569Y-91848393D01*
X175269890Y-91865134D01*
X175297339Y-91887661D01*
X175319866Y-91915110D01*
X175336607Y-91946431D01*
X175346915Y-91980409D01*
X175351000Y-92021890D01*
X175351000Y-92698110D01*
X175346915Y-92739591D01*
X175336607Y-92773569D01*
X175319866Y-92804890D01*
X175297339Y-92832339D01*
X175269890Y-92854866D01*
X175238569Y-92871607D01*
X175204591Y-92881915D01*
X175163110Y-92886000D01*
X174561890Y-92886000D01*
X174520409Y-92881915D01*
X174486431Y-92871607D01*
X174455110Y-92854866D01*
X174427661Y-92832339D01*
X174405134Y-92804890D01*
X174388393Y-92773569D01*
X174378085Y-92739591D01*
X174374000Y-92698110D01*
X174374000Y-92021890D01*
X174378085Y-91980409D01*
X174388393Y-91946431D01*
X174405134Y-91915110D01*
X174427661Y-91887661D01*
X174455110Y-91865134D01*
X174486431Y-91848393D01*
X174520409Y-91838085D01*
X174561890Y-91834000D01*
X175163110Y-91834000D01*
X175204591Y-91838085D01*
G37*
G36*
X187431000Y-92751000D02*
G01*
X185629000Y-92751000D01*
X185629000Y-90949000D01*
X187431000Y-90949000D01*
X187431000Y-92751000D01*
G37*
G36*
X163979591Y-91408085D02*
G01*
X164013569Y-91418393D01*
X164044890Y-91435134D01*
X164072339Y-91457661D01*
X164094866Y-91485110D01*
X164111607Y-91516431D01*
X164121915Y-91550409D01*
X164126000Y-91591890D01*
X164126000Y-92268110D01*
X164121915Y-92309591D01*
X164111607Y-92343569D01*
X164094866Y-92374890D01*
X164072339Y-92402339D01*
X164044890Y-92424866D01*
X164013569Y-92441607D01*
X163979591Y-92451915D01*
X163938110Y-92456000D01*
X163336890Y-92456000D01*
X163295409Y-92451915D01*
X163261431Y-92441607D01*
X163230110Y-92424866D01*
X163202661Y-92402339D01*
X163180134Y-92374890D01*
X163163393Y-92343569D01*
X163153085Y-92309591D01*
X163149000Y-92268110D01*
X163149000Y-91591890D01*
X163153085Y-91550409D01*
X163163393Y-91516431D01*
X163180134Y-91485110D01*
X163202661Y-91457661D01*
X163230110Y-91435134D01*
X163261431Y-91418393D01*
X163295409Y-91408085D01*
X163336890Y-91404000D01*
X163938110Y-91404000D01*
X163979591Y-91408085D01*
G37*
G36*
X162404591Y-91408085D02*
G01*
X162438569Y-91418393D01*
X162469890Y-91435134D01*
X162497339Y-91457661D01*
X162519866Y-91485110D01*
X162536607Y-91516431D01*
X162546915Y-91550409D01*
X162551000Y-91591890D01*
X162551000Y-92268110D01*
X162546915Y-92309591D01*
X162536607Y-92343569D01*
X162519866Y-92374890D01*
X162497339Y-92402339D01*
X162469890Y-92424866D01*
X162438569Y-92441607D01*
X162404591Y-92451915D01*
X162363110Y-92456000D01*
X161761890Y-92456000D01*
X161720409Y-92451915D01*
X161686431Y-92441607D01*
X161655110Y-92424866D01*
X161627661Y-92402339D01*
X161605134Y-92374890D01*
X161588393Y-92343569D01*
X161578085Y-92309591D01*
X161574000Y-92268110D01*
X161574000Y-91591890D01*
X161578085Y-91550409D01*
X161588393Y-91516431D01*
X161605134Y-91485110D01*
X161627661Y-91457661D01*
X161655110Y-91435134D01*
X161686431Y-91418393D01*
X161720409Y-91408085D01*
X161761890Y-91404000D01*
X162363110Y-91404000D01*
X162404591Y-91408085D01*
G37*
G36*
X163979591Y-89668085D02*
G01*
X164013569Y-89678393D01*
X164044890Y-89695134D01*
X164072339Y-89717661D01*
X164094866Y-89745110D01*
X164111607Y-89776431D01*
X164121915Y-89810409D01*
X164126000Y-89851890D01*
X164126000Y-90528110D01*
X164121915Y-90569591D01*
X164111607Y-90603569D01*
X164094866Y-90634890D01*
X164072339Y-90662339D01*
X164044890Y-90684866D01*
X164013569Y-90701607D01*
X163979591Y-90711915D01*
X163938110Y-90716000D01*
X163336890Y-90716000D01*
X163295409Y-90711915D01*
X163261431Y-90701607D01*
X163230110Y-90684866D01*
X163202661Y-90662339D01*
X163180134Y-90634890D01*
X163163393Y-90603569D01*
X163153085Y-90569591D01*
X163149000Y-90528110D01*
X163149000Y-89851890D01*
X163153085Y-89810409D01*
X163163393Y-89776431D01*
X163180134Y-89745110D01*
X163202661Y-89717661D01*
X163230110Y-89695134D01*
X163261431Y-89678393D01*
X163295409Y-89668085D01*
X163336890Y-89664000D01*
X163938110Y-89664000D01*
X163979591Y-89668085D01*
G37*
G36*
X162404591Y-89668085D02*
G01*
X162438569Y-89678393D01*
X162469890Y-89695134D01*
X162497339Y-89717661D01*
X162519866Y-89745110D01*
X162536607Y-89776431D01*
X162546915Y-89810409D01*
X162551000Y-89851890D01*
X162551000Y-90528110D01*
X162546915Y-90569591D01*
X162536607Y-90603569D01*
X162519866Y-90634890D01*
X162497339Y-90662339D01*
X162469890Y-90684866D01*
X162438569Y-90701607D01*
X162404591Y-90711915D01*
X162363110Y-90716000D01*
X161761890Y-90716000D01*
X161720409Y-90711915D01*
X161686431Y-90701607D01*
X161655110Y-90684866D01*
X161627661Y-90662339D01*
X161605134Y-90634890D01*
X161588393Y-90603569D01*
X161578085Y-90569591D01*
X161574000Y-90528110D01*
X161574000Y-89851890D01*
X161578085Y-89810409D01*
X161588393Y-89776431D01*
X161605134Y-89745110D01*
X161627661Y-89717661D01*
X161655110Y-89695134D01*
X161686431Y-89678393D01*
X161720409Y-89668085D01*
X161761890Y-89664000D01*
X162363110Y-89664000D01*
X162404591Y-89668085D01*
G37*
G36*
X179583512Y-88913927D02*
G01*
X179732812Y-88943624D01*
X179896784Y-89011544D01*
X180044354Y-89110147D01*
X180169853Y-89235646D01*
X180268456Y-89383216D01*
X180336376Y-89547188D01*
X180363309Y-89682592D01*
X180370285Y-89717661D01*
X180371000Y-89721259D01*
X180371000Y-89898741D01*
X180336376Y-90072812D01*
X180268456Y-90236784D01*
X180169853Y-90384354D01*
X180044354Y-90509853D01*
X179896784Y-90608456D01*
X179732812Y-90676376D01*
X179583512Y-90706073D01*
X179558742Y-90711000D01*
X179381258Y-90711000D01*
X179356488Y-90706073D01*
X179207188Y-90676376D01*
X179043216Y-90608456D01*
X178895646Y-90509853D01*
X178770147Y-90384354D01*
X178671544Y-90236784D01*
X178603624Y-90072812D01*
X178569000Y-89898741D01*
X178569000Y-89721259D01*
X178569716Y-89717661D01*
X178576691Y-89682592D01*
X178603624Y-89547188D01*
X178671544Y-89383216D01*
X178770147Y-89235646D01*
X178895646Y-89110147D01*
X179043216Y-89011544D01*
X179207188Y-88943624D01*
X179356488Y-88913927D01*
X179381258Y-88909000D01*
X179558742Y-88909000D01*
X179583512Y-88913927D01*
G37*
G36*
X171953512Y-88913927D02*
G01*
X172102812Y-88943624D01*
X172266784Y-89011544D01*
X172414354Y-89110147D01*
X172539853Y-89235646D01*
X172638456Y-89383216D01*
X172706376Y-89547188D01*
X172733309Y-89682592D01*
X172740285Y-89717661D01*
X172741000Y-89721259D01*
X172741000Y-89898741D01*
X172706376Y-90072812D01*
X172638456Y-90236784D01*
X172539853Y-90384354D01*
X172414354Y-90509853D01*
X172266784Y-90608456D01*
X172102812Y-90676376D01*
X171953512Y-90706073D01*
X171928742Y-90711000D01*
X171751258Y-90711000D01*
X171726488Y-90706073D01*
X171577188Y-90676376D01*
X171413216Y-90608456D01*
X171265646Y-90509853D01*
X171140147Y-90384354D01*
X171041544Y-90236784D01*
X170973624Y-90072812D01*
X170939000Y-89898741D01*
X170939000Y-89721259D01*
X170939716Y-89717661D01*
X170946691Y-89682592D01*
X170973624Y-89547188D01*
X171041544Y-89383216D01*
X171140147Y-89235646D01*
X171265646Y-89110147D01*
X171413216Y-89011544D01*
X171577188Y-88943624D01*
X171726488Y-88913927D01*
X171751258Y-88909000D01*
X171928742Y-88909000D01*
X171953512Y-88913927D01*
G37*
G36*
X166453512Y-88903927D02*
G01*
X166602812Y-88933624D01*
X166766784Y-89001544D01*
X166914354Y-89100147D01*
X167039853Y-89225646D01*
X167138456Y-89373216D01*
X167206376Y-89537188D01*
X167241000Y-89711259D01*
X167241000Y-89888741D01*
X167206376Y-90062812D01*
X167138456Y-90226784D01*
X167039853Y-90374354D01*
X166914354Y-90499853D01*
X166766784Y-90598456D01*
X166602812Y-90666376D01*
X166453512Y-90696073D01*
X166428742Y-90701000D01*
X166251258Y-90701000D01*
X166226488Y-90696073D01*
X166077188Y-90666376D01*
X165913216Y-90598456D01*
X165765646Y-90499853D01*
X165640147Y-90374354D01*
X165541544Y-90226784D01*
X165473624Y-90062812D01*
X165439000Y-89888741D01*
X165439000Y-89711259D01*
X165473624Y-89537188D01*
X165541544Y-89373216D01*
X165640147Y-89225646D01*
X165765646Y-89100147D01*
X165913216Y-89001544D01*
X166077188Y-88933624D01*
X166226488Y-88903927D01*
X166251258Y-88899000D01*
X166428742Y-88899000D01*
X166453512Y-88903927D01*
G37*
G36*
X176779591Y-89288085D02*
G01*
X176813569Y-89298393D01*
X176844890Y-89315134D01*
X176872339Y-89337661D01*
X176894866Y-89365110D01*
X176911607Y-89396431D01*
X176921915Y-89430409D01*
X176926000Y-89471890D01*
X176926000Y-90148110D01*
X176921915Y-90189591D01*
X176911607Y-90223569D01*
X176894866Y-90254890D01*
X176872339Y-90282339D01*
X176844890Y-90304866D01*
X176813569Y-90321607D01*
X176779591Y-90331915D01*
X176738110Y-90336000D01*
X176136890Y-90336000D01*
X176095409Y-90331915D01*
X176061431Y-90321607D01*
X176030110Y-90304866D01*
X176002661Y-90282339D01*
X175980134Y-90254890D01*
X175963393Y-90223569D01*
X175953085Y-90189591D01*
X175949000Y-90148110D01*
X175949000Y-89471890D01*
X175953085Y-89430409D01*
X175963393Y-89396431D01*
X175980134Y-89365110D01*
X176002661Y-89337661D01*
X176030110Y-89315134D01*
X176061431Y-89298393D01*
X176095409Y-89288085D01*
X176136890Y-89284000D01*
X176738110Y-89284000D01*
X176779591Y-89288085D01*
G37*
G36*
X175204591Y-89288085D02*
G01*
X175238569Y-89298393D01*
X175269890Y-89315134D01*
X175297339Y-89337661D01*
X175319866Y-89365110D01*
X175336607Y-89396431D01*
X175346915Y-89430409D01*
X175351000Y-89471890D01*
X175351000Y-90148110D01*
X175346915Y-90189591D01*
X175336607Y-90223569D01*
X175319866Y-90254890D01*
X175297339Y-90282339D01*
X175269890Y-90304866D01*
X175238569Y-90321607D01*
X175204591Y-90331915D01*
X175163110Y-90336000D01*
X174561890Y-90336000D01*
X174520409Y-90331915D01*
X174486431Y-90321607D01*
X174455110Y-90304866D01*
X174427661Y-90282339D01*
X174405134Y-90254890D01*
X174388393Y-90223569D01*
X174378085Y-90189591D01*
X174374000Y-90148110D01*
X174374000Y-89471890D01*
X174378085Y-89430409D01*
X174388393Y-89396431D01*
X174405134Y-89365110D01*
X174427661Y-89337661D01*
X174455110Y-89315134D01*
X174486431Y-89298393D01*
X174520409Y-89288085D01*
X174561890Y-89284000D01*
X175163110Y-89284000D01*
X175204591Y-89288085D01*
G37*
G36*
X186643512Y-88413927D02*
G01*
X186792812Y-88443624D01*
X186956784Y-88511544D01*
X187104354Y-88610147D01*
X187229853Y-88735646D01*
X187328456Y-88883216D01*
X187396376Y-89047188D01*
X187431000Y-89221259D01*
X187431000Y-89398741D01*
X187396376Y-89572812D01*
X187328456Y-89736784D01*
X187229853Y-89884354D01*
X187104354Y-90009853D01*
X186956784Y-90108456D01*
X186792812Y-90176376D01*
X186643512Y-90206073D01*
X186618742Y-90211000D01*
X186441258Y-90211000D01*
X186416488Y-90206073D01*
X186267188Y-90176376D01*
X186103216Y-90108456D01*
X185955646Y-90009853D01*
X185830147Y-89884354D01*
X185731544Y-89736784D01*
X185663624Y-89572812D01*
X185629000Y-89398741D01*
X185629000Y-89221259D01*
X185663624Y-89047188D01*
X185731544Y-88883216D01*
X185830147Y-88735646D01*
X185955646Y-88610147D01*
X186103216Y-88511544D01*
X186267188Y-88443624D01*
X186416488Y-88413927D01*
X186441258Y-88409000D01*
X186618742Y-88409000D01*
X186643512Y-88413927D01*
G37*
G36*
X179583512Y-86373927D02*
G01*
X179732812Y-86403624D01*
X179896784Y-86471544D01*
X180044354Y-86570147D01*
X180169853Y-86695646D01*
X180268456Y-86843216D01*
X180336376Y-87007188D01*
X180371000Y-87181259D01*
X180371000Y-87358741D01*
X180336376Y-87532812D01*
X180268456Y-87696784D01*
X180169853Y-87844354D01*
X180044354Y-87969853D01*
X179896784Y-88068456D01*
X179732812Y-88136376D01*
X179583512Y-88166073D01*
X179558742Y-88171000D01*
X179381258Y-88171000D01*
X179356488Y-88166073D01*
X179207188Y-88136376D01*
X179043216Y-88068456D01*
X178895646Y-87969853D01*
X178770147Y-87844354D01*
X178671544Y-87696784D01*
X178603624Y-87532812D01*
X178569000Y-87358741D01*
X178569000Y-87181259D01*
X178603624Y-87007188D01*
X178671544Y-86843216D01*
X178770147Y-86695646D01*
X178895646Y-86570147D01*
X179043216Y-86471544D01*
X179207188Y-86403624D01*
X179356488Y-86373927D01*
X179381258Y-86369000D01*
X179558742Y-86369000D01*
X179583512Y-86373927D01*
G37*
G36*
X172741000Y-88171000D02*
G01*
X170939000Y-88171000D01*
X170939000Y-86369000D01*
X172741000Y-86369000D01*
X172741000Y-88171000D01*
G37*
G36*
X167241000Y-88161000D02*
G01*
X165439000Y-88161000D01*
X165439000Y-86359000D01*
X167241000Y-86359000D01*
X167241000Y-88161000D01*
G37*
G36*
X186643512Y-85873927D02*
G01*
X186792812Y-85903624D01*
X186956784Y-85971544D01*
X187104354Y-86070147D01*
X187229853Y-86195646D01*
X187328456Y-86343216D01*
X187396376Y-86507188D01*
X187431000Y-86681259D01*
X187431000Y-86858741D01*
X187396376Y-87032812D01*
X187328456Y-87196784D01*
X187229853Y-87344354D01*
X187104354Y-87469853D01*
X186956784Y-87568456D01*
X186792812Y-87636376D01*
X186643512Y-87666073D01*
X186618742Y-87671000D01*
X186441258Y-87671000D01*
X186416488Y-87666073D01*
X186267188Y-87636376D01*
X186103216Y-87568456D01*
X185955646Y-87469853D01*
X185830147Y-87344354D01*
X185731544Y-87196784D01*
X185663624Y-87032812D01*
X185629000Y-86858741D01*
X185629000Y-86681259D01*
X185663624Y-86507188D01*
X185731544Y-86343216D01*
X185830147Y-86195646D01*
X185955646Y-86070147D01*
X186103216Y-85971544D01*
X186267188Y-85903624D01*
X186416488Y-85873927D01*
X186441258Y-85869000D01*
X186618742Y-85869000D01*
X186643512Y-85873927D01*
G37*
G36*
X158759591Y-86043085D02*
G01*
X158793569Y-86053393D01*
X158824890Y-86070134D01*
X158852339Y-86092661D01*
X158874866Y-86120110D01*
X158891607Y-86151431D01*
X158901915Y-86185409D01*
X158906000Y-86226890D01*
X158906000Y-86828110D01*
X158901915Y-86869591D01*
X158891607Y-86903569D01*
X158874866Y-86934890D01*
X158852339Y-86962339D01*
X158824890Y-86984866D01*
X158793569Y-87001607D01*
X158759591Y-87011915D01*
X158718110Y-87016000D01*
X158041890Y-87016000D01*
X158000409Y-87011915D01*
X157966431Y-87001607D01*
X157935110Y-86984866D01*
X157907661Y-86962339D01*
X157885134Y-86934890D01*
X157868393Y-86903569D01*
X157858085Y-86869591D01*
X157854000Y-86828110D01*
X157854000Y-86226890D01*
X157858085Y-86185409D01*
X157868393Y-86151431D01*
X157885134Y-86120110D01*
X157907661Y-86092661D01*
X157935110Y-86070134D01*
X157966431Y-86053393D01*
X158000409Y-86043085D01*
X158041890Y-86039000D01*
X158718110Y-86039000D01*
X158759591Y-86043085D01*
G37*
G36*
X160499591Y-86043085D02*
G01*
X160533569Y-86053393D01*
X160564890Y-86070134D01*
X160592339Y-86092661D01*
X160614866Y-86120110D01*
X160631607Y-86151431D01*
X160641915Y-86185409D01*
X160646000Y-86226890D01*
X160646000Y-86828110D01*
X160641915Y-86869591D01*
X160631607Y-86903569D01*
X160614866Y-86934890D01*
X160592339Y-86962339D01*
X160564890Y-86984866D01*
X160533569Y-87001607D01*
X160499591Y-87011915D01*
X160458110Y-87016000D01*
X159781890Y-87016000D01*
X159740409Y-87011915D01*
X159706431Y-87001607D01*
X159675110Y-86984866D01*
X159647661Y-86962339D01*
X159625134Y-86934890D01*
X159608393Y-86903569D01*
X159598085Y-86869591D01*
X159594000Y-86828110D01*
X159594000Y-86226890D01*
X159598085Y-86185409D01*
X159608393Y-86151431D01*
X159625134Y-86120110D01*
X159647661Y-86092661D01*
X159675110Y-86070134D01*
X159706431Y-86053393D01*
X159740409Y-86043085D01*
X159781890Y-86039000D01*
X160458110Y-86039000D01*
X160499591Y-86043085D01*
G37*
G36*
X163999591Y-86023085D02*
G01*
X164033569Y-86033393D01*
X164064890Y-86050134D01*
X164092339Y-86072661D01*
X164114866Y-86100110D01*
X164131607Y-86131431D01*
X164141915Y-86165409D01*
X164146000Y-86206890D01*
X164146000Y-86808110D01*
X164141915Y-86849591D01*
X164131607Y-86883569D01*
X164114866Y-86914890D01*
X164092339Y-86942339D01*
X164064890Y-86964866D01*
X164033569Y-86981607D01*
X163999591Y-86991915D01*
X163958110Y-86996000D01*
X163281890Y-86996000D01*
X163240409Y-86991915D01*
X163206431Y-86981607D01*
X163175110Y-86964866D01*
X163147661Y-86942339D01*
X163125134Y-86914890D01*
X163108393Y-86883569D01*
X163098085Y-86849591D01*
X163094000Y-86808110D01*
X163094000Y-86206890D01*
X163098085Y-86165409D01*
X163108393Y-86131431D01*
X163125134Y-86100110D01*
X163147661Y-86072661D01*
X163175110Y-86050134D01*
X163206431Y-86033393D01*
X163240409Y-86023085D01*
X163281890Y-86019000D01*
X163958110Y-86019000D01*
X163999591Y-86023085D01*
G37*
G36*
X162259591Y-86023085D02*
G01*
X162293569Y-86033393D01*
X162324890Y-86050134D01*
X162352339Y-86072661D01*
X162374866Y-86100110D01*
X162391607Y-86131431D01*
X162401915Y-86165409D01*
X162406000Y-86206890D01*
X162406000Y-86808110D01*
X162401915Y-86849591D01*
X162391607Y-86883569D01*
X162374866Y-86914890D01*
X162352339Y-86942339D01*
X162324890Y-86964866D01*
X162293569Y-86981607D01*
X162259591Y-86991915D01*
X162218110Y-86996000D01*
X161541890Y-86996000D01*
X161500409Y-86991915D01*
X161466431Y-86981607D01*
X161435110Y-86964866D01*
X161407661Y-86942339D01*
X161385134Y-86914890D01*
X161368393Y-86883569D01*
X161358085Y-86849591D01*
X161354000Y-86808110D01*
X161354000Y-86206890D01*
X161358085Y-86165409D01*
X161368393Y-86131431D01*
X161385134Y-86100110D01*
X161407661Y-86072661D01*
X161435110Y-86050134D01*
X161466431Y-86033393D01*
X161500409Y-86023085D01*
X161541890Y-86019000D01*
X162218110Y-86019000D01*
X162259591Y-86023085D01*
G37*
G36*
X154470437Y-81445646D02*
G01*
X154800346Y-81511269D01*
X155237300Y-81692262D01*
X155630548Y-81955022D01*
X155964978Y-82289452D01*
X156227738Y-82682700D01*
X156408731Y-83119654D01*
X156501000Y-83583522D01*
X156501000Y-84056478D01*
X156408731Y-84520346D01*
X156330898Y-84708250D01*
X156239108Y-84929852D01*
X156227738Y-84957300D01*
X155964978Y-85350548D01*
X155630548Y-85684978D01*
X155237300Y-85947738D01*
X155237299Y-85947739D01*
X155237298Y-85947739D01*
X155109320Y-86000749D01*
X154800346Y-86128731D01*
X154568412Y-86174866D01*
X154336479Y-86221000D01*
X153863521Y-86221000D01*
X153631588Y-86174866D01*
X153399654Y-86128731D01*
X153090680Y-86000749D01*
X152962702Y-85947739D01*
X152962701Y-85947739D01*
X152962700Y-85947738D01*
X152569452Y-85684978D01*
X152235022Y-85350548D01*
X151972262Y-84957300D01*
X151960893Y-84929852D01*
X151869102Y-84708250D01*
X151791269Y-84520346D01*
X151699000Y-84056478D01*
X151699000Y-83583522D01*
X151791269Y-83119654D01*
X151972262Y-82682700D01*
X152235022Y-82289452D01*
X152569452Y-81955022D01*
X152962700Y-81692262D01*
X153399654Y-81511269D01*
X153729563Y-81445646D01*
X153863521Y-81419000D01*
X154336479Y-81419000D01*
X154470437Y-81445646D01*
G37*
G36*
X158759591Y-84468085D02*
G01*
X158793569Y-84478393D01*
X158824890Y-84495134D01*
X158852339Y-84517661D01*
X158874866Y-84545110D01*
X158891607Y-84576431D01*
X158901915Y-84610409D01*
X158906000Y-84651890D01*
X158906000Y-85253110D01*
X158901915Y-85294591D01*
X158891607Y-85328569D01*
X158874866Y-85359890D01*
X158852339Y-85387339D01*
X158824890Y-85409866D01*
X158793569Y-85426607D01*
X158759591Y-85436915D01*
X158718110Y-85441000D01*
X158041890Y-85441000D01*
X158000409Y-85436915D01*
X157966431Y-85426607D01*
X157935110Y-85409866D01*
X157907661Y-85387339D01*
X157885134Y-85359890D01*
X157868393Y-85328569D01*
X157858085Y-85294591D01*
X157854000Y-85253110D01*
X157854000Y-84651890D01*
X157858085Y-84610409D01*
X157868393Y-84576431D01*
X157885134Y-84545110D01*
X157907661Y-84517661D01*
X157935110Y-84495134D01*
X157966431Y-84478393D01*
X158000409Y-84468085D01*
X158041890Y-84464000D01*
X158718110Y-84464000D01*
X158759591Y-84468085D01*
G37*
G36*
X160499591Y-84468085D02*
G01*
X160533569Y-84478393D01*
X160564890Y-84495134D01*
X160592339Y-84517661D01*
X160614866Y-84545110D01*
X160631607Y-84576431D01*
X160641915Y-84610409D01*
X160646000Y-84651890D01*
X160646000Y-85253110D01*
X160641915Y-85294591D01*
X160631607Y-85328569D01*
X160614866Y-85359890D01*
X160592339Y-85387339D01*
X160564890Y-85409866D01*
X160533569Y-85426607D01*
X160499591Y-85436915D01*
X160458110Y-85441000D01*
X159781890Y-85441000D01*
X159740409Y-85436915D01*
X159706431Y-85426607D01*
X159675110Y-85409866D01*
X159647661Y-85387339D01*
X159625134Y-85359890D01*
X159608393Y-85328569D01*
X159598085Y-85294591D01*
X159594000Y-85253110D01*
X159594000Y-84651890D01*
X159598085Y-84610409D01*
X159608393Y-84576431D01*
X159625134Y-84545110D01*
X159647661Y-84517661D01*
X159675110Y-84495134D01*
X159706431Y-84478393D01*
X159740409Y-84468085D01*
X159781890Y-84464000D01*
X160458110Y-84464000D01*
X160499591Y-84468085D01*
G37*
G36*
X163999591Y-84448085D02*
G01*
X164033569Y-84458393D01*
X164064890Y-84475134D01*
X164092339Y-84497661D01*
X164114866Y-84525110D01*
X164131607Y-84556431D01*
X164141915Y-84590409D01*
X164146000Y-84631890D01*
X164146000Y-85233110D01*
X164141915Y-85274591D01*
X164131607Y-85308569D01*
X164114866Y-85339890D01*
X164092339Y-85367339D01*
X164064890Y-85389866D01*
X164033569Y-85406607D01*
X163999591Y-85416915D01*
X163958110Y-85421000D01*
X163281890Y-85421000D01*
X163240409Y-85416915D01*
X163206431Y-85406607D01*
X163175110Y-85389866D01*
X163147661Y-85367339D01*
X163125134Y-85339890D01*
X163108393Y-85308569D01*
X163098085Y-85274591D01*
X163094000Y-85233110D01*
X163094000Y-84631890D01*
X163098085Y-84590409D01*
X163108393Y-84556431D01*
X163125134Y-84525110D01*
X163147661Y-84497661D01*
X163175110Y-84475134D01*
X163206431Y-84458393D01*
X163240409Y-84448085D01*
X163281890Y-84444000D01*
X163958110Y-84444000D01*
X163999591Y-84448085D01*
G37*
G36*
X162259591Y-84448085D02*
G01*
X162293569Y-84458393D01*
X162324890Y-84475134D01*
X162352339Y-84497661D01*
X162374866Y-84525110D01*
X162391607Y-84556431D01*
X162401915Y-84590409D01*
X162406000Y-84631890D01*
X162406000Y-85233110D01*
X162401915Y-85274591D01*
X162391607Y-85308569D01*
X162374866Y-85339890D01*
X162352339Y-85367339D01*
X162324890Y-85389866D01*
X162293569Y-85406607D01*
X162259591Y-85416915D01*
X162218110Y-85421000D01*
X161541890Y-85421000D01*
X161500409Y-85416915D01*
X161466431Y-85406607D01*
X161435110Y-85389866D01*
X161407661Y-85367339D01*
X161385134Y-85339890D01*
X161368393Y-85308569D01*
X161358085Y-85274591D01*
X161354000Y-85233110D01*
X161354000Y-84631890D01*
X161358085Y-84590409D01*
X161368393Y-84556431D01*
X161385134Y-84525110D01*
X161407661Y-84497661D01*
X161435110Y-84475134D01*
X161466431Y-84458393D01*
X161500409Y-84448085D01*
X161541890Y-84444000D01*
X162218110Y-84444000D01*
X162259591Y-84448085D01*
G37*
G36*
X186643512Y-83333927D02*
G01*
X186792812Y-83363624D01*
X186956784Y-83431544D01*
X187104354Y-83530147D01*
X187229853Y-83655646D01*
X187328456Y-83803216D01*
X187396376Y-83967188D01*
X187431000Y-84141259D01*
X187431000Y-84318741D01*
X187396376Y-84492812D01*
X187328456Y-84656784D01*
X187229853Y-84804354D01*
X187104354Y-84929853D01*
X186956784Y-85028456D01*
X186792812Y-85096376D01*
X186643512Y-85126073D01*
X186618742Y-85131000D01*
X186441258Y-85131000D01*
X186416488Y-85126073D01*
X186267188Y-85096376D01*
X186103216Y-85028456D01*
X185955646Y-84929853D01*
X185830147Y-84804354D01*
X185731544Y-84656784D01*
X185663624Y-84492812D01*
X185629000Y-84318741D01*
X185629000Y-84141259D01*
X185663624Y-83967188D01*
X185731544Y-83803216D01*
X185830147Y-83655646D01*
X185955646Y-83530147D01*
X186103216Y-83431544D01*
X186267188Y-83363624D01*
X186416488Y-83333927D01*
X186441258Y-83329000D01*
X186618742Y-83329000D01*
X186643512Y-83333927D01*
G37*
G36*
X159003512Y-81123927D02*
G01*
X159152812Y-81153624D01*
X159316784Y-81221544D01*
X159464354Y-81320147D01*
X159589853Y-81445646D01*
X159688456Y-81593216D01*
X159756376Y-81757188D01*
X159791000Y-81931259D01*
X159791000Y-82108741D01*
X159756376Y-82282812D01*
X159688456Y-82446784D01*
X159589853Y-82594354D01*
X159464354Y-82719853D01*
X159316784Y-82818456D01*
X159152812Y-82886376D01*
X159003512Y-82916073D01*
X158978742Y-82921000D01*
X158801258Y-82921000D01*
X158776488Y-82916073D01*
X158627188Y-82886376D01*
X158463216Y-82818456D01*
X158315646Y-82719853D01*
X158190147Y-82594354D01*
X158091544Y-82446784D01*
X158023624Y-82282812D01*
X157989000Y-82108741D01*
X157989000Y-81931259D01*
X158023624Y-81757188D01*
X158091544Y-81593216D01*
X158190147Y-81445646D01*
X158315646Y-81320147D01*
X158463216Y-81221544D01*
X158627188Y-81153624D01*
X158776488Y-81123927D01*
X158801258Y-81119000D01*
X158978742Y-81119000D01*
X159003512Y-81123927D01*
G37*
G36*
X161543512Y-81123927D02*
G01*
X161692812Y-81153624D01*
X161856784Y-81221544D01*
X162004354Y-81320147D01*
X162129853Y-81445646D01*
X162228456Y-81593216D01*
X162296376Y-81757188D01*
X162331000Y-81931259D01*
X162331000Y-82108741D01*
X162296376Y-82282812D01*
X162228456Y-82446784D01*
X162129853Y-82594354D01*
X162004354Y-82719853D01*
X161856784Y-82818456D01*
X161692812Y-82886376D01*
X161543512Y-82916073D01*
X161518742Y-82921000D01*
X161341258Y-82921000D01*
X161316488Y-82916073D01*
X161167188Y-82886376D01*
X161003216Y-82818456D01*
X160855646Y-82719853D01*
X160730147Y-82594354D01*
X160631544Y-82446784D01*
X160563624Y-82282812D01*
X160529000Y-82108741D01*
X160529000Y-81931259D01*
X160563624Y-81757188D01*
X160631544Y-81593216D01*
X160730147Y-81445646D01*
X160855646Y-81320147D01*
X161003216Y-81221544D01*
X161167188Y-81153624D01*
X161316488Y-81123927D01*
X161341258Y-81119000D01*
X161518742Y-81119000D01*
X161543512Y-81123927D01*
G37*
G36*
X164083512Y-81123927D02*
G01*
X164232812Y-81153624D01*
X164396784Y-81221544D01*
X164544354Y-81320147D01*
X164669853Y-81445646D01*
X164768456Y-81593216D01*
X164836376Y-81757188D01*
X164871000Y-81931259D01*
X164871000Y-82108741D01*
X164836376Y-82282812D01*
X164768456Y-82446784D01*
X164669853Y-82594354D01*
X164544354Y-82719853D01*
X164396784Y-82818456D01*
X164232812Y-82886376D01*
X164083512Y-82916073D01*
X164058742Y-82921000D01*
X163881258Y-82921000D01*
X163856488Y-82916073D01*
X163707188Y-82886376D01*
X163543216Y-82818456D01*
X163395646Y-82719853D01*
X163270147Y-82594354D01*
X163171544Y-82446784D01*
X163103624Y-82282812D01*
X163069000Y-82108741D01*
X163069000Y-81931259D01*
X163103624Y-81757188D01*
X163171544Y-81593216D01*
X163270147Y-81445646D01*
X163395646Y-81320147D01*
X163543216Y-81221544D01*
X163707188Y-81153624D01*
X163856488Y-81123927D01*
X163881258Y-81119000D01*
X164058742Y-81119000D01*
X164083512Y-81123927D01*
G37*
G36*
X167411000Y-82921000D02*
G01*
X165609000Y-82921000D01*
X165609000Y-81119000D01*
X167411000Y-81119000D01*
X167411000Y-82921000D01*
G37*
G36*
X175413512Y-81073927D02*
G01*
X175562812Y-81103624D01*
X175726784Y-81171544D01*
X175874354Y-81270147D01*
X175999853Y-81395646D01*
X176098456Y-81543216D01*
X176166376Y-81707188D01*
X176201000Y-81881259D01*
X176201000Y-82058741D01*
X176166376Y-82232812D01*
X176098456Y-82396784D01*
X175999853Y-82544354D01*
X175874354Y-82669853D01*
X175726784Y-82768456D01*
X175562812Y-82836376D01*
X175413512Y-82866073D01*
X175388742Y-82871000D01*
X175211258Y-82871000D01*
X175186488Y-82866073D01*
X175037188Y-82836376D01*
X174873216Y-82768456D01*
X174725646Y-82669853D01*
X174600147Y-82544354D01*
X174501544Y-82396784D01*
X174433624Y-82232812D01*
X174399000Y-82058741D01*
X174399000Y-81881259D01*
X174433624Y-81707188D01*
X174501544Y-81543216D01*
X174600147Y-81395646D01*
X174725646Y-81270147D01*
X174873216Y-81171544D01*
X175037188Y-81103624D01*
X175186488Y-81073927D01*
X175211258Y-81069000D01*
X175388742Y-81069000D01*
X175413512Y-81073927D01*
G37*
G36*
X180493512Y-81073927D02*
G01*
X180642812Y-81103624D01*
X180806784Y-81171544D01*
X180954354Y-81270147D01*
X181079853Y-81395646D01*
X181178456Y-81543216D01*
X181246376Y-81707188D01*
X181281000Y-81881259D01*
X181281000Y-82058741D01*
X181246376Y-82232812D01*
X181178456Y-82396784D01*
X181079853Y-82544354D01*
X180954354Y-82669853D01*
X180806784Y-82768456D01*
X180642812Y-82836376D01*
X180493512Y-82866073D01*
X180468742Y-82871000D01*
X180291258Y-82871000D01*
X180266488Y-82866073D01*
X180117188Y-82836376D01*
X179953216Y-82768456D01*
X179805646Y-82669853D01*
X179680147Y-82544354D01*
X179581544Y-82396784D01*
X179513624Y-82232812D01*
X179479000Y-82058741D01*
X179479000Y-81881259D01*
X179513624Y-81707188D01*
X179581544Y-81543216D01*
X179680147Y-81395646D01*
X179805646Y-81270147D01*
X179953216Y-81171544D01*
X180117188Y-81103624D01*
X180266488Y-81073927D01*
X180291258Y-81069000D01*
X180468742Y-81069000D01*
X180493512Y-81073927D01*
G37*
G36*
X171121000Y-82871000D02*
G01*
X169319000Y-82871000D01*
X169319000Y-81069000D01*
X171121000Y-81069000D01*
X171121000Y-82871000D01*
G37*
G36*
X172873512Y-81073927D02*
G01*
X173022812Y-81103624D01*
X173186784Y-81171544D01*
X173334354Y-81270147D01*
X173459853Y-81395646D01*
X173558456Y-81543216D01*
X173626376Y-81707188D01*
X173661000Y-81881259D01*
X173661000Y-82058741D01*
X173626376Y-82232812D01*
X173558456Y-82396784D01*
X173459853Y-82544354D01*
X173334354Y-82669853D01*
X173186784Y-82768456D01*
X173022812Y-82836376D01*
X172873512Y-82866073D01*
X172848742Y-82871000D01*
X172671258Y-82871000D01*
X172646488Y-82866073D01*
X172497188Y-82836376D01*
X172333216Y-82768456D01*
X172185646Y-82669853D01*
X172060147Y-82544354D01*
X171961544Y-82396784D01*
X171893624Y-82232812D01*
X171859000Y-82058741D01*
X171859000Y-81881259D01*
X171893624Y-81707188D01*
X171961544Y-81543216D01*
X172060147Y-81395646D01*
X172185646Y-81270147D01*
X172333216Y-81171544D01*
X172497188Y-81103624D01*
X172646488Y-81073927D01*
X172671258Y-81069000D01*
X172848742Y-81069000D01*
X172873512Y-81073927D01*
G37*
G36*
X177953512Y-81073927D02*
G01*
X178102812Y-81103624D01*
X178266784Y-81171544D01*
X178414354Y-81270147D01*
X178539853Y-81395646D01*
X178638456Y-81543216D01*
X178706376Y-81707188D01*
X178741000Y-81881259D01*
X178741000Y-82058741D01*
X178706376Y-82232812D01*
X178638456Y-82396784D01*
X178539853Y-82544354D01*
X178414354Y-82669853D01*
X178266784Y-82768456D01*
X178102812Y-82836376D01*
X177953512Y-82866073D01*
X177928742Y-82871000D01*
X177751258Y-82871000D01*
X177726488Y-82866073D01*
X177577188Y-82836376D01*
X177413216Y-82768456D01*
X177265646Y-82669853D01*
X177140147Y-82544354D01*
X177041544Y-82396784D01*
X176973624Y-82232812D01*
X176939000Y-82058741D01*
X176939000Y-81881259D01*
X176973624Y-81707188D01*
X177041544Y-81543216D01*
X177140147Y-81395646D01*
X177265646Y-81270147D01*
X177413216Y-81171544D01*
X177577188Y-81103624D01*
X177726488Y-81073927D01*
X177751258Y-81069000D01*
X177928742Y-81069000D01*
X177953512Y-81073927D01*
G37*
G36*
X183033512Y-81073927D02*
G01*
X183182812Y-81103624D01*
X183346784Y-81171544D01*
X183494354Y-81270147D01*
X183619853Y-81395646D01*
X183718456Y-81543216D01*
X183786376Y-81707188D01*
X183821000Y-81881259D01*
X183821000Y-82058741D01*
X183786376Y-82232812D01*
X183718456Y-82396784D01*
X183619853Y-82544354D01*
X183494354Y-82669853D01*
X183346784Y-82768456D01*
X183182812Y-82836376D01*
X183033512Y-82866073D01*
X183008742Y-82871000D01*
X182831258Y-82871000D01*
X182806488Y-82866073D01*
X182657188Y-82836376D01*
X182493216Y-82768456D01*
X182345646Y-82669853D01*
X182220147Y-82544354D01*
X182121544Y-82396784D01*
X182053624Y-82232812D01*
X182019000Y-82058741D01*
X182019000Y-81881259D01*
X182053624Y-81707188D01*
X182121544Y-81543216D01*
X182220147Y-81395646D01*
X182345646Y-81270147D01*
X182493216Y-81171544D01*
X182657188Y-81103624D01*
X182806488Y-81073927D01*
X182831258Y-81069000D01*
X183008742Y-81069000D01*
X183033512Y-81073927D01*
G37*
G36*
X186643512Y-80793927D02*
G01*
X186792812Y-80823624D01*
X186956784Y-80891544D01*
X187104354Y-80990147D01*
X187229853Y-81115646D01*
X187328456Y-81263216D01*
X187396376Y-81427188D01*
X187431000Y-81601259D01*
X187431000Y-81778741D01*
X187396376Y-81952812D01*
X187328456Y-82116784D01*
X187229853Y-82264354D01*
X187104354Y-82389853D01*
X186956784Y-82488456D01*
X186792812Y-82556376D01*
X186643512Y-82586073D01*
X186618742Y-82591000D01*
X186441258Y-82591000D01*
X186416488Y-82586073D01*
X186267188Y-82556376D01*
X186103216Y-82488456D01*
X185955646Y-82389853D01*
X185830147Y-82264354D01*
X185731544Y-82116784D01*
X185663624Y-81952812D01*
X185629000Y-81778741D01*
X185629000Y-81601259D01*
X185663624Y-81427188D01*
X185731544Y-81263216D01*
X185830147Y-81115646D01*
X185955646Y-80990147D01*
X186103216Y-80891544D01*
X186267188Y-80823624D01*
X186416488Y-80793927D01*
X186441258Y-80789000D01*
X186618742Y-80789000D01*
X186643512Y-80793927D01*
G37*
M02*
