G04 #@! TF.GenerationSoftware,KiCad,Pcbnew,5.1.5+dfsg1-2build2*
G04 #@! TF.CreationDate,2023-02-26T20:32:14+01:00*
G04 #@! TF.ProjectId,EcoApi_BeeHiveSensor,45636f41-7069-45f4-9265-654869766553,rev?*
G04 #@! TF.SameCoordinates,Original*
G04 #@! TF.FileFunction,Copper,L2,Bot*
G04 #@! TF.FilePolarity,Positive*
%FSLAX46Y46*%
G04 Gerber Fmt 4.6, Leading zero omitted, Abs format (unit mm)*
G04 Created by KiCad (PCBNEW 5.1.5+dfsg1-2build2) date 2023-02-26 20:32:14*
%MOMM*%
%LPD*%
G04 APERTURE LIST*
%ADD10C,4.700000*%
%ADD11C,0.100000*%
%ADD12O,1.700000X1.700000*%
%ADD13R,1.700000X1.700000*%
%ADD14C,0.800000*%
%ADD15C,0.250000*%
%ADD16C,0.254000*%
G04 APERTURE END LIST*
D10*
X184610000Y-96310000D03*
X154100000Y-83820000D03*
G04 #@! TA.AperFunction,SMDPad,CuDef*
D11*
G36*
X175102691Y-91886053D02*
G01*
X175123926Y-91889203D01*
X175144750Y-91894419D01*
X175164962Y-91901651D01*
X175184368Y-91910830D01*
X175202781Y-91921866D01*
X175220024Y-91934654D01*
X175235930Y-91949070D01*
X175250346Y-91964976D01*
X175263134Y-91982219D01*
X175274170Y-92000632D01*
X175283349Y-92020038D01*
X175290581Y-92040250D01*
X175295797Y-92061074D01*
X175298947Y-92082309D01*
X175300000Y-92103750D01*
X175300000Y-92616250D01*
X175298947Y-92637691D01*
X175295797Y-92658926D01*
X175290581Y-92679750D01*
X175283349Y-92699962D01*
X175274170Y-92719368D01*
X175263134Y-92737781D01*
X175250346Y-92755024D01*
X175235930Y-92770930D01*
X175220024Y-92785346D01*
X175202781Y-92798134D01*
X175184368Y-92809170D01*
X175164962Y-92818349D01*
X175144750Y-92825581D01*
X175123926Y-92830797D01*
X175102691Y-92833947D01*
X175081250Y-92835000D01*
X174643750Y-92835000D01*
X174622309Y-92833947D01*
X174601074Y-92830797D01*
X174580250Y-92825581D01*
X174560038Y-92818349D01*
X174540632Y-92809170D01*
X174522219Y-92798134D01*
X174504976Y-92785346D01*
X174489070Y-92770930D01*
X174474654Y-92755024D01*
X174461866Y-92737781D01*
X174450830Y-92719368D01*
X174441651Y-92699962D01*
X174434419Y-92679750D01*
X174429203Y-92658926D01*
X174426053Y-92637691D01*
X174425000Y-92616250D01*
X174425000Y-92103750D01*
X174426053Y-92082309D01*
X174429203Y-92061074D01*
X174434419Y-92040250D01*
X174441651Y-92020038D01*
X174450830Y-92000632D01*
X174461866Y-91982219D01*
X174474654Y-91964976D01*
X174489070Y-91949070D01*
X174504976Y-91934654D01*
X174522219Y-91921866D01*
X174540632Y-91910830D01*
X174560038Y-91901651D01*
X174580250Y-91894419D01*
X174601074Y-91889203D01*
X174622309Y-91886053D01*
X174643750Y-91885000D01*
X175081250Y-91885000D01*
X175102691Y-91886053D01*
G37*
G04 #@! TD.AperFunction*
G04 #@! TA.AperFunction,SMDPad,CuDef*
G36*
X176677691Y-91886053D02*
G01*
X176698926Y-91889203D01*
X176719750Y-91894419D01*
X176739962Y-91901651D01*
X176759368Y-91910830D01*
X176777781Y-91921866D01*
X176795024Y-91934654D01*
X176810930Y-91949070D01*
X176825346Y-91964976D01*
X176838134Y-91982219D01*
X176849170Y-92000632D01*
X176858349Y-92020038D01*
X176865581Y-92040250D01*
X176870797Y-92061074D01*
X176873947Y-92082309D01*
X176875000Y-92103750D01*
X176875000Y-92616250D01*
X176873947Y-92637691D01*
X176870797Y-92658926D01*
X176865581Y-92679750D01*
X176858349Y-92699962D01*
X176849170Y-92719368D01*
X176838134Y-92737781D01*
X176825346Y-92755024D01*
X176810930Y-92770930D01*
X176795024Y-92785346D01*
X176777781Y-92798134D01*
X176759368Y-92809170D01*
X176739962Y-92818349D01*
X176719750Y-92825581D01*
X176698926Y-92830797D01*
X176677691Y-92833947D01*
X176656250Y-92835000D01*
X176218750Y-92835000D01*
X176197309Y-92833947D01*
X176176074Y-92830797D01*
X176155250Y-92825581D01*
X176135038Y-92818349D01*
X176115632Y-92809170D01*
X176097219Y-92798134D01*
X176079976Y-92785346D01*
X176064070Y-92770930D01*
X176049654Y-92755024D01*
X176036866Y-92737781D01*
X176025830Y-92719368D01*
X176016651Y-92699962D01*
X176009419Y-92679750D01*
X176004203Y-92658926D01*
X176001053Y-92637691D01*
X176000000Y-92616250D01*
X176000000Y-92103750D01*
X176001053Y-92082309D01*
X176004203Y-92061074D01*
X176009419Y-92040250D01*
X176016651Y-92020038D01*
X176025830Y-92000632D01*
X176036866Y-91982219D01*
X176049654Y-91964976D01*
X176064070Y-91949070D01*
X176079976Y-91934654D01*
X176097219Y-91921866D01*
X176115632Y-91910830D01*
X176135038Y-91901651D01*
X176155250Y-91894419D01*
X176176074Y-91889203D01*
X176197309Y-91886053D01*
X176218750Y-91885000D01*
X176656250Y-91885000D01*
X176677691Y-91886053D01*
G37*
G04 #@! TD.AperFunction*
G04 #@! TA.AperFunction,SMDPad,CuDef*
G36*
X175102691Y-89336053D02*
G01*
X175123926Y-89339203D01*
X175144750Y-89344419D01*
X175164962Y-89351651D01*
X175184368Y-89360830D01*
X175202781Y-89371866D01*
X175220024Y-89384654D01*
X175235930Y-89399070D01*
X175250346Y-89414976D01*
X175263134Y-89432219D01*
X175274170Y-89450632D01*
X175283349Y-89470038D01*
X175290581Y-89490250D01*
X175295797Y-89511074D01*
X175298947Y-89532309D01*
X175300000Y-89553750D01*
X175300000Y-90066250D01*
X175298947Y-90087691D01*
X175295797Y-90108926D01*
X175290581Y-90129750D01*
X175283349Y-90149962D01*
X175274170Y-90169368D01*
X175263134Y-90187781D01*
X175250346Y-90205024D01*
X175235930Y-90220930D01*
X175220024Y-90235346D01*
X175202781Y-90248134D01*
X175184368Y-90259170D01*
X175164962Y-90268349D01*
X175144750Y-90275581D01*
X175123926Y-90280797D01*
X175102691Y-90283947D01*
X175081250Y-90285000D01*
X174643750Y-90285000D01*
X174622309Y-90283947D01*
X174601074Y-90280797D01*
X174580250Y-90275581D01*
X174560038Y-90268349D01*
X174540632Y-90259170D01*
X174522219Y-90248134D01*
X174504976Y-90235346D01*
X174489070Y-90220930D01*
X174474654Y-90205024D01*
X174461866Y-90187781D01*
X174450830Y-90169368D01*
X174441651Y-90149962D01*
X174434419Y-90129750D01*
X174429203Y-90108926D01*
X174426053Y-90087691D01*
X174425000Y-90066250D01*
X174425000Y-89553750D01*
X174426053Y-89532309D01*
X174429203Y-89511074D01*
X174434419Y-89490250D01*
X174441651Y-89470038D01*
X174450830Y-89450632D01*
X174461866Y-89432219D01*
X174474654Y-89414976D01*
X174489070Y-89399070D01*
X174504976Y-89384654D01*
X174522219Y-89371866D01*
X174540632Y-89360830D01*
X174560038Y-89351651D01*
X174580250Y-89344419D01*
X174601074Y-89339203D01*
X174622309Y-89336053D01*
X174643750Y-89335000D01*
X175081250Y-89335000D01*
X175102691Y-89336053D01*
G37*
G04 #@! TD.AperFunction*
G04 #@! TA.AperFunction,SMDPad,CuDef*
G36*
X176677691Y-89336053D02*
G01*
X176698926Y-89339203D01*
X176719750Y-89344419D01*
X176739962Y-89351651D01*
X176759368Y-89360830D01*
X176777781Y-89371866D01*
X176795024Y-89384654D01*
X176810930Y-89399070D01*
X176825346Y-89414976D01*
X176838134Y-89432219D01*
X176849170Y-89450632D01*
X176858349Y-89470038D01*
X176865581Y-89490250D01*
X176870797Y-89511074D01*
X176873947Y-89532309D01*
X176875000Y-89553750D01*
X176875000Y-90066250D01*
X176873947Y-90087691D01*
X176870797Y-90108926D01*
X176865581Y-90129750D01*
X176858349Y-90149962D01*
X176849170Y-90169368D01*
X176838134Y-90187781D01*
X176825346Y-90205024D01*
X176810930Y-90220930D01*
X176795024Y-90235346D01*
X176777781Y-90248134D01*
X176759368Y-90259170D01*
X176739962Y-90268349D01*
X176719750Y-90275581D01*
X176698926Y-90280797D01*
X176677691Y-90283947D01*
X176656250Y-90285000D01*
X176218750Y-90285000D01*
X176197309Y-90283947D01*
X176176074Y-90280797D01*
X176155250Y-90275581D01*
X176135038Y-90268349D01*
X176115632Y-90259170D01*
X176097219Y-90248134D01*
X176079976Y-90235346D01*
X176064070Y-90220930D01*
X176049654Y-90205024D01*
X176036866Y-90187781D01*
X176025830Y-90169368D01*
X176016651Y-90149962D01*
X176009419Y-90129750D01*
X176004203Y-90108926D01*
X176001053Y-90087691D01*
X176000000Y-90066250D01*
X176000000Y-89553750D01*
X176001053Y-89532309D01*
X176004203Y-89511074D01*
X176009419Y-89490250D01*
X176016651Y-89470038D01*
X176025830Y-89450632D01*
X176036866Y-89432219D01*
X176049654Y-89414976D01*
X176064070Y-89399070D01*
X176079976Y-89384654D01*
X176097219Y-89371866D01*
X176115632Y-89360830D01*
X176135038Y-89351651D01*
X176155250Y-89344419D01*
X176176074Y-89339203D01*
X176197309Y-89336053D01*
X176218750Y-89335000D01*
X176656250Y-89335000D01*
X176677691Y-89336053D01*
G37*
G04 #@! TD.AperFunction*
G04 #@! TA.AperFunction,SMDPad,CuDef*
G36*
X162157691Y-84496053D02*
G01*
X162178926Y-84499203D01*
X162199750Y-84504419D01*
X162219962Y-84511651D01*
X162239368Y-84520830D01*
X162257781Y-84531866D01*
X162275024Y-84544654D01*
X162290930Y-84559070D01*
X162305346Y-84574976D01*
X162318134Y-84592219D01*
X162329170Y-84610632D01*
X162338349Y-84630038D01*
X162345581Y-84650250D01*
X162350797Y-84671074D01*
X162353947Y-84692309D01*
X162355000Y-84713750D01*
X162355000Y-85151250D01*
X162353947Y-85172691D01*
X162350797Y-85193926D01*
X162345581Y-85214750D01*
X162338349Y-85234962D01*
X162329170Y-85254368D01*
X162318134Y-85272781D01*
X162305346Y-85290024D01*
X162290930Y-85305930D01*
X162275024Y-85320346D01*
X162257781Y-85333134D01*
X162239368Y-85344170D01*
X162219962Y-85353349D01*
X162199750Y-85360581D01*
X162178926Y-85365797D01*
X162157691Y-85368947D01*
X162136250Y-85370000D01*
X161623750Y-85370000D01*
X161602309Y-85368947D01*
X161581074Y-85365797D01*
X161560250Y-85360581D01*
X161540038Y-85353349D01*
X161520632Y-85344170D01*
X161502219Y-85333134D01*
X161484976Y-85320346D01*
X161469070Y-85305930D01*
X161454654Y-85290024D01*
X161441866Y-85272781D01*
X161430830Y-85254368D01*
X161421651Y-85234962D01*
X161414419Y-85214750D01*
X161409203Y-85193926D01*
X161406053Y-85172691D01*
X161405000Y-85151250D01*
X161405000Y-84713750D01*
X161406053Y-84692309D01*
X161409203Y-84671074D01*
X161414419Y-84650250D01*
X161421651Y-84630038D01*
X161430830Y-84610632D01*
X161441866Y-84592219D01*
X161454654Y-84574976D01*
X161469070Y-84559070D01*
X161484976Y-84544654D01*
X161502219Y-84531866D01*
X161520632Y-84520830D01*
X161540038Y-84511651D01*
X161560250Y-84504419D01*
X161581074Y-84499203D01*
X161602309Y-84496053D01*
X161623750Y-84495000D01*
X162136250Y-84495000D01*
X162157691Y-84496053D01*
G37*
G04 #@! TD.AperFunction*
G04 #@! TA.AperFunction,SMDPad,CuDef*
G36*
X162157691Y-86071053D02*
G01*
X162178926Y-86074203D01*
X162199750Y-86079419D01*
X162219962Y-86086651D01*
X162239368Y-86095830D01*
X162257781Y-86106866D01*
X162275024Y-86119654D01*
X162290930Y-86134070D01*
X162305346Y-86149976D01*
X162318134Y-86167219D01*
X162329170Y-86185632D01*
X162338349Y-86205038D01*
X162345581Y-86225250D01*
X162350797Y-86246074D01*
X162353947Y-86267309D01*
X162355000Y-86288750D01*
X162355000Y-86726250D01*
X162353947Y-86747691D01*
X162350797Y-86768926D01*
X162345581Y-86789750D01*
X162338349Y-86809962D01*
X162329170Y-86829368D01*
X162318134Y-86847781D01*
X162305346Y-86865024D01*
X162290930Y-86880930D01*
X162275024Y-86895346D01*
X162257781Y-86908134D01*
X162239368Y-86919170D01*
X162219962Y-86928349D01*
X162199750Y-86935581D01*
X162178926Y-86940797D01*
X162157691Y-86943947D01*
X162136250Y-86945000D01*
X161623750Y-86945000D01*
X161602309Y-86943947D01*
X161581074Y-86940797D01*
X161560250Y-86935581D01*
X161540038Y-86928349D01*
X161520632Y-86919170D01*
X161502219Y-86908134D01*
X161484976Y-86895346D01*
X161469070Y-86880930D01*
X161454654Y-86865024D01*
X161441866Y-86847781D01*
X161430830Y-86829368D01*
X161421651Y-86809962D01*
X161414419Y-86789750D01*
X161409203Y-86768926D01*
X161406053Y-86747691D01*
X161405000Y-86726250D01*
X161405000Y-86288750D01*
X161406053Y-86267309D01*
X161409203Y-86246074D01*
X161414419Y-86225250D01*
X161421651Y-86205038D01*
X161430830Y-86185632D01*
X161441866Y-86167219D01*
X161454654Y-86149976D01*
X161469070Y-86134070D01*
X161484976Y-86119654D01*
X161502219Y-86106866D01*
X161520632Y-86095830D01*
X161540038Y-86086651D01*
X161560250Y-86079419D01*
X161581074Y-86074203D01*
X161602309Y-86071053D01*
X161623750Y-86070000D01*
X162136250Y-86070000D01*
X162157691Y-86071053D01*
G37*
G04 #@! TD.AperFunction*
G04 #@! TA.AperFunction,SMDPad,CuDef*
G36*
X163897691Y-84496053D02*
G01*
X163918926Y-84499203D01*
X163939750Y-84504419D01*
X163959962Y-84511651D01*
X163979368Y-84520830D01*
X163997781Y-84531866D01*
X164015024Y-84544654D01*
X164030930Y-84559070D01*
X164045346Y-84574976D01*
X164058134Y-84592219D01*
X164069170Y-84610632D01*
X164078349Y-84630038D01*
X164085581Y-84650250D01*
X164090797Y-84671074D01*
X164093947Y-84692309D01*
X164095000Y-84713750D01*
X164095000Y-85151250D01*
X164093947Y-85172691D01*
X164090797Y-85193926D01*
X164085581Y-85214750D01*
X164078349Y-85234962D01*
X164069170Y-85254368D01*
X164058134Y-85272781D01*
X164045346Y-85290024D01*
X164030930Y-85305930D01*
X164015024Y-85320346D01*
X163997781Y-85333134D01*
X163979368Y-85344170D01*
X163959962Y-85353349D01*
X163939750Y-85360581D01*
X163918926Y-85365797D01*
X163897691Y-85368947D01*
X163876250Y-85370000D01*
X163363750Y-85370000D01*
X163342309Y-85368947D01*
X163321074Y-85365797D01*
X163300250Y-85360581D01*
X163280038Y-85353349D01*
X163260632Y-85344170D01*
X163242219Y-85333134D01*
X163224976Y-85320346D01*
X163209070Y-85305930D01*
X163194654Y-85290024D01*
X163181866Y-85272781D01*
X163170830Y-85254368D01*
X163161651Y-85234962D01*
X163154419Y-85214750D01*
X163149203Y-85193926D01*
X163146053Y-85172691D01*
X163145000Y-85151250D01*
X163145000Y-84713750D01*
X163146053Y-84692309D01*
X163149203Y-84671074D01*
X163154419Y-84650250D01*
X163161651Y-84630038D01*
X163170830Y-84610632D01*
X163181866Y-84592219D01*
X163194654Y-84574976D01*
X163209070Y-84559070D01*
X163224976Y-84544654D01*
X163242219Y-84531866D01*
X163260632Y-84520830D01*
X163280038Y-84511651D01*
X163300250Y-84504419D01*
X163321074Y-84499203D01*
X163342309Y-84496053D01*
X163363750Y-84495000D01*
X163876250Y-84495000D01*
X163897691Y-84496053D01*
G37*
G04 #@! TD.AperFunction*
G04 #@! TA.AperFunction,SMDPad,CuDef*
G36*
X163897691Y-86071053D02*
G01*
X163918926Y-86074203D01*
X163939750Y-86079419D01*
X163959962Y-86086651D01*
X163979368Y-86095830D01*
X163997781Y-86106866D01*
X164015024Y-86119654D01*
X164030930Y-86134070D01*
X164045346Y-86149976D01*
X164058134Y-86167219D01*
X164069170Y-86185632D01*
X164078349Y-86205038D01*
X164085581Y-86225250D01*
X164090797Y-86246074D01*
X164093947Y-86267309D01*
X164095000Y-86288750D01*
X164095000Y-86726250D01*
X164093947Y-86747691D01*
X164090797Y-86768926D01*
X164085581Y-86789750D01*
X164078349Y-86809962D01*
X164069170Y-86829368D01*
X164058134Y-86847781D01*
X164045346Y-86865024D01*
X164030930Y-86880930D01*
X164015024Y-86895346D01*
X163997781Y-86908134D01*
X163979368Y-86919170D01*
X163959962Y-86928349D01*
X163939750Y-86935581D01*
X163918926Y-86940797D01*
X163897691Y-86943947D01*
X163876250Y-86945000D01*
X163363750Y-86945000D01*
X163342309Y-86943947D01*
X163321074Y-86940797D01*
X163300250Y-86935581D01*
X163280038Y-86928349D01*
X163260632Y-86919170D01*
X163242219Y-86908134D01*
X163224976Y-86895346D01*
X163209070Y-86880930D01*
X163194654Y-86865024D01*
X163181866Y-86847781D01*
X163170830Y-86829368D01*
X163161651Y-86809962D01*
X163154419Y-86789750D01*
X163149203Y-86768926D01*
X163146053Y-86747691D01*
X163145000Y-86726250D01*
X163145000Y-86288750D01*
X163146053Y-86267309D01*
X163149203Y-86246074D01*
X163154419Y-86225250D01*
X163161651Y-86205038D01*
X163170830Y-86185632D01*
X163181866Y-86167219D01*
X163194654Y-86149976D01*
X163209070Y-86134070D01*
X163224976Y-86119654D01*
X163242219Y-86106866D01*
X163260632Y-86095830D01*
X163280038Y-86086651D01*
X163300250Y-86079419D01*
X163321074Y-86074203D01*
X163342309Y-86071053D01*
X163363750Y-86070000D01*
X163876250Y-86070000D01*
X163897691Y-86071053D01*
G37*
G04 #@! TD.AperFunction*
G04 #@! TA.AperFunction,SMDPad,CuDef*
G36*
X158657691Y-84516053D02*
G01*
X158678926Y-84519203D01*
X158699750Y-84524419D01*
X158719962Y-84531651D01*
X158739368Y-84540830D01*
X158757781Y-84551866D01*
X158775024Y-84564654D01*
X158790930Y-84579070D01*
X158805346Y-84594976D01*
X158818134Y-84612219D01*
X158829170Y-84630632D01*
X158838349Y-84650038D01*
X158845581Y-84670250D01*
X158850797Y-84691074D01*
X158853947Y-84712309D01*
X158855000Y-84733750D01*
X158855000Y-85171250D01*
X158853947Y-85192691D01*
X158850797Y-85213926D01*
X158845581Y-85234750D01*
X158838349Y-85254962D01*
X158829170Y-85274368D01*
X158818134Y-85292781D01*
X158805346Y-85310024D01*
X158790930Y-85325930D01*
X158775024Y-85340346D01*
X158757781Y-85353134D01*
X158739368Y-85364170D01*
X158719962Y-85373349D01*
X158699750Y-85380581D01*
X158678926Y-85385797D01*
X158657691Y-85388947D01*
X158636250Y-85390000D01*
X158123750Y-85390000D01*
X158102309Y-85388947D01*
X158081074Y-85385797D01*
X158060250Y-85380581D01*
X158040038Y-85373349D01*
X158020632Y-85364170D01*
X158002219Y-85353134D01*
X157984976Y-85340346D01*
X157969070Y-85325930D01*
X157954654Y-85310024D01*
X157941866Y-85292781D01*
X157930830Y-85274368D01*
X157921651Y-85254962D01*
X157914419Y-85234750D01*
X157909203Y-85213926D01*
X157906053Y-85192691D01*
X157905000Y-85171250D01*
X157905000Y-84733750D01*
X157906053Y-84712309D01*
X157909203Y-84691074D01*
X157914419Y-84670250D01*
X157921651Y-84650038D01*
X157930830Y-84630632D01*
X157941866Y-84612219D01*
X157954654Y-84594976D01*
X157969070Y-84579070D01*
X157984976Y-84564654D01*
X158002219Y-84551866D01*
X158020632Y-84540830D01*
X158040038Y-84531651D01*
X158060250Y-84524419D01*
X158081074Y-84519203D01*
X158102309Y-84516053D01*
X158123750Y-84515000D01*
X158636250Y-84515000D01*
X158657691Y-84516053D01*
G37*
G04 #@! TD.AperFunction*
G04 #@! TA.AperFunction,SMDPad,CuDef*
G36*
X158657691Y-86091053D02*
G01*
X158678926Y-86094203D01*
X158699750Y-86099419D01*
X158719962Y-86106651D01*
X158739368Y-86115830D01*
X158757781Y-86126866D01*
X158775024Y-86139654D01*
X158790930Y-86154070D01*
X158805346Y-86169976D01*
X158818134Y-86187219D01*
X158829170Y-86205632D01*
X158838349Y-86225038D01*
X158845581Y-86245250D01*
X158850797Y-86266074D01*
X158853947Y-86287309D01*
X158855000Y-86308750D01*
X158855000Y-86746250D01*
X158853947Y-86767691D01*
X158850797Y-86788926D01*
X158845581Y-86809750D01*
X158838349Y-86829962D01*
X158829170Y-86849368D01*
X158818134Y-86867781D01*
X158805346Y-86885024D01*
X158790930Y-86900930D01*
X158775024Y-86915346D01*
X158757781Y-86928134D01*
X158739368Y-86939170D01*
X158719962Y-86948349D01*
X158699750Y-86955581D01*
X158678926Y-86960797D01*
X158657691Y-86963947D01*
X158636250Y-86965000D01*
X158123750Y-86965000D01*
X158102309Y-86963947D01*
X158081074Y-86960797D01*
X158060250Y-86955581D01*
X158040038Y-86948349D01*
X158020632Y-86939170D01*
X158002219Y-86928134D01*
X157984976Y-86915346D01*
X157969070Y-86900930D01*
X157954654Y-86885024D01*
X157941866Y-86867781D01*
X157930830Y-86849368D01*
X157921651Y-86829962D01*
X157914419Y-86809750D01*
X157909203Y-86788926D01*
X157906053Y-86767691D01*
X157905000Y-86746250D01*
X157905000Y-86308750D01*
X157906053Y-86287309D01*
X157909203Y-86266074D01*
X157914419Y-86245250D01*
X157921651Y-86225038D01*
X157930830Y-86205632D01*
X157941866Y-86187219D01*
X157954654Y-86169976D01*
X157969070Y-86154070D01*
X157984976Y-86139654D01*
X158002219Y-86126866D01*
X158020632Y-86115830D01*
X158040038Y-86106651D01*
X158060250Y-86099419D01*
X158081074Y-86094203D01*
X158102309Y-86091053D01*
X158123750Y-86090000D01*
X158636250Y-86090000D01*
X158657691Y-86091053D01*
G37*
G04 #@! TD.AperFunction*
G04 #@! TA.AperFunction,SMDPad,CuDef*
G36*
X160397691Y-84516053D02*
G01*
X160418926Y-84519203D01*
X160439750Y-84524419D01*
X160459962Y-84531651D01*
X160479368Y-84540830D01*
X160497781Y-84551866D01*
X160515024Y-84564654D01*
X160530930Y-84579070D01*
X160545346Y-84594976D01*
X160558134Y-84612219D01*
X160569170Y-84630632D01*
X160578349Y-84650038D01*
X160585581Y-84670250D01*
X160590797Y-84691074D01*
X160593947Y-84712309D01*
X160595000Y-84733750D01*
X160595000Y-85171250D01*
X160593947Y-85192691D01*
X160590797Y-85213926D01*
X160585581Y-85234750D01*
X160578349Y-85254962D01*
X160569170Y-85274368D01*
X160558134Y-85292781D01*
X160545346Y-85310024D01*
X160530930Y-85325930D01*
X160515024Y-85340346D01*
X160497781Y-85353134D01*
X160479368Y-85364170D01*
X160459962Y-85373349D01*
X160439750Y-85380581D01*
X160418926Y-85385797D01*
X160397691Y-85388947D01*
X160376250Y-85390000D01*
X159863750Y-85390000D01*
X159842309Y-85388947D01*
X159821074Y-85385797D01*
X159800250Y-85380581D01*
X159780038Y-85373349D01*
X159760632Y-85364170D01*
X159742219Y-85353134D01*
X159724976Y-85340346D01*
X159709070Y-85325930D01*
X159694654Y-85310024D01*
X159681866Y-85292781D01*
X159670830Y-85274368D01*
X159661651Y-85254962D01*
X159654419Y-85234750D01*
X159649203Y-85213926D01*
X159646053Y-85192691D01*
X159645000Y-85171250D01*
X159645000Y-84733750D01*
X159646053Y-84712309D01*
X159649203Y-84691074D01*
X159654419Y-84670250D01*
X159661651Y-84650038D01*
X159670830Y-84630632D01*
X159681866Y-84612219D01*
X159694654Y-84594976D01*
X159709070Y-84579070D01*
X159724976Y-84564654D01*
X159742219Y-84551866D01*
X159760632Y-84540830D01*
X159780038Y-84531651D01*
X159800250Y-84524419D01*
X159821074Y-84519203D01*
X159842309Y-84516053D01*
X159863750Y-84515000D01*
X160376250Y-84515000D01*
X160397691Y-84516053D01*
G37*
G04 #@! TD.AperFunction*
G04 #@! TA.AperFunction,SMDPad,CuDef*
G36*
X160397691Y-86091053D02*
G01*
X160418926Y-86094203D01*
X160439750Y-86099419D01*
X160459962Y-86106651D01*
X160479368Y-86115830D01*
X160497781Y-86126866D01*
X160515024Y-86139654D01*
X160530930Y-86154070D01*
X160545346Y-86169976D01*
X160558134Y-86187219D01*
X160569170Y-86205632D01*
X160578349Y-86225038D01*
X160585581Y-86245250D01*
X160590797Y-86266074D01*
X160593947Y-86287309D01*
X160595000Y-86308750D01*
X160595000Y-86746250D01*
X160593947Y-86767691D01*
X160590797Y-86788926D01*
X160585581Y-86809750D01*
X160578349Y-86829962D01*
X160569170Y-86849368D01*
X160558134Y-86867781D01*
X160545346Y-86885024D01*
X160530930Y-86900930D01*
X160515024Y-86915346D01*
X160497781Y-86928134D01*
X160479368Y-86939170D01*
X160459962Y-86948349D01*
X160439750Y-86955581D01*
X160418926Y-86960797D01*
X160397691Y-86963947D01*
X160376250Y-86965000D01*
X159863750Y-86965000D01*
X159842309Y-86963947D01*
X159821074Y-86960797D01*
X159800250Y-86955581D01*
X159780038Y-86948349D01*
X159760632Y-86939170D01*
X159742219Y-86928134D01*
X159724976Y-86915346D01*
X159709070Y-86900930D01*
X159694654Y-86885024D01*
X159681866Y-86867781D01*
X159670830Y-86849368D01*
X159661651Y-86829962D01*
X159654419Y-86809750D01*
X159649203Y-86788926D01*
X159646053Y-86767691D01*
X159645000Y-86746250D01*
X159645000Y-86308750D01*
X159646053Y-86287309D01*
X159649203Y-86266074D01*
X159654419Y-86245250D01*
X159661651Y-86225038D01*
X159670830Y-86205632D01*
X159681866Y-86187219D01*
X159694654Y-86169976D01*
X159709070Y-86154070D01*
X159724976Y-86139654D01*
X159742219Y-86126866D01*
X159760632Y-86115830D01*
X159780038Y-86106651D01*
X159800250Y-86099419D01*
X159821074Y-86094203D01*
X159842309Y-86091053D01*
X159863750Y-86090000D01*
X160376250Y-86090000D01*
X160397691Y-86091053D01*
G37*
G04 #@! TD.AperFunction*
G04 #@! TA.AperFunction,SMDPad,CuDef*
G36*
X163877691Y-89716053D02*
G01*
X163898926Y-89719203D01*
X163919750Y-89724419D01*
X163939962Y-89731651D01*
X163959368Y-89740830D01*
X163977781Y-89751866D01*
X163995024Y-89764654D01*
X164010930Y-89779070D01*
X164025346Y-89794976D01*
X164038134Y-89812219D01*
X164049170Y-89830632D01*
X164058349Y-89850038D01*
X164065581Y-89870250D01*
X164070797Y-89891074D01*
X164073947Y-89912309D01*
X164075000Y-89933750D01*
X164075000Y-90446250D01*
X164073947Y-90467691D01*
X164070797Y-90488926D01*
X164065581Y-90509750D01*
X164058349Y-90529962D01*
X164049170Y-90549368D01*
X164038134Y-90567781D01*
X164025346Y-90585024D01*
X164010930Y-90600930D01*
X163995024Y-90615346D01*
X163977781Y-90628134D01*
X163959368Y-90639170D01*
X163939962Y-90648349D01*
X163919750Y-90655581D01*
X163898926Y-90660797D01*
X163877691Y-90663947D01*
X163856250Y-90665000D01*
X163418750Y-90665000D01*
X163397309Y-90663947D01*
X163376074Y-90660797D01*
X163355250Y-90655581D01*
X163335038Y-90648349D01*
X163315632Y-90639170D01*
X163297219Y-90628134D01*
X163279976Y-90615346D01*
X163264070Y-90600930D01*
X163249654Y-90585024D01*
X163236866Y-90567781D01*
X163225830Y-90549368D01*
X163216651Y-90529962D01*
X163209419Y-90509750D01*
X163204203Y-90488926D01*
X163201053Y-90467691D01*
X163200000Y-90446250D01*
X163200000Y-89933750D01*
X163201053Y-89912309D01*
X163204203Y-89891074D01*
X163209419Y-89870250D01*
X163216651Y-89850038D01*
X163225830Y-89830632D01*
X163236866Y-89812219D01*
X163249654Y-89794976D01*
X163264070Y-89779070D01*
X163279976Y-89764654D01*
X163297219Y-89751866D01*
X163315632Y-89740830D01*
X163335038Y-89731651D01*
X163355250Y-89724419D01*
X163376074Y-89719203D01*
X163397309Y-89716053D01*
X163418750Y-89715000D01*
X163856250Y-89715000D01*
X163877691Y-89716053D01*
G37*
G04 #@! TD.AperFunction*
G04 #@! TA.AperFunction,SMDPad,CuDef*
G36*
X162302691Y-89716053D02*
G01*
X162323926Y-89719203D01*
X162344750Y-89724419D01*
X162364962Y-89731651D01*
X162384368Y-89740830D01*
X162402781Y-89751866D01*
X162420024Y-89764654D01*
X162435930Y-89779070D01*
X162450346Y-89794976D01*
X162463134Y-89812219D01*
X162474170Y-89830632D01*
X162483349Y-89850038D01*
X162490581Y-89870250D01*
X162495797Y-89891074D01*
X162498947Y-89912309D01*
X162500000Y-89933750D01*
X162500000Y-90446250D01*
X162498947Y-90467691D01*
X162495797Y-90488926D01*
X162490581Y-90509750D01*
X162483349Y-90529962D01*
X162474170Y-90549368D01*
X162463134Y-90567781D01*
X162450346Y-90585024D01*
X162435930Y-90600930D01*
X162420024Y-90615346D01*
X162402781Y-90628134D01*
X162384368Y-90639170D01*
X162364962Y-90648349D01*
X162344750Y-90655581D01*
X162323926Y-90660797D01*
X162302691Y-90663947D01*
X162281250Y-90665000D01*
X161843750Y-90665000D01*
X161822309Y-90663947D01*
X161801074Y-90660797D01*
X161780250Y-90655581D01*
X161760038Y-90648349D01*
X161740632Y-90639170D01*
X161722219Y-90628134D01*
X161704976Y-90615346D01*
X161689070Y-90600930D01*
X161674654Y-90585024D01*
X161661866Y-90567781D01*
X161650830Y-90549368D01*
X161641651Y-90529962D01*
X161634419Y-90509750D01*
X161629203Y-90488926D01*
X161626053Y-90467691D01*
X161625000Y-90446250D01*
X161625000Y-89933750D01*
X161626053Y-89912309D01*
X161629203Y-89891074D01*
X161634419Y-89870250D01*
X161641651Y-89850038D01*
X161650830Y-89830632D01*
X161661866Y-89812219D01*
X161674654Y-89794976D01*
X161689070Y-89779070D01*
X161704976Y-89764654D01*
X161722219Y-89751866D01*
X161740632Y-89740830D01*
X161760038Y-89731651D01*
X161780250Y-89724419D01*
X161801074Y-89719203D01*
X161822309Y-89716053D01*
X161843750Y-89715000D01*
X162281250Y-89715000D01*
X162302691Y-89716053D01*
G37*
G04 #@! TD.AperFunction*
G04 #@! TA.AperFunction,SMDPad,CuDef*
G36*
X163887691Y-94946053D02*
G01*
X163908926Y-94949203D01*
X163929750Y-94954419D01*
X163949962Y-94961651D01*
X163969368Y-94970830D01*
X163987781Y-94981866D01*
X164005024Y-94994654D01*
X164020930Y-95009070D01*
X164035346Y-95024976D01*
X164048134Y-95042219D01*
X164059170Y-95060632D01*
X164068349Y-95080038D01*
X164075581Y-95100250D01*
X164080797Y-95121074D01*
X164083947Y-95142309D01*
X164085000Y-95163750D01*
X164085000Y-95676250D01*
X164083947Y-95697691D01*
X164080797Y-95718926D01*
X164075581Y-95739750D01*
X164068349Y-95759962D01*
X164059170Y-95779368D01*
X164048134Y-95797781D01*
X164035346Y-95815024D01*
X164020930Y-95830930D01*
X164005024Y-95845346D01*
X163987781Y-95858134D01*
X163969368Y-95869170D01*
X163949962Y-95878349D01*
X163929750Y-95885581D01*
X163908926Y-95890797D01*
X163887691Y-95893947D01*
X163866250Y-95895000D01*
X163428750Y-95895000D01*
X163407309Y-95893947D01*
X163386074Y-95890797D01*
X163365250Y-95885581D01*
X163345038Y-95878349D01*
X163325632Y-95869170D01*
X163307219Y-95858134D01*
X163289976Y-95845346D01*
X163274070Y-95830930D01*
X163259654Y-95815024D01*
X163246866Y-95797781D01*
X163235830Y-95779368D01*
X163226651Y-95759962D01*
X163219419Y-95739750D01*
X163214203Y-95718926D01*
X163211053Y-95697691D01*
X163210000Y-95676250D01*
X163210000Y-95163750D01*
X163211053Y-95142309D01*
X163214203Y-95121074D01*
X163219419Y-95100250D01*
X163226651Y-95080038D01*
X163235830Y-95060632D01*
X163246866Y-95042219D01*
X163259654Y-95024976D01*
X163274070Y-95009070D01*
X163289976Y-94994654D01*
X163307219Y-94981866D01*
X163325632Y-94970830D01*
X163345038Y-94961651D01*
X163365250Y-94954419D01*
X163386074Y-94949203D01*
X163407309Y-94946053D01*
X163428750Y-94945000D01*
X163866250Y-94945000D01*
X163887691Y-94946053D01*
G37*
G04 #@! TD.AperFunction*
G04 #@! TA.AperFunction,SMDPad,CuDef*
G36*
X162312691Y-94946053D02*
G01*
X162333926Y-94949203D01*
X162354750Y-94954419D01*
X162374962Y-94961651D01*
X162394368Y-94970830D01*
X162412781Y-94981866D01*
X162430024Y-94994654D01*
X162445930Y-95009070D01*
X162460346Y-95024976D01*
X162473134Y-95042219D01*
X162484170Y-95060632D01*
X162493349Y-95080038D01*
X162500581Y-95100250D01*
X162505797Y-95121074D01*
X162508947Y-95142309D01*
X162510000Y-95163750D01*
X162510000Y-95676250D01*
X162508947Y-95697691D01*
X162505797Y-95718926D01*
X162500581Y-95739750D01*
X162493349Y-95759962D01*
X162484170Y-95779368D01*
X162473134Y-95797781D01*
X162460346Y-95815024D01*
X162445930Y-95830930D01*
X162430024Y-95845346D01*
X162412781Y-95858134D01*
X162394368Y-95869170D01*
X162374962Y-95878349D01*
X162354750Y-95885581D01*
X162333926Y-95890797D01*
X162312691Y-95893947D01*
X162291250Y-95895000D01*
X161853750Y-95895000D01*
X161832309Y-95893947D01*
X161811074Y-95890797D01*
X161790250Y-95885581D01*
X161770038Y-95878349D01*
X161750632Y-95869170D01*
X161732219Y-95858134D01*
X161714976Y-95845346D01*
X161699070Y-95830930D01*
X161684654Y-95815024D01*
X161671866Y-95797781D01*
X161660830Y-95779368D01*
X161651651Y-95759962D01*
X161644419Y-95739750D01*
X161639203Y-95718926D01*
X161636053Y-95697691D01*
X161635000Y-95676250D01*
X161635000Y-95163750D01*
X161636053Y-95142309D01*
X161639203Y-95121074D01*
X161644419Y-95100250D01*
X161651651Y-95080038D01*
X161660830Y-95060632D01*
X161671866Y-95042219D01*
X161684654Y-95024976D01*
X161699070Y-95009070D01*
X161714976Y-94994654D01*
X161732219Y-94981866D01*
X161750632Y-94970830D01*
X161770038Y-94961651D01*
X161790250Y-94954419D01*
X161811074Y-94949203D01*
X161832309Y-94946053D01*
X161853750Y-94945000D01*
X162291250Y-94945000D01*
X162312691Y-94946053D01*
G37*
G04 #@! TD.AperFunction*
G04 #@! TA.AperFunction,SMDPad,CuDef*
G36*
X163877691Y-93216053D02*
G01*
X163898926Y-93219203D01*
X163919750Y-93224419D01*
X163939962Y-93231651D01*
X163959368Y-93240830D01*
X163977781Y-93251866D01*
X163995024Y-93264654D01*
X164010930Y-93279070D01*
X164025346Y-93294976D01*
X164038134Y-93312219D01*
X164049170Y-93330632D01*
X164058349Y-93350038D01*
X164065581Y-93370250D01*
X164070797Y-93391074D01*
X164073947Y-93412309D01*
X164075000Y-93433750D01*
X164075000Y-93946250D01*
X164073947Y-93967691D01*
X164070797Y-93988926D01*
X164065581Y-94009750D01*
X164058349Y-94029962D01*
X164049170Y-94049368D01*
X164038134Y-94067781D01*
X164025346Y-94085024D01*
X164010930Y-94100930D01*
X163995024Y-94115346D01*
X163977781Y-94128134D01*
X163959368Y-94139170D01*
X163939962Y-94148349D01*
X163919750Y-94155581D01*
X163898926Y-94160797D01*
X163877691Y-94163947D01*
X163856250Y-94165000D01*
X163418750Y-94165000D01*
X163397309Y-94163947D01*
X163376074Y-94160797D01*
X163355250Y-94155581D01*
X163335038Y-94148349D01*
X163315632Y-94139170D01*
X163297219Y-94128134D01*
X163279976Y-94115346D01*
X163264070Y-94100930D01*
X163249654Y-94085024D01*
X163236866Y-94067781D01*
X163225830Y-94049368D01*
X163216651Y-94029962D01*
X163209419Y-94009750D01*
X163204203Y-93988926D01*
X163201053Y-93967691D01*
X163200000Y-93946250D01*
X163200000Y-93433750D01*
X163201053Y-93412309D01*
X163204203Y-93391074D01*
X163209419Y-93370250D01*
X163216651Y-93350038D01*
X163225830Y-93330632D01*
X163236866Y-93312219D01*
X163249654Y-93294976D01*
X163264070Y-93279070D01*
X163279976Y-93264654D01*
X163297219Y-93251866D01*
X163315632Y-93240830D01*
X163335038Y-93231651D01*
X163355250Y-93224419D01*
X163376074Y-93219203D01*
X163397309Y-93216053D01*
X163418750Y-93215000D01*
X163856250Y-93215000D01*
X163877691Y-93216053D01*
G37*
G04 #@! TD.AperFunction*
G04 #@! TA.AperFunction,SMDPad,CuDef*
G36*
X162302691Y-93216053D02*
G01*
X162323926Y-93219203D01*
X162344750Y-93224419D01*
X162364962Y-93231651D01*
X162384368Y-93240830D01*
X162402781Y-93251866D01*
X162420024Y-93264654D01*
X162435930Y-93279070D01*
X162450346Y-93294976D01*
X162463134Y-93312219D01*
X162474170Y-93330632D01*
X162483349Y-93350038D01*
X162490581Y-93370250D01*
X162495797Y-93391074D01*
X162498947Y-93412309D01*
X162500000Y-93433750D01*
X162500000Y-93946250D01*
X162498947Y-93967691D01*
X162495797Y-93988926D01*
X162490581Y-94009750D01*
X162483349Y-94029962D01*
X162474170Y-94049368D01*
X162463134Y-94067781D01*
X162450346Y-94085024D01*
X162435930Y-94100930D01*
X162420024Y-94115346D01*
X162402781Y-94128134D01*
X162384368Y-94139170D01*
X162364962Y-94148349D01*
X162344750Y-94155581D01*
X162323926Y-94160797D01*
X162302691Y-94163947D01*
X162281250Y-94165000D01*
X161843750Y-94165000D01*
X161822309Y-94163947D01*
X161801074Y-94160797D01*
X161780250Y-94155581D01*
X161760038Y-94148349D01*
X161740632Y-94139170D01*
X161722219Y-94128134D01*
X161704976Y-94115346D01*
X161689070Y-94100930D01*
X161674654Y-94085024D01*
X161661866Y-94067781D01*
X161650830Y-94049368D01*
X161641651Y-94029962D01*
X161634419Y-94009750D01*
X161629203Y-93988926D01*
X161626053Y-93967691D01*
X161625000Y-93946250D01*
X161625000Y-93433750D01*
X161626053Y-93412309D01*
X161629203Y-93391074D01*
X161634419Y-93370250D01*
X161641651Y-93350038D01*
X161650830Y-93330632D01*
X161661866Y-93312219D01*
X161674654Y-93294976D01*
X161689070Y-93279070D01*
X161704976Y-93264654D01*
X161722219Y-93251866D01*
X161740632Y-93240830D01*
X161760038Y-93231651D01*
X161780250Y-93224419D01*
X161801074Y-93219203D01*
X161822309Y-93216053D01*
X161843750Y-93215000D01*
X162281250Y-93215000D01*
X162302691Y-93216053D01*
G37*
G04 #@! TD.AperFunction*
G04 #@! TA.AperFunction,SMDPad,CuDef*
G36*
X163877691Y-91456053D02*
G01*
X163898926Y-91459203D01*
X163919750Y-91464419D01*
X163939962Y-91471651D01*
X163959368Y-91480830D01*
X163977781Y-91491866D01*
X163995024Y-91504654D01*
X164010930Y-91519070D01*
X164025346Y-91534976D01*
X164038134Y-91552219D01*
X164049170Y-91570632D01*
X164058349Y-91590038D01*
X164065581Y-91610250D01*
X164070797Y-91631074D01*
X164073947Y-91652309D01*
X164075000Y-91673750D01*
X164075000Y-92186250D01*
X164073947Y-92207691D01*
X164070797Y-92228926D01*
X164065581Y-92249750D01*
X164058349Y-92269962D01*
X164049170Y-92289368D01*
X164038134Y-92307781D01*
X164025346Y-92325024D01*
X164010930Y-92340930D01*
X163995024Y-92355346D01*
X163977781Y-92368134D01*
X163959368Y-92379170D01*
X163939962Y-92388349D01*
X163919750Y-92395581D01*
X163898926Y-92400797D01*
X163877691Y-92403947D01*
X163856250Y-92405000D01*
X163418750Y-92405000D01*
X163397309Y-92403947D01*
X163376074Y-92400797D01*
X163355250Y-92395581D01*
X163335038Y-92388349D01*
X163315632Y-92379170D01*
X163297219Y-92368134D01*
X163279976Y-92355346D01*
X163264070Y-92340930D01*
X163249654Y-92325024D01*
X163236866Y-92307781D01*
X163225830Y-92289368D01*
X163216651Y-92269962D01*
X163209419Y-92249750D01*
X163204203Y-92228926D01*
X163201053Y-92207691D01*
X163200000Y-92186250D01*
X163200000Y-91673750D01*
X163201053Y-91652309D01*
X163204203Y-91631074D01*
X163209419Y-91610250D01*
X163216651Y-91590038D01*
X163225830Y-91570632D01*
X163236866Y-91552219D01*
X163249654Y-91534976D01*
X163264070Y-91519070D01*
X163279976Y-91504654D01*
X163297219Y-91491866D01*
X163315632Y-91480830D01*
X163335038Y-91471651D01*
X163355250Y-91464419D01*
X163376074Y-91459203D01*
X163397309Y-91456053D01*
X163418750Y-91455000D01*
X163856250Y-91455000D01*
X163877691Y-91456053D01*
G37*
G04 #@! TD.AperFunction*
G04 #@! TA.AperFunction,SMDPad,CuDef*
G36*
X162302691Y-91456053D02*
G01*
X162323926Y-91459203D01*
X162344750Y-91464419D01*
X162364962Y-91471651D01*
X162384368Y-91480830D01*
X162402781Y-91491866D01*
X162420024Y-91504654D01*
X162435930Y-91519070D01*
X162450346Y-91534976D01*
X162463134Y-91552219D01*
X162474170Y-91570632D01*
X162483349Y-91590038D01*
X162490581Y-91610250D01*
X162495797Y-91631074D01*
X162498947Y-91652309D01*
X162500000Y-91673750D01*
X162500000Y-92186250D01*
X162498947Y-92207691D01*
X162495797Y-92228926D01*
X162490581Y-92249750D01*
X162483349Y-92269962D01*
X162474170Y-92289368D01*
X162463134Y-92307781D01*
X162450346Y-92325024D01*
X162435930Y-92340930D01*
X162420024Y-92355346D01*
X162402781Y-92368134D01*
X162384368Y-92379170D01*
X162364962Y-92388349D01*
X162344750Y-92395581D01*
X162323926Y-92400797D01*
X162302691Y-92403947D01*
X162281250Y-92405000D01*
X161843750Y-92405000D01*
X161822309Y-92403947D01*
X161801074Y-92400797D01*
X161780250Y-92395581D01*
X161760038Y-92388349D01*
X161740632Y-92379170D01*
X161722219Y-92368134D01*
X161704976Y-92355346D01*
X161689070Y-92340930D01*
X161674654Y-92325024D01*
X161661866Y-92307781D01*
X161650830Y-92289368D01*
X161641651Y-92269962D01*
X161634419Y-92249750D01*
X161629203Y-92228926D01*
X161626053Y-92207691D01*
X161625000Y-92186250D01*
X161625000Y-91673750D01*
X161626053Y-91652309D01*
X161629203Y-91631074D01*
X161634419Y-91610250D01*
X161641651Y-91590038D01*
X161650830Y-91570632D01*
X161661866Y-91552219D01*
X161674654Y-91534976D01*
X161689070Y-91519070D01*
X161704976Y-91504654D01*
X161722219Y-91491866D01*
X161740632Y-91480830D01*
X161760038Y-91471651D01*
X161780250Y-91464419D01*
X161801074Y-91459203D01*
X161822309Y-91456053D01*
X161843750Y-91455000D01*
X162281250Y-91455000D01*
X162302691Y-91456053D01*
G37*
G04 #@! TD.AperFunction*
D12*
X180190000Y-98000000D03*
X177650000Y-98000000D03*
X175110000Y-98000000D03*
X172570000Y-98000000D03*
X170030000Y-98000000D03*
D13*
X167490000Y-98000000D03*
D12*
X182920000Y-81970000D03*
X180380000Y-81970000D03*
X177840000Y-81970000D03*
X175300000Y-81970000D03*
X172760000Y-81970000D03*
D13*
X170220000Y-81970000D03*
D12*
X171840000Y-92350000D03*
X171840000Y-89810000D03*
D13*
X171840000Y-87270000D03*
D12*
X179470000Y-87270000D03*
X179470000Y-89810000D03*
D13*
X179470000Y-92350000D03*
D12*
X186530000Y-81690000D03*
X186530000Y-84230000D03*
X186530000Y-86770000D03*
X186530000Y-89310000D03*
D13*
X186530000Y-91850000D03*
D12*
X166340000Y-92340000D03*
X166340000Y-89800000D03*
D13*
X166340000Y-87260000D03*
D12*
X158890000Y-82020000D03*
X161430000Y-82020000D03*
X163970000Y-82020000D03*
D13*
X166510000Y-82020000D03*
D12*
X153190000Y-98050000D03*
X155730000Y-98050000D03*
X158270000Y-98050000D03*
D13*
X160810000Y-98050000D03*
D14*
X160480000Y-93670000D03*
X160490000Y-91970000D03*
X160010000Y-88570000D03*
X157860000Y-87900000D03*
X183880000Y-88470000D03*
X170020000Y-91120000D03*
X178930000Y-96420000D03*
X177740000Y-94140000D03*
X162680000Y-87650000D03*
X176200000Y-88290000D03*
X180640000Y-88600000D03*
X154530000Y-96480000D03*
X176560000Y-83350000D03*
X173080000Y-85320000D03*
X177880000Y-85360000D03*
X151480000Y-87030000D03*
X151440000Y-92350000D03*
X183860000Y-85470000D03*
X171110000Y-83720000D03*
X159430000Y-83690000D03*
X162750000Y-83680000D03*
X161010000Y-87370000D03*
X175360000Y-95070000D03*
X170560000Y-95070000D03*
X175830000Y-86130000D03*
X184760000Y-82990000D03*
D15*
X162062500Y-95410000D02*
X162072500Y-95420000D01*
X162062500Y-93690000D02*
X162062500Y-95410000D01*
X160470000Y-93490000D02*
X160470000Y-93490000D01*
X161862500Y-93490000D02*
X162062500Y-93690000D01*
X162042500Y-93670000D02*
X162062500Y-93690000D01*
X160480000Y-93670000D02*
X162042500Y-93670000D01*
X162062500Y-90190000D02*
X162062500Y-91930000D01*
X160510000Y-91740000D02*
X160510000Y-91740000D01*
X162022500Y-91970000D02*
X162062500Y-91930000D01*
X160490000Y-91970000D02*
X162022500Y-91970000D01*
X161860000Y-86527500D02*
X161880000Y-86507500D01*
X160120000Y-86527500D02*
X161860000Y-86527500D01*
X158270000Y-96847919D02*
X158270000Y-98050000D01*
X158270000Y-88815000D02*
X158270000Y-96847919D01*
X160120000Y-86965000D02*
X158270000Y-88815000D01*
X160120000Y-86527500D02*
X160120000Y-86965000D01*
X159050000Y-94670000D02*
X160810000Y-96430000D01*
X159050000Y-89530000D02*
X159050000Y-94670000D01*
X160010000Y-88570000D02*
X160010000Y-88570000D01*
X163010000Y-88570000D02*
X160010000Y-88570000D01*
X163620000Y-87960000D02*
X163010000Y-88570000D01*
X160810000Y-96430000D02*
X160810000Y-98050000D01*
X163620000Y-86507500D02*
X163620000Y-87960000D01*
X160010000Y-88570000D02*
X159050000Y-89530000D01*
X157860000Y-87047500D02*
X158380000Y-86527500D01*
X157860000Y-87900000D02*
X157860000Y-87047500D01*
X158380000Y-82530000D02*
X158890000Y-82020000D01*
X158377500Y-84950000D02*
X158380000Y-84952500D01*
X158380000Y-84952500D02*
X158380000Y-82530000D01*
X160120000Y-84952500D02*
X158380000Y-84952500D01*
X161880000Y-84932500D02*
X163620000Y-84932500D01*
X163620000Y-83572081D02*
X163620000Y-84932500D01*
X163970000Y-83222081D02*
X163620000Y-83572081D01*
X163970000Y-82020000D02*
X163970000Y-83222081D01*
X171840000Y-89810000D02*
X174862500Y-89810000D01*
X174862500Y-89810000D02*
X174862500Y-85627500D01*
X176260000Y-84230000D02*
X186530000Y-84230000D01*
X174862500Y-85627500D02*
X176260000Y-84230000D01*
X170030000Y-98000000D02*
X170030000Y-95910000D01*
X170030000Y-95910000D02*
X168900000Y-94780000D01*
X168900000Y-94780000D02*
X168900000Y-90830000D01*
X169920000Y-89810000D02*
X171840000Y-89810000D01*
X168900000Y-90830000D02*
X169920000Y-89810000D01*
X163630000Y-93682500D02*
X163637500Y-93690000D01*
X171840000Y-89810000D02*
X170000000Y-89810000D01*
X163637500Y-91930000D02*
X163637500Y-93690000D01*
X165870000Y-94780000D02*
X168900000Y-94780000D01*
X164780000Y-93690000D02*
X165870000Y-94780000D01*
X163637500Y-93690000D02*
X164780000Y-93690000D01*
X175360000Y-95070000D02*
X172500000Y-95070000D01*
X179970000Y-86770000D02*
X179470000Y-87270000D01*
X180672081Y-87270000D02*
X181430000Y-88027919D01*
X179470000Y-87270000D02*
X180672081Y-87270000D01*
X182687919Y-86770000D02*
X186530000Y-86770000D01*
X181430000Y-88027919D02*
X182687919Y-86770000D01*
X172500000Y-95070000D02*
X170560000Y-95070000D01*
X178620001Y-86420001D02*
X176120001Y-86420001D01*
X179470000Y-87270000D02*
X178620001Y-86420001D01*
X176120001Y-86420001D02*
X175830000Y-86130000D01*
X175830000Y-86130000D02*
X175830000Y-86130000D01*
X179440000Y-95360000D02*
X181430000Y-93370000D01*
X181430000Y-93370000D02*
X181430000Y-88027919D01*
X178160000Y-95360000D02*
X179440000Y-95360000D01*
X177650000Y-95870000D02*
X178160000Y-95360000D01*
X177650000Y-98000000D02*
X177650000Y-95870000D01*
X177840000Y-81970000D02*
X179470000Y-83600000D01*
X179470000Y-83600000D02*
X184150000Y-83600000D01*
X184150000Y-83600000D02*
X184760000Y-82990000D01*
X184760000Y-82990000D02*
X184760000Y-82990000D01*
X171830000Y-87260000D02*
X171840000Y-87270000D01*
X166340000Y-87260000D02*
X171830000Y-87260000D01*
X180190000Y-96300000D02*
X180190000Y-98000000D01*
X183960000Y-90450000D02*
X183960000Y-92530000D01*
X183960000Y-92530000D02*
X180190000Y-96300000D01*
X185100000Y-89310000D02*
X183960000Y-90450000D01*
X186530000Y-89310000D02*
X185100000Y-89310000D01*
X176437500Y-89810000D02*
X176437500Y-92360000D01*
X176437500Y-96672500D02*
X175110000Y-98000000D01*
X176437500Y-92360000D02*
X176437500Y-96672500D01*
X179460000Y-92360000D02*
X179470000Y-92350000D01*
X176437500Y-92360000D02*
X179460000Y-92360000D01*
D16*
G36*
X185648645Y-80494822D02*
G01*
X185432412Y-80689731D01*
X185258359Y-80923080D01*
X185133175Y-81185901D01*
X185088524Y-81333110D01*
X185209845Y-81563000D01*
X186403000Y-81563000D01*
X186403000Y-81543000D01*
X186657000Y-81543000D01*
X186657000Y-81563000D01*
X186677000Y-81563000D01*
X186677000Y-81817000D01*
X186657000Y-81817000D01*
X186657000Y-81837000D01*
X186403000Y-81837000D01*
X186403000Y-81817000D01*
X185209845Y-81817000D01*
X185088524Y-82046890D01*
X185133175Y-82194099D01*
X185207197Y-82349507D01*
X185129942Y-82297887D01*
X184987809Y-82239013D01*
X184836922Y-82209000D01*
X184683078Y-82209000D01*
X184532191Y-82239013D01*
X184390058Y-82297887D01*
X184262141Y-82383358D01*
X184153358Y-82492141D01*
X184067887Y-82620058D01*
X184009013Y-82762191D01*
X183979000Y-82913078D01*
X183979000Y-83055409D01*
X183940409Y-83094000D01*
X183423181Y-83094000D01*
X183503097Y-83060898D01*
X183704717Y-82926180D01*
X183876180Y-82754717D01*
X184010898Y-82553097D01*
X184103693Y-82329069D01*
X184151000Y-82091243D01*
X184151000Y-81848757D01*
X184103693Y-81610931D01*
X184010898Y-81386903D01*
X183876180Y-81185283D01*
X183704717Y-81013820D01*
X183503097Y-80879102D01*
X183279069Y-80786307D01*
X183041243Y-80739000D01*
X182798757Y-80739000D01*
X182560931Y-80786307D01*
X182336903Y-80879102D01*
X182135283Y-81013820D01*
X181963820Y-81185283D01*
X181829102Y-81386903D01*
X181736307Y-81610931D01*
X181689000Y-81848757D01*
X181689000Y-82091243D01*
X181736307Y-82329069D01*
X181829102Y-82553097D01*
X181963820Y-82754717D01*
X182135283Y-82926180D01*
X182336903Y-83060898D01*
X182416819Y-83094000D01*
X180883181Y-83094000D01*
X180963097Y-83060898D01*
X181164717Y-82926180D01*
X181336180Y-82754717D01*
X181470898Y-82553097D01*
X181563693Y-82329069D01*
X181611000Y-82091243D01*
X181611000Y-81848757D01*
X181563693Y-81610931D01*
X181470898Y-81386903D01*
X181336180Y-81185283D01*
X181164717Y-81013820D01*
X180963097Y-80879102D01*
X180739069Y-80786307D01*
X180501243Y-80739000D01*
X180258757Y-80739000D01*
X180020931Y-80786307D01*
X179796903Y-80879102D01*
X179595283Y-81013820D01*
X179423820Y-81185283D01*
X179289102Y-81386903D01*
X179196307Y-81610931D01*
X179149000Y-81848757D01*
X179149000Y-82091243D01*
X179196307Y-82329069D01*
X179289102Y-82553097D01*
X179423820Y-82754717D01*
X179595283Y-82926180D01*
X179796903Y-83060898D01*
X179876819Y-83094000D01*
X179679592Y-83094000D01*
X178991758Y-82406167D01*
X179023693Y-82329069D01*
X179071000Y-82091243D01*
X179071000Y-81848757D01*
X179023693Y-81610931D01*
X178930898Y-81386903D01*
X178796180Y-81185283D01*
X178624717Y-81013820D01*
X178423097Y-80879102D01*
X178199069Y-80786307D01*
X177961243Y-80739000D01*
X177718757Y-80739000D01*
X177480931Y-80786307D01*
X177256903Y-80879102D01*
X177055283Y-81013820D01*
X176883820Y-81185283D01*
X176749102Y-81386903D01*
X176656307Y-81610931D01*
X176609000Y-81848757D01*
X176609000Y-82091243D01*
X176656307Y-82329069D01*
X176749102Y-82553097D01*
X176883820Y-82754717D01*
X177055283Y-82926180D01*
X177256903Y-83060898D01*
X177480931Y-83153693D01*
X177718757Y-83201000D01*
X177961243Y-83201000D01*
X178199069Y-83153693D01*
X178276167Y-83121758D01*
X178878408Y-83724000D01*
X176284845Y-83724000D01*
X176259999Y-83721553D01*
X176235153Y-83724000D01*
X176235146Y-83724000D01*
X176170694Y-83730348D01*
X176160806Y-83731322D01*
X176138607Y-83738056D01*
X176065425Y-83760255D01*
X175977521Y-83807241D01*
X175900473Y-83870473D01*
X175884628Y-83889780D01*
X174522280Y-85252128D01*
X174502974Y-85267973D01*
X174439742Y-85345021D01*
X174414627Y-85392008D01*
X174392755Y-85432926D01*
X174363822Y-85528308D01*
X174354053Y-85627500D01*
X174356501Y-85652356D01*
X174356500Y-89028434D01*
X174309523Y-89053544D01*
X174218360Y-89128360D01*
X174143544Y-89219523D01*
X174098390Y-89304000D01*
X172962832Y-89304000D01*
X172930898Y-89226903D01*
X172796180Y-89025283D01*
X172624717Y-88853820D01*
X172423097Y-88719102D01*
X172199069Y-88626307D01*
X171961243Y-88579000D01*
X171718757Y-88579000D01*
X171480931Y-88626307D01*
X171256903Y-88719102D01*
X171055283Y-88853820D01*
X170883820Y-89025283D01*
X170749102Y-89226903D01*
X170717168Y-89304000D01*
X169944854Y-89304000D01*
X169920000Y-89301552D01*
X169895146Y-89304000D01*
X169820807Y-89311322D01*
X169725425Y-89340255D01*
X169637521Y-89387241D01*
X169560473Y-89450473D01*
X169544628Y-89469780D01*
X168559780Y-90454629D01*
X168540474Y-90470473D01*
X168477242Y-90547521D01*
X168476349Y-90549192D01*
X168430255Y-90635426D01*
X168401322Y-90730808D01*
X168391553Y-90830000D01*
X168394001Y-90854856D01*
X168394000Y-94274000D01*
X166079592Y-94274000D01*
X165155376Y-93349785D01*
X165139527Y-93330473D01*
X165062479Y-93267241D01*
X164974575Y-93220255D01*
X164879193Y-93191322D01*
X164804854Y-93184000D01*
X164804846Y-93184000D01*
X164780000Y-93181553D01*
X164755154Y-93184000D01*
X164401610Y-93184000D01*
X164356456Y-93099523D01*
X164281640Y-93008360D01*
X164190477Y-92933544D01*
X164143500Y-92908434D01*
X164143500Y-92711566D01*
X164190477Y-92686456D01*
X164281640Y-92611640D01*
X164356456Y-92520477D01*
X164412049Y-92416470D01*
X164446284Y-92303615D01*
X164454641Y-92218757D01*
X165109000Y-92218757D01*
X165109000Y-92461243D01*
X165156307Y-92699069D01*
X165249102Y-92923097D01*
X165383820Y-93124717D01*
X165555283Y-93296180D01*
X165756903Y-93430898D01*
X165980931Y-93523693D01*
X166218757Y-93571000D01*
X166461243Y-93571000D01*
X166699069Y-93523693D01*
X166923097Y-93430898D01*
X167124717Y-93296180D01*
X167296180Y-93124717D01*
X167430898Y-92923097D01*
X167523693Y-92699069D01*
X167571000Y-92461243D01*
X167571000Y-92218757D01*
X167523693Y-91980931D01*
X167430898Y-91756903D01*
X167296180Y-91555283D01*
X167124717Y-91383820D01*
X166923097Y-91249102D01*
X166699069Y-91156307D01*
X166461243Y-91109000D01*
X166218757Y-91109000D01*
X165980931Y-91156307D01*
X165756903Y-91249102D01*
X165555283Y-91383820D01*
X165383820Y-91555283D01*
X165249102Y-91756903D01*
X165156307Y-91980931D01*
X165109000Y-92218757D01*
X164454641Y-92218757D01*
X164457843Y-92186250D01*
X164457843Y-91673750D01*
X164446284Y-91556385D01*
X164412049Y-91443530D01*
X164356456Y-91339523D01*
X164293159Y-91262395D01*
X164319180Y-91254502D01*
X164429494Y-91195537D01*
X164526185Y-91116185D01*
X164605537Y-91019494D01*
X164664502Y-90909180D01*
X164700812Y-90789482D01*
X164713072Y-90665000D01*
X164710000Y-90475750D01*
X164551250Y-90317000D01*
X163764500Y-90317000D01*
X163764500Y-90337000D01*
X163510500Y-90337000D01*
X163510500Y-90317000D01*
X163490500Y-90317000D01*
X163490500Y-90063000D01*
X163510500Y-90063000D01*
X163510500Y-89238750D01*
X163764500Y-89238750D01*
X163764500Y-90063000D01*
X164551250Y-90063000D01*
X164710000Y-89904250D01*
X164713072Y-89715000D01*
X164709503Y-89678757D01*
X165109000Y-89678757D01*
X165109000Y-89921243D01*
X165156307Y-90159069D01*
X165249102Y-90383097D01*
X165383820Y-90584717D01*
X165555283Y-90756180D01*
X165756903Y-90890898D01*
X165980931Y-90983693D01*
X166218757Y-91031000D01*
X166461243Y-91031000D01*
X166699069Y-90983693D01*
X166923097Y-90890898D01*
X167124717Y-90756180D01*
X167296180Y-90584717D01*
X167430898Y-90383097D01*
X167523693Y-90159069D01*
X167571000Y-89921243D01*
X167571000Y-89678757D01*
X167523693Y-89440931D01*
X167430898Y-89216903D01*
X167296180Y-89015283D01*
X167124717Y-88843820D01*
X166923097Y-88709102D01*
X166699069Y-88616307D01*
X166461243Y-88569000D01*
X166218757Y-88569000D01*
X165980931Y-88616307D01*
X165756903Y-88709102D01*
X165555283Y-88843820D01*
X165383820Y-89015283D01*
X165249102Y-89216903D01*
X165156307Y-89440931D01*
X165109000Y-89678757D01*
X164709503Y-89678757D01*
X164700812Y-89590518D01*
X164664502Y-89470820D01*
X164605537Y-89360506D01*
X164526185Y-89263815D01*
X164429494Y-89184463D01*
X164319180Y-89125498D01*
X164199482Y-89089188D01*
X164075000Y-89076928D01*
X163923250Y-89080000D01*
X163764500Y-89238750D01*
X163510500Y-89238750D01*
X163351750Y-89080000D01*
X163200000Y-89076928D01*
X163075518Y-89089188D01*
X162955820Y-89125498D01*
X162845506Y-89184463D01*
X162748815Y-89263815D01*
X162669463Y-89360506D01*
X162625866Y-89442070D01*
X162615477Y-89433544D01*
X162511470Y-89377951D01*
X162398615Y-89343716D01*
X162281250Y-89332157D01*
X161843750Y-89332157D01*
X161726385Y-89343716D01*
X161613530Y-89377951D01*
X161509523Y-89433544D01*
X161418360Y-89508360D01*
X161343544Y-89599523D01*
X161287951Y-89703530D01*
X161253716Y-89816385D01*
X161242157Y-89933750D01*
X161242157Y-90446250D01*
X161253716Y-90563615D01*
X161287951Y-90676470D01*
X161343544Y-90780477D01*
X161418360Y-90871640D01*
X161509523Y-90946456D01*
X161556500Y-90971566D01*
X161556501Y-91148434D01*
X161509523Y-91173544D01*
X161418360Y-91248360D01*
X161343544Y-91339523D01*
X161287951Y-91443530D01*
X161281741Y-91464000D01*
X161088501Y-91464000D01*
X160987859Y-91363358D01*
X160859942Y-91277887D01*
X160717809Y-91219013D01*
X160566922Y-91189000D01*
X160413078Y-91189000D01*
X160262191Y-91219013D01*
X160120058Y-91277887D01*
X159992141Y-91363358D01*
X159883358Y-91472141D01*
X159797887Y-91600058D01*
X159739013Y-91742191D01*
X159709000Y-91893078D01*
X159709000Y-92046922D01*
X159739013Y-92197809D01*
X159797887Y-92339942D01*
X159883358Y-92467859D01*
X159992141Y-92576642D01*
X160120058Y-92662113D01*
X160262191Y-92720987D01*
X160413078Y-92751000D01*
X160566922Y-92751000D01*
X160717809Y-92720987D01*
X160859942Y-92662113D01*
X160987859Y-92576642D01*
X161088501Y-92476000D01*
X161319771Y-92476000D01*
X161343544Y-92520477D01*
X161418360Y-92611640D01*
X161509523Y-92686456D01*
X161613530Y-92742049D01*
X161726385Y-92776284D01*
X161843750Y-92787843D01*
X162281250Y-92787843D01*
X162398615Y-92776284D01*
X162511470Y-92742049D01*
X162615477Y-92686456D01*
X162706640Y-92611640D01*
X162781456Y-92520477D01*
X162837049Y-92416470D01*
X162850000Y-92373777D01*
X162862951Y-92416470D01*
X162918544Y-92520477D01*
X162993360Y-92611640D01*
X163084523Y-92686456D01*
X163131500Y-92711566D01*
X163131501Y-92908434D01*
X163084523Y-92933544D01*
X162993360Y-93008360D01*
X162918544Y-93099523D01*
X162862951Y-93203530D01*
X162850000Y-93246223D01*
X162837049Y-93203530D01*
X162781456Y-93099523D01*
X162706640Y-93008360D01*
X162615477Y-92933544D01*
X162511470Y-92877951D01*
X162398615Y-92843716D01*
X162281250Y-92832157D01*
X161843750Y-92832157D01*
X161726385Y-92843716D01*
X161613530Y-92877951D01*
X161509523Y-92933544D01*
X161418360Y-93008360D01*
X161343544Y-93099523D01*
X161309080Y-93164000D01*
X161078501Y-93164000D01*
X160977859Y-93063358D01*
X160849942Y-92977887D01*
X160707809Y-92919013D01*
X160556922Y-92889000D01*
X160403078Y-92889000D01*
X160252191Y-92919013D01*
X160110058Y-92977887D01*
X159982141Y-93063358D01*
X159873358Y-93172141D01*
X159787887Y-93300058D01*
X159729013Y-93442191D01*
X159699000Y-93593078D01*
X159699000Y-93746922D01*
X159729013Y-93897809D01*
X159787887Y-94039942D01*
X159873358Y-94167859D01*
X159982141Y-94276642D01*
X160110058Y-94362113D01*
X160252191Y-94420987D01*
X160403078Y-94451000D01*
X160556922Y-94451000D01*
X160707809Y-94420987D01*
X160849942Y-94362113D01*
X160977859Y-94276642D01*
X161078501Y-94176000D01*
X161287808Y-94176000D01*
X161287951Y-94176470D01*
X161343544Y-94280477D01*
X161418360Y-94371640D01*
X161509523Y-94446456D01*
X161556500Y-94471566D01*
X161556501Y-94643779D01*
X161519523Y-94663544D01*
X161428360Y-94738360D01*
X161353544Y-94829523D01*
X161297951Y-94933530D01*
X161263716Y-95046385D01*
X161252157Y-95163750D01*
X161252157Y-95676250D01*
X161263716Y-95793615D01*
X161297951Y-95906470D01*
X161353544Y-96010477D01*
X161428360Y-96101640D01*
X161519523Y-96176456D01*
X161623530Y-96232049D01*
X161736385Y-96266284D01*
X161853750Y-96277843D01*
X162291250Y-96277843D01*
X162408615Y-96266284D01*
X162521470Y-96232049D01*
X162625477Y-96176456D01*
X162635866Y-96167930D01*
X162679463Y-96249494D01*
X162758815Y-96346185D01*
X162855506Y-96425537D01*
X162965820Y-96484502D01*
X163085518Y-96520812D01*
X163210000Y-96533072D01*
X163361750Y-96530000D01*
X163520500Y-96371250D01*
X163520500Y-95547000D01*
X163774500Y-95547000D01*
X163774500Y-96371250D01*
X163933250Y-96530000D01*
X164085000Y-96533072D01*
X164209482Y-96520812D01*
X164329180Y-96484502D01*
X164439494Y-96425537D01*
X164536185Y-96346185D01*
X164615537Y-96249494D01*
X164674502Y-96139180D01*
X164710812Y-96019482D01*
X164723072Y-95895000D01*
X164720000Y-95705750D01*
X164561250Y-95547000D01*
X163774500Y-95547000D01*
X163520500Y-95547000D01*
X163500500Y-95547000D01*
X163500500Y-95293000D01*
X163520500Y-95293000D01*
X163520500Y-95273000D01*
X163774500Y-95273000D01*
X163774500Y-95293000D01*
X164561250Y-95293000D01*
X164720000Y-95134250D01*
X164723072Y-94945000D01*
X164710812Y-94820518D01*
X164674502Y-94700820D01*
X164615537Y-94590506D01*
X164536185Y-94493815D01*
X164439494Y-94414463D01*
X164329180Y-94355498D01*
X164301723Y-94347169D01*
X164356456Y-94280477D01*
X164401610Y-94196000D01*
X164570409Y-94196000D01*
X165494628Y-95120220D01*
X165510473Y-95139527D01*
X165587521Y-95202759D01*
X165675425Y-95249745D01*
X165770807Y-95278678D01*
X165870000Y-95288448D01*
X165894854Y-95286000D01*
X168690409Y-95286000D01*
X169524001Y-96119593D01*
X169524001Y-96877167D01*
X169446903Y-96909102D01*
X169245283Y-97043820D01*
X169073820Y-97215283D01*
X168976927Y-97360294D01*
X168978072Y-97150000D01*
X168965812Y-97025518D01*
X168929502Y-96905820D01*
X168870537Y-96795506D01*
X168791185Y-96698815D01*
X168694494Y-96619463D01*
X168584180Y-96560498D01*
X168464482Y-96524188D01*
X168340000Y-96511928D01*
X167775750Y-96515000D01*
X167617000Y-96673750D01*
X167617000Y-97873000D01*
X167637000Y-97873000D01*
X167637000Y-98127000D01*
X167617000Y-98127000D01*
X167617000Y-99326250D01*
X167775750Y-99485000D01*
X168340000Y-99488072D01*
X168464482Y-99475812D01*
X168584180Y-99439502D01*
X168694494Y-99380537D01*
X168791185Y-99301185D01*
X168870537Y-99204494D01*
X168929502Y-99094180D01*
X168965812Y-98974482D01*
X168978072Y-98850000D01*
X168976927Y-98639706D01*
X169073820Y-98784717D01*
X169245283Y-98956180D01*
X169446903Y-99090898D01*
X169670931Y-99183693D01*
X169908757Y-99231000D01*
X170151243Y-99231000D01*
X170389069Y-99183693D01*
X170613097Y-99090898D01*
X170814717Y-98956180D01*
X170986180Y-98784717D01*
X171120898Y-98583097D01*
X171213693Y-98359069D01*
X171261000Y-98121243D01*
X171261000Y-97878757D01*
X171339000Y-97878757D01*
X171339000Y-98121243D01*
X171386307Y-98359069D01*
X171479102Y-98583097D01*
X171613820Y-98784717D01*
X171785283Y-98956180D01*
X171986903Y-99090898D01*
X172210931Y-99183693D01*
X172448757Y-99231000D01*
X172691243Y-99231000D01*
X172929069Y-99183693D01*
X173153097Y-99090898D01*
X173354717Y-98956180D01*
X173526180Y-98784717D01*
X173660898Y-98583097D01*
X173753693Y-98359069D01*
X173801000Y-98121243D01*
X173801000Y-97878757D01*
X173753693Y-97640931D01*
X173660898Y-97416903D01*
X173526180Y-97215283D01*
X173354717Y-97043820D01*
X173153097Y-96909102D01*
X172929069Y-96816307D01*
X172691243Y-96769000D01*
X172448757Y-96769000D01*
X172210931Y-96816307D01*
X171986903Y-96909102D01*
X171785283Y-97043820D01*
X171613820Y-97215283D01*
X171479102Y-97416903D01*
X171386307Y-97640931D01*
X171339000Y-97878757D01*
X171261000Y-97878757D01*
X171213693Y-97640931D01*
X171120898Y-97416903D01*
X170986180Y-97215283D01*
X170814717Y-97043820D01*
X170613097Y-96909102D01*
X170536000Y-96877168D01*
X170536000Y-95934845D01*
X170538447Y-95909999D01*
X170536000Y-95885153D01*
X170536000Y-95885146D01*
X170532637Y-95851000D01*
X170636922Y-95851000D01*
X170787809Y-95820987D01*
X170929942Y-95762113D01*
X171057859Y-95676642D01*
X171158501Y-95576000D01*
X174761499Y-95576000D01*
X174862141Y-95676642D01*
X174990058Y-95762113D01*
X175132191Y-95820987D01*
X175283078Y-95851000D01*
X175436922Y-95851000D01*
X175587809Y-95820987D01*
X175729942Y-95762113D01*
X175857859Y-95676642D01*
X175931501Y-95603000D01*
X175931501Y-96462907D01*
X175546167Y-96848242D01*
X175469069Y-96816307D01*
X175231243Y-96769000D01*
X174988757Y-96769000D01*
X174750931Y-96816307D01*
X174526903Y-96909102D01*
X174325283Y-97043820D01*
X174153820Y-97215283D01*
X174019102Y-97416903D01*
X173926307Y-97640931D01*
X173879000Y-97878757D01*
X173879000Y-98121243D01*
X173926307Y-98359069D01*
X174019102Y-98583097D01*
X174153820Y-98784717D01*
X174325283Y-98956180D01*
X174526903Y-99090898D01*
X174750931Y-99183693D01*
X174988757Y-99231000D01*
X175231243Y-99231000D01*
X175469069Y-99183693D01*
X175693097Y-99090898D01*
X175894717Y-98956180D01*
X176066180Y-98784717D01*
X176200898Y-98583097D01*
X176293693Y-98359069D01*
X176341000Y-98121243D01*
X176341000Y-97878757D01*
X176293693Y-97640931D01*
X176261758Y-97563833D01*
X176777720Y-97047872D01*
X176797027Y-97032027D01*
X176860259Y-96954979D01*
X176907245Y-96867075D01*
X176936178Y-96771693D01*
X176943500Y-96697354D01*
X176945948Y-96672500D01*
X176943500Y-96647646D01*
X176943500Y-93141566D01*
X176990477Y-93116456D01*
X177081640Y-93041640D01*
X177156456Y-92950477D01*
X177201610Y-92866000D01*
X178237157Y-92866000D01*
X178237157Y-93200000D01*
X178244513Y-93274689D01*
X178266299Y-93346508D01*
X178301678Y-93412696D01*
X178349289Y-93470711D01*
X178407304Y-93518322D01*
X178473492Y-93553701D01*
X178545311Y-93575487D01*
X178620000Y-93582843D01*
X180320000Y-93582843D01*
X180394689Y-93575487D01*
X180466508Y-93553701D01*
X180532696Y-93518322D01*
X180590711Y-93470711D01*
X180638322Y-93412696D01*
X180673701Y-93346508D01*
X180695487Y-93274689D01*
X180702843Y-93200000D01*
X180702843Y-91500000D01*
X180695487Y-91425311D01*
X180673701Y-91353492D01*
X180638322Y-91287304D01*
X180590711Y-91229289D01*
X180532696Y-91181678D01*
X180466508Y-91146299D01*
X180394689Y-91124513D01*
X180320000Y-91117157D01*
X178620000Y-91117157D01*
X178545311Y-91124513D01*
X178473492Y-91146299D01*
X178407304Y-91181678D01*
X178349289Y-91229289D01*
X178301678Y-91287304D01*
X178266299Y-91353492D01*
X178244513Y-91425311D01*
X178237157Y-91500000D01*
X178237157Y-91854000D01*
X177201610Y-91854000D01*
X177156456Y-91769523D01*
X177081640Y-91678360D01*
X176990477Y-91603544D01*
X176943500Y-91578434D01*
X176943500Y-90591566D01*
X176990477Y-90566456D01*
X177081640Y-90491640D01*
X177156456Y-90400477D01*
X177212049Y-90296470D01*
X177246284Y-90183615D01*
X177257843Y-90066250D01*
X177257843Y-89688757D01*
X178239000Y-89688757D01*
X178239000Y-89931243D01*
X178286307Y-90169069D01*
X178379102Y-90393097D01*
X178513820Y-90594717D01*
X178685283Y-90766180D01*
X178886903Y-90900898D01*
X179110931Y-90993693D01*
X179348757Y-91041000D01*
X179591243Y-91041000D01*
X179829069Y-90993693D01*
X180053097Y-90900898D01*
X180254717Y-90766180D01*
X180426180Y-90594717D01*
X180560898Y-90393097D01*
X180653693Y-90169069D01*
X180701000Y-89931243D01*
X180701000Y-89688757D01*
X180653693Y-89450931D01*
X180560898Y-89226903D01*
X180426180Y-89025283D01*
X180254717Y-88853820D01*
X180053097Y-88719102D01*
X179829069Y-88626307D01*
X179591243Y-88579000D01*
X179348757Y-88579000D01*
X179110931Y-88626307D01*
X178886903Y-88719102D01*
X178685283Y-88853820D01*
X178513820Y-89025283D01*
X178379102Y-89226903D01*
X178286307Y-89450931D01*
X178239000Y-89688757D01*
X177257843Y-89688757D01*
X177257843Y-89553750D01*
X177246284Y-89436385D01*
X177212049Y-89323530D01*
X177156456Y-89219523D01*
X177081640Y-89128360D01*
X176990477Y-89053544D01*
X176886470Y-88997951D01*
X176773615Y-88963716D01*
X176656250Y-88952157D01*
X176218750Y-88952157D01*
X176101385Y-88963716D01*
X175988530Y-88997951D01*
X175884523Y-89053544D01*
X175793360Y-89128360D01*
X175718544Y-89219523D01*
X175662951Y-89323530D01*
X175650000Y-89366223D01*
X175637049Y-89323530D01*
X175581456Y-89219523D01*
X175506640Y-89128360D01*
X175415477Y-89053544D01*
X175368500Y-89028434D01*
X175368500Y-86760936D01*
X175460058Y-86822113D01*
X175602191Y-86880987D01*
X175753078Y-86911000D01*
X175906922Y-86911000D01*
X175960415Y-86900360D01*
X175993756Y-86910473D01*
X176020807Y-86918679D01*
X176030695Y-86919653D01*
X176095147Y-86926001D01*
X176095154Y-86926001D01*
X176120000Y-86928448D01*
X176144846Y-86926001D01*
X178283309Y-86926001D01*
X178239000Y-87148757D01*
X178239000Y-87391243D01*
X178286307Y-87629069D01*
X178379102Y-87853097D01*
X178513820Y-88054717D01*
X178685283Y-88226180D01*
X178886903Y-88360898D01*
X179110931Y-88453693D01*
X179348757Y-88501000D01*
X179591243Y-88501000D01*
X179829069Y-88453693D01*
X180053097Y-88360898D01*
X180254717Y-88226180D01*
X180426180Y-88054717D01*
X180552362Y-87865872D01*
X180924001Y-88237512D01*
X180924000Y-93160408D01*
X179230409Y-94854000D01*
X178184854Y-94854000D01*
X178160000Y-94851552D01*
X178135146Y-94854000D01*
X178060807Y-94861322D01*
X177965425Y-94890255D01*
X177877521Y-94937241D01*
X177800473Y-95000473D01*
X177784629Y-95019779D01*
X177309780Y-95494629D01*
X177290474Y-95510473D01*
X177227242Y-95587521D01*
X177212782Y-95614574D01*
X177180255Y-95675426D01*
X177151322Y-95770808D01*
X177141553Y-95870000D01*
X177144001Y-95894856D01*
X177144001Y-96877167D01*
X177066903Y-96909102D01*
X176865283Y-97043820D01*
X176693820Y-97215283D01*
X176559102Y-97416903D01*
X176466307Y-97640931D01*
X176419000Y-97878757D01*
X176419000Y-98121243D01*
X176466307Y-98359069D01*
X176559102Y-98583097D01*
X176693820Y-98784717D01*
X176865283Y-98956180D01*
X177066903Y-99090898D01*
X177290931Y-99183693D01*
X177528757Y-99231000D01*
X177771243Y-99231000D01*
X178009069Y-99183693D01*
X178233097Y-99090898D01*
X178434717Y-98956180D01*
X178606180Y-98784717D01*
X178740898Y-98583097D01*
X178833693Y-98359069D01*
X178881000Y-98121243D01*
X178881000Y-97878757D01*
X178959000Y-97878757D01*
X178959000Y-98121243D01*
X179006307Y-98359069D01*
X179099102Y-98583097D01*
X179233820Y-98784717D01*
X179405283Y-98956180D01*
X179606903Y-99090898D01*
X179830931Y-99183693D01*
X180068757Y-99231000D01*
X180311243Y-99231000D01*
X180549069Y-99183693D01*
X180773097Y-99090898D01*
X180974717Y-98956180D01*
X181146180Y-98784717D01*
X181280898Y-98583097D01*
X181354059Y-98406468D01*
X182693137Y-98406468D01*
X182951298Y-98809073D01*
X183470715Y-99084651D01*
X184033913Y-99253601D01*
X184619250Y-99309430D01*
X185204233Y-99249992D01*
X185766379Y-99077571D01*
X186268702Y-98809073D01*
X186526863Y-98406468D01*
X184610000Y-96489605D01*
X182693137Y-98406468D01*
X181354059Y-98406468D01*
X181373693Y-98359069D01*
X181421000Y-98121243D01*
X181421000Y-97878757D01*
X181373693Y-97640931D01*
X181280898Y-97416903D01*
X181146180Y-97215283D01*
X180974717Y-97043820D01*
X180773097Y-96909102D01*
X180696000Y-96877168D01*
X180696000Y-96509591D01*
X181749844Y-95455747D01*
X181666399Y-95733913D01*
X181610570Y-96319250D01*
X181670008Y-96904233D01*
X181842429Y-97466379D01*
X182110927Y-97968702D01*
X182513532Y-98226863D01*
X184430395Y-96310000D01*
X184789605Y-96310000D01*
X186706468Y-98226863D01*
X187109073Y-97968702D01*
X187384651Y-97449285D01*
X187553601Y-96886087D01*
X187609430Y-96300750D01*
X187549992Y-95715767D01*
X187377571Y-95153621D01*
X187109073Y-94651298D01*
X186706468Y-94393137D01*
X184789605Y-96310000D01*
X184430395Y-96310000D01*
X184416253Y-96295858D01*
X184595858Y-96116253D01*
X184610000Y-96130395D01*
X186526863Y-94213532D01*
X186268702Y-93810927D01*
X185749285Y-93535349D01*
X185186087Y-93366399D01*
X184600750Y-93310570D01*
X184015767Y-93370008D01*
X183755868Y-93449724D01*
X184300220Y-92905372D01*
X184319527Y-92889527D01*
X184382759Y-92812479D01*
X184429745Y-92724575D01*
X184458678Y-92629193D01*
X184466000Y-92554854D01*
X184466000Y-92554847D01*
X184468447Y-92530001D01*
X184466000Y-92505155D01*
X184466000Y-91000000D01*
X185297157Y-91000000D01*
X185297157Y-92700000D01*
X185304513Y-92774689D01*
X185326299Y-92846508D01*
X185361678Y-92912696D01*
X185409289Y-92970711D01*
X185467304Y-93018322D01*
X185533492Y-93053701D01*
X185605311Y-93075487D01*
X185680000Y-93082843D01*
X187380000Y-93082843D01*
X187454689Y-93075487D01*
X187526508Y-93053701D01*
X187592696Y-93018322D01*
X187650711Y-92970711D01*
X187698322Y-92912696D01*
X187733701Y-92846508D01*
X187755487Y-92774689D01*
X187762843Y-92700000D01*
X187762843Y-91000000D01*
X187755487Y-90925311D01*
X187733701Y-90853492D01*
X187698322Y-90787304D01*
X187650711Y-90729289D01*
X187592696Y-90681678D01*
X187526508Y-90646299D01*
X187454689Y-90624513D01*
X187380000Y-90617157D01*
X185680000Y-90617157D01*
X185605311Y-90624513D01*
X185533492Y-90646299D01*
X185467304Y-90681678D01*
X185409289Y-90729289D01*
X185361678Y-90787304D01*
X185326299Y-90853492D01*
X185304513Y-90925311D01*
X185297157Y-91000000D01*
X184466000Y-91000000D01*
X184466000Y-90659591D01*
X185309592Y-89816000D01*
X185407168Y-89816000D01*
X185439102Y-89893097D01*
X185573820Y-90094717D01*
X185745283Y-90266180D01*
X185946903Y-90400898D01*
X186170931Y-90493693D01*
X186408757Y-90541000D01*
X186651243Y-90541000D01*
X186889069Y-90493693D01*
X187113097Y-90400898D01*
X187314717Y-90266180D01*
X187486180Y-90094717D01*
X187620898Y-89893097D01*
X187713693Y-89669069D01*
X187761000Y-89431243D01*
X187761000Y-89188757D01*
X187713693Y-88950931D01*
X187620898Y-88726903D01*
X187486180Y-88525283D01*
X187314717Y-88353820D01*
X187113097Y-88219102D01*
X186889069Y-88126307D01*
X186651243Y-88079000D01*
X186408757Y-88079000D01*
X186170931Y-88126307D01*
X185946903Y-88219102D01*
X185745283Y-88353820D01*
X185573820Y-88525283D01*
X185439102Y-88726903D01*
X185407168Y-88804000D01*
X185124845Y-88804000D01*
X185099999Y-88801553D01*
X185075153Y-88804000D01*
X185075146Y-88804000D01*
X185010694Y-88810348D01*
X185000806Y-88811322D01*
X184978607Y-88818056D01*
X184905425Y-88840255D01*
X184817521Y-88887241D01*
X184740473Y-88950473D01*
X184724628Y-88969780D01*
X183619785Y-90074624D01*
X183600473Y-90090473D01*
X183537241Y-90167521D01*
X183490255Y-90255426D01*
X183461322Y-90350808D01*
X183454000Y-90425147D01*
X183454000Y-90425154D01*
X183451553Y-90450000D01*
X183454000Y-90474846D01*
X183454001Y-92320407D01*
X179849785Y-95924624D01*
X179830473Y-95940473D01*
X179767241Y-96017521D01*
X179720255Y-96105426D01*
X179691322Y-96200808D01*
X179684000Y-96275147D01*
X179684000Y-96275154D01*
X179681553Y-96300000D01*
X179684000Y-96324847D01*
X179684000Y-96877167D01*
X179606903Y-96909102D01*
X179405283Y-97043820D01*
X179233820Y-97215283D01*
X179099102Y-97416903D01*
X179006307Y-97640931D01*
X178959000Y-97878757D01*
X178881000Y-97878757D01*
X178833693Y-97640931D01*
X178740898Y-97416903D01*
X178606180Y-97215283D01*
X178434717Y-97043820D01*
X178233097Y-96909102D01*
X178156000Y-96877168D01*
X178156000Y-96079591D01*
X178369592Y-95866000D01*
X179415154Y-95866000D01*
X179440000Y-95868447D01*
X179464846Y-95866000D01*
X179464854Y-95866000D01*
X179539193Y-95858678D01*
X179634575Y-95829745D01*
X179722479Y-95782759D01*
X179799527Y-95719527D01*
X179815376Y-95700215D01*
X181770220Y-93745372D01*
X181789527Y-93729527D01*
X181852759Y-93652479D01*
X181899745Y-93564575D01*
X181928678Y-93469193D01*
X181936000Y-93394854D01*
X181936000Y-93394846D01*
X181938447Y-93370000D01*
X181936000Y-93345154D01*
X181936000Y-88237510D01*
X182897511Y-87276000D01*
X185407168Y-87276000D01*
X185439102Y-87353097D01*
X185573820Y-87554717D01*
X185745283Y-87726180D01*
X185946903Y-87860898D01*
X186170931Y-87953693D01*
X186408757Y-88001000D01*
X186651243Y-88001000D01*
X186889069Y-87953693D01*
X187113097Y-87860898D01*
X187314717Y-87726180D01*
X187486180Y-87554717D01*
X187620898Y-87353097D01*
X187713693Y-87129069D01*
X187761000Y-86891243D01*
X187761000Y-86648757D01*
X187713693Y-86410931D01*
X187620898Y-86186903D01*
X187486180Y-85985283D01*
X187314717Y-85813820D01*
X187113097Y-85679102D01*
X186889069Y-85586307D01*
X186651243Y-85539000D01*
X186408757Y-85539000D01*
X186170931Y-85586307D01*
X185946903Y-85679102D01*
X185745283Y-85813820D01*
X185573820Y-85985283D01*
X185439102Y-86186903D01*
X185407168Y-86264000D01*
X182712764Y-86264000D01*
X182687918Y-86261553D01*
X182663072Y-86264000D01*
X182663065Y-86264000D01*
X182598613Y-86270348D01*
X182588725Y-86271322D01*
X182531272Y-86288750D01*
X182493344Y-86300255D01*
X182405440Y-86347241D01*
X182328392Y-86410473D01*
X182312547Y-86429780D01*
X181430000Y-87312328D01*
X181047457Y-86929785D01*
X181031608Y-86910473D01*
X180954560Y-86847241D01*
X180866656Y-86800255D01*
X180771274Y-86771322D01*
X180696935Y-86764000D01*
X180696927Y-86764000D01*
X180672081Y-86761553D01*
X180647235Y-86764000D01*
X180592832Y-86764000D01*
X180560898Y-86686903D01*
X180426180Y-86485283D01*
X180254717Y-86313820D01*
X180053097Y-86179102D01*
X179829069Y-86086307D01*
X179591243Y-86039000D01*
X179348757Y-86039000D01*
X179110931Y-86086307D01*
X179033833Y-86118242D01*
X178995377Y-86079786D01*
X178979528Y-86060474D01*
X178902480Y-85997242D01*
X178814576Y-85950256D01*
X178719194Y-85921323D01*
X178644855Y-85914001D01*
X178644847Y-85914001D01*
X178620001Y-85911554D01*
X178595155Y-85914001D01*
X176583336Y-85914001D01*
X176580987Y-85902191D01*
X176522113Y-85760058D01*
X176436642Y-85632141D01*
X176327859Y-85523358D01*
X176199942Y-85437887D01*
X176057809Y-85379013D01*
X175906922Y-85349000D01*
X175856591Y-85349000D01*
X176469592Y-84736000D01*
X185407168Y-84736000D01*
X185439102Y-84813097D01*
X185573820Y-85014717D01*
X185745283Y-85186180D01*
X185946903Y-85320898D01*
X186170931Y-85413693D01*
X186408757Y-85461000D01*
X186651243Y-85461000D01*
X186889069Y-85413693D01*
X187113097Y-85320898D01*
X187314717Y-85186180D01*
X187486180Y-85014717D01*
X187620898Y-84813097D01*
X187713693Y-84589069D01*
X187761000Y-84351243D01*
X187761000Y-84108757D01*
X187713693Y-83870931D01*
X187620898Y-83646903D01*
X187486180Y-83445283D01*
X187314717Y-83273820D01*
X187113097Y-83139102D01*
X186998832Y-83091772D01*
X187161252Y-83034157D01*
X187411355Y-82885178D01*
X187627588Y-82690269D01*
X187801641Y-82456920D01*
X187926825Y-82194099D01*
X187971476Y-82046890D01*
X187850156Y-81817002D01*
X187994000Y-81817002D01*
X187994001Y-99614000D01*
X150706000Y-99614000D01*
X150706000Y-97928757D01*
X151959000Y-97928757D01*
X151959000Y-98171243D01*
X152006307Y-98409069D01*
X152099102Y-98633097D01*
X152233820Y-98834717D01*
X152405283Y-99006180D01*
X152606903Y-99140898D01*
X152830931Y-99233693D01*
X153068757Y-99281000D01*
X153311243Y-99281000D01*
X153549069Y-99233693D01*
X153773097Y-99140898D01*
X153974717Y-99006180D01*
X154146180Y-98834717D01*
X154280898Y-98633097D01*
X154373693Y-98409069D01*
X154421000Y-98171243D01*
X154421000Y-97928757D01*
X154499000Y-97928757D01*
X154499000Y-98171243D01*
X154546307Y-98409069D01*
X154639102Y-98633097D01*
X154773820Y-98834717D01*
X154945283Y-99006180D01*
X155146903Y-99140898D01*
X155370931Y-99233693D01*
X155608757Y-99281000D01*
X155851243Y-99281000D01*
X156089069Y-99233693D01*
X156313097Y-99140898D01*
X156514717Y-99006180D01*
X156686180Y-98834717D01*
X156820898Y-98633097D01*
X156913693Y-98409069D01*
X156961000Y-98171243D01*
X156961000Y-97928757D01*
X157039000Y-97928757D01*
X157039000Y-98171243D01*
X157086307Y-98409069D01*
X157179102Y-98633097D01*
X157313820Y-98834717D01*
X157485283Y-99006180D01*
X157686903Y-99140898D01*
X157910931Y-99233693D01*
X158148757Y-99281000D01*
X158391243Y-99281000D01*
X158629069Y-99233693D01*
X158853097Y-99140898D01*
X159054717Y-99006180D01*
X159226180Y-98834717D01*
X159360898Y-98633097D01*
X159453693Y-98409069D01*
X159501000Y-98171243D01*
X159501000Y-97928757D01*
X159453693Y-97690931D01*
X159360898Y-97466903D01*
X159226180Y-97265283D01*
X159054717Y-97093820D01*
X158853097Y-96959102D01*
X158776000Y-96927168D01*
X158776000Y-95111591D01*
X160304000Y-96639592D01*
X160304000Y-96817157D01*
X159960000Y-96817157D01*
X159885311Y-96824513D01*
X159813492Y-96846299D01*
X159747304Y-96881678D01*
X159689289Y-96929289D01*
X159641678Y-96987304D01*
X159606299Y-97053492D01*
X159584513Y-97125311D01*
X159577157Y-97200000D01*
X159577157Y-98900000D01*
X159584513Y-98974689D01*
X159606299Y-99046508D01*
X159641678Y-99112696D01*
X159689289Y-99170711D01*
X159747304Y-99218322D01*
X159813492Y-99253701D01*
X159885311Y-99275487D01*
X159960000Y-99282843D01*
X161660000Y-99282843D01*
X161734689Y-99275487D01*
X161806508Y-99253701D01*
X161872696Y-99218322D01*
X161930711Y-99170711D01*
X161978322Y-99112696D01*
X162013701Y-99046508D01*
X162035487Y-98974689D01*
X162042843Y-98900000D01*
X162042843Y-98850000D01*
X166001928Y-98850000D01*
X166014188Y-98974482D01*
X166050498Y-99094180D01*
X166109463Y-99204494D01*
X166188815Y-99301185D01*
X166285506Y-99380537D01*
X166395820Y-99439502D01*
X166515518Y-99475812D01*
X166640000Y-99488072D01*
X167204250Y-99485000D01*
X167363000Y-99326250D01*
X167363000Y-98127000D01*
X166163750Y-98127000D01*
X166005000Y-98285750D01*
X166001928Y-98850000D01*
X162042843Y-98850000D01*
X162042843Y-97200000D01*
X162037919Y-97150000D01*
X166001928Y-97150000D01*
X166005000Y-97714250D01*
X166163750Y-97873000D01*
X167363000Y-97873000D01*
X167363000Y-96673750D01*
X167204250Y-96515000D01*
X166640000Y-96511928D01*
X166515518Y-96524188D01*
X166395820Y-96560498D01*
X166285506Y-96619463D01*
X166188815Y-96698815D01*
X166109463Y-96795506D01*
X166050498Y-96905820D01*
X166014188Y-97025518D01*
X166001928Y-97150000D01*
X162037919Y-97150000D01*
X162035487Y-97125311D01*
X162013701Y-97053492D01*
X161978322Y-96987304D01*
X161930711Y-96929289D01*
X161872696Y-96881678D01*
X161806508Y-96846299D01*
X161734689Y-96824513D01*
X161660000Y-96817157D01*
X161316000Y-96817157D01*
X161316000Y-96454854D01*
X161318448Y-96430000D01*
X161308678Y-96330807D01*
X161279745Y-96235425D01*
X161262282Y-96202755D01*
X161232759Y-96147521D01*
X161169527Y-96070473D01*
X161150220Y-96054628D01*
X159556000Y-94460409D01*
X159556000Y-89739591D01*
X159944592Y-89351000D01*
X160086922Y-89351000D01*
X160237809Y-89320987D01*
X160379942Y-89262113D01*
X160507859Y-89176642D01*
X160608501Y-89076000D01*
X162985154Y-89076000D01*
X163010000Y-89078447D01*
X163034846Y-89076000D01*
X163034854Y-89076000D01*
X163109193Y-89068678D01*
X163204575Y-89039745D01*
X163292479Y-88992759D01*
X163369527Y-88929527D01*
X163385376Y-88910215D01*
X163960220Y-88335372D01*
X163979527Y-88319527D01*
X164042759Y-88242479D01*
X164089745Y-88154575D01*
X164112670Y-88079000D01*
X164118678Y-88059194D01*
X164124206Y-88003065D01*
X164126000Y-87984854D01*
X164126000Y-87984847D01*
X164128447Y-87960001D01*
X164126000Y-87935155D01*
X164126000Y-87271610D01*
X164210477Y-87226456D01*
X164301640Y-87151640D01*
X164376456Y-87060477D01*
X164432049Y-86956470D01*
X164466284Y-86843615D01*
X164477843Y-86726250D01*
X164477843Y-86410000D01*
X165107157Y-86410000D01*
X165107157Y-88110000D01*
X165114513Y-88184689D01*
X165136299Y-88256508D01*
X165171678Y-88322696D01*
X165219289Y-88380711D01*
X165277304Y-88428322D01*
X165343492Y-88463701D01*
X165415311Y-88485487D01*
X165490000Y-88492843D01*
X167190000Y-88492843D01*
X167264689Y-88485487D01*
X167336508Y-88463701D01*
X167402696Y-88428322D01*
X167460711Y-88380711D01*
X167508322Y-88322696D01*
X167543701Y-88256508D01*
X167565487Y-88184689D01*
X167572843Y-88110000D01*
X167572843Y-87766000D01*
X170607157Y-87766000D01*
X170607157Y-88120000D01*
X170614513Y-88194689D01*
X170636299Y-88266508D01*
X170671678Y-88332696D01*
X170719289Y-88390711D01*
X170777304Y-88438322D01*
X170843492Y-88473701D01*
X170915311Y-88495487D01*
X170990000Y-88502843D01*
X172690000Y-88502843D01*
X172764689Y-88495487D01*
X172836508Y-88473701D01*
X172902696Y-88438322D01*
X172960711Y-88390711D01*
X173008322Y-88332696D01*
X173043701Y-88266508D01*
X173065487Y-88194689D01*
X173072843Y-88120000D01*
X173072843Y-86420000D01*
X173065487Y-86345311D01*
X173043701Y-86273492D01*
X173008322Y-86207304D01*
X172960711Y-86149289D01*
X172902696Y-86101678D01*
X172836508Y-86066299D01*
X172764689Y-86044513D01*
X172690000Y-86037157D01*
X170990000Y-86037157D01*
X170915311Y-86044513D01*
X170843492Y-86066299D01*
X170777304Y-86101678D01*
X170719289Y-86149289D01*
X170671678Y-86207304D01*
X170636299Y-86273492D01*
X170614513Y-86345311D01*
X170607157Y-86420000D01*
X170607157Y-86754000D01*
X167572843Y-86754000D01*
X167572843Y-86410000D01*
X167565487Y-86335311D01*
X167543701Y-86263492D01*
X167508322Y-86197304D01*
X167460711Y-86139289D01*
X167402696Y-86091678D01*
X167336508Y-86056299D01*
X167264689Y-86034513D01*
X167190000Y-86027157D01*
X165490000Y-86027157D01*
X165415311Y-86034513D01*
X165343492Y-86056299D01*
X165277304Y-86091678D01*
X165219289Y-86139289D01*
X165171678Y-86197304D01*
X165136299Y-86263492D01*
X165114513Y-86335311D01*
X165107157Y-86410000D01*
X164477843Y-86410000D01*
X164477843Y-86288750D01*
X164466284Y-86171385D01*
X164432049Y-86058530D01*
X164376456Y-85954523D01*
X164301640Y-85863360D01*
X164210477Y-85788544D01*
X164106470Y-85732951D01*
X164063777Y-85720000D01*
X164106470Y-85707049D01*
X164210477Y-85651456D01*
X164301640Y-85576640D01*
X164376456Y-85485477D01*
X164432049Y-85381470D01*
X164466284Y-85268615D01*
X164477843Y-85151250D01*
X164477843Y-84713750D01*
X164466284Y-84596385D01*
X164432049Y-84483530D01*
X164376456Y-84379523D01*
X164301640Y-84288360D01*
X164210477Y-84213544D01*
X164126000Y-84168390D01*
X164126000Y-83781672D01*
X164310220Y-83597453D01*
X164329527Y-83581608D01*
X164392759Y-83504560D01*
X164439745Y-83416656D01*
X164468678Y-83321274D01*
X164476000Y-83246935D01*
X164478448Y-83222081D01*
X164476000Y-83197227D01*
X164476000Y-83142832D01*
X164553097Y-83110898D01*
X164754717Y-82976180D01*
X164926180Y-82804717D01*
X165060898Y-82603097D01*
X165153693Y-82379069D01*
X165201000Y-82141243D01*
X165201000Y-81898757D01*
X165153693Y-81660931D01*
X165060898Y-81436903D01*
X164926180Y-81235283D01*
X164860897Y-81170000D01*
X165277157Y-81170000D01*
X165277157Y-82870000D01*
X165284513Y-82944689D01*
X165306299Y-83016508D01*
X165341678Y-83082696D01*
X165389289Y-83140711D01*
X165447304Y-83188322D01*
X165513492Y-83223701D01*
X165585311Y-83245487D01*
X165660000Y-83252843D01*
X167360000Y-83252843D01*
X167434689Y-83245487D01*
X167506508Y-83223701D01*
X167572696Y-83188322D01*
X167630711Y-83140711D01*
X167678322Y-83082696D01*
X167713701Y-83016508D01*
X167735487Y-82944689D01*
X167742843Y-82870000D01*
X167742843Y-81170000D01*
X167737919Y-81120000D01*
X168987157Y-81120000D01*
X168987157Y-82820000D01*
X168994513Y-82894689D01*
X169016299Y-82966508D01*
X169051678Y-83032696D01*
X169099289Y-83090711D01*
X169157304Y-83138322D01*
X169223492Y-83173701D01*
X169295311Y-83195487D01*
X169370000Y-83202843D01*
X171070000Y-83202843D01*
X171144689Y-83195487D01*
X171216508Y-83173701D01*
X171282696Y-83138322D01*
X171340711Y-83090711D01*
X171388322Y-83032696D01*
X171423701Y-82966508D01*
X171445487Y-82894689D01*
X171452843Y-82820000D01*
X171452843Y-82663367D01*
X171564822Y-82851355D01*
X171759731Y-83067588D01*
X171993080Y-83241641D01*
X172255901Y-83366825D01*
X172403110Y-83411476D01*
X172633000Y-83290155D01*
X172633000Y-82097000D01*
X172613000Y-82097000D01*
X172613000Y-81843000D01*
X172633000Y-81843000D01*
X172633000Y-80649845D01*
X172887000Y-80649845D01*
X172887000Y-81843000D01*
X172907000Y-81843000D01*
X172907000Y-82097000D01*
X172887000Y-82097000D01*
X172887000Y-83290155D01*
X173116890Y-83411476D01*
X173264099Y-83366825D01*
X173526920Y-83241641D01*
X173760269Y-83067588D01*
X173955178Y-82851355D01*
X174104157Y-82601252D01*
X174161772Y-82438832D01*
X174209102Y-82553097D01*
X174343820Y-82754717D01*
X174515283Y-82926180D01*
X174716903Y-83060898D01*
X174940931Y-83153693D01*
X175178757Y-83201000D01*
X175421243Y-83201000D01*
X175659069Y-83153693D01*
X175883097Y-83060898D01*
X176084717Y-82926180D01*
X176256180Y-82754717D01*
X176390898Y-82553097D01*
X176483693Y-82329069D01*
X176531000Y-82091243D01*
X176531000Y-81848757D01*
X176483693Y-81610931D01*
X176390898Y-81386903D01*
X176256180Y-81185283D01*
X176084717Y-81013820D01*
X175883097Y-80879102D01*
X175659069Y-80786307D01*
X175421243Y-80739000D01*
X175178757Y-80739000D01*
X174940931Y-80786307D01*
X174716903Y-80879102D01*
X174515283Y-81013820D01*
X174343820Y-81185283D01*
X174209102Y-81386903D01*
X174161772Y-81501168D01*
X174104157Y-81338748D01*
X173955178Y-81088645D01*
X173760269Y-80872412D01*
X173526920Y-80698359D01*
X173264099Y-80573175D01*
X173116890Y-80528524D01*
X172887000Y-80649845D01*
X172633000Y-80649845D01*
X172403110Y-80528524D01*
X172255901Y-80573175D01*
X171993080Y-80698359D01*
X171759731Y-80872412D01*
X171564822Y-81088645D01*
X171452843Y-81276633D01*
X171452843Y-81120000D01*
X171445487Y-81045311D01*
X171423701Y-80973492D01*
X171388322Y-80907304D01*
X171340711Y-80849289D01*
X171282696Y-80801678D01*
X171216508Y-80766299D01*
X171144689Y-80744513D01*
X171070000Y-80737157D01*
X169370000Y-80737157D01*
X169295311Y-80744513D01*
X169223492Y-80766299D01*
X169157304Y-80801678D01*
X169099289Y-80849289D01*
X169051678Y-80907304D01*
X169016299Y-80973492D01*
X168994513Y-81045311D01*
X168987157Y-81120000D01*
X167737919Y-81120000D01*
X167735487Y-81095311D01*
X167713701Y-81023492D01*
X167678322Y-80957304D01*
X167630711Y-80899289D01*
X167572696Y-80851678D01*
X167506508Y-80816299D01*
X167434689Y-80794513D01*
X167360000Y-80787157D01*
X165660000Y-80787157D01*
X165585311Y-80794513D01*
X165513492Y-80816299D01*
X165447304Y-80851678D01*
X165389289Y-80899289D01*
X165341678Y-80957304D01*
X165306299Y-81023492D01*
X165284513Y-81095311D01*
X165277157Y-81170000D01*
X164860897Y-81170000D01*
X164754717Y-81063820D01*
X164553097Y-80929102D01*
X164329069Y-80836307D01*
X164091243Y-80789000D01*
X163848757Y-80789000D01*
X163610931Y-80836307D01*
X163386903Y-80929102D01*
X163185283Y-81063820D01*
X163013820Y-81235283D01*
X162879102Y-81436903D01*
X162831772Y-81551168D01*
X162774157Y-81388748D01*
X162625178Y-81138645D01*
X162430269Y-80922412D01*
X162196920Y-80748359D01*
X161934099Y-80623175D01*
X161786890Y-80578524D01*
X161557000Y-80699845D01*
X161557000Y-81893000D01*
X161577000Y-81893000D01*
X161577000Y-82147000D01*
X161557000Y-82147000D01*
X161557000Y-83340155D01*
X161786890Y-83461476D01*
X161934099Y-83416825D01*
X162196920Y-83291641D01*
X162430269Y-83117588D01*
X162625178Y-82901355D01*
X162774157Y-82651252D01*
X162831772Y-82488832D01*
X162879102Y-82603097D01*
X163013820Y-82804717D01*
X163185283Y-82976180D01*
X163374128Y-83102362D01*
X163279785Y-83196705D01*
X163260473Y-83212554D01*
X163197241Y-83289602D01*
X163150255Y-83377507D01*
X163121322Y-83472889D01*
X163114000Y-83547228D01*
X163114000Y-83547235D01*
X163111553Y-83572081D01*
X163114000Y-83596928D01*
X163114000Y-84168390D01*
X163029523Y-84213544D01*
X162938360Y-84288360D01*
X162863544Y-84379523D01*
X162838434Y-84426500D01*
X162661566Y-84426500D01*
X162636456Y-84379523D01*
X162561640Y-84288360D01*
X162470477Y-84213544D01*
X162366470Y-84157951D01*
X162253615Y-84123716D01*
X162136250Y-84112157D01*
X161623750Y-84112157D01*
X161506385Y-84123716D01*
X161393530Y-84157951D01*
X161289523Y-84213544D01*
X161198360Y-84288360D01*
X161123544Y-84379523D01*
X161067951Y-84483530D01*
X161033716Y-84596385D01*
X161022157Y-84713750D01*
X161022157Y-85151250D01*
X161033716Y-85268615D01*
X161067951Y-85381470D01*
X161123544Y-85485477D01*
X161198360Y-85576640D01*
X161289523Y-85651456D01*
X161393530Y-85707049D01*
X161436223Y-85720000D01*
X161393530Y-85732951D01*
X161289523Y-85788544D01*
X161198360Y-85863360D01*
X161123544Y-85954523D01*
X161087744Y-86021500D01*
X160901566Y-86021500D01*
X160876456Y-85974523D01*
X160801640Y-85883360D01*
X160710477Y-85808544D01*
X160606470Y-85752951D01*
X160563777Y-85740000D01*
X160606470Y-85727049D01*
X160710477Y-85671456D01*
X160801640Y-85596640D01*
X160876456Y-85505477D01*
X160932049Y-85401470D01*
X160966284Y-85288615D01*
X160977843Y-85171250D01*
X160977843Y-84733750D01*
X160966284Y-84616385D01*
X160932049Y-84503530D01*
X160876456Y-84399523D01*
X160801640Y-84308360D01*
X160710477Y-84233544D01*
X160606470Y-84177951D01*
X160493615Y-84143716D01*
X160376250Y-84132157D01*
X159863750Y-84132157D01*
X159746385Y-84143716D01*
X159633530Y-84177951D01*
X159529523Y-84233544D01*
X159438360Y-84308360D01*
X159363544Y-84399523D01*
X159338434Y-84446500D01*
X159161566Y-84446500D01*
X159136456Y-84399523D01*
X159061640Y-84308360D01*
X158970477Y-84233544D01*
X158886000Y-84188390D01*
X158886000Y-83251000D01*
X159011243Y-83251000D01*
X159249069Y-83203693D01*
X159473097Y-83110898D01*
X159674717Y-82976180D01*
X159846180Y-82804717D01*
X159980898Y-82603097D01*
X160028228Y-82488832D01*
X160085843Y-82651252D01*
X160234822Y-82901355D01*
X160429731Y-83117588D01*
X160663080Y-83291641D01*
X160925901Y-83416825D01*
X161073110Y-83461476D01*
X161303000Y-83340155D01*
X161303000Y-82147000D01*
X161283000Y-82147000D01*
X161283000Y-81893000D01*
X161303000Y-81893000D01*
X161303000Y-80699845D01*
X161073110Y-80578524D01*
X160925901Y-80623175D01*
X160663080Y-80748359D01*
X160429731Y-80922412D01*
X160234822Y-81138645D01*
X160085843Y-81388748D01*
X160028228Y-81551168D01*
X159980898Y-81436903D01*
X159846180Y-81235283D01*
X159674717Y-81063820D01*
X159473097Y-80929102D01*
X159249069Y-80836307D01*
X159011243Y-80789000D01*
X158768757Y-80789000D01*
X158530931Y-80836307D01*
X158306903Y-80929102D01*
X158105283Y-81063820D01*
X157933820Y-81235283D01*
X157799102Y-81436903D01*
X157706307Y-81660931D01*
X157659000Y-81898757D01*
X157659000Y-82141243D01*
X157706307Y-82379069D01*
X157799102Y-82603097D01*
X157874001Y-82715191D01*
X157874000Y-84188390D01*
X157789523Y-84233544D01*
X157698360Y-84308360D01*
X157623544Y-84399523D01*
X157567951Y-84503530D01*
X157533716Y-84616385D01*
X157522157Y-84733750D01*
X157522157Y-85171250D01*
X157533716Y-85288615D01*
X157567951Y-85401470D01*
X157623544Y-85505477D01*
X157698360Y-85596640D01*
X157789523Y-85671456D01*
X157893530Y-85727049D01*
X157936223Y-85740000D01*
X157893530Y-85752951D01*
X157789523Y-85808544D01*
X157698360Y-85883360D01*
X157623544Y-85974523D01*
X157567951Y-86078530D01*
X157533716Y-86191385D01*
X157522157Y-86308750D01*
X157522157Y-86669752D01*
X157519780Y-86672129D01*
X157500474Y-86687973D01*
X157437242Y-86765021D01*
X157418409Y-86800255D01*
X157390255Y-86852926D01*
X157361322Y-86948308D01*
X157351553Y-87047500D01*
X157354001Y-87072356D01*
X157354001Y-87301498D01*
X157253358Y-87402141D01*
X157167887Y-87530058D01*
X157109013Y-87672191D01*
X157079000Y-87823078D01*
X157079000Y-87976922D01*
X157109013Y-88127809D01*
X157167887Y-88269942D01*
X157253358Y-88397859D01*
X157362141Y-88506642D01*
X157490058Y-88592113D01*
X157632191Y-88650987D01*
X157781949Y-88680775D01*
X157771322Y-88715808D01*
X157764000Y-88790147D01*
X157764000Y-88790154D01*
X157761553Y-88815000D01*
X157764000Y-88839846D01*
X157764001Y-96823056D01*
X157764000Y-96823066D01*
X157764000Y-96927167D01*
X157686903Y-96959102D01*
X157485283Y-97093820D01*
X157313820Y-97265283D01*
X157179102Y-97466903D01*
X157086307Y-97690931D01*
X157039000Y-97928757D01*
X156961000Y-97928757D01*
X156913693Y-97690931D01*
X156820898Y-97466903D01*
X156686180Y-97265283D01*
X156514717Y-97093820D01*
X156313097Y-96959102D01*
X156089069Y-96866307D01*
X155851243Y-96819000D01*
X155608757Y-96819000D01*
X155370931Y-96866307D01*
X155146903Y-96959102D01*
X154945283Y-97093820D01*
X154773820Y-97265283D01*
X154639102Y-97466903D01*
X154546307Y-97690931D01*
X154499000Y-97928757D01*
X154421000Y-97928757D01*
X154373693Y-97690931D01*
X154280898Y-97466903D01*
X154146180Y-97265283D01*
X153974717Y-97093820D01*
X153773097Y-96959102D01*
X153549069Y-96866307D01*
X153311243Y-96819000D01*
X153068757Y-96819000D01*
X152830931Y-96866307D01*
X152606903Y-96959102D01*
X152405283Y-97093820D01*
X152233820Y-97265283D01*
X152099102Y-97466903D01*
X152006307Y-97690931D01*
X151959000Y-97928757D01*
X150706000Y-97928757D01*
X150706000Y-85916468D01*
X152183137Y-85916468D01*
X152441298Y-86319073D01*
X152960715Y-86594651D01*
X153523913Y-86763601D01*
X154109250Y-86819430D01*
X154694233Y-86759992D01*
X155256379Y-86587571D01*
X155758702Y-86319073D01*
X156016863Y-85916468D01*
X154100000Y-83999605D01*
X152183137Y-85916468D01*
X150706000Y-85916468D01*
X150706000Y-83829250D01*
X151100570Y-83829250D01*
X151160008Y-84414233D01*
X151332429Y-84976379D01*
X151600927Y-85478702D01*
X152003532Y-85736863D01*
X153920395Y-83820000D01*
X154279605Y-83820000D01*
X156196468Y-85736863D01*
X156599073Y-85478702D01*
X156874651Y-84959285D01*
X157043601Y-84396087D01*
X157099430Y-83810750D01*
X157039992Y-83225767D01*
X156867571Y-82663621D01*
X156599073Y-82161298D01*
X156196468Y-81903137D01*
X154279605Y-83820000D01*
X153920395Y-83820000D01*
X152003532Y-81903137D01*
X151600927Y-82161298D01*
X151325349Y-82680715D01*
X151156399Y-83243913D01*
X151100570Y-83829250D01*
X150706000Y-83829250D01*
X150706000Y-81723532D01*
X152183137Y-81723532D01*
X154100000Y-83640395D01*
X156016863Y-81723532D01*
X155758702Y-81320927D01*
X155239285Y-81045349D01*
X154676087Y-80876399D01*
X154090750Y-80820570D01*
X153505767Y-80880008D01*
X152943621Y-81052429D01*
X152441298Y-81320927D01*
X152183137Y-81723532D01*
X150706000Y-81723532D01*
X150706000Y-80426000D01*
X185764182Y-80426000D01*
X185648645Y-80494822D01*
G37*
X185648645Y-80494822D02*
X185432412Y-80689731D01*
X185258359Y-80923080D01*
X185133175Y-81185901D01*
X185088524Y-81333110D01*
X185209845Y-81563000D01*
X186403000Y-81563000D01*
X186403000Y-81543000D01*
X186657000Y-81543000D01*
X186657000Y-81563000D01*
X186677000Y-81563000D01*
X186677000Y-81817000D01*
X186657000Y-81817000D01*
X186657000Y-81837000D01*
X186403000Y-81837000D01*
X186403000Y-81817000D01*
X185209845Y-81817000D01*
X185088524Y-82046890D01*
X185133175Y-82194099D01*
X185207197Y-82349507D01*
X185129942Y-82297887D01*
X184987809Y-82239013D01*
X184836922Y-82209000D01*
X184683078Y-82209000D01*
X184532191Y-82239013D01*
X184390058Y-82297887D01*
X184262141Y-82383358D01*
X184153358Y-82492141D01*
X184067887Y-82620058D01*
X184009013Y-82762191D01*
X183979000Y-82913078D01*
X183979000Y-83055409D01*
X183940409Y-83094000D01*
X183423181Y-83094000D01*
X183503097Y-83060898D01*
X183704717Y-82926180D01*
X183876180Y-82754717D01*
X184010898Y-82553097D01*
X184103693Y-82329069D01*
X184151000Y-82091243D01*
X184151000Y-81848757D01*
X184103693Y-81610931D01*
X184010898Y-81386903D01*
X183876180Y-81185283D01*
X183704717Y-81013820D01*
X183503097Y-80879102D01*
X183279069Y-80786307D01*
X183041243Y-80739000D01*
X182798757Y-80739000D01*
X182560931Y-80786307D01*
X182336903Y-80879102D01*
X182135283Y-81013820D01*
X181963820Y-81185283D01*
X181829102Y-81386903D01*
X181736307Y-81610931D01*
X181689000Y-81848757D01*
X181689000Y-82091243D01*
X181736307Y-82329069D01*
X181829102Y-82553097D01*
X181963820Y-82754717D01*
X182135283Y-82926180D01*
X182336903Y-83060898D01*
X182416819Y-83094000D01*
X180883181Y-83094000D01*
X180963097Y-83060898D01*
X181164717Y-82926180D01*
X181336180Y-82754717D01*
X181470898Y-82553097D01*
X181563693Y-82329069D01*
X181611000Y-82091243D01*
X181611000Y-81848757D01*
X181563693Y-81610931D01*
X181470898Y-81386903D01*
X181336180Y-81185283D01*
X181164717Y-81013820D01*
X180963097Y-80879102D01*
X180739069Y-80786307D01*
X180501243Y-80739000D01*
X180258757Y-80739000D01*
X180020931Y-80786307D01*
X179796903Y-80879102D01*
X179595283Y-81013820D01*
X179423820Y-81185283D01*
X179289102Y-81386903D01*
X179196307Y-81610931D01*
X179149000Y-81848757D01*
X179149000Y-82091243D01*
X179196307Y-82329069D01*
X179289102Y-82553097D01*
X179423820Y-82754717D01*
X179595283Y-82926180D01*
X179796903Y-83060898D01*
X179876819Y-83094000D01*
X179679592Y-83094000D01*
X178991758Y-82406167D01*
X179023693Y-82329069D01*
X179071000Y-82091243D01*
X179071000Y-81848757D01*
X179023693Y-81610931D01*
X178930898Y-81386903D01*
X178796180Y-81185283D01*
X178624717Y-81013820D01*
X178423097Y-80879102D01*
X178199069Y-80786307D01*
X177961243Y-80739000D01*
X177718757Y-80739000D01*
X177480931Y-80786307D01*
X177256903Y-80879102D01*
X177055283Y-81013820D01*
X176883820Y-81185283D01*
X176749102Y-81386903D01*
X176656307Y-81610931D01*
X176609000Y-81848757D01*
X176609000Y-82091243D01*
X176656307Y-82329069D01*
X176749102Y-82553097D01*
X176883820Y-82754717D01*
X177055283Y-82926180D01*
X177256903Y-83060898D01*
X177480931Y-83153693D01*
X177718757Y-83201000D01*
X177961243Y-83201000D01*
X178199069Y-83153693D01*
X178276167Y-83121758D01*
X178878408Y-83724000D01*
X176284845Y-83724000D01*
X176259999Y-83721553D01*
X176235153Y-83724000D01*
X176235146Y-83724000D01*
X176170694Y-83730348D01*
X176160806Y-83731322D01*
X176138607Y-83738056D01*
X176065425Y-83760255D01*
X175977521Y-83807241D01*
X175900473Y-83870473D01*
X175884628Y-83889780D01*
X174522280Y-85252128D01*
X174502974Y-85267973D01*
X174439742Y-85345021D01*
X174414627Y-85392008D01*
X174392755Y-85432926D01*
X174363822Y-85528308D01*
X174354053Y-85627500D01*
X174356501Y-85652356D01*
X174356500Y-89028434D01*
X174309523Y-89053544D01*
X174218360Y-89128360D01*
X174143544Y-89219523D01*
X174098390Y-89304000D01*
X172962832Y-89304000D01*
X172930898Y-89226903D01*
X172796180Y-89025283D01*
X172624717Y-88853820D01*
X172423097Y-88719102D01*
X172199069Y-88626307D01*
X171961243Y-88579000D01*
X171718757Y-88579000D01*
X171480931Y-88626307D01*
X171256903Y-88719102D01*
X171055283Y-88853820D01*
X170883820Y-89025283D01*
X170749102Y-89226903D01*
X170717168Y-89304000D01*
X169944854Y-89304000D01*
X169920000Y-89301552D01*
X169895146Y-89304000D01*
X169820807Y-89311322D01*
X169725425Y-89340255D01*
X169637521Y-89387241D01*
X169560473Y-89450473D01*
X169544628Y-89469780D01*
X168559780Y-90454629D01*
X168540474Y-90470473D01*
X168477242Y-90547521D01*
X168476349Y-90549192D01*
X168430255Y-90635426D01*
X168401322Y-90730808D01*
X168391553Y-90830000D01*
X168394001Y-90854856D01*
X168394000Y-94274000D01*
X166079592Y-94274000D01*
X165155376Y-93349785D01*
X165139527Y-93330473D01*
X165062479Y-93267241D01*
X164974575Y-93220255D01*
X164879193Y-93191322D01*
X164804854Y-93184000D01*
X164804846Y-93184000D01*
X164780000Y-93181553D01*
X164755154Y-93184000D01*
X164401610Y-93184000D01*
X164356456Y-93099523D01*
X164281640Y-93008360D01*
X164190477Y-92933544D01*
X164143500Y-92908434D01*
X164143500Y-92711566D01*
X164190477Y-92686456D01*
X164281640Y-92611640D01*
X164356456Y-92520477D01*
X164412049Y-92416470D01*
X164446284Y-92303615D01*
X164454641Y-92218757D01*
X165109000Y-92218757D01*
X165109000Y-92461243D01*
X165156307Y-92699069D01*
X165249102Y-92923097D01*
X165383820Y-93124717D01*
X165555283Y-93296180D01*
X165756903Y-93430898D01*
X165980931Y-93523693D01*
X166218757Y-93571000D01*
X166461243Y-93571000D01*
X166699069Y-93523693D01*
X166923097Y-93430898D01*
X167124717Y-93296180D01*
X167296180Y-93124717D01*
X167430898Y-92923097D01*
X167523693Y-92699069D01*
X167571000Y-92461243D01*
X167571000Y-92218757D01*
X167523693Y-91980931D01*
X167430898Y-91756903D01*
X167296180Y-91555283D01*
X167124717Y-91383820D01*
X166923097Y-91249102D01*
X166699069Y-91156307D01*
X166461243Y-91109000D01*
X166218757Y-91109000D01*
X165980931Y-91156307D01*
X165756903Y-91249102D01*
X165555283Y-91383820D01*
X165383820Y-91555283D01*
X165249102Y-91756903D01*
X165156307Y-91980931D01*
X165109000Y-92218757D01*
X164454641Y-92218757D01*
X164457843Y-92186250D01*
X164457843Y-91673750D01*
X164446284Y-91556385D01*
X164412049Y-91443530D01*
X164356456Y-91339523D01*
X164293159Y-91262395D01*
X164319180Y-91254502D01*
X164429494Y-91195537D01*
X164526185Y-91116185D01*
X164605537Y-91019494D01*
X164664502Y-90909180D01*
X164700812Y-90789482D01*
X164713072Y-90665000D01*
X164710000Y-90475750D01*
X164551250Y-90317000D01*
X163764500Y-90317000D01*
X163764500Y-90337000D01*
X163510500Y-90337000D01*
X163510500Y-90317000D01*
X163490500Y-90317000D01*
X163490500Y-90063000D01*
X163510500Y-90063000D01*
X163510500Y-89238750D01*
X163764500Y-89238750D01*
X163764500Y-90063000D01*
X164551250Y-90063000D01*
X164710000Y-89904250D01*
X164713072Y-89715000D01*
X164709503Y-89678757D01*
X165109000Y-89678757D01*
X165109000Y-89921243D01*
X165156307Y-90159069D01*
X165249102Y-90383097D01*
X165383820Y-90584717D01*
X165555283Y-90756180D01*
X165756903Y-90890898D01*
X165980931Y-90983693D01*
X166218757Y-91031000D01*
X166461243Y-91031000D01*
X166699069Y-90983693D01*
X166923097Y-90890898D01*
X167124717Y-90756180D01*
X167296180Y-90584717D01*
X167430898Y-90383097D01*
X167523693Y-90159069D01*
X167571000Y-89921243D01*
X167571000Y-89678757D01*
X167523693Y-89440931D01*
X167430898Y-89216903D01*
X167296180Y-89015283D01*
X167124717Y-88843820D01*
X166923097Y-88709102D01*
X166699069Y-88616307D01*
X166461243Y-88569000D01*
X166218757Y-88569000D01*
X165980931Y-88616307D01*
X165756903Y-88709102D01*
X165555283Y-88843820D01*
X165383820Y-89015283D01*
X165249102Y-89216903D01*
X165156307Y-89440931D01*
X165109000Y-89678757D01*
X164709503Y-89678757D01*
X164700812Y-89590518D01*
X164664502Y-89470820D01*
X164605537Y-89360506D01*
X164526185Y-89263815D01*
X164429494Y-89184463D01*
X164319180Y-89125498D01*
X164199482Y-89089188D01*
X164075000Y-89076928D01*
X163923250Y-89080000D01*
X163764500Y-89238750D01*
X163510500Y-89238750D01*
X163351750Y-89080000D01*
X163200000Y-89076928D01*
X163075518Y-89089188D01*
X162955820Y-89125498D01*
X162845506Y-89184463D01*
X162748815Y-89263815D01*
X162669463Y-89360506D01*
X162625866Y-89442070D01*
X162615477Y-89433544D01*
X162511470Y-89377951D01*
X162398615Y-89343716D01*
X162281250Y-89332157D01*
X161843750Y-89332157D01*
X161726385Y-89343716D01*
X161613530Y-89377951D01*
X161509523Y-89433544D01*
X161418360Y-89508360D01*
X161343544Y-89599523D01*
X161287951Y-89703530D01*
X161253716Y-89816385D01*
X161242157Y-89933750D01*
X161242157Y-90446250D01*
X161253716Y-90563615D01*
X161287951Y-90676470D01*
X161343544Y-90780477D01*
X161418360Y-90871640D01*
X161509523Y-90946456D01*
X161556500Y-90971566D01*
X161556501Y-91148434D01*
X161509523Y-91173544D01*
X161418360Y-91248360D01*
X161343544Y-91339523D01*
X161287951Y-91443530D01*
X161281741Y-91464000D01*
X161088501Y-91464000D01*
X160987859Y-91363358D01*
X160859942Y-91277887D01*
X160717809Y-91219013D01*
X160566922Y-91189000D01*
X160413078Y-91189000D01*
X160262191Y-91219013D01*
X160120058Y-91277887D01*
X159992141Y-91363358D01*
X159883358Y-91472141D01*
X159797887Y-91600058D01*
X159739013Y-91742191D01*
X159709000Y-91893078D01*
X159709000Y-92046922D01*
X159739013Y-92197809D01*
X159797887Y-92339942D01*
X159883358Y-92467859D01*
X159992141Y-92576642D01*
X160120058Y-92662113D01*
X160262191Y-92720987D01*
X160413078Y-92751000D01*
X160566922Y-92751000D01*
X160717809Y-92720987D01*
X160859942Y-92662113D01*
X160987859Y-92576642D01*
X161088501Y-92476000D01*
X161319771Y-92476000D01*
X161343544Y-92520477D01*
X161418360Y-92611640D01*
X161509523Y-92686456D01*
X161613530Y-92742049D01*
X161726385Y-92776284D01*
X161843750Y-92787843D01*
X162281250Y-92787843D01*
X162398615Y-92776284D01*
X162511470Y-92742049D01*
X162615477Y-92686456D01*
X162706640Y-92611640D01*
X162781456Y-92520477D01*
X162837049Y-92416470D01*
X162850000Y-92373777D01*
X162862951Y-92416470D01*
X162918544Y-92520477D01*
X162993360Y-92611640D01*
X163084523Y-92686456D01*
X163131500Y-92711566D01*
X163131501Y-92908434D01*
X163084523Y-92933544D01*
X162993360Y-93008360D01*
X162918544Y-93099523D01*
X162862951Y-93203530D01*
X162850000Y-93246223D01*
X162837049Y-93203530D01*
X162781456Y-93099523D01*
X162706640Y-93008360D01*
X162615477Y-92933544D01*
X162511470Y-92877951D01*
X162398615Y-92843716D01*
X162281250Y-92832157D01*
X161843750Y-92832157D01*
X161726385Y-92843716D01*
X161613530Y-92877951D01*
X161509523Y-92933544D01*
X161418360Y-93008360D01*
X161343544Y-93099523D01*
X161309080Y-93164000D01*
X161078501Y-93164000D01*
X160977859Y-93063358D01*
X160849942Y-92977887D01*
X160707809Y-92919013D01*
X160556922Y-92889000D01*
X160403078Y-92889000D01*
X160252191Y-92919013D01*
X160110058Y-92977887D01*
X159982141Y-93063358D01*
X159873358Y-93172141D01*
X159787887Y-93300058D01*
X159729013Y-93442191D01*
X159699000Y-93593078D01*
X159699000Y-93746922D01*
X159729013Y-93897809D01*
X159787887Y-94039942D01*
X159873358Y-94167859D01*
X159982141Y-94276642D01*
X160110058Y-94362113D01*
X160252191Y-94420987D01*
X160403078Y-94451000D01*
X160556922Y-94451000D01*
X160707809Y-94420987D01*
X160849942Y-94362113D01*
X160977859Y-94276642D01*
X161078501Y-94176000D01*
X161287808Y-94176000D01*
X161287951Y-94176470D01*
X161343544Y-94280477D01*
X161418360Y-94371640D01*
X161509523Y-94446456D01*
X161556500Y-94471566D01*
X161556501Y-94643779D01*
X161519523Y-94663544D01*
X161428360Y-94738360D01*
X161353544Y-94829523D01*
X161297951Y-94933530D01*
X161263716Y-95046385D01*
X161252157Y-95163750D01*
X161252157Y-95676250D01*
X161263716Y-95793615D01*
X161297951Y-95906470D01*
X161353544Y-96010477D01*
X161428360Y-96101640D01*
X161519523Y-96176456D01*
X161623530Y-96232049D01*
X161736385Y-96266284D01*
X161853750Y-96277843D01*
X162291250Y-96277843D01*
X162408615Y-96266284D01*
X162521470Y-96232049D01*
X162625477Y-96176456D01*
X162635866Y-96167930D01*
X162679463Y-96249494D01*
X162758815Y-96346185D01*
X162855506Y-96425537D01*
X162965820Y-96484502D01*
X163085518Y-96520812D01*
X163210000Y-96533072D01*
X163361750Y-96530000D01*
X163520500Y-96371250D01*
X163520500Y-95547000D01*
X163774500Y-95547000D01*
X163774500Y-96371250D01*
X163933250Y-96530000D01*
X164085000Y-96533072D01*
X164209482Y-96520812D01*
X164329180Y-96484502D01*
X164439494Y-96425537D01*
X164536185Y-96346185D01*
X164615537Y-96249494D01*
X164674502Y-96139180D01*
X164710812Y-96019482D01*
X164723072Y-95895000D01*
X164720000Y-95705750D01*
X164561250Y-95547000D01*
X163774500Y-95547000D01*
X163520500Y-95547000D01*
X163500500Y-95547000D01*
X163500500Y-95293000D01*
X163520500Y-95293000D01*
X163520500Y-95273000D01*
X163774500Y-95273000D01*
X163774500Y-95293000D01*
X164561250Y-95293000D01*
X164720000Y-95134250D01*
X164723072Y-94945000D01*
X164710812Y-94820518D01*
X164674502Y-94700820D01*
X164615537Y-94590506D01*
X164536185Y-94493815D01*
X164439494Y-94414463D01*
X164329180Y-94355498D01*
X164301723Y-94347169D01*
X164356456Y-94280477D01*
X164401610Y-94196000D01*
X164570409Y-94196000D01*
X165494628Y-95120220D01*
X165510473Y-95139527D01*
X165587521Y-95202759D01*
X165675425Y-95249745D01*
X165770807Y-95278678D01*
X165870000Y-95288448D01*
X165894854Y-95286000D01*
X168690409Y-95286000D01*
X169524001Y-96119593D01*
X169524001Y-96877167D01*
X169446903Y-96909102D01*
X169245283Y-97043820D01*
X169073820Y-97215283D01*
X168976927Y-97360294D01*
X168978072Y-97150000D01*
X168965812Y-97025518D01*
X168929502Y-96905820D01*
X168870537Y-96795506D01*
X168791185Y-96698815D01*
X168694494Y-96619463D01*
X168584180Y-96560498D01*
X168464482Y-96524188D01*
X168340000Y-96511928D01*
X167775750Y-96515000D01*
X167617000Y-96673750D01*
X167617000Y-97873000D01*
X167637000Y-97873000D01*
X167637000Y-98127000D01*
X167617000Y-98127000D01*
X167617000Y-99326250D01*
X167775750Y-99485000D01*
X168340000Y-99488072D01*
X168464482Y-99475812D01*
X168584180Y-99439502D01*
X168694494Y-99380537D01*
X168791185Y-99301185D01*
X168870537Y-99204494D01*
X168929502Y-99094180D01*
X168965812Y-98974482D01*
X168978072Y-98850000D01*
X168976927Y-98639706D01*
X169073820Y-98784717D01*
X169245283Y-98956180D01*
X169446903Y-99090898D01*
X169670931Y-99183693D01*
X169908757Y-99231000D01*
X170151243Y-99231000D01*
X170389069Y-99183693D01*
X170613097Y-99090898D01*
X170814717Y-98956180D01*
X170986180Y-98784717D01*
X171120898Y-98583097D01*
X171213693Y-98359069D01*
X171261000Y-98121243D01*
X171261000Y-97878757D01*
X171339000Y-97878757D01*
X171339000Y-98121243D01*
X171386307Y-98359069D01*
X171479102Y-98583097D01*
X171613820Y-98784717D01*
X171785283Y-98956180D01*
X171986903Y-99090898D01*
X172210931Y-99183693D01*
X172448757Y-99231000D01*
X172691243Y-99231000D01*
X172929069Y-99183693D01*
X173153097Y-99090898D01*
X173354717Y-98956180D01*
X173526180Y-98784717D01*
X173660898Y-98583097D01*
X173753693Y-98359069D01*
X173801000Y-98121243D01*
X173801000Y-97878757D01*
X173753693Y-97640931D01*
X173660898Y-97416903D01*
X173526180Y-97215283D01*
X173354717Y-97043820D01*
X173153097Y-96909102D01*
X172929069Y-96816307D01*
X172691243Y-96769000D01*
X172448757Y-96769000D01*
X172210931Y-96816307D01*
X171986903Y-96909102D01*
X171785283Y-97043820D01*
X171613820Y-97215283D01*
X171479102Y-97416903D01*
X171386307Y-97640931D01*
X171339000Y-97878757D01*
X171261000Y-97878757D01*
X171213693Y-97640931D01*
X171120898Y-97416903D01*
X170986180Y-97215283D01*
X170814717Y-97043820D01*
X170613097Y-96909102D01*
X170536000Y-96877168D01*
X170536000Y-95934845D01*
X170538447Y-95909999D01*
X170536000Y-95885153D01*
X170536000Y-95885146D01*
X170532637Y-95851000D01*
X170636922Y-95851000D01*
X170787809Y-95820987D01*
X170929942Y-95762113D01*
X171057859Y-95676642D01*
X171158501Y-95576000D01*
X174761499Y-95576000D01*
X174862141Y-95676642D01*
X174990058Y-95762113D01*
X175132191Y-95820987D01*
X175283078Y-95851000D01*
X175436922Y-95851000D01*
X175587809Y-95820987D01*
X175729942Y-95762113D01*
X175857859Y-95676642D01*
X175931501Y-95603000D01*
X175931501Y-96462907D01*
X175546167Y-96848242D01*
X175469069Y-96816307D01*
X175231243Y-96769000D01*
X174988757Y-96769000D01*
X174750931Y-96816307D01*
X174526903Y-96909102D01*
X174325283Y-97043820D01*
X174153820Y-97215283D01*
X174019102Y-97416903D01*
X173926307Y-97640931D01*
X173879000Y-97878757D01*
X173879000Y-98121243D01*
X173926307Y-98359069D01*
X174019102Y-98583097D01*
X174153820Y-98784717D01*
X174325283Y-98956180D01*
X174526903Y-99090898D01*
X174750931Y-99183693D01*
X174988757Y-99231000D01*
X175231243Y-99231000D01*
X175469069Y-99183693D01*
X175693097Y-99090898D01*
X175894717Y-98956180D01*
X176066180Y-98784717D01*
X176200898Y-98583097D01*
X176293693Y-98359069D01*
X176341000Y-98121243D01*
X176341000Y-97878757D01*
X176293693Y-97640931D01*
X176261758Y-97563833D01*
X176777720Y-97047872D01*
X176797027Y-97032027D01*
X176860259Y-96954979D01*
X176907245Y-96867075D01*
X176936178Y-96771693D01*
X176943500Y-96697354D01*
X176945948Y-96672500D01*
X176943500Y-96647646D01*
X176943500Y-93141566D01*
X176990477Y-93116456D01*
X177081640Y-93041640D01*
X177156456Y-92950477D01*
X177201610Y-92866000D01*
X178237157Y-92866000D01*
X178237157Y-93200000D01*
X178244513Y-93274689D01*
X178266299Y-93346508D01*
X178301678Y-93412696D01*
X178349289Y-93470711D01*
X178407304Y-93518322D01*
X178473492Y-93553701D01*
X178545311Y-93575487D01*
X178620000Y-93582843D01*
X180320000Y-93582843D01*
X180394689Y-93575487D01*
X180466508Y-93553701D01*
X180532696Y-93518322D01*
X180590711Y-93470711D01*
X180638322Y-93412696D01*
X180673701Y-93346508D01*
X180695487Y-93274689D01*
X180702843Y-93200000D01*
X180702843Y-91500000D01*
X180695487Y-91425311D01*
X180673701Y-91353492D01*
X180638322Y-91287304D01*
X180590711Y-91229289D01*
X180532696Y-91181678D01*
X180466508Y-91146299D01*
X180394689Y-91124513D01*
X180320000Y-91117157D01*
X178620000Y-91117157D01*
X178545311Y-91124513D01*
X178473492Y-91146299D01*
X178407304Y-91181678D01*
X178349289Y-91229289D01*
X178301678Y-91287304D01*
X178266299Y-91353492D01*
X178244513Y-91425311D01*
X178237157Y-91500000D01*
X178237157Y-91854000D01*
X177201610Y-91854000D01*
X177156456Y-91769523D01*
X177081640Y-91678360D01*
X176990477Y-91603544D01*
X176943500Y-91578434D01*
X176943500Y-90591566D01*
X176990477Y-90566456D01*
X177081640Y-90491640D01*
X177156456Y-90400477D01*
X177212049Y-90296470D01*
X177246284Y-90183615D01*
X177257843Y-90066250D01*
X177257843Y-89688757D01*
X178239000Y-89688757D01*
X178239000Y-89931243D01*
X178286307Y-90169069D01*
X178379102Y-90393097D01*
X178513820Y-90594717D01*
X178685283Y-90766180D01*
X178886903Y-90900898D01*
X179110931Y-90993693D01*
X179348757Y-91041000D01*
X179591243Y-91041000D01*
X179829069Y-90993693D01*
X180053097Y-90900898D01*
X180254717Y-90766180D01*
X180426180Y-90594717D01*
X180560898Y-90393097D01*
X180653693Y-90169069D01*
X180701000Y-89931243D01*
X180701000Y-89688757D01*
X180653693Y-89450931D01*
X180560898Y-89226903D01*
X180426180Y-89025283D01*
X180254717Y-88853820D01*
X180053097Y-88719102D01*
X179829069Y-88626307D01*
X179591243Y-88579000D01*
X179348757Y-88579000D01*
X179110931Y-88626307D01*
X178886903Y-88719102D01*
X178685283Y-88853820D01*
X178513820Y-89025283D01*
X178379102Y-89226903D01*
X178286307Y-89450931D01*
X178239000Y-89688757D01*
X177257843Y-89688757D01*
X177257843Y-89553750D01*
X177246284Y-89436385D01*
X177212049Y-89323530D01*
X177156456Y-89219523D01*
X177081640Y-89128360D01*
X176990477Y-89053544D01*
X176886470Y-88997951D01*
X176773615Y-88963716D01*
X176656250Y-88952157D01*
X176218750Y-88952157D01*
X176101385Y-88963716D01*
X175988530Y-88997951D01*
X175884523Y-89053544D01*
X175793360Y-89128360D01*
X175718544Y-89219523D01*
X175662951Y-89323530D01*
X175650000Y-89366223D01*
X175637049Y-89323530D01*
X175581456Y-89219523D01*
X175506640Y-89128360D01*
X175415477Y-89053544D01*
X175368500Y-89028434D01*
X175368500Y-86760936D01*
X175460058Y-86822113D01*
X175602191Y-86880987D01*
X175753078Y-86911000D01*
X175906922Y-86911000D01*
X175960415Y-86900360D01*
X175993756Y-86910473D01*
X176020807Y-86918679D01*
X176030695Y-86919653D01*
X176095147Y-86926001D01*
X176095154Y-86926001D01*
X176120000Y-86928448D01*
X176144846Y-86926001D01*
X178283309Y-86926001D01*
X178239000Y-87148757D01*
X178239000Y-87391243D01*
X178286307Y-87629069D01*
X178379102Y-87853097D01*
X178513820Y-88054717D01*
X178685283Y-88226180D01*
X178886903Y-88360898D01*
X179110931Y-88453693D01*
X179348757Y-88501000D01*
X179591243Y-88501000D01*
X179829069Y-88453693D01*
X180053097Y-88360898D01*
X180254717Y-88226180D01*
X180426180Y-88054717D01*
X180552362Y-87865872D01*
X180924001Y-88237512D01*
X180924000Y-93160408D01*
X179230409Y-94854000D01*
X178184854Y-94854000D01*
X178160000Y-94851552D01*
X178135146Y-94854000D01*
X178060807Y-94861322D01*
X177965425Y-94890255D01*
X177877521Y-94937241D01*
X177800473Y-95000473D01*
X177784629Y-95019779D01*
X177309780Y-95494629D01*
X177290474Y-95510473D01*
X177227242Y-95587521D01*
X177212782Y-95614574D01*
X177180255Y-95675426D01*
X177151322Y-95770808D01*
X177141553Y-95870000D01*
X177144001Y-95894856D01*
X177144001Y-96877167D01*
X177066903Y-96909102D01*
X176865283Y-97043820D01*
X176693820Y-97215283D01*
X176559102Y-97416903D01*
X176466307Y-97640931D01*
X176419000Y-97878757D01*
X176419000Y-98121243D01*
X176466307Y-98359069D01*
X176559102Y-98583097D01*
X176693820Y-98784717D01*
X176865283Y-98956180D01*
X177066903Y-99090898D01*
X177290931Y-99183693D01*
X177528757Y-99231000D01*
X177771243Y-99231000D01*
X178009069Y-99183693D01*
X178233097Y-99090898D01*
X178434717Y-98956180D01*
X178606180Y-98784717D01*
X178740898Y-98583097D01*
X178833693Y-98359069D01*
X178881000Y-98121243D01*
X178881000Y-97878757D01*
X178959000Y-97878757D01*
X178959000Y-98121243D01*
X179006307Y-98359069D01*
X179099102Y-98583097D01*
X179233820Y-98784717D01*
X179405283Y-98956180D01*
X179606903Y-99090898D01*
X179830931Y-99183693D01*
X180068757Y-99231000D01*
X180311243Y-99231000D01*
X180549069Y-99183693D01*
X180773097Y-99090898D01*
X180974717Y-98956180D01*
X181146180Y-98784717D01*
X181280898Y-98583097D01*
X181354059Y-98406468D01*
X182693137Y-98406468D01*
X182951298Y-98809073D01*
X183470715Y-99084651D01*
X184033913Y-99253601D01*
X184619250Y-99309430D01*
X185204233Y-99249992D01*
X185766379Y-99077571D01*
X186268702Y-98809073D01*
X186526863Y-98406468D01*
X184610000Y-96489605D01*
X182693137Y-98406468D01*
X181354059Y-98406468D01*
X181373693Y-98359069D01*
X181421000Y-98121243D01*
X181421000Y-97878757D01*
X181373693Y-97640931D01*
X181280898Y-97416903D01*
X181146180Y-97215283D01*
X180974717Y-97043820D01*
X180773097Y-96909102D01*
X180696000Y-96877168D01*
X180696000Y-96509591D01*
X181749844Y-95455747D01*
X181666399Y-95733913D01*
X181610570Y-96319250D01*
X181670008Y-96904233D01*
X181842429Y-97466379D01*
X182110927Y-97968702D01*
X182513532Y-98226863D01*
X184430395Y-96310000D01*
X184789605Y-96310000D01*
X186706468Y-98226863D01*
X187109073Y-97968702D01*
X187384651Y-97449285D01*
X187553601Y-96886087D01*
X187609430Y-96300750D01*
X187549992Y-95715767D01*
X187377571Y-95153621D01*
X187109073Y-94651298D01*
X186706468Y-94393137D01*
X184789605Y-96310000D01*
X184430395Y-96310000D01*
X184416253Y-96295858D01*
X184595858Y-96116253D01*
X184610000Y-96130395D01*
X186526863Y-94213532D01*
X186268702Y-93810927D01*
X185749285Y-93535349D01*
X185186087Y-93366399D01*
X184600750Y-93310570D01*
X184015767Y-93370008D01*
X183755868Y-93449724D01*
X184300220Y-92905372D01*
X184319527Y-92889527D01*
X184382759Y-92812479D01*
X184429745Y-92724575D01*
X184458678Y-92629193D01*
X184466000Y-92554854D01*
X184466000Y-92554847D01*
X184468447Y-92530001D01*
X184466000Y-92505155D01*
X184466000Y-91000000D01*
X185297157Y-91000000D01*
X185297157Y-92700000D01*
X185304513Y-92774689D01*
X185326299Y-92846508D01*
X185361678Y-92912696D01*
X185409289Y-92970711D01*
X185467304Y-93018322D01*
X185533492Y-93053701D01*
X185605311Y-93075487D01*
X185680000Y-93082843D01*
X187380000Y-93082843D01*
X187454689Y-93075487D01*
X187526508Y-93053701D01*
X187592696Y-93018322D01*
X187650711Y-92970711D01*
X187698322Y-92912696D01*
X187733701Y-92846508D01*
X187755487Y-92774689D01*
X187762843Y-92700000D01*
X187762843Y-91000000D01*
X187755487Y-90925311D01*
X187733701Y-90853492D01*
X187698322Y-90787304D01*
X187650711Y-90729289D01*
X187592696Y-90681678D01*
X187526508Y-90646299D01*
X187454689Y-90624513D01*
X187380000Y-90617157D01*
X185680000Y-90617157D01*
X185605311Y-90624513D01*
X185533492Y-90646299D01*
X185467304Y-90681678D01*
X185409289Y-90729289D01*
X185361678Y-90787304D01*
X185326299Y-90853492D01*
X185304513Y-90925311D01*
X185297157Y-91000000D01*
X184466000Y-91000000D01*
X184466000Y-90659591D01*
X185309592Y-89816000D01*
X185407168Y-89816000D01*
X185439102Y-89893097D01*
X185573820Y-90094717D01*
X185745283Y-90266180D01*
X185946903Y-90400898D01*
X186170931Y-90493693D01*
X186408757Y-90541000D01*
X186651243Y-90541000D01*
X186889069Y-90493693D01*
X187113097Y-90400898D01*
X187314717Y-90266180D01*
X187486180Y-90094717D01*
X187620898Y-89893097D01*
X187713693Y-89669069D01*
X187761000Y-89431243D01*
X187761000Y-89188757D01*
X187713693Y-88950931D01*
X187620898Y-88726903D01*
X187486180Y-88525283D01*
X187314717Y-88353820D01*
X187113097Y-88219102D01*
X186889069Y-88126307D01*
X186651243Y-88079000D01*
X186408757Y-88079000D01*
X186170931Y-88126307D01*
X185946903Y-88219102D01*
X185745283Y-88353820D01*
X185573820Y-88525283D01*
X185439102Y-88726903D01*
X185407168Y-88804000D01*
X185124845Y-88804000D01*
X185099999Y-88801553D01*
X185075153Y-88804000D01*
X185075146Y-88804000D01*
X185010694Y-88810348D01*
X185000806Y-88811322D01*
X184978607Y-88818056D01*
X184905425Y-88840255D01*
X184817521Y-88887241D01*
X184740473Y-88950473D01*
X184724628Y-88969780D01*
X183619785Y-90074624D01*
X183600473Y-90090473D01*
X183537241Y-90167521D01*
X183490255Y-90255426D01*
X183461322Y-90350808D01*
X183454000Y-90425147D01*
X183454000Y-90425154D01*
X183451553Y-90450000D01*
X183454000Y-90474846D01*
X183454001Y-92320407D01*
X179849785Y-95924624D01*
X179830473Y-95940473D01*
X179767241Y-96017521D01*
X179720255Y-96105426D01*
X179691322Y-96200808D01*
X179684000Y-96275147D01*
X179684000Y-96275154D01*
X179681553Y-96300000D01*
X179684000Y-96324847D01*
X179684000Y-96877167D01*
X179606903Y-96909102D01*
X179405283Y-97043820D01*
X179233820Y-97215283D01*
X179099102Y-97416903D01*
X179006307Y-97640931D01*
X178959000Y-97878757D01*
X178881000Y-97878757D01*
X178833693Y-97640931D01*
X178740898Y-97416903D01*
X178606180Y-97215283D01*
X178434717Y-97043820D01*
X178233097Y-96909102D01*
X178156000Y-96877168D01*
X178156000Y-96079591D01*
X178369592Y-95866000D01*
X179415154Y-95866000D01*
X179440000Y-95868447D01*
X179464846Y-95866000D01*
X179464854Y-95866000D01*
X179539193Y-95858678D01*
X179634575Y-95829745D01*
X179722479Y-95782759D01*
X179799527Y-95719527D01*
X179815376Y-95700215D01*
X181770220Y-93745372D01*
X181789527Y-93729527D01*
X181852759Y-93652479D01*
X181899745Y-93564575D01*
X181928678Y-93469193D01*
X181936000Y-93394854D01*
X181936000Y-93394846D01*
X181938447Y-93370000D01*
X181936000Y-93345154D01*
X181936000Y-88237510D01*
X182897511Y-87276000D01*
X185407168Y-87276000D01*
X185439102Y-87353097D01*
X185573820Y-87554717D01*
X185745283Y-87726180D01*
X185946903Y-87860898D01*
X186170931Y-87953693D01*
X186408757Y-88001000D01*
X186651243Y-88001000D01*
X186889069Y-87953693D01*
X187113097Y-87860898D01*
X187314717Y-87726180D01*
X187486180Y-87554717D01*
X187620898Y-87353097D01*
X187713693Y-87129069D01*
X187761000Y-86891243D01*
X187761000Y-86648757D01*
X187713693Y-86410931D01*
X187620898Y-86186903D01*
X187486180Y-85985283D01*
X187314717Y-85813820D01*
X187113097Y-85679102D01*
X186889069Y-85586307D01*
X186651243Y-85539000D01*
X186408757Y-85539000D01*
X186170931Y-85586307D01*
X185946903Y-85679102D01*
X185745283Y-85813820D01*
X185573820Y-85985283D01*
X185439102Y-86186903D01*
X185407168Y-86264000D01*
X182712764Y-86264000D01*
X182687918Y-86261553D01*
X182663072Y-86264000D01*
X182663065Y-86264000D01*
X182598613Y-86270348D01*
X182588725Y-86271322D01*
X182531272Y-86288750D01*
X182493344Y-86300255D01*
X182405440Y-86347241D01*
X182328392Y-86410473D01*
X182312547Y-86429780D01*
X181430000Y-87312328D01*
X181047457Y-86929785D01*
X181031608Y-86910473D01*
X180954560Y-86847241D01*
X180866656Y-86800255D01*
X180771274Y-86771322D01*
X180696935Y-86764000D01*
X180696927Y-86764000D01*
X180672081Y-86761553D01*
X180647235Y-86764000D01*
X180592832Y-86764000D01*
X180560898Y-86686903D01*
X180426180Y-86485283D01*
X180254717Y-86313820D01*
X180053097Y-86179102D01*
X179829069Y-86086307D01*
X179591243Y-86039000D01*
X179348757Y-86039000D01*
X179110931Y-86086307D01*
X179033833Y-86118242D01*
X178995377Y-86079786D01*
X178979528Y-86060474D01*
X178902480Y-85997242D01*
X178814576Y-85950256D01*
X178719194Y-85921323D01*
X178644855Y-85914001D01*
X178644847Y-85914001D01*
X178620001Y-85911554D01*
X178595155Y-85914001D01*
X176583336Y-85914001D01*
X176580987Y-85902191D01*
X176522113Y-85760058D01*
X176436642Y-85632141D01*
X176327859Y-85523358D01*
X176199942Y-85437887D01*
X176057809Y-85379013D01*
X175906922Y-85349000D01*
X175856591Y-85349000D01*
X176469592Y-84736000D01*
X185407168Y-84736000D01*
X185439102Y-84813097D01*
X185573820Y-85014717D01*
X185745283Y-85186180D01*
X185946903Y-85320898D01*
X186170931Y-85413693D01*
X186408757Y-85461000D01*
X186651243Y-85461000D01*
X186889069Y-85413693D01*
X187113097Y-85320898D01*
X187314717Y-85186180D01*
X187486180Y-85014717D01*
X187620898Y-84813097D01*
X187713693Y-84589069D01*
X187761000Y-84351243D01*
X187761000Y-84108757D01*
X187713693Y-83870931D01*
X187620898Y-83646903D01*
X187486180Y-83445283D01*
X187314717Y-83273820D01*
X187113097Y-83139102D01*
X186998832Y-83091772D01*
X187161252Y-83034157D01*
X187411355Y-82885178D01*
X187627588Y-82690269D01*
X187801641Y-82456920D01*
X187926825Y-82194099D01*
X187971476Y-82046890D01*
X187850156Y-81817002D01*
X187994000Y-81817002D01*
X187994001Y-99614000D01*
X150706000Y-99614000D01*
X150706000Y-97928757D01*
X151959000Y-97928757D01*
X151959000Y-98171243D01*
X152006307Y-98409069D01*
X152099102Y-98633097D01*
X152233820Y-98834717D01*
X152405283Y-99006180D01*
X152606903Y-99140898D01*
X152830931Y-99233693D01*
X153068757Y-99281000D01*
X153311243Y-99281000D01*
X153549069Y-99233693D01*
X153773097Y-99140898D01*
X153974717Y-99006180D01*
X154146180Y-98834717D01*
X154280898Y-98633097D01*
X154373693Y-98409069D01*
X154421000Y-98171243D01*
X154421000Y-97928757D01*
X154499000Y-97928757D01*
X154499000Y-98171243D01*
X154546307Y-98409069D01*
X154639102Y-98633097D01*
X154773820Y-98834717D01*
X154945283Y-99006180D01*
X155146903Y-99140898D01*
X155370931Y-99233693D01*
X155608757Y-99281000D01*
X155851243Y-99281000D01*
X156089069Y-99233693D01*
X156313097Y-99140898D01*
X156514717Y-99006180D01*
X156686180Y-98834717D01*
X156820898Y-98633097D01*
X156913693Y-98409069D01*
X156961000Y-98171243D01*
X156961000Y-97928757D01*
X157039000Y-97928757D01*
X157039000Y-98171243D01*
X157086307Y-98409069D01*
X157179102Y-98633097D01*
X157313820Y-98834717D01*
X157485283Y-99006180D01*
X157686903Y-99140898D01*
X157910931Y-99233693D01*
X158148757Y-99281000D01*
X158391243Y-99281000D01*
X158629069Y-99233693D01*
X158853097Y-99140898D01*
X159054717Y-99006180D01*
X159226180Y-98834717D01*
X159360898Y-98633097D01*
X159453693Y-98409069D01*
X159501000Y-98171243D01*
X159501000Y-97928757D01*
X159453693Y-97690931D01*
X159360898Y-97466903D01*
X159226180Y-97265283D01*
X159054717Y-97093820D01*
X158853097Y-96959102D01*
X158776000Y-96927168D01*
X158776000Y-95111591D01*
X160304000Y-96639592D01*
X160304000Y-96817157D01*
X159960000Y-96817157D01*
X159885311Y-96824513D01*
X159813492Y-96846299D01*
X159747304Y-96881678D01*
X159689289Y-96929289D01*
X159641678Y-96987304D01*
X159606299Y-97053492D01*
X159584513Y-97125311D01*
X159577157Y-97200000D01*
X159577157Y-98900000D01*
X159584513Y-98974689D01*
X159606299Y-99046508D01*
X159641678Y-99112696D01*
X159689289Y-99170711D01*
X159747304Y-99218322D01*
X159813492Y-99253701D01*
X159885311Y-99275487D01*
X159960000Y-99282843D01*
X161660000Y-99282843D01*
X161734689Y-99275487D01*
X161806508Y-99253701D01*
X161872696Y-99218322D01*
X161930711Y-99170711D01*
X161978322Y-99112696D01*
X162013701Y-99046508D01*
X162035487Y-98974689D01*
X162042843Y-98900000D01*
X162042843Y-98850000D01*
X166001928Y-98850000D01*
X166014188Y-98974482D01*
X166050498Y-99094180D01*
X166109463Y-99204494D01*
X166188815Y-99301185D01*
X166285506Y-99380537D01*
X166395820Y-99439502D01*
X166515518Y-99475812D01*
X166640000Y-99488072D01*
X167204250Y-99485000D01*
X167363000Y-99326250D01*
X167363000Y-98127000D01*
X166163750Y-98127000D01*
X166005000Y-98285750D01*
X166001928Y-98850000D01*
X162042843Y-98850000D01*
X162042843Y-97200000D01*
X162037919Y-97150000D01*
X166001928Y-97150000D01*
X166005000Y-97714250D01*
X166163750Y-97873000D01*
X167363000Y-97873000D01*
X167363000Y-96673750D01*
X167204250Y-96515000D01*
X166640000Y-96511928D01*
X166515518Y-96524188D01*
X166395820Y-96560498D01*
X166285506Y-96619463D01*
X166188815Y-96698815D01*
X166109463Y-96795506D01*
X166050498Y-96905820D01*
X166014188Y-97025518D01*
X166001928Y-97150000D01*
X162037919Y-97150000D01*
X162035487Y-97125311D01*
X162013701Y-97053492D01*
X161978322Y-96987304D01*
X161930711Y-96929289D01*
X161872696Y-96881678D01*
X161806508Y-96846299D01*
X161734689Y-96824513D01*
X161660000Y-96817157D01*
X161316000Y-96817157D01*
X161316000Y-96454854D01*
X161318448Y-96430000D01*
X161308678Y-96330807D01*
X161279745Y-96235425D01*
X161262282Y-96202755D01*
X161232759Y-96147521D01*
X161169527Y-96070473D01*
X161150220Y-96054628D01*
X159556000Y-94460409D01*
X159556000Y-89739591D01*
X159944592Y-89351000D01*
X160086922Y-89351000D01*
X160237809Y-89320987D01*
X160379942Y-89262113D01*
X160507859Y-89176642D01*
X160608501Y-89076000D01*
X162985154Y-89076000D01*
X163010000Y-89078447D01*
X163034846Y-89076000D01*
X163034854Y-89076000D01*
X163109193Y-89068678D01*
X163204575Y-89039745D01*
X163292479Y-88992759D01*
X163369527Y-88929527D01*
X163385376Y-88910215D01*
X163960220Y-88335372D01*
X163979527Y-88319527D01*
X164042759Y-88242479D01*
X164089745Y-88154575D01*
X164112670Y-88079000D01*
X164118678Y-88059194D01*
X164124206Y-88003065D01*
X164126000Y-87984854D01*
X164126000Y-87984847D01*
X164128447Y-87960001D01*
X164126000Y-87935155D01*
X164126000Y-87271610D01*
X164210477Y-87226456D01*
X164301640Y-87151640D01*
X164376456Y-87060477D01*
X164432049Y-86956470D01*
X164466284Y-86843615D01*
X164477843Y-86726250D01*
X164477843Y-86410000D01*
X165107157Y-86410000D01*
X165107157Y-88110000D01*
X165114513Y-88184689D01*
X165136299Y-88256508D01*
X165171678Y-88322696D01*
X165219289Y-88380711D01*
X165277304Y-88428322D01*
X165343492Y-88463701D01*
X165415311Y-88485487D01*
X165490000Y-88492843D01*
X167190000Y-88492843D01*
X167264689Y-88485487D01*
X167336508Y-88463701D01*
X167402696Y-88428322D01*
X167460711Y-88380711D01*
X167508322Y-88322696D01*
X167543701Y-88256508D01*
X167565487Y-88184689D01*
X167572843Y-88110000D01*
X167572843Y-87766000D01*
X170607157Y-87766000D01*
X170607157Y-88120000D01*
X170614513Y-88194689D01*
X170636299Y-88266508D01*
X170671678Y-88332696D01*
X170719289Y-88390711D01*
X170777304Y-88438322D01*
X170843492Y-88473701D01*
X170915311Y-88495487D01*
X170990000Y-88502843D01*
X172690000Y-88502843D01*
X172764689Y-88495487D01*
X172836508Y-88473701D01*
X172902696Y-88438322D01*
X172960711Y-88390711D01*
X173008322Y-88332696D01*
X173043701Y-88266508D01*
X173065487Y-88194689D01*
X173072843Y-88120000D01*
X173072843Y-86420000D01*
X173065487Y-86345311D01*
X173043701Y-86273492D01*
X173008322Y-86207304D01*
X172960711Y-86149289D01*
X172902696Y-86101678D01*
X172836508Y-86066299D01*
X172764689Y-86044513D01*
X172690000Y-86037157D01*
X170990000Y-86037157D01*
X170915311Y-86044513D01*
X170843492Y-86066299D01*
X170777304Y-86101678D01*
X170719289Y-86149289D01*
X170671678Y-86207304D01*
X170636299Y-86273492D01*
X170614513Y-86345311D01*
X170607157Y-86420000D01*
X170607157Y-86754000D01*
X167572843Y-86754000D01*
X167572843Y-86410000D01*
X167565487Y-86335311D01*
X167543701Y-86263492D01*
X167508322Y-86197304D01*
X167460711Y-86139289D01*
X167402696Y-86091678D01*
X167336508Y-86056299D01*
X167264689Y-86034513D01*
X167190000Y-86027157D01*
X165490000Y-86027157D01*
X165415311Y-86034513D01*
X165343492Y-86056299D01*
X165277304Y-86091678D01*
X165219289Y-86139289D01*
X165171678Y-86197304D01*
X165136299Y-86263492D01*
X165114513Y-86335311D01*
X165107157Y-86410000D01*
X164477843Y-86410000D01*
X164477843Y-86288750D01*
X164466284Y-86171385D01*
X164432049Y-86058530D01*
X164376456Y-85954523D01*
X164301640Y-85863360D01*
X164210477Y-85788544D01*
X164106470Y-85732951D01*
X164063777Y-85720000D01*
X164106470Y-85707049D01*
X164210477Y-85651456D01*
X164301640Y-85576640D01*
X164376456Y-85485477D01*
X164432049Y-85381470D01*
X164466284Y-85268615D01*
X164477843Y-85151250D01*
X164477843Y-84713750D01*
X164466284Y-84596385D01*
X164432049Y-84483530D01*
X164376456Y-84379523D01*
X164301640Y-84288360D01*
X164210477Y-84213544D01*
X164126000Y-84168390D01*
X164126000Y-83781672D01*
X164310220Y-83597453D01*
X164329527Y-83581608D01*
X164392759Y-83504560D01*
X164439745Y-83416656D01*
X164468678Y-83321274D01*
X164476000Y-83246935D01*
X164478448Y-83222081D01*
X164476000Y-83197227D01*
X164476000Y-83142832D01*
X164553097Y-83110898D01*
X164754717Y-82976180D01*
X164926180Y-82804717D01*
X165060898Y-82603097D01*
X165153693Y-82379069D01*
X165201000Y-82141243D01*
X165201000Y-81898757D01*
X165153693Y-81660931D01*
X165060898Y-81436903D01*
X164926180Y-81235283D01*
X164860897Y-81170000D01*
X165277157Y-81170000D01*
X165277157Y-82870000D01*
X165284513Y-82944689D01*
X165306299Y-83016508D01*
X165341678Y-83082696D01*
X165389289Y-83140711D01*
X165447304Y-83188322D01*
X165513492Y-83223701D01*
X165585311Y-83245487D01*
X165660000Y-83252843D01*
X167360000Y-83252843D01*
X167434689Y-83245487D01*
X167506508Y-83223701D01*
X167572696Y-83188322D01*
X167630711Y-83140711D01*
X167678322Y-83082696D01*
X167713701Y-83016508D01*
X167735487Y-82944689D01*
X167742843Y-82870000D01*
X167742843Y-81170000D01*
X167737919Y-81120000D01*
X168987157Y-81120000D01*
X168987157Y-82820000D01*
X168994513Y-82894689D01*
X169016299Y-82966508D01*
X169051678Y-83032696D01*
X169099289Y-83090711D01*
X169157304Y-83138322D01*
X169223492Y-83173701D01*
X169295311Y-83195487D01*
X169370000Y-83202843D01*
X171070000Y-83202843D01*
X171144689Y-83195487D01*
X171216508Y-83173701D01*
X171282696Y-83138322D01*
X171340711Y-83090711D01*
X171388322Y-83032696D01*
X171423701Y-82966508D01*
X171445487Y-82894689D01*
X171452843Y-82820000D01*
X171452843Y-82663367D01*
X171564822Y-82851355D01*
X171759731Y-83067588D01*
X171993080Y-83241641D01*
X172255901Y-83366825D01*
X172403110Y-83411476D01*
X172633000Y-83290155D01*
X172633000Y-82097000D01*
X172613000Y-82097000D01*
X172613000Y-81843000D01*
X172633000Y-81843000D01*
X172633000Y-80649845D01*
X172887000Y-80649845D01*
X172887000Y-81843000D01*
X172907000Y-81843000D01*
X172907000Y-82097000D01*
X172887000Y-82097000D01*
X172887000Y-83290155D01*
X173116890Y-83411476D01*
X173264099Y-83366825D01*
X173526920Y-83241641D01*
X173760269Y-83067588D01*
X173955178Y-82851355D01*
X174104157Y-82601252D01*
X174161772Y-82438832D01*
X174209102Y-82553097D01*
X174343820Y-82754717D01*
X174515283Y-82926180D01*
X174716903Y-83060898D01*
X174940931Y-83153693D01*
X175178757Y-83201000D01*
X175421243Y-83201000D01*
X175659069Y-83153693D01*
X175883097Y-83060898D01*
X176084717Y-82926180D01*
X176256180Y-82754717D01*
X176390898Y-82553097D01*
X176483693Y-82329069D01*
X176531000Y-82091243D01*
X176531000Y-81848757D01*
X176483693Y-81610931D01*
X176390898Y-81386903D01*
X176256180Y-81185283D01*
X176084717Y-81013820D01*
X175883097Y-80879102D01*
X175659069Y-80786307D01*
X175421243Y-80739000D01*
X175178757Y-80739000D01*
X174940931Y-80786307D01*
X174716903Y-80879102D01*
X174515283Y-81013820D01*
X174343820Y-81185283D01*
X174209102Y-81386903D01*
X174161772Y-81501168D01*
X174104157Y-81338748D01*
X173955178Y-81088645D01*
X173760269Y-80872412D01*
X173526920Y-80698359D01*
X173264099Y-80573175D01*
X173116890Y-80528524D01*
X172887000Y-80649845D01*
X172633000Y-80649845D01*
X172403110Y-80528524D01*
X172255901Y-80573175D01*
X171993080Y-80698359D01*
X171759731Y-80872412D01*
X171564822Y-81088645D01*
X171452843Y-81276633D01*
X171452843Y-81120000D01*
X171445487Y-81045311D01*
X171423701Y-80973492D01*
X171388322Y-80907304D01*
X171340711Y-80849289D01*
X171282696Y-80801678D01*
X171216508Y-80766299D01*
X171144689Y-80744513D01*
X171070000Y-80737157D01*
X169370000Y-80737157D01*
X169295311Y-80744513D01*
X169223492Y-80766299D01*
X169157304Y-80801678D01*
X169099289Y-80849289D01*
X169051678Y-80907304D01*
X169016299Y-80973492D01*
X168994513Y-81045311D01*
X168987157Y-81120000D01*
X167737919Y-81120000D01*
X167735487Y-81095311D01*
X167713701Y-81023492D01*
X167678322Y-80957304D01*
X167630711Y-80899289D01*
X167572696Y-80851678D01*
X167506508Y-80816299D01*
X167434689Y-80794513D01*
X167360000Y-80787157D01*
X165660000Y-80787157D01*
X165585311Y-80794513D01*
X165513492Y-80816299D01*
X165447304Y-80851678D01*
X165389289Y-80899289D01*
X165341678Y-80957304D01*
X165306299Y-81023492D01*
X165284513Y-81095311D01*
X165277157Y-81170000D01*
X164860897Y-81170000D01*
X164754717Y-81063820D01*
X164553097Y-80929102D01*
X164329069Y-80836307D01*
X164091243Y-80789000D01*
X163848757Y-80789000D01*
X163610931Y-80836307D01*
X163386903Y-80929102D01*
X163185283Y-81063820D01*
X163013820Y-81235283D01*
X162879102Y-81436903D01*
X162831772Y-81551168D01*
X162774157Y-81388748D01*
X162625178Y-81138645D01*
X162430269Y-80922412D01*
X162196920Y-80748359D01*
X161934099Y-80623175D01*
X161786890Y-80578524D01*
X161557000Y-80699845D01*
X161557000Y-81893000D01*
X161577000Y-81893000D01*
X161577000Y-82147000D01*
X161557000Y-82147000D01*
X161557000Y-83340155D01*
X161786890Y-83461476D01*
X161934099Y-83416825D01*
X162196920Y-83291641D01*
X162430269Y-83117588D01*
X162625178Y-82901355D01*
X162774157Y-82651252D01*
X162831772Y-82488832D01*
X162879102Y-82603097D01*
X163013820Y-82804717D01*
X163185283Y-82976180D01*
X163374128Y-83102362D01*
X163279785Y-83196705D01*
X163260473Y-83212554D01*
X163197241Y-83289602D01*
X163150255Y-83377507D01*
X163121322Y-83472889D01*
X163114000Y-83547228D01*
X163114000Y-83547235D01*
X163111553Y-83572081D01*
X163114000Y-83596928D01*
X163114000Y-84168390D01*
X163029523Y-84213544D01*
X162938360Y-84288360D01*
X162863544Y-84379523D01*
X162838434Y-84426500D01*
X162661566Y-84426500D01*
X162636456Y-84379523D01*
X162561640Y-84288360D01*
X162470477Y-84213544D01*
X162366470Y-84157951D01*
X162253615Y-84123716D01*
X162136250Y-84112157D01*
X161623750Y-84112157D01*
X161506385Y-84123716D01*
X161393530Y-84157951D01*
X161289523Y-84213544D01*
X161198360Y-84288360D01*
X161123544Y-84379523D01*
X161067951Y-84483530D01*
X161033716Y-84596385D01*
X161022157Y-84713750D01*
X161022157Y-85151250D01*
X161033716Y-85268615D01*
X161067951Y-85381470D01*
X161123544Y-85485477D01*
X161198360Y-85576640D01*
X161289523Y-85651456D01*
X161393530Y-85707049D01*
X161436223Y-85720000D01*
X161393530Y-85732951D01*
X161289523Y-85788544D01*
X161198360Y-85863360D01*
X161123544Y-85954523D01*
X161087744Y-86021500D01*
X160901566Y-86021500D01*
X160876456Y-85974523D01*
X160801640Y-85883360D01*
X160710477Y-85808544D01*
X160606470Y-85752951D01*
X160563777Y-85740000D01*
X160606470Y-85727049D01*
X160710477Y-85671456D01*
X160801640Y-85596640D01*
X160876456Y-85505477D01*
X160932049Y-85401470D01*
X160966284Y-85288615D01*
X160977843Y-85171250D01*
X160977843Y-84733750D01*
X160966284Y-84616385D01*
X160932049Y-84503530D01*
X160876456Y-84399523D01*
X160801640Y-84308360D01*
X160710477Y-84233544D01*
X160606470Y-84177951D01*
X160493615Y-84143716D01*
X160376250Y-84132157D01*
X159863750Y-84132157D01*
X159746385Y-84143716D01*
X159633530Y-84177951D01*
X159529523Y-84233544D01*
X159438360Y-84308360D01*
X159363544Y-84399523D01*
X159338434Y-84446500D01*
X159161566Y-84446500D01*
X159136456Y-84399523D01*
X159061640Y-84308360D01*
X158970477Y-84233544D01*
X158886000Y-84188390D01*
X158886000Y-83251000D01*
X159011243Y-83251000D01*
X159249069Y-83203693D01*
X159473097Y-83110898D01*
X159674717Y-82976180D01*
X159846180Y-82804717D01*
X159980898Y-82603097D01*
X160028228Y-82488832D01*
X160085843Y-82651252D01*
X160234822Y-82901355D01*
X160429731Y-83117588D01*
X160663080Y-83291641D01*
X160925901Y-83416825D01*
X161073110Y-83461476D01*
X161303000Y-83340155D01*
X161303000Y-82147000D01*
X161283000Y-82147000D01*
X161283000Y-81893000D01*
X161303000Y-81893000D01*
X161303000Y-80699845D01*
X161073110Y-80578524D01*
X160925901Y-80623175D01*
X160663080Y-80748359D01*
X160429731Y-80922412D01*
X160234822Y-81138645D01*
X160085843Y-81388748D01*
X160028228Y-81551168D01*
X159980898Y-81436903D01*
X159846180Y-81235283D01*
X159674717Y-81063820D01*
X159473097Y-80929102D01*
X159249069Y-80836307D01*
X159011243Y-80789000D01*
X158768757Y-80789000D01*
X158530931Y-80836307D01*
X158306903Y-80929102D01*
X158105283Y-81063820D01*
X157933820Y-81235283D01*
X157799102Y-81436903D01*
X157706307Y-81660931D01*
X157659000Y-81898757D01*
X157659000Y-82141243D01*
X157706307Y-82379069D01*
X157799102Y-82603097D01*
X157874001Y-82715191D01*
X157874000Y-84188390D01*
X157789523Y-84233544D01*
X157698360Y-84308360D01*
X157623544Y-84399523D01*
X157567951Y-84503530D01*
X157533716Y-84616385D01*
X157522157Y-84733750D01*
X157522157Y-85171250D01*
X157533716Y-85288615D01*
X157567951Y-85401470D01*
X157623544Y-85505477D01*
X157698360Y-85596640D01*
X157789523Y-85671456D01*
X157893530Y-85727049D01*
X157936223Y-85740000D01*
X157893530Y-85752951D01*
X157789523Y-85808544D01*
X157698360Y-85883360D01*
X157623544Y-85974523D01*
X157567951Y-86078530D01*
X157533716Y-86191385D01*
X157522157Y-86308750D01*
X157522157Y-86669752D01*
X157519780Y-86672129D01*
X157500474Y-86687973D01*
X157437242Y-86765021D01*
X157418409Y-86800255D01*
X157390255Y-86852926D01*
X157361322Y-86948308D01*
X157351553Y-87047500D01*
X157354001Y-87072356D01*
X157354001Y-87301498D01*
X157253358Y-87402141D01*
X157167887Y-87530058D01*
X157109013Y-87672191D01*
X157079000Y-87823078D01*
X157079000Y-87976922D01*
X157109013Y-88127809D01*
X157167887Y-88269942D01*
X157253358Y-88397859D01*
X157362141Y-88506642D01*
X157490058Y-88592113D01*
X157632191Y-88650987D01*
X157781949Y-88680775D01*
X157771322Y-88715808D01*
X157764000Y-88790147D01*
X157764000Y-88790154D01*
X157761553Y-88815000D01*
X157764000Y-88839846D01*
X157764001Y-96823056D01*
X157764000Y-96823066D01*
X157764000Y-96927167D01*
X157686903Y-96959102D01*
X157485283Y-97093820D01*
X157313820Y-97265283D01*
X157179102Y-97466903D01*
X157086307Y-97690931D01*
X157039000Y-97928757D01*
X156961000Y-97928757D01*
X156913693Y-97690931D01*
X156820898Y-97466903D01*
X156686180Y-97265283D01*
X156514717Y-97093820D01*
X156313097Y-96959102D01*
X156089069Y-96866307D01*
X155851243Y-96819000D01*
X155608757Y-96819000D01*
X155370931Y-96866307D01*
X155146903Y-96959102D01*
X154945283Y-97093820D01*
X154773820Y-97265283D01*
X154639102Y-97466903D01*
X154546307Y-97690931D01*
X154499000Y-97928757D01*
X154421000Y-97928757D01*
X154373693Y-97690931D01*
X154280898Y-97466903D01*
X154146180Y-97265283D01*
X153974717Y-97093820D01*
X153773097Y-96959102D01*
X153549069Y-96866307D01*
X153311243Y-96819000D01*
X153068757Y-96819000D01*
X152830931Y-96866307D01*
X152606903Y-96959102D01*
X152405283Y-97093820D01*
X152233820Y-97265283D01*
X152099102Y-97466903D01*
X152006307Y-97690931D01*
X151959000Y-97928757D01*
X150706000Y-97928757D01*
X150706000Y-85916468D01*
X152183137Y-85916468D01*
X152441298Y-86319073D01*
X152960715Y-86594651D01*
X153523913Y-86763601D01*
X154109250Y-86819430D01*
X154694233Y-86759992D01*
X155256379Y-86587571D01*
X155758702Y-86319073D01*
X156016863Y-85916468D01*
X154100000Y-83999605D01*
X152183137Y-85916468D01*
X150706000Y-85916468D01*
X150706000Y-83829250D01*
X151100570Y-83829250D01*
X151160008Y-84414233D01*
X151332429Y-84976379D01*
X151600927Y-85478702D01*
X152003532Y-85736863D01*
X153920395Y-83820000D01*
X154279605Y-83820000D01*
X156196468Y-85736863D01*
X156599073Y-85478702D01*
X156874651Y-84959285D01*
X157043601Y-84396087D01*
X157099430Y-83810750D01*
X157039992Y-83225767D01*
X156867571Y-82663621D01*
X156599073Y-82161298D01*
X156196468Y-81903137D01*
X154279605Y-83820000D01*
X153920395Y-83820000D01*
X152003532Y-81903137D01*
X151600927Y-82161298D01*
X151325349Y-82680715D01*
X151156399Y-83243913D01*
X151100570Y-83829250D01*
X150706000Y-83829250D01*
X150706000Y-81723532D01*
X152183137Y-81723532D01*
X154100000Y-83640395D01*
X156016863Y-81723532D01*
X155758702Y-81320927D01*
X155239285Y-81045349D01*
X154676087Y-80876399D01*
X154090750Y-80820570D01*
X153505767Y-80880008D01*
X152943621Y-81052429D01*
X152441298Y-81320927D01*
X152183137Y-81723532D01*
X150706000Y-81723532D01*
X150706000Y-80426000D01*
X185764182Y-80426000D01*
X185648645Y-80494822D01*
G36*
X162863544Y-85485477D02*
G01*
X162938360Y-85576640D01*
X163029523Y-85651456D01*
X163133530Y-85707049D01*
X163176223Y-85720000D01*
X163133530Y-85732951D01*
X163029523Y-85788544D01*
X162938360Y-85863360D01*
X162863544Y-85954523D01*
X162807951Y-86058530D01*
X162773716Y-86171385D01*
X162762157Y-86288750D01*
X162762157Y-86726250D01*
X162773716Y-86843615D01*
X162807951Y-86956470D01*
X162863544Y-87060477D01*
X162938360Y-87151640D01*
X163029523Y-87226456D01*
X163114001Y-87271610D01*
X163114001Y-87750407D01*
X162800409Y-88064000D01*
X160608501Y-88064000D01*
X160507859Y-87963358D01*
X160379942Y-87877887D01*
X160237809Y-87819013D01*
X160086922Y-87789000D01*
X160011592Y-87789000D01*
X160460220Y-87340372D01*
X160461326Y-87339464D01*
X160493615Y-87336284D01*
X160606470Y-87302049D01*
X160710477Y-87246456D01*
X160801640Y-87171640D01*
X160876456Y-87080477D01*
X160901566Y-87033500D01*
X161109124Y-87033500D01*
X161123544Y-87060477D01*
X161198360Y-87151640D01*
X161289523Y-87226456D01*
X161393530Y-87282049D01*
X161506385Y-87316284D01*
X161623750Y-87327843D01*
X162136250Y-87327843D01*
X162253615Y-87316284D01*
X162366470Y-87282049D01*
X162470477Y-87226456D01*
X162561640Y-87151640D01*
X162636456Y-87060477D01*
X162692049Y-86956470D01*
X162726284Y-86843615D01*
X162737843Y-86726250D01*
X162737843Y-86288750D01*
X162726284Y-86171385D01*
X162692049Y-86058530D01*
X162636456Y-85954523D01*
X162561640Y-85863360D01*
X162470477Y-85788544D01*
X162366470Y-85732951D01*
X162323777Y-85720000D01*
X162366470Y-85707049D01*
X162470477Y-85651456D01*
X162561640Y-85576640D01*
X162636456Y-85485477D01*
X162661566Y-85438500D01*
X162838434Y-85438500D01*
X162863544Y-85485477D01*
G37*
X162863544Y-85485477D02*
X162938360Y-85576640D01*
X163029523Y-85651456D01*
X163133530Y-85707049D01*
X163176223Y-85720000D01*
X163133530Y-85732951D01*
X163029523Y-85788544D01*
X162938360Y-85863360D01*
X162863544Y-85954523D01*
X162807951Y-86058530D01*
X162773716Y-86171385D01*
X162762157Y-86288750D01*
X162762157Y-86726250D01*
X162773716Y-86843615D01*
X162807951Y-86956470D01*
X162863544Y-87060477D01*
X162938360Y-87151640D01*
X163029523Y-87226456D01*
X163114001Y-87271610D01*
X163114001Y-87750407D01*
X162800409Y-88064000D01*
X160608501Y-88064000D01*
X160507859Y-87963358D01*
X160379942Y-87877887D01*
X160237809Y-87819013D01*
X160086922Y-87789000D01*
X160011592Y-87789000D01*
X160460220Y-87340372D01*
X160461326Y-87339464D01*
X160493615Y-87336284D01*
X160606470Y-87302049D01*
X160710477Y-87246456D01*
X160801640Y-87171640D01*
X160876456Y-87080477D01*
X160901566Y-87033500D01*
X161109124Y-87033500D01*
X161123544Y-87060477D01*
X161198360Y-87151640D01*
X161289523Y-87226456D01*
X161393530Y-87282049D01*
X161506385Y-87316284D01*
X161623750Y-87327843D01*
X162136250Y-87327843D01*
X162253615Y-87316284D01*
X162366470Y-87282049D01*
X162470477Y-87226456D01*
X162561640Y-87151640D01*
X162636456Y-87060477D01*
X162692049Y-86956470D01*
X162726284Y-86843615D01*
X162737843Y-86726250D01*
X162737843Y-86288750D01*
X162726284Y-86171385D01*
X162692049Y-86058530D01*
X162636456Y-85954523D01*
X162561640Y-85863360D01*
X162470477Y-85788544D01*
X162366470Y-85732951D01*
X162323777Y-85720000D01*
X162366470Y-85707049D01*
X162470477Y-85651456D01*
X162561640Y-85576640D01*
X162636456Y-85485477D01*
X162661566Y-85438500D01*
X162838434Y-85438500D01*
X162863544Y-85485477D01*
G36*
X175662951Y-90296470D02*
G01*
X175718544Y-90400477D01*
X175793360Y-90491640D01*
X175884523Y-90566456D01*
X175931500Y-90591566D01*
X175931501Y-91578434D01*
X175884523Y-91603544D01*
X175874134Y-91612070D01*
X175830537Y-91530506D01*
X175751185Y-91433815D01*
X175654494Y-91354463D01*
X175544180Y-91295498D01*
X175424482Y-91259188D01*
X175300000Y-91246928D01*
X175148250Y-91250000D01*
X174989500Y-91408750D01*
X174989500Y-92233000D01*
X175009500Y-92233000D01*
X175009500Y-92487000D01*
X174989500Y-92487000D01*
X174989500Y-93311250D01*
X175148250Y-93470000D01*
X175300000Y-93473072D01*
X175424482Y-93460812D01*
X175544180Y-93424502D01*
X175654494Y-93365537D01*
X175751185Y-93286185D01*
X175830537Y-93189494D01*
X175874134Y-93107930D01*
X175884523Y-93116456D01*
X175931500Y-93141566D01*
X175931501Y-94537000D01*
X175857859Y-94463358D01*
X175729942Y-94377887D01*
X175587809Y-94319013D01*
X175436922Y-94289000D01*
X175283078Y-94289000D01*
X175132191Y-94319013D01*
X174990058Y-94377887D01*
X174862141Y-94463358D01*
X174761499Y-94564000D01*
X171158501Y-94564000D01*
X171057859Y-94463358D01*
X170929942Y-94377887D01*
X170787809Y-94319013D01*
X170636922Y-94289000D01*
X170483078Y-94289000D01*
X170332191Y-94319013D01*
X170190058Y-94377887D01*
X170062141Y-94463358D01*
X169953358Y-94572141D01*
X169867887Y-94700058D01*
X169809013Y-94842191D01*
X169787241Y-94951649D01*
X169406000Y-94570409D01*
X169406000Y-92706890D01*
X170398524Y-92706890D01*
X170443175Y-92854099D01*
X170568359Y-93116920D01*
X170742412Y-93350269D01*
X170958645Y-93545178D01*
X171208748Y-93694157D01*
X171483109Y-93791481D01*
X171713000Y-93670814D01*
X171713000Y-92477000D01*
X171967000Y-92477000D01*
X171967000Y-93670814D01*
X172196891Y-93791481D01*
X172471252Y-93694157D01*
X172721355Y-93545178D01*
X172937588Y-93350269D01*
X173111641Y-93116920D01*
X173236825Y-92854099D01*
X173242618Y-92835000D01*
X173786928Y-92835000D01*
X173799188Y-92959482D01*
X173835498Y-93079180D01*
X173894463Y-93189494D01*
X173973815Y-93286185D01*
X174070506Y-93365537D01*
X174180820Y-93424502D01*
X174300518Y-93460812D01*
X174425000Y-93473072D01*
X174576750Y-93470000D01*
X174735500Y-93311250D01*
X174735500Y-92487000D01*
X173948750Y-92487000D01*
X173790000Y-92645750D01*
X173786928Y-92835000D01*
X173242618Y-92835000D01*
X173281476Y-92706890D01*
X173160155Y-92477000D01*
X171967000Y-92477000D01*
X171713000Y-92477000D01*
X170519845Y-92477000D01*
X170398524Y-92706890D01*
X169406000Y-92706890D01*
X169406000Y-91039591D01*
X170129592Y-90316000D01*
X170717168Y-90316000D01*
X170749102Y-90393097D01*
X170883820Y-90594717D01*
X171055283Y-90766180D01*
X171256903Y-90900898D01*
X171371168Y-90948228D01*
X171208748Y-91005843D01*
X170958645Y-91154822D01*
X170742412Y-91349731D01*
X170568359Y-91583080D01*
X170443175Y-91845901D01*
X170398524Y-91993110D01*
X170519845Y-92223000D01*
X171713000Y-92223000D01*
X171713000Y-92203000D01*
X171967000Y-92203000D01*
X171967000Y-92223000D01*
X173160155Y-92223000D01*
X173281476Y-91993110D01*
X173248685Y-91885000D01*
X173786928Y-91885000D01*
X173790000Y-92074250D01*
X173948750Y-92233000D01*
X174735500Y-92233000D01*
X174735500Y-91408750D01*
X174576750Y-91250000D01*
X174425000Y-91246928D01*
X174300518Y-91259188D01*
X174180820Y-91295498D01*
X174070506Y-91354463D01*
X173973815Y-91433815D01*
X173894463Y-91530506D01*
X173835498Y-91640820D01*
X173799188Y-91760518D01*
X173786928Y-91885000D01*
X173248685Y-91885000D01*
X173236825Y-91845901D01*
X173111641Y-91583080D01*
X172937588Y-91349731D01*
X172721355Y-91154822D01*
X172471252Y-91005843D01*
X172308832Y-90948228D01*
X172423097Y-90900898D01*
X172624717Y-90766180D01*
X172796180Y-90594717D01*
X172930898Y-90393097D01*
X172962832Y-90316000D01*
X174098390Y-90316000D01*
X174143544Y-90400477D01*
X174218360Y-90491640D01*
X174309523Y-90566456D01*
X174413530Y-90622049D01*
X174526385Y-90656284D01*
X174643750Y-90667843D01*
X175081250Y-90667843D01*
X175198615Y-90656284D01*
X175311470Y-90622049D01*
X175415477Y-90566456D01*
X175506640Y-90491640D01*
X175581456Y-90400477D01*
X175637049Y-90296470D01*
X175650000Y-90253777D01*
X175662951Y-90296470D01*
G37*
X175662951Y-90296470D02*
X175718544Y-90400477D01*
X175793360Y-90491640D01*
X175884523Y-90566456D01*
X175931500Y-90591566D01*
X175931501Y-91578434D01*
X175884523Y-91603544D01*
X175874134Y-91612070D01*
X175830537Y-91530506D01*
X175751185Y-91433815D01*
X175654494Y-91354463D01*
X175544180Y-91295498D01*
X175424482Y-91259188D01*
X175300000Y-91246928D01*
X175148250Y-91250000D01*
X174989500Y-91408750D01*
X174989500Y-92233000D01*
X175009500Y-92233000D01*
X175009500Y-92487000D01*
X174989500Y-92487000D01*
X174989500Y-93311250D01*
X175148250Y-93470000D01*
X175300000Y-93473072D01*
X175424482Y-93460812D01*
X175544180Y-93424502D01*
X175654494Y-93365537D01*
X175751185Y-93286185D01*
X175830537Y-93189494D01*
X175874134Y-93107930D01*
X175884523Y-93116456D01*
X175931500Y-93141566D01*
X175931501Y-94537000D01*
X175857859Y-94463358D01*
X175729942Y-94377887D01*
X175587809Y-94319013D01*
X175436922Y-94289000D01*
X175283078Y-94289000D01*
X175132191Y-94319013D01*
X174990058Y-94377887D01*
X174862141Y-94463358D01*
X174761499Y-94564000D01*
X171158501Y-94564000D01*
X171057859Y-94463358D01*
X170929942Y-94377887D01*
X170787809Y-94319013D01*
X170636922Y-94289000D01*
X170483078Y-94289000D01*
X170332191Y-94319013D01*
X170190058Y-94377887D01*
X170062141Y-94463358D01*
X169953358Y-94572141D01*
X169867887Y-94700058D01*
X169809013Y-94842191D01*
X169787241Y-94951649D01*
X169406000Y-94570409D01*
X169406000Y-92706890D01*
X170398524Y-92706890D01*
X170443175Y-92854099D01*
X170568359Y-93116920D01*
X170742412Y-93350269D01*
X170958645Y-93545178D01*
X171208748Y-93694157D01*
X171483109Y-93791481D01*
X171713000Y-93670814D01*
X171713000Y-92477000D01*
X171967000Y-92477000D01*
X171967000Y-93670814D01*
X172196891Y-93791481D01*
X172471252Y-93694157D01*
X172721355Y-93545178D01*
X172937588Y-93350269D01*
X173111641Y-93116920D01*
X173236825Y-92854099D01*
X173242618Y-92835000D01*
X173786928Y-92835000D01*
X173799188Y-92959482D01*
X173835498Y-93079180D01*
X173894463Y-93189494D01*
X173973815Y-93286185D01*
X174070506Y-93365537D01*
X174180820Y-93424502D01*
X174300518Y-93460812D01*
X174425000Y-93473072D01*
X174576750Y-93470000D01*
X174735500Y-93311250D01*
X174735500Y-92487000D01*
X173948750Y-92487000D01*
X173790000Y-92645750D01*
X173786928Y-92835000D01*
X173242618Y-92835000D01*
X173281476Y-92706890D01*
X173160155Y-92477000D01*
X171967000Y-92477000D01*
X171713000Y-92477000D01*
X170519845Y-92477000D01*
X170398524Y-92706890D01*
X169406000Y-92706890D01*
X169406000Y-91039591D01*
X170129592Y-90316000D01*
X170717168Y-90316000D01*
X170749102Y-90393097D01*
X170883820Y-90594717D01*
X171055283Y-90766180D01*
X171256903Y-90900898D01*
X171371168Y-90948228D01*
X171208748Y-91005843D01*
X170958645Y-91154822D01*
X170742412Y-91349731D01*
X170568359Y-91583080D01*
X170443175Y-91845901D01*
X170398524Y-91993110D01*
X170519845Y-92223000D01*
X171713000Y-92223000D01*
X171713000Y-92203000D01*
X171967000Y-92203000D01*
X171967000Y-92223000D01*
X173160155Y-92223000D01*
X173281476Y-91993110D01*
X173248685Y-91885000D01*
X173786928Y-91885000D01*
X173790000Y-92074250D01*
X173948750Y-92233000D01*
X174735500Y-92233000D01*
X174735500Y-91408750D01*
X174576750Y-91250000D01*
X174425000Y-91246928D01*
X174300518Y-91259188D01*
X174180820Y-91295498D01*
X174070506Y-91354463D01*
X173973815Y-91433815D01*
X173894463Y-91530506D01*
X173835498Y-91640820D01*
X173799188Y-91760518D01*
X173786928Y-91885000D01*
X173248685Y-91885000D01*
X173236825Y-91845901D01*
X173111641Y-91583080D01*
X172937588Y-91349731D01*
X172721355Y-91154822D01*
X172471252Y-91005843D01*
X172308832Y-90948228D01*
X172423097Y-90900898D01*
X172624717Y-90766180D01*
X172796180Y-90594717D01*
X172930898Y-90393097D01*
X172962832Y-90316000D01*
X174098390Y-90316000D01*
X174143544Y-90400477D01*
X174218360Y-90491640D01*
X174309523Y-90566456D01*
X174413530Y-90622049D01*
X174526385Y-90656284D01*
X174643750Y-90667843D01*
X175081250Y-90667843D01*
X175198615Y-90656284D01*
X175311470Y-90622049D01*
X175415477Y-90566456D01*
X175506640Y-90491640D01*
X175581456Y-90400477D01*
X175637049Y-90296470D01*
X175650000Y-90253777D01*
X175662951Y-90296470D01*
M02*
